<?xml version="1.0" encoding="UTF-8"?>
<!DOCTYPE svg PUBLIC "-//W3C//DTD SVG 1.1//EN" "http://www.w3.org/Graphics/SVG/1.1/DTD/svg11.dtd">
<svg xmlns="http://www.w3.org/2000/svg" version="1.1" width="696px" height="504px" style="shape-rendering:geometricPrecision; text-rendering:geometricPrecision; image-rendering:optimizeQuality; fill-rule:evenodd; clip-rule:evenodd" xmlns:xlink="http://www.w3.org/1999/xlink">
<g><path style="opacity:0.963" fill="#000000" d="M 399.5,20.5 C 401.288,21.6225 403.288,21.7891 405.5,21C 404.663,19.9887 404.33,18.8221 404.5,17.5C 411.469,17.5781 418.136,18.9114 424.5,21.5C 427.755,20.3594 431.089,19.5261 434.5,19C 461.718,18.453 488.718,16.453 515.5,13C 531.178,12.3743 546.844,11.541 562.5,10.5C 581.164,12.658 599.997,13.9913 619,14.5C 622.073,14.2414 624.739,13.2414 627,11.5C 632.283,12.6343 637.45,14.1343 642.5,16C 644.097,18.0259 645.097,20.3592 645.5,23C 645,24.8333 643.833,26 642,26.5C 640.907,24.7018 639.407,23.8685 637.5,24C 636.88,26.4728 636.214,28.9728 635.5,31.5C 633.36,28.9387 631.027,26.6054 628.5,24.5C 628.167,25.5 627.833,26.5 627.5,27.5C 628.871,29.6811 629.871,32.0144 630.5,34.5C 628.801,34.6602 627.134,34.4935 625.5,34C 622.583,30.7993 619.583,30.7993 616.5,34C 617.772,35.3068 618.772,36.8068 619.5,38.5C 620.308,38.1924 620.975,37.6924 621.5,37C 625.167,36.6667 628.833,36.3333 632.5,36C 633.713,33.6743 635.046,33.3409 636.5,35C 635.275,40.042 632.275,41.7087 627.5,40C 623.859,43.3049 620.192,46.6383 616.5,50C 621.066,51.3092 625.733,51.8092 630.5,51.5C 631.168,57.188 630.168,62.5213 627.5,67.5C 625.453,69.0152 623.119,69.8485 620.5,70C 576.167,70.3333 531.833,70.6667 487.5,71C 471.95,71.502 456.617,73.502 441.5,77C 439.366,79.8895 437.699,83.0561 436.5,86.5C 435.167,86.8333 433.833,87.1667 432.5,87.5C 413.781,85.8268 395.114,83.6602 376.5,81C 337.486,78.9883 298.486,79.3216 259.5,82C 222.237,85.4433 184.903,87.9433 147.5,89.5C 141.258,88.1218 135.091,88.4551 129,90.5C 127.177,90.1128 125.343,89.7794 123.5,89.5C 104.172,91.3632 84.8388,93.1965 65.5,95C 55.1398,95.7333 44.8065,95.5666 34.5,94.5C 34.6709,92.0072 33.6709,90.1739 31.5,89C 24.4486,88.7887 17.4486,88.122 10.5,87C 6.24358,75.4033 6.91025,64.0699 12.5,53C 11.9186,52.1074 11.5852,51.1074 11.5,50C 13.0937,44.312 13.9271,38.4787 14,32.5C 14.5194,31.4844 15.3527,30.8178 16.5,30.5C 22.4215,32.0515 28.0882,31.3849 33.5,28.5C 39.2852,29.1458 45.1185,29.4792 51,29.5C 74.4938,28.293 97.9938,27.293 121.5,26.5C 124.495,27.7344 127.162,27.401 129.5,25.5C 130.647,25.8178 131.481,26.4844 132,27.5C 135.17,24.3929 138.837,23.7263 143,25.5C 143.5,25 144,24.5 144.5,24C 148.819,23.2401 153.152,22.5735 157.5,22C 171.884,21.3186 186.218,20.152 200.5,18.5C 202.187,18.7605 203.687,19.4272 205,20.5C 206.153,18.503 207.653,18.1696 209.5,19.5C 208.494,20.3957 208.494,21.0623 209.5,21.5C 211.276,20.6852 211.943,19.5185 211.5,18C 213.259,17.2025 214.926,17.3691 216.5,18.5C 216.291,19.086 215.957,19.586 215.5,20C 218.095,20.2256 220.595,20.7256 223,21.5C 225.024,19.1157 227.191,18.949 229.5,21C 228.672,21.9147 227.672,22.5814 226.5,23C 227.167,23.1667 227.833,23.3333 228.5,23.5C 231.5,22.1667 234.5,20.8333 237.5,19.5C 240.415,19.8908 242.749,21.2241 244.5,23.5C 245.5,23 246.5,22.5 247.5,22C 245.714,21.8038 244.381,20.9705 243.5,19.5C 249.463,18.5041 255.463,18.1707 261.5,18.5C 261.746,21.4701 263.412,22.8034 266.5,22.5C 266.35,18.8388 267.85,17.8388 271,19.5C 271.49,20.7932 271.657,22.1266 271.5,23.5C 296.072,23.9609 321.239,23.9609 347,23.5C 354.41,23.0427 361.743,22.0427 369,20.5C 372.305,21.7231 375.305,21.3898 378,19.5C 379.95,20.2825 381.783,21.2825 383.5,22.5C 386.82,22.3618 388.487,20.6951 388.5,17.5C 392.298,18.1544 395.964,19.1544 399.5,20.5 Z M 254.5,20.5 C 255.774,21.1894 255.774,22.0228 254.5,23C 253.275,23.5628 252.275,23.2295 251.5,22C 252.737,21.7679 253.737,21.2679 254.5,20.5 Z M 203.5,26.5 C 201.645,26.728 200.812,26.0613 201,24.5C 201.995,25.0659 202.828,25.7326 203.5,26.5 Z M 203.5,26.5 C 205.017,26.4894 206.184,25.8228 207,24.5C 208.491,26.0037 210.324,26.8371 212.5,27C 209.304,27.8045 206.304,27.6378 203.5,26.5 Z M 216.5,26.5 C 218.435,25.291 220.435,25.4577 222.5,27C 220.455,27.4901 218.455,27.3235 216.5,26.5 Z"/></g>
<g><path style="opacity:0.258" fill="#000000" d="M 372.5,16.5 C 373.978,16.238 375.311,16.5713 376.5,17.5C 375.081,19.9146 373.415,20.0813 371.5,18C 372.056,17.6174 372.389,17.1174 372.5,16.5 Z"/></g>
<g><path style="opacity:0.186" fill="#000000" d="M 381.5,17.5 C 382.833,17.5 384.167,17.5 385.5,17.5C 385.5,18.5 385.5,19.5 385.5,20.5C 383.027,20.9118 381.694,19.9118 381.5,17.5 Z"/></g>
<g><path style="opacity:0.383" fill="#000000" d="M 399.5,20.5 C 399.5,19.5 399.5,18.5 399.5,17.5C 401.346,17.2222 402.68,17.8888 403.5,19.5C 402.311,20.4287 400.978,20.762 399.5,20.5 Z"/></g>
<g><path style="opacity:0.382" fill="#000000" d="M 627.5,44.5 C 628.519,42.8985 630.019,41.8985 632,41.5C 635.069,42.8745 635.236,44.5412 632.5,46.5C 631.15,45.0499 629.484,44.3832 627.5,44.5 Z"/></g>
<g><path style="opacity:0.385" fill="#000000" d="M 627.5,44.5 C 627.5,45.8333 627.5,47.1667 627.5,48.5C 625.654,48.7778 624.32,48.1112 623.5,46.5C 624.32,44.8888 625.654,44.2222 627.5,44.5 Z"/></g>
<g><path style="opacity:0.963" fill="#000000" d="M 660.5,207.5 C 664.792,207.035 668.792,207.868 672.5,210C 673.63,212.428 675.13,214.595 677,216.5C 677.52,218.289 677.187,219.956 676,221.5C 673.982,223.35 672.149,225.35 670.5,227.5C 672.106,230.757 671.106,232.924 667.5,234C 668.173,236.859 669.007,239.692 670,242.5C 673.15,240.839 674.65,241.839 674.5,245.5C 676.199,245.34 677.866,245.506 679.5,246C 681.712,250.526 685.379,252.859 690.5,253C 692.211,254.133 692.711,255.633 692,257.5C 687.369,257.94 682.702,258.273 678,258.5C 677.167,258.167 676.333,257.833 675.5,257.5C 676.364,255.803 677.697,254.637 679.5,254C 679,253.5 678.5,253 678,252.5C 674.763,254.58 671.263,256.08 667.5,257C 663.969,259.525 661.635,262.859 660.5,267C 657.389,268.722 654.056,269.555 650.5,269.5C 601.177,268.357 551.843,268.19 502.5,269C 407.482,271.36 312.482,274.36 217.5,278C 180.452,280.398 143.452,283.398 106.5,287C 79.4802,287.872 52.4802,287.539 25.5,286C 20.2427,284.85 17.5761,281.517 17.5,276C 18.6236,264.473 19.9569,252.973 21.5,241.5C 23.8277,239.426 23.1611,238.426 19.5,238.5C 19.2437,236.063 18.5771,233.729 17.5,231.5C 17.8655,230.098 18.6988,229.098 20,228.5C 24.6387,226.889 29.1387,225.055 33.5,223C 37.8661,222.114 42.0328,222.614 46,224.5C 46.7625,221.53 48.2625,219.03 50.5,217C 55.6773,215.198 61.0106,214.365 66.5,214.5C 93.966,216.187 121.466,217.187 149,217.5C 158.393,216.992 167.726,216.992 177,217.5C 186.263,215.463 195.597,215.13 205,216.5C 209.654,215.752 214.32,215.085 219,214.5C 225.324,214.571 231.658,214.904 238,215.5C 242.658,212.919 247.325,212.919 252,215.5C 256.84,214.866 261.674,214.199 266.5,213.5C 267.833,214.167 269.167,214.833 270.5,215.5C 278.138,214.597 285.804,213.931 293.5,213.5C 309.992,213.728 326.492,214.062 343,214.5C 345.092,212.093 347.092,212.093 349,214.5C 350.18,213.316 351.68,212.649 353.5,212.5C 357.486,213.489 361.486,214.489 365.5,215.5C 366.646,214.855 367.646,214.022 368.5,213C 374.667,212.833 380.833,212.667 387,212.5C 405.249,212.646 423.415,212.646 441.5,212.5C 449.182,213.025 456.849,213.692 464.5,214.5C 473.768,212.978 483.101,211.645 492.5,210.5C 493.949,211.28 495.449,211.946 497,212.5C 512.662,211.817 528.328,211.15 544,210.5C 550.502,210.562 557.002,210.895 563.5,211.5C 566.959,210.696 570.459,210.029 574,209.5C 575.326,209.755 576.326,210.422 577,211.5C 579.041,210.248 581.375,209.581 584,209.5C 609.622,210.842 635.122,210.175 660.5,207.5 Z M 482.5,222.5 C 486.339,222.612 486.339,223.279 482.5,224.5C 481.537,224.03 481.537,223.363 482.5,222.5 Z M 473.5,224.5 C 475.337,224.639 475.67,225.306 474.5,226.5C 473.702,226.043 473.369,225.376 473.5,224.5 Z M 507.5,224.5 C 510.813,225.045 514.146,225.545 517.5,226C 513.833,226.667 510.167,226.667 506.5,226C 507.056,225.617 507.389,225.117 507.5,224.5 Z M 668.5,249.5 C 680.494,250.499 680.494,251.499 668.5,252.5C 667.438,251.575 667.438,250.575 668.5,249.5 Z"/></g>
<g><path style="opacity:0.953" fill="#000000" d="M 657.5,416.5 C 666.145,416.522 674.479,418.022 682.5,421C 686.358,423.358 689.358,426.525 691.5,430.5C 690.391,432.385 689.557,434.385 689,436.5C 686.931,437.264 684.764,437.764 682.5,438C 684.282,440.243 684.782,442.743 684,445.5C 680.683,447.135 677.183,448.301 673.5,449C 679.685,450.029 681.685,453.529 679.5,459.5C 677.175,458.231 674.841,456.898 672.5,455.5C 669.292,455.188 668.292,456.355 669.5,459C 674.041,459.376 676.375,461.876 676.5,466.5C 675.003,470.162 673.503,473.828 672,477.5C 669.808,479.235 667.308,480.402 664.5,481C 640.537,482.736 616.537,483.736 592.5,484C 569.833,486 547.166,488 524.5,490C 447.338,491.121 370.171,491.955 293,492.5C 253.426,492.313 213.76,491.98 174,491.5C 129.81,492.105 85.6436,493.438 41.5,495.5C 34.8333,495.333 28.1667,495.167 21.5,495C 19.8988,494.727 18.3988,494.227 17,493.5C 17.9245,488.43 18.7578,483.263 19.5,478C 19.6076,474.762 18.941,471.762 17.5,469C 18.4721,466.218 19.3054,463.385 20,460.5C 20.5,459.333 21.3333,458.5 22.5,458C 21.8617,456.293 21.8617,454.46 22.5,452.5C 19.4121,452.633 17.4121,451.3 16.5,448.5C 18.3877,438.924 24.0543,434.924 33.5,436.5C 35.0914,433.916 37.4247,432.583 40.5,432.5C 43.1497,432.965 45.8163,433.298 48.5,433.5C 71.8474,432.011 95.1807,430.511 118.5,429C 119.108,428.13 119.941,427.63 121,427.5C 127.174,429.258 133.007,428.592 138.5,425.5C 139.852,426.896 141.519,427.563 143.5,427.5C 147.16,426.18 150.827,424.847 154.5,423.5C 155.852,424.896 157.519,425.563 159.5,425.5C 162.958,424.903 166.291,423.903 169.5,422.5C 170.851,423.366 171.684,424.366 172,425.5C 172.316,424.366 173.149,423.366 174.5,422.5C 175.647,422.818 176.481,423.484 177,424.5C 179,421.833 181,421.833 183,424.5C 187.549,420.592 192.216,420.592 197,424.5C 200.335,421.593 203.835,421.259 207.5,423.5C 215.007,420.091 222.674,419.758 230.5,422.5C 229.975,423.192 229.308,423.692 228.5,424C 230.81,424.497 233.143,424.663 235.5,424.5C 235.5,423.5 235.5,422.5 235.5,421.5C 237.143,421.48 238.476,422.147 239.5,423.5C 243.332,423.101 247.165,422.768 251,422.5C 252.865,422.706 254.532,423.372 256,424.5C 257,423.833 258,423.167 259,422.5C 260.826,423.01 260.993,423.844 259.5,425C 261.847,425.436 264.181,425.936 266.5,426.5C 269.924,424.761 273.424,424.427 277,425.5C 280.078,423.17 283.245,423.17 286.5,425.5C 289.437,423.824 292.437,423.157 295.5,423.5C 299.028,425.636 302.695,425.969 306.5,424.5C 307.333,425.5 308.167,426.5 309,427.5C 313.166,425.597 317.666,424.597 322.5,424.5C 324.1,424.551 325.6,424.884 327,425.5C 328.049,423.893 329.549,423.227 331.5,423.5C 331.281,424.675 331.614,425.675 332.5,426.5C 333.603,424.896 335.103,423.896 337,423.5C 339.175,424.625 341.509,425.292 344,425.5C 349.344,424.354 354.678,424.354 360,425.5C 362.379,425.518 364.546,424.851 366.5,423.5C 367.167,424.5 367.833,425.5 368.5,426.5C 369.249,424.988 370.416,423.988 372,423.5C 378.048,425.69 384.215,426.024 390.5,424.5C 397.183,426.985 403.85,426.985 410.5,424.5C 414.716,424.385 416.883,426.385 417,430.5C 417.483,429.552 417.649,428.552 417.5,427.5C 420.85,427.665 424.183,427.498 427.5,427C 424.932,425.603 425.099,424.436 428,423.5C 429.497,424.477 430.997,425.477 432.5,426.5C 438.637,425.869 444.971,425.202 451.5,424.5C 451.5,425.5 451.5,426.5 451.5,427.5C 455.257,427.071 458.757,427.737 462,429.5C 465.857,425.98 470.024,425.647 474.5,428.5C 481.119,427.337 487.786,426.837 494.5,427C 496.29,430.613 498.29,430.946 500.5,428C 508.932,425.496 517.099,425.996 525,429.5C 525.479,427.354 526.812,426.354 529,426.5C 531.763,426.918 534.43,427.584 537,428.5C 539.803,425.898 542.636,425.898 545.5,428.5C 548.04,426.861 550.207,427.194 552,429.5C 553.312,427.342 554.978,427.009 557,428.5C 561.007,427.059 565.174,426.226 569.5,426C 597.782,424.278 626.116,421.945 654.5,419C 655.942,418.623 656.942,417.79 657.5,416.5 Z M 241.5,426.5 C 243.199,426.34 244.866,426.506 246.5,427C 239.872,429.591 240.205,431.424 247.5,432.5C 245.257,433.474 242.924,433.808 240.5,433.5C 240.762,432.022 240.429,430.689 239.5,429.5C 238.5,430.833 237.5,432.167 236.5,433.5C 235.494,433.062 235.494,432.396 236.5,431.5C 235.5,430.667 234.5,429.833 233.5,429C 236.675,429.053 239.342,428.22 241.5,426.5 Z M 279.5,426.5 C 281.359,426.461 282.692,427.294 283.5,429C 281.43,429.948 279.93,431.448 279,433.5C 267.777,432.381 267.944,431.381 279.5,430.5C 279.5,429.167 279.5,427.833 279.5,426.5 Z M 183.5,427.5 C 186.167,427.5 188.833,427.5 191.5,427.5C 192.733,431.132 195.399,432.798 199.5,432.5C 199.719,433.675 199.386,434.675 198.5,435.5C 196.415,434.229 194.248,433.229 192,432.5C 190.11,432.785 188.777,433.785 188,435.5C 185.366,433.441 182.866,431.275 180.5,429C 181.737,428.768 182.737,428.268 183.5,427.5 Z M 263.5,427.5 C 264.573,428.251 264.74,429.251 264,430.5C 262.601,429.773 261.101,429.273 259.5,429C 261.058,428.79 262.391,428.29 263.5,427.5 Z M 170.5,428.5 C 172.06,428.519 173.56,428.852 175,429.5C 176.194,431.024 177.694,432.19 179.5,433C 178.833,433.167 178.167,433.333 177.5,433.5C 175.125,431.699 172.792,430.032 170.5,428.5 Z M 210.5,428.5 C 211.653,429.313 211.653,430.313 210.5,431.5C 211.025,432.192 211.692,432.692 212.5,433C 210.339,433.722 208.672,433.055 207.5,431C 208.942,430.623 209.942,429.79 210.5,428.5 Z M 138.5,430.5 C 144.683,430.233 144.85,431.567 139,434.5C 138.5,434.333 138,434.167 137.5,434C 138.337,432.989 138.67,431.822 138.5,430.5 Z M 166.5,432.5 C 166.639,430.663 167.306,430.33 168.5,431.5C 168.043,432.298 167.376,432.631 166.5,432.5 Z M 287.5,431.5 C 287.483,433.028 286.816,433.528 285.5,433C 286.044,432.283 286.711,431.783 287.5,431.5 Z M 296.5,432.5 C 298.983,432.73 299.483,433.397 298,434.5C 296.97,434.164 296.47,433.497 296.5,432.5 Z M 679.5,438.5 C 680.404,439.209 680.737,440.209 680.5,441.5C 675.548,441.81 675.214,440.81 679.5,438.5 Z"/></g>
<g><path style="opacity:0.285" fill="#000000" d="M 597.5,419.5 C 599.977,419.051 601.977,419.717 603.5,421.5C 601.926,422.631 600.259,422.798 598.5,422C 597.748,421.329 597.414,420.496 597.5,419.5 Z"/></g>
<g><path style="opacity:0.318" fill="#000000" d="M 184.5,428.5 C 186.346,428.222 187.68,428.889 188.5,430.5C 187.311,431.429 185.978,431.762 184.5,431.5C 184.5,430.5 184.5,429.5 184.5,428.5 Z"/></g>
</svg>
