<?xml version="1.0" encoding="UTF-8"?>
<!DOCTYPE svg PUBLIC "-//W3C//DTD SVG 1.1//EN" "http://www.w3.org/Graphics/SVG/1.1/DTD/svg11.dtd">
<svg xmlns="http://www.w3.org/2000/svg" version="1.1" width="730px" height="515px" style="shape-rendering:geometricPrecision; text-rendering:geometricPrecision; image-rendering:optimizeQuality; fill-rule:evenodd; clip-rule:evenodd" xmlns:xlink="http://www.w3.org/1999/xlink">
<g><path style="opacity:1" fill="#fbfbfb" d="M 563.5,-0.5 C 580.833,-0.5 598.167,-0.5 615.5,-0.5C 615.973,0.906316 616.973,1.57298 618.5,1.5C 629.654,2.49477 640.988,2.8281 652.5,2.5C 653.833,2.5 655.167,2.5 656.5,2.5C 658.456,0.851593 660.789,0.184927 663.5,0.5C 664.959,0.432553 666.292,0.765886 667.5,1.5C 669.5,1.83333 671.5,2.16667 673.5,2.5C 673.973,3.90632 674.973,4.57298 676.5,4.5C 676.427,6.02694 677.094,7.02694 678.5,7.5C 678.5,8.16667 678.5,8.83333 678.5,9.5C 678.833,12.5 677.5,13.8333 674.5,13.5C 672.577,10.7822 671.244,11.1155 670.5,14.5C 669.833,15.8333 669.167,17.1667 668.5,18.5C 667.167,17.8333 666.167,16.8333 665.5,15.5C 665.027,14.0937 664.027,13.427 662.5,13.5C 661.5,12.1667 660.5,12.1667 659.5,13.5C 658.963,16.9721 659.963,19.8055 662.5,22C 660.311,22.322 658.311,21.822 656.5,20.5C 655.167,20.5 653.833,20.5 652.5,20.5C 650.052,20.0847 648.719,21.0847 648.5,23.5C 649.396,25.336 650.396,27.0026 651.5,28.5C 654.608,27.0047 657.941,26.0047 661.5,25.5C 662.416,25.5427 663.083,25.8761 663.5,26.5C 664.88,27.1903 666.214,27.5236 667.5,27.5C 666.051,28.1719 664.718,28.8386 663.5,29.5C 660.892,29.4003 658.558,30.0669 656.5,31.5C 654.5,31.5 653.5,32.5 653.5,34.5C 652.7,36.5735 651.367,38.2402 649.5,39.5C 648.957,39.56 648.624,39.8933 648.5,40.5C 649.689,41.4287 651.022,41.762 652.5,41.5C 654.957,41.7923 657.624,41.7923 660.5,41.5C 661.172,42.2674 662.005,42.9341 663,43.5C 663.497,45.8098 663.663,48.1432 663.5,50.5C 663.974,55.9565 661.641,59.4565 656.5,61C 615.167,61.3333 573.833,61.6667 532.5,62C 516.136,62.4241 499.803,63.2575 483.5,64.5C 481.214,64.595 479.214,65.2616 477.5,66.5C 476.5,66.5 475.5,66.5 474.5,66.5C 471.482,66.3354 468.482,66.502 465.5,67C 463.563,67.1216 462.23,67.955 461.5,69.5C 460.094,69.9731 459.427,70.9731 459.5,72.5C 458.094,72.9731 457.427,73.9731 457.5,75.5C 457.443,76.609 457.11,77.609 456.5,78.5C 448.149,78.5185 439.816,78.1852 431.5,77.5C 426.833,77.1667 422.167,76.8333 417.5,76.5C 417.389,75.8826 417.056,75.3826 416.5,75C 410.535,74.0368 404.535,73.5368 398.5,73.5C 351.824,72.0863 305.158,72.4196 258.5,74.5C 251.809,74.4542 245.143,74.7875 238.5,75.5C 232.57,75.1282 226.903,75.7949 221.5,77.5C 212.213,78.7527 202.88,79.586 193.5,80C 149.033,80.5066 104.7,83.1733 60.5,88C 50.4229,88.8066 40.4229,88.64 30.5,87.5C 29.8333,86.1667 28.8333,85.1667 27.5,84.5C 27.0472,83.5416 26.3805,82.7083 25.5,82C 19.899,80.7832 14.2324,80.2832 8.5,80.5C 6.32055,79.3228 3.98722,78.3228 1.5,77.5C 0.596028,76.791 0.262695,75.791 0.5,74.5C 0.236276,67.1104 0.56961,59.7771 1.5,52.5C 1.5,51.8333 1.5,51.1667 1.5,50.5C 4.52597,47.0131 5.19264,43.0131 3.5,38.5C 4.93044,32.3879 5.93044,26.2213 6.5,20C 12.153,20.7556 17.8197,20.5889 23.5,19.5C 32.3494,19.8264 41.0161,19.493 49.5,18.5C 55.8097,17.8096 62.143,17.4763 68.5,17.5C 87.3497,17.5399 106.016,16.8732 124.5,15.5C 125.5,15.5 126.5,15.5 127.5,15.5C 128.391,14.8902 129.391,14.5569 130.5,14.5C 131.117,14.6107 131.617,14.944 132,15.5C 135.706,12.2992 139.873,11.6325 144.5,13.5C 148.36,13.1916 152.026,12.5249 155.5,11.5C 161.034,11.3315 166.367,10.6649 171.5,9.5C 175.857,9.41355 180.19,9.08021 184.5,8.5C 192.684,8.82572 200.684,8.49239 208.5,7.5C 209.167,7.5 209.833,7.5 210.5,7.5C 211.791,7.26269 212.791,7.59603 213.5,8.5C 213.842,9.33825 214.508,9.67158 215.5,9.5C 219.931,9.23071 224.265,9.56404 228.5,10.5C 228.833,10.5 229.167,10.5 229.5,10.5C 230.117,10.3893 230.617,10.056 231,9.5C 231.278,10.4158 231.778,11.0825 232.5,11.5C 232.833,11.5 233.167,11.5 233.5,11.5C 233.446,13.1937 233.446,14.8604 233.5,16.5C 234.833,16.5 236.167,16.5 237.5,16.5C 238.268,14.2854 238.935,11.9521 239.5,9.5C 239.833,9.5 240.167,9.5 240.5,9.5C 242.435,8.85048 244.435,8.51715 246.5,8.5C 246.833,8.5 247.167,8.5 247.5,8.5C 247.973,9.90632 248.973,10.573 250.5,10.5C 252.089,11.6211 253.756,11.4544 255.5,10C 254.906,9.53566 254.239,9.36899 253.5,9.5C 253.389,8.88258 253.056,8.38258 252.5,8C 255.5,7.33333 258.5,7.33333 261.5,8C 260.944,8.38258 260.611,8.88258 260.5,9.5C 260.062,9.43456 259.728,9.60123 259.5,10C 261.105,13.2604 262.439,13.0937 263.5,9.5C 265.169,7.33817 267.169,7.00484 269.5,8.5C 269.343,9.87344 269.51,11.2068 270,12.5C 271.948,11.8906 273.782,11.224 275.5,10.5C 277.167,7.83333 278.833,7.83333 280.5,10.5C 283.325,12.1783 286.491,13.1783 290,13.5C 292.17,13.3277 293.837,12.3277 295,10.5C 296.765,11.6321 298.598,12.6321 300.5,13.5C 302.898,13.7406 304.898,13.0739 306.5,11.5C 310.735,12.436 315.069,12.7693 319.5,12.5C 336.009,12.8298 352.342,12.4964 368.5,11.5C 368.833,11.5 369.167,11.5 369.5,11.5C 376.677,11.1575 383.677,10.4909 390.5,9.5C 390.833,9.5 391.167,9.5 391.5,9.5C 393.199,9.33982 394.866,9.50649 396.5,10C 395.294,11.0177 395.627,11.5177 397.5,11.5C 398.416,11.4573 399.083,11.1239 399.5,10.5C 400.5,10.5 401.5,10.5 402.5,10.5C 409.833,10.5 417.167,10.5 424.5,10.5C 424.5,9.16667 424.5,7.83333 424.5,6.5C 426.5,6.5 428.5,6.5 430.5,6.5C 431.5,6.5 432.5,6.5 433.5,6.5C 433.611,7.11742 433.944,7.61742 434.5,8C 431.774,8.18156 429.107,8.68156 426.5,9.5C 427.325,10.3857 428.325,10.719 429.5,10.5C 431.628,11.6291 433.961,11.7958 436.5,11C 437.833,10.3333 437.833,9.66667 436.5,9C 437.094,8.53566 437.761,8.36899 438.5,8.5C 439.609,8.55688 440.609,8.89022 441.5,9.5C 442.833,9.5 444.167,9.5 445.5,9.5C 448.727,9.32385 451.727,8.65719 454.5,7.5C 474.264,6.43431 494.264,5.43431 514.5,4.5C 516.484,4.61679 518.15,3.95012 519.5,2.5C 522.33,5.0375 524.997,5.0375 527.5,2.5C 539.469,1.09107 551.469,0.0910719 563.5,-0.5 Z M 263.5,9.5 C 262.439,13.0937 261.105,13.2604 259.5,10C 259.728,9.60123 260.062,9.43456 260.5,9.5C 261.798,8.88432 262.798,8.88432 263.5,9.5 Z M 210.5,13.5 C 211.167,13.5 211.833,13.5 212.5,13.5C 213.833,14.5 215.167,15.5 216.5,16.5C 214.167,16.5 211.833,16.5 209.5,16.5C 207.5,15.8333 205.5,15.1667 203.5,14.5C 204.222,14.0825 204.722,13.4158 205,12.5C 206.678,14.5532 208.511,14.8866 210.5,13.5 Z M 227.5,14.5 C 227.672,15.4916 227.338,16.1583 226.5,16.5C 224.833,15.8333 223.167,15.1667 221.5,14.5C 223.451,13.3586 225.451,13.3586 227.5,14.5 Z"/></g>
<g><path style="opacity:0.035" fill="#282828" d="M 656.5,-0.5 C 658.833,-0.5 661.167,-0.5 663.5,-0.5C 663.5,-0.166667 663.5,0.166667 663.5,0.5C 660.789,0.184927 658.456,0.851593 656.5,2.5C 656.5,1.5 656.5,0.5 656.5,-0.5 Z"/></g>
<g><path style="opacity:0.086" fill="#5d5d5d" d="M 615.5,-0.5 C 616.167,-0.5 616.833,-0.5 617.5,-0.5C 617.833,0.166667 618.167,0.833333 618.5,1.5C 616.973,1.57298 615.973,0.906316 615.5,-0.5 Z"/></g>
<g><path style="opacity:0.151" fill="#1e1e1e" d="M 667.5,1.5 C 669.68,0.205602 671.68,0.538935 673.5,2.5C 671.5,2.16667 669.5,1.83333 667.5,1.5 Z"/></g>
<g><path style="opacity:0.995" fill="#838383" d="M 652.5,2.5 C 640.988,2.8281 629.654,2.49477 618.5,1.5C 629.995,0.426255 641.328,0.759588 652.5,2.5 Z"/></g>
<g><path style="opacity:0.02" fill="#2c2c2c" d="M 673.5,2.5 C 675.027,2.42702 676.027,3.09368 676.5,4.5C 674.973,4.57298 673.973,3.90632 673.5,2.5 Z"/></g>
<g><path style="opacity:0.431" fill="#3d3d3d" d="M 527.5,2.5 C 524.997,5.0375 522.33,5.0375 519.5,2.5C 518.15,3.95012 516.484,4.61679 514.5,4.5C 515.888,3.12759 517.555,2.12759 519.5,1.5C 522.092,1.46741 524.759,1.80075 527.5,2.5 Z"/></g>
<g><path style="opacity:0.114" fill="#232323" d="M 398.5,5.5 C 399.833,5.5 401.167,5.5 402.5,5.5C 402.5,6.5 402.5,7.5 402.5,8.5C 400.027,8.91176 398.694,7.91176 398.5,5.5 Z"/></g>
<g><path style="opacity:0.025" fill="#2e2e2e" d="M 388.5,4.5 C 389.978,4.23798 391.311,4.57131 392.5,5.5C 391.081,7.9146 389.415,8.08126 387.5,6C 388.056,5.61742 388.389,5.11742 388.5,4.5 Z"/></g>
<g><path style="opacity:0.475" fill="#818181" d="M 417.5,8.5 C 417.5,7.5 417.5,6.5 417.5,5.5C 419.346,5.22216 420.68,5.88882 421.5,7.5C 420.311,8.42869 418.978,8.76202 417.5,8.5 Z"/></g>
<g><path style="opacity:0.251" fill="#292929" d="M 676.5,4.5 C 677.906,4.97306 678.573,5.97306 678.5,7.5C 677.094,7.02694 676.427,6.02694 676.5,4.5 Z"/></g>
<g><path style="opacity:0.928" fill="#959595" d="M 208.5,7.5 C 200.684,8.49239 192.684,8.82572 184.5,8.5C 191.19,7.78208 198.023,7.11542 205,6.5C 206.138,6.98913 207.305,7.32246 208.5,7.5 Z"/></g>
<g><path style="opacity:0.169" fill="#222222" d="M 210.5,7.5 C 211.708,6.21798 213.042,6.21798 214.5,7.5C 214.376,8.10667 214.043,8.44001 213.5,8.5C 212.791,7.59603 211.791,7.26269 210.5,7.5 Z"/></g>
<g><path style="opacity:0.066" fill="#343434" d="M 228.5,10.5 C 224.265,9.56404 219.931,9.23071 215.5,9.5C 216.234,8.29208 216.567,6.95875 216.5,5.5C 219.745,7.55392 223.745,9.22059 228.5,10.5 Z"/></g>
<g><path style="opacity:0.084" fill="#161616" d="M 246.5,8.5 C 244.435,8.51715 242.435,8.85048 240.5,9.5C 241.134,8.05322 242.301,7.38655 244,7.5C 245.07,7.52804 245.903,7.86137 246.5,8.5 Z"/></g>
<g><path style="opacity:0.667" fill="#464646" d="M 269.5,8.5 C 267.169,7.00484 265.169,7.33817 263.5,9.5C 262.798,8.88432 261.798,8.88432 260.5,9.5C 260.611,8.88258 260.944,8.38258 261.5,8C 258.5,7.33333 255.5,7.33333 252.5,8C 253.056,8.38258 253.389,8.88258 253.5,9.5C 251.255,9.4588 250.588,8.62547 251.5,7C 254.5,6.83333 257.5,6.66667 260.5,6.5C 263.913,6.51697 266.913,7.18363 269.5,8.5 Z"/></g>
<g><path style="opacity:0.068" fill="#2d2d2d" d="M 417.5,8.5 C 417.5,8.83333 417.5,9.16667 417.5,9.5C 415.167,9.5 412.833,9.5 410.5,9.5C 409.5,8.16667 408.5,8.16667 407.5,9.5C 406.5,9.5 405.5,9.5 404.5,9.5C 405.234,8.29208 405.567,6.95875 405.5,5.5C 407.5,5.5 409.5,5.5 411.5,5.5C 411.5,6.5 411.5,7.5 411.5,8.5C 413.5,8.5 415.5,8.5 417.5,8.5 Z"/></g>
<g><path style="opacity:0.057" fill="#1b1b1b" d="M 438.5,8.5 C 438.5,8.16667 438.5,7.83333 438.5,7.5C 440.179,7.28519 441.179,7.95186 441.5,9.5C 440.609,8.89022 439.609,8.55688 438.5,8.5 Z"/></g>
<g><path style="opacity:1" fill="#737373" d="M 232.5,11.5 C 231.778,11.0825 231.278,10.4158 231,9.5C 230.617,10.056 230.117,10.3893 229.5,10.5C 230.656,7.21007 232.656,6.71007 235.5,9C 234.429,9.85175 233.429,10.6851 232.5,11.5 Z"/></g>
<g><path style="opacity:0.02" fill="#232323" d="M 247.5,8.5 C 249.027,8.42702 250.027,9.09368 250.5,10.5C 248.973,10.573 247.973,9.90632 247.5,8.5 Z"/></g>
<g><path style="opacity:0.71" fill="#5b5b5b" d="M 280.5,10.5 C 278.833,7.83333 277.167,7.83333 275.5,10.5C 275.35,6.83876 276.85,5.83876 280,7.5C 280.483,8.44802 280.649,9.44802 280.5,10.5 Z"/></g>
<g><path style="opacity:0.924" fill="#484848" d="M 399.5,10.5 C 399.083,11.1239 398.416,11.4573 397.5,11.5C 395.627,11.5177 395.294,11.0177 396.5,10C 394.866,9.50649 393.199,9.33982 391.5,9.5C 392.374,8.47489 393.541,7.80822 395,7.5C 396.507,8.5549 398.007,9.5549 399.5,10.5 Z"/></g>
<g><path style="opacity:0.867" fill="#929292" d="M 433.5,6.5 C 435.117,7.038 436.784,7.37133 438.5,7.5C 438.5,7.83333 438.5,8.16667 438.5,8.5C 437.761,8.36899 437.094,8.53566 436.5,9C 437.833,9.66667 437.833,10.3333 436.5,11C 433.961,11.7958 431.628,11.6291 429.5,10.5C 428.325,10.719 427.325,10.3857 426.5,9.5C 429.107,8.68156 431.774,8.18156 434.5,8C 433.944,7.61742 433.611,7.11742 433.5,6.5 Z"/></g>
<g><path style="opacity:0.816" fill="#3b3b3b" d="M 454.5,7.5 C 451.727,8.65719 448.727,9.32385 445.5,9.5C 448.171,7.88195 451.171,7.21528 454.5,7.5 Z"/></g>
<g><path style="opacity:0.843" fill="#878787" d="M 430.5,6.5 C 428.5,6.5 426.5,6.5 424.5,6.5C 424.5,7.83333 424.5,9.16667 424.5,10.5C 417.167,10.5 409.833,10.5 402.5,10.5C 402.842,9.66175 403.508,9.32842 404.5,9.5C 405.5,9.5 406.5,9.5 407.5,9.5C 408.5,9.5 409.5,9.5 410.5,9.5C 412.833,9.5 415.167,9.5 417.5,9.5C 419.527,9.66212 421.527,9.49546 423.5,9C 422.663,7.98873 422.33,6.82207 422.5,5.5C 425.385,5.1936 428.052,5.52693 430.5,6.5 Z"/></g>
<g><path style="opacity:0.812" fill="#2b2b2b" d="M 171.5,9.5 C 166.367,10.6649 161.034,11.3315 155.5,11.5C 154.167,11.5 152.833,11.5 151.5,11.5C 157.937,9.96114 164.604,9.29447 171.5,9.5 Z"/></g>
<g><path style="opacity:0.029" fill="#343434" d="M 210.5,13.5 C 208.511,14.8866 206.678,14.5532 205,12.5C 204.722,13.4158 204.222,14.0825 203.5,14.5C 205.5,15.1667 207.5,15.8333 209.5,16.5C 206.5,16.5 203.5,16.5 200.5,16.5C 200.672,15.5084 200.338,14.8417 199.5,14.5C 200.301,12.9582 200.634,11.2915 200.5,9.5C 203.833,10.8333 207.167,12.1667 210.5,13.5 Z"/></g>
<g><path style="opacity:0.961" fill="#858585" d="M 269.5,8.5 C 271.142,10.0808 273.142,10.7475 275.5,10.5C 273.782,11.224 271.948,11.8906 270,12.5C 269.51,11.2068 269.343,9.87344 269.5,8.5 Z"/></g>
<g><path style="opacity:0.314" fill="#636363" d="M 390.5,9.5 C 383.677,10.4909 376.677,11.1575 369.5,11.5C 376.251,8.7918 383.251,8.12513 390.5,9.5 Z"/></g>
<g><path style="opacity:0.892" fill="#656565" d="M 239.5,9.5 C 238.935,11.9521 238.268,14.2854 237.5,16.5C 236.99,13.6122 237.656,11.2789 239.5,9.5 Z"/></g>
<g><path style="opacity:0.596" fill="#7a7a7a" d="M 368.5,11.5 C 352.342,12.4964 336.009,12.8298 319.5,12.5C 335.661,10.6617 351.995,10.3284 368.5,11.5 Z"/></g>
<g><path style="opacity:0.984" fill="#8a8a8a" d="M 151.5,11.5 C 152.833,11.5 154.167,11.5 155.5,11.5C 152.026,12.5249 148.36,13.1916 144.5,13.5C 146.515,12.0762 148.848,11.4095 151.5,11.5 Z"/></g>
<g><path style="opacity:0.553" fill="#8c8c8c" d="M 227.5,14.5 C 225.451,13.3586 223.451,13.3586 221.5,14.5C 221.791,13.3509 222.624,12.6842 224,12.5C 225.699,12.3866 226.866,13.0532 227.5,14.5 Z"/></g>
<g><path style="opacity:0.992" fill="#7e7e7e" d="M 306.5,11.5 C 304.898,13.0739 302.898,13.7406 300.5,13.5C 302.091,12.7811 303.591,11.7811 305,10.5C 305.383,11.056 305.883,11.3893 306.5,11.5 Z"/></g>
<g><path style="opacity:0.004" fill="#1f1f1f" d="M 678.5,9.5 C 680.111,12.3316 679.278,14.3316 676,15.5C 674.97,15.1639 674.47,14.4972 674.5,13.5C 677.5,13.8333 678.833,12.5 678.5,9.5 Z"/></g>
<g><path style="opacity:0.022" fill="#161616" d="M 130.5,14.5 C 129.391,14.5569 128.391,14.8902 127.5,15.5C 128.053,13.4482 129.053,13.1148 130.5,14.5 Z"/></g>
<g><path style="opacity:0.072" fill="#0c0c0c" d="M 183.5,16.5 C 183.5,15.8333 183.167,15.5 182.5,15.5C 182.369,14.7611 182.536,14.0944 183,13.5C 188.52,14.3731 188.687,15.3731 183.5,16.5 Z"/></g>
<g><path style="opacity:1" fill="#eaeaea" d="M 203.5,14.5 C 201.535,14.0517 201.202,13.0517 202.5,11.5C 203.386,12.325 203.719,13.325 203.5,14.5 Z"/></g>
<g><path style="opacity:0.722" fill="#4f4f4f" d="M 662.5,13.5 C 664.027,13.427 665.027,14.0937 665.5,15.5C 663.973,15.573 662.973,14.9063 662.5,13.5 Z"/></g>
<g><path style="opacity:0.147" fill="#1d1d1d" d="M 212.5,13.5 C 215.482,13.9629 218.482,14.2962 221.5,14.5C 223.167,15.1667 224.833,15.8333 226.5,16.5C 223.167,16.5 219.833,16.5 216.5,16.5C 215.167,15.5 213.833,14.5 212.5,13.5 Z"/></g>
<g><path style="opacity:0.064" fill="#1f1f1f" d="M 233.5,11.5 C 234.995,11.4148 235.995,12.0815 236.5,13.5C 235.66,14.735 234.66,15.735 233.5,16.5C 233.446,14.8604 233.446,13.1937 233.5,11.5 Z"/></g>
<g><path style="opacity:0.882" fill="#959595" d="M 243.5,13.5 C 244.978,13.238 246.311,13.5713 247.5,14.5C 246.833,14.8333 246.167,15.1667 245.5,15.5C 244.287,15.2528 243.62,14.5862 243.5,13.5 Z"/></g>
<g><path style="opacity:0.251" fill="#202020" d="M 199.5,14.5 C 199.5,15.1667 199.5,15.8333 199.5,16.5C 190.334,16.4656 190.334,15.7989 199.5,14.5 Z"/></g>
<g><path style="opacity:0.886" fill="#676767" d="M 124.5,15.5 C 106.016,16.8732 87.3497,17.5399 68.5,17.5C 86.9852,16.1731 105.652,15.5065 124.5,15.5 Z"/></g>
<g><path style="opacity:0.122" fill="#2e2e2e" d="M 655.5,14.5 C 655.5,15.1667 655.833,15.5 656.5,15.5C 656.253,17.9752 655.587,17.9752 654.5,15.5C 654.624,14.8933 654.957,14.56 655.5,14.5 Z"/></g>
<g><path style="opacity:0.165" fill="#707070" d="M 49.5,18.5 C 41.0161,19.493 32.3494,19.8264 23.5,19.5C 24.1342,18.0532 25.3009,17.3866 27,17.5C 34.4675,18.415 41.9675,18.7483 49.5,18.5 Z"/></g>
<g><path style="opacity:0.067" fill="#242424" d="M 670.5,14.5 C 670.799,16.604 670.466,18.604 669.5,20.5C 668.702,20.0431 668.369,19.3764 668.5,18.5C 669.167,17.1667 669.833,15.8333 670.5,14.5 Z"/></g>
<g><path style="opacity:0.788" fill="#7f7f7f" d="M 659.5,13.5 C 660.447,17.0106 661.78,20.3439 663.5,23.5C 660.369,24.0922 658.036,23.0922 656.5,20.5C 658.311,21.822 660.311,22.322 662.5,22C 659.963,19.8055 658.963,16.9721 659.5,13.5 Z"/></g>
<g><path style="opacity:0.267" fill="#6c6c6c" d="M 489.5,21.5 C 492.999,21.259 493.332,22.0924 490.5,24C 489.167,24.6667 487.833,24.6667 486.5,24C 487.942,23.6232 488.942,22.7899 489.5,21.5 Z"/></g>
<g><path style="opacity:0.765" fill="#878787" d="M 613.5,21.5 C 614.978,21.238 616.311,21.5713 617.5,22.5C 616.833,22.8333 616.167,23.1667 615.5,23.5C 614.287,23.2528 613.62,22.5862 613.5,21.5 Z"/></g>
<g><path style="opacity:0.366" fill="#979797" d="M 626.5,21.5 C 628.288,21.2148 629.955,21.5481 631.5,22.5C 630.667,22.8333 629.833,23.1667 629,23.5C 627.624,23.3158 626.791,22.6491 626.5,21.5 Z"/></g>
<g><path style="opacity:0.216" fill="#676767" d="M 652.5,20.5 C 651.34,21.265 650.34,22.265 649.5,23.5C 651.005,24.8415 651.672,26.5082 651.5,28.5C 650.396,27.0026 649.396,25.336 648.5,23.5C 648.719,21.0847 650.052,20.0847 652.5,20.5 Z"/></g>
<g><path style="opacity:0.89" fill="#414141" d="M 668.5,27.5 C 668.737,26.209 668.404,25.209 667.5,24.5C 668.216,21.9882 669.216,21.9882 670.5,24.5C 670.058,25.7387 669.391,26.7387 668.5,27.5 Z"/></g>
<g><path style="opacity:0.902" fill="#a2a2a2" d="M 667.5,24.5 C 668.404,25.209 668.737,26.209 668.5,27.5C 667.575,30.1313 665.909,30.7979 663.5,29.5C 664.718,28.8386 666.051,28.1719 667.5,27.5C 666.214,27.5236 664.88,27.1903 663.5,26.5C 665.062,26.2671 666.395,25.6005 667.5,24.5 Z"/></g>
<g><path style="opacity:0.655" fill="#666666" d="M 656.5,31.5 C 656.5,32.5 656.5,33.5 656.5,34.5C 655.5,34.5 654.5,34.5 653.5,34.5C 653.5,32.5 654.5,31.5 656.5,31.5 Z"/></g>
<g><path style="opacity:0.067" fill="#000000" d="M 662.5,32.5 C 662.833,33.1667 663.167,33.8333 663.5,34.5C 661.576,34.2893 661.243,33.6226 662.5,32.5 Z"/></g>
<g><path style="opacity:1" fill="#ebebeb" d="M 662.5,32.5 C 662.833,32.5 663.167,32.5 663.5,32.5C 667.5,33.1667 667.5,33.8333 663.5,34.5C 663.167,33.8333 662.833,33.1667 662.5,32.5 Z"/></g>
<g><path style="opacity:0.079" fill="#1f1f1f" d="M 663.5,32.5 C 664.601,31.4017 665.934,31.235 667.5,32C 668.82,34.215 668.153,35.715 665.5,36.5C 664.478,36.1445 663.811,35.4778 663.5,34.5C 667.5,33.8333 667.5,33.1667 663.5,32.5 Z"/></g>
<g><path style="opacity:0.851" fill="#636363" d="M 657.5,34.5 C 660.166,34.0658 661.333,35.0658 661,37.5C 657.403,39.0661 656.237,38.0661 657.5,34.5 Z"/></g>
<g><path style="opacity:0.076" fill="#131313" d="M 649.5,39.5 C 650.5,40.1667 651.5,40.8333 652.5,41.5C 651.022,41.762 649.689,41.4287 648.5,40.5C 648.624,39.8933 648.957,39.56 649.5,39.5 Z"/></g>
<g><path style="opacity:0.086" fill="#222222" d="M 660.5,41.5 C 661.822,41.33 662.989,41.6634 664,42.5C 664.801,45.367 664.634,48.0336 663.5,50.5C 663.663,48.1432 663.497,45.8098 663,43.5C 662.005,42.9341 661.172,42.2674 660.5,41.5 Z"/></g>
<g><path style="opacity:0.533" fill="#9a9a9a" d="M 3.5,38.5 C 5.19264,43.0131 4.52597,47.0131 1.5,50.5C 3.20199,46.4362 3.86866,42.4362 3.5,38.5 Z"/></g>
<g><path style="opacity:1" fill="#b9b9b9" d="M 1.5,52.5 C 0.56961,59.7771 0.236276,67.1104 0.5,74.5C 0.166667,74.5 -0.166667,74.5 -0.5,74.5C -0.5,67.5 -0.5,60.5 -0.5,53.5C 0.166667,53.1667 0.833333,52.8333 1.5,52.5 Z"/></g>
<g><path style="opacity:0.065" fill="#1b1b1b" d="M 483.5,64.5 C 481.898,66.0739 479.898,66.7406 477.5,66.5C 479.214,65.2616 481.214,64.595 483.5,64.5 Z"/></g>
<g><path style="opacity:0.631" fill="#606060" d="M 474.5,66.5 C 470.21,67.2546 465.877,68.2546 461.5,69.5C 462.23,67.955 463.563,67.1216 465.5,67C 468.482,66.502 471.482,66.3354 474.5,66.5 Z"/></g>
<g><path style="opacity:0.957" fill="#7d7d7d" d="M 398.5,73.5 C 404.535,73.5368 410.535,74.0368 416.5,75C 417.056,75.3826 417.389,75.8826 417.5,76.5C 411.019,75.5853 404.685,74.5853 398.5,73.5 Z"/></g>
<g><path style="opacity:0.576" fill="#414141" d="M 258.5,74.5 C 252.013,75.5152 245.346,76.1818 238.5,76.5C 238.5,76.1667 238.5,75.8333 238.5,75.5C 245.143,74.7875 251.809,74.4542 258.5,74.5 Z"/></g>
<g><path style="opacity:0.231" fill="#383838" d="M 459.5,72.5 C 459.573,74.0269 458.906,75.0269 457.5,75.5C 457.427,73.9731 458.094,72.9731 459.5,72.5 Z"/></g>
<g><path style="opacity:0.42" fill="#828282" d="M 238.5,75.5 C 238.5,75.8333 238.5,76.1667 238.5,76.5C 232.819,76.6349 227.152,76.9682 221.5,77.5C 226.903,75.7949 232.57,75.1282 238.5,75.5 Z"/></g>
<g><path style="opacity:0.035" fill="#373737" d="M 431.5,77.5 C 439.816,78.1852 448.149,78.5185 456.5,78.5C 453.518,79.1649 450.352,79.4982 447,79.5C 441.589,79.6207 436.423,78.954 431.5,77.5 Z"/></g>
<g><path style="opacity:0.096" fill="#2b2b2b" d="M 1.5,77.5 C 3.98722,78.3228 6.32055,79.3228 8.5,80.5C 6.80081,80.6602 5.13414,80.4935 3.5,80C 2.24402,79.5831 1.57735,78.7498 1.5,77.5 Z"/></g>
<g><path style="opacity:0.047" fill="#252525" d="M 27.5,84.5 C 28.8333,85.1667 29.8333,86.1667 30.5,87.5C 28.5,87.5 27.5,86.5 27.5,84.5 Z"/></g>
<g><path style="opacity:0.099" fill="#080808" d="M 600.5,211.5 C 601.097,210.861 601.93,210.528 603,210.5C 604.376,210.684 605.209,211.351 605.5,212.5C 603.958,211.699 602.292,211.366 600.5,211.5 Z"/></g>
<g><path style="opacity:0.103" fill="#222222" d="M 621.5,211.5 C 616.453,211.337 611.453,211.671 606.5,212.5C 608.571,211.191 611.071,210.525 614,210.5C 616.69,210.503 619.19,210.836 621.5,211.5 Z"/></g>
<g><path style="opacity:1" fill="#fbfbfb" d="M 707.5,210.5 C 708.026,212.23 709.026,213.564 710.5,214.5C 711.872,215.888 712.872,217.555 713.5,219.5C 711.571,223.428 709.238,227.095 706.5,230.5C 706.567,231.959 706.234,233.292 705.5,234.5C 704.449,235.222 703.782,236.222 703.5,237.5C 703.336,240.187 703.503,242.854 704,245.5C 705.828,246.752 707.661,246.752 709.5,245.5C 710.161,246.718 710.828,248.051 711.5,249.5C 712.865,248.193 714.198,248.193 715.5,249.5C 715.427,251.027 716.094,252.027 717.5,252.5C 718.5,253.167 719.5,253.833 720.5,254.5C 720.821,256.048 721.821,256.715 723.5,256.5C 724.93,257.537 726.597,258.204 728.5,258.5C 728.833,258.5 729.167,258.5 729.5,258.5C 729.5,259.5 729.5,260.5 729.5,261.5C 725.559,262.564 721.559,262.564 717.5,261.5C 716.127,261.657 714.793,261.49 713.5,261C 714.056,260.617 714.389,260.117 714.5,259.5C 717.03,257.67 716.697,256.004 713.5,254.5C 710.518,254.896 707.851,254.229 705.5,252.5C 704.575,253.357 703.908,254.357 703.5,255.5C 702.115,256.302 702.282,256.969 704,257.5C 704.765,257.43 705.265,257.097 705.5,256.5C 713.063,256.114 713.396,257.114 706.5,259.5C 702.531,261.468 699.531,264.468 697.5,268.5C 695.833,269.5 694.5,270.833 693.5,272.5C 619.87,272.358 546.203,273.024 472.5,274.5C 453.656,274.634 434.989,275.301 416.5,276.5C 360.177,278.574 303.844,280.407 247.5,282C 199.736,284.443 152.07,288.11 104.5,293C 80.5,293.667 56.5,293.667 32.5,293C 27.4176,292.781 22.4176,292.281 17.5,291.5C 16.4863,290.326 15.153,289.66 13.5,289.5C 13.1667,288.5 12.5,287.833 11.5,287.5C 11.5,280.5 11.5,273.5 11.5,266.5C 11.5015,260.982 11.8349,255.482 12.5,250C 12.5465,247.705 13.2132,245.871 14.5,244.5C 16.6216,244.374 17.6216,243.707 17.5,242.5C 15.8333,241.833 14.1667,241.167 12.5,240.5C 10.8853,236.879 11.2187,233.546 13.5,230.5C 14.391,229.89 15.391,229.557 16.5,229.5C 18.153,229.34 19.4863,228.674 20.5,227.5C 21.9587,227.567 23.2921,227.234 24.5,226.5C 29.1387,225.235 33.8054,225.235 38.5,226.5C 40.0296,226.36 41.0296,225.693 41.5,224.5C 41.5,223.833 41.5,223.167 41.5,222.5C 43.1667,221.5 44.5,220.167 45.5,218.5C 50.2125,217.423 55.0458,216.423 60,215.5C 69.8031,216.687 79.6364,217.52 89.5,218C 118.003,218.168 146.336,218.668 174.5,219.5C 177.976,220.643 181.642,220.81 185.5,220C 188.952,219.115 192.286,218.282 195.5,217.5C 209.793,217.466 224.126,216.799 238.5,215.5C 241.176,215.837 243.843,216.17 246.5,216.5C 248.848,216.33 251.182,215.997 253.5,215.5C 255.114,215.803 256.448,216.47 257.5,217.5C 258.5,217.5 259.5,217.5 260.5,217.5C 263.518,217.296 266.518,216.963 269.5,216.5C 274.997,217.466 280.33,217.466 285.5,216.5C 287.167,216.5 288.833,216.5 290.5,216.5C 297.542,215.625 304.542,215.625 311.5,216.5C 311.735,217.097 312.235,217.43 313,217.5C 327.64,216.857 342.14,216.19 356.5,215.5C 357.167,215.5 357.833,215.5 358.5,215.5C 360.802,213.923 362.302,214.589 363,217.5C 364.102,216.051 365.269,214.718 366.5,213.5C 367.5,213.5 368.5,213.5 369.5,213.5C 370.635,215.213 372.302,215.88 374.5,215.5C 375.167,215.5 375.833,215.5 376.5,215.5C 377.312,216.993 378.645,217.66 380.5,217.5C 382.355,217.66 383.688,216.993 384.5,215.5C 397.323,214.505 410.323,214.171 423.5,214.5C 424.833,214.5 426.167,214.5 427.5,214.5C 431.268,215.787 434.935,215.787 438.5,214.5C 439.5,214.5 440.5,214.5 441.5,214.5C 451.987,215.494 462.654,215.828 473.5,215.5C 483.017,216.545 492.684,216.379 502.5,215C 503.056,214.617 503.389,214.117 503.5,213.5C 507.135,212.886 510.802,212.552 514.5,212.5C 517.598,212.413 517.932,212.913 515.5,214C 516.749,214.74 517.749,214.573 518.5,213.5C 520.167,213.5 521.833,213.5 523.5,213.5C 540.91,213.819 558.244,213.485 575.5,212.5C 576.833,212.5 578.167,212.5 579.5,212.5C 584.039,212.322 588.539,212.655 593,213.5C 594.699,213.613 595.866,212.947 596.5,211.5C 597.833,211.5 599.167,211.5 600.5,211.5C 602.292,211.366 603.958,211.699 605.5,212.5C 605.833,212.5 606.167,212.5 606.5,212.5C 611.453,211.671 616.453,211.337 621.5,211.5C 621.369,212.376 621.702,213.043 622.5,213.5C 633.628,212.854 644.628,212.187 655.5,211.5C 670.173,210.418 685.006,209.418 700,208.5C 702.744,208.41 705.244,209.077 707.5,210.5 Z M 536.5,226.5 C 535.833,227.167 535.167,227.833 534.5,228.5C 533.209,228.737 532.209,228.404 531.5,227.5C 533.169,226.11 534.836,225.777 536.5,226.5 Z M 496.5,226.5 C 498.337,226.639 498.67,227.306 497.5,228.5C 496.702,228.043 496.369,227.376 496.5,226.5 Z M 713.5,254.5 C 710.833,255.167 708.167,255.833 705.5,256.5C 704.508,256.672 703.842,256.338 703.5,255.5C 703.908,254.357 704.575,253.357 705.5,252.5C 707.851,254.229 710.518,254.896 713.5,254.5 Z"/></g>
<g><path style="opacity:0.765" fill="#545454" d="M 579.5,212.5 C 585.088,211.763 590.755,211.43 596.5,211.5C 595.866,212.947 594.699,213.613 593,213.5C 588.539,212.655 584.039,212.322 579.5,212.5 Z"/></g>
<g><path style="opacity:0.94" fill="#a5a5a5" d="M 655.5,211.5 C 644.628,212.187 633.628,212.854 622.5,213.5C 621.702,213.043 621.369,212.376 621.5,211.5C 632.785,211.177 644.119,211.177 655.5,211.5 Z"/></g>
<g><path style="opacity:0.604" fill="#8f8f8f" d="M 575.5,212.5 C 558.244,213.485 540.91,213.819 523.5,213.5C 539.51,212.782 555.677,212.115 572,211.5C 573.385,211.514 574.551,211.848 575.5,212.5 Z"/></g>
<g><path style="opacity:0.937" fill="#707070" d="M 707.5,210.5 C 709.446,211.035 710.446,212.368 710.5,214.5C 709.026,213.564 708.026,212.23 707.5,210.5 Z"/></g>
<g><path style="opacity:0.095" fill="#010101" d="M 423.5,214.5 C 410.323,214.171 397.323,214.505 384.5,215.5C 384.167,215.5 383.833,215.5 383.5,215.5C 389.798,214.17 396.465,213.503 403.5,213.5C 410.342,213.5 417.009,213.834 423.5,214.5 Z"/></g>
<g><path style="opacity:0.231" fill="#626262" d="M 514.5,212.5 C 514.917,211.876 515.584,211.543 516.5,211.5C 517.713,211.747 518.38,212.414 518.5,213.5C 517.749,214.573 516.749,214.74 515.5,214C 517.932,212.913 517.598,212.413 514.5,212.5 Z"/></g>
<g><path style="opacity:0.017" fill="#222222" d="M 257.5,217.5 C 256.448,216.47 255.114,215.803 253.5,215.5C 251.182,215.997 248.848,216.33 246.5,216.5C 249.845,214.783 253.511,214.116 257.5,214.5C 257.5,215.5 257.5,216.5 257.5,217.5 Z"/></g>
<g><path style="opacity:0.023" fill="#000000" d="M 273.5,215.5 C 273.917,214.876 274.584,214.543 275.5,214.5C 276.713,214.747 277.38,215.414 277.5,216.5C 276.292,215.766 274.959,215.433 273.5,215.5 Z"/></g>
<g><path style="opacity:0.451" fill="#6a6a6a" d="M 311.5,216.5 C 304.542,215.625 297.542,215.625 290.5,216.5C 294.937,215.199 299.603,214.533 304.5,214.5C 307.269,214.529 309.603,215.195 311.5,216.5 Z"/></g>
<g><path style="opacity:0.081" fill="#1a1a1a" d="M 366.5,213.5 C 365.269,214.718 364.102,216.051 363,217.5C 362.302,214.589 360.802,213.923 358.5,215.5C 358.866,214.305 359.699,213.639 361,213.5C 362.826,214.673 364.659,214.673 366.5,213.5 Z"/></g>
<g><path style="opacity:0.6" fill="#5f5f5f" d="M 369.5,213.5 C 371.553,213.402 373.22,214.069 374.5,215.5C 372.302,215.88 370.635,215.213 369.5,213.5 Z"/></g>
<g><path style="opacity:0.482" fill="#474747" d="M 427.5,214.5 C 431.017,213.38 434.684,213.38 438.5,214.5C 434.935,215.787 431.268,215.787 427.5,214.5 Z"/></g>
<g><path style="opacity:0.894" fill="#535353" d="M 482.5,215.5 C 479.5,215.5 476.5,215.5 473.5,215.5C 462.654,215.828 451.987,215.494 441.5,214.5C 448.505,213.969 455.505,213.636 462.5,213.5C 469.346,213.889 476.012,214.556 482.5,215.5 Z"/></g>
<g><path style="opacity:0.906" fill="#7c7c7c" d="M 503.5,213.5 C 503.389,214.117 503.056,214.617 502.5,215C 492.684,216.379 483.017,216.545 473.5,215.5C 476.5,215.5 479.5,215.5 482.5,215.5C 489.406,214.114 496.406,213.448 503.5,213.5 Z"/></g>
<g><path style="opacity:0.941" fill="#7a7a7a" d="M 356.5,215.5 C 342.14,216.19 327.64,216.857 313,217.5C 312.235,217.43 311.735,217.097 311.5,216.5C 315.315,215.007 319.315,214.34 323.5,214.5C 334.548,215.449 345.548,215.783 356.5,215.5 Z"/></g>
<g><path style="opacity:0.796" fill="#515151" d="M 269.5,215.5 C 269.5,215.833 269.5,216.167 269.5,216.5C 266.518,216.963 263.518,217.296 260.5,217.5C 263.219,216.087 266.219,215.42 269.5,215.5 Z"/></g>
<g><path style="opacity:0.855" fill="#a0a0a0" d="M 269.5,216.5 C 269.5,216.167 269.5,215.833 269.5,215.5C 270.833,215.5 272.167,215.5 273.5,215.5C 274.959,215.433 276.292,215.766 277.5,216.5C 280.167,216.5 282.833,216.5 285.5,216.5C 280.33,217.466 274.997,217.466 269.5,216.5 Z"/></g>
<g><path style="opacity:0.859" fill="#868686" d="M 376.5,215.5 C 378.874,216.686 381.208,216.686 383.5,215.5C 383.833,215.5 384.167,215.5 384.5,215.5C 383.688,216.993 382.355,217.66 380.5,217.5C 378.645,217.66 377.312,216.993 376.5,215.5 Z"/></g>
<g><path style="opacity:0.741" fill="#a6a6a6" d="M 195.5,217.5 C 192.286,218.282 188.952,219.115 185.5,220C 181.642,220.81 177.976,220.643 174.5,219.5C 181.556,219.255 188.556,218.589 195.5,217.5 Z"/></g>
<g><path style="opacity:0.451" fill="#262626" d="M 45.5,218.5 C 44.5,220.167 43.1667,221.5 41.5,222.5C 41.8333,220.167 43.1667,218.833 45.5,218.5 Z"/></g>
<g><path style="opacity:0.769" fill="#616161" d="M 41.5,224.5 C 41.0296,225.693 40.0296,226.36 38.5,226.5C 33.8054,225.235 29.1387,225.235 24.5,226.5C 24.6107,225.883 24.944,225.383 25.5,225C 30.9501,224.746 36.2835,224.579 41.5,224.5 Z"/></g>
<g><path style="opacity:0.922" fill="#4c4c4c" d="M 505.5,224.5 C 506.5,225.833 507.5,225.833 508.5,224.5C 509.239,224.369 509.906,224.536 510.5,225C 508.647,226.669 506.647,226.835 504.5,225.5C 504.624,224.893 504.957,224.56 505.5,224.5 Z"/></g>
<g><path style="opacity:0.663" fill="#757575" d="M 577.5,224.5 C 580.797,224.329 581.131,224.995 578.5,226.5C 577.702,226.043 577.369,225.376 577.5,224.5 Z"/></g>
<g><path style="opacity:0.298" fill="#3b3b3b" d="M 470.5,226.5 C 475.021,226.326 475.355,226.993 471.5,228.5C 470.702,228.043 470.369,227.376 470.5,226.5 Z"/></g>
<g><path style="opacity:0.073" fill="#000000" d="M 536.5,226.5 C 538.5,226.5 540.5,226.5 542.5,226.5C 542.5,226.833 542.5,227.167 542.5,227.5C 540.901,227.232 539.568,227.566 538.5,228.5C 537.167,228.5 535.833,228.5 534.5,228.5C 535.167,227.833 535.833,227.167 536.5,226.5 Z"/></g>
<g><path style="opacity:0.624" fill="#363636" d="M 20.5,227.5 C 19.4863,228.674 18.153,229.34 16.5,229.5C 17.287,227.896 18.6203,227.229 20.5,227.5 Z"/></g>
<g><path style="opacity:0.369" fill="#818181" d="M 531.5,227.5 C 532.209,228.404 533.209,228.737 534.5,228.5C 535.833,228.5 537.167,228.5 538.5,228.5C 535.976,229.8 533.309,229.8 530.5,228.5C 530.624,227.893 530.957,227.56 531.5,227.5 Z"/></g>
<g><path style="opacity:0.015" fill="#1c1c1c" d="M 511.5,228.5 C 512.857,229.59 513.857,230.924 514.5,232.5C 513.133,235.132 512.299,234.798 512,231.5C 510.698,230.915 509.531,230.249 508.5,229.5C 509.791,229.737 510.791,229.404 511.5,228.5 Z"/></g>
<g><path style="opacity:0.918" fill="#646464" d="M 13.5,230.5 C 11.2187,233.546 10.8853,236.879 12.5,240.5C 11.0578,238.46 10.0578,236.127 9.5,233.5C 10.2826,231.712 11.6159,230.712 13.5,230.5 Z"/></g>
<g><path style="opacity:0.01" fill="#333333" d="M 502.5,229.5 C 505.022,231.172 507.688,232.672 510.5,234C 506.255,235.248 503.588,233.748 502.5,229.5 Z"/></g>
<g><path style="opacity:0.004" fill="#333333" d="M 706.5,230.5 C 707.124,230.917 707.457,231.584 707.5,232.5C 707.253,233.713 706.586,234.38 705.5,234.5C 706.234,233.292 706.567,231.959 706.5,230.5 Z"/></g>
<g><path style="opacity:0.118" fill="#242424" d="M 159.5,237.5 C 161.337,237.639 161.67,238.306 160.5,239.5C 159.702,239.043 159.369,238.376 159.5,237.5 Z"/></g>
<g><path style="opacity:0.145" fill="#2e2e2e" d="M 227.5,235.5 C 230.151,236.725 229.984,237.725 227,238.5C 226.5,238.167 226,237.833 225.5,237.5C 225.846,236.304 226.346,236.304 227,237.5C 227.464,236.906 227.631,236.239 227.5,235.5 Z"/></g>
<g><path style="opacity:0.882" fill="#616161" d="M 17.5,242.5 C 17.6216,243.707 16.6216,244.374 14.5,244.5C 14.9731,243.094 15.9731,242.427 17.5,242.5 Z"/></g>
<g><path style="opacity:0.957" fill="#555555" d="M 703.5,237.5 C 704.224,240.083 705.057,242.749 706,245.5C 707.292,244.209 708.458,244.209 709.5,245.5C 707.661,246.752 705.828,246.752 704,245.5C 703.503,242.854 703.336,240.187 703.5,237.5 Z"/></g>
<g><path style="opacity:0.714" fill="#535353" d="M 715.5,249.5 C 716.906,249.973 717.573,250.973 717.5,252.5C 716.094,252.027 715.427,251.027 715.5,249.5 Z"/></g>
<g><path style="opacity:0.925" fill="#717171" d="M 720.5,254.5 C 721.71,254.932 722.71,255.599 723.5,256.5C 721.821,256.715 720.821,256.048 720.5,254.5 Z"/></g>
<g><path style="opacity:0.702" fill="#505050" d="M 703.5,255.5 C 703.842,256.338 704.508,256.672 705.5,256.5C 705.265,257.097 704.765,257.43 704,257.5C 702.282,256.969 702.115,256.302 703.5,255.5 Z"/></g>
<g><path style="opacity:0.561" fill="#424242" d="M 713.5,254.5 C 716.697,256.004 717.03,257.67 714.5,259.5C 715.895,258.352 715.728,257.352 714,256.5C 712.005,258.747 709.505,259.747 706.5,259.5C 713.396,257.114 713.063,256.114 705.5,256.5C 708.167,255.833 710.833,255.167 713.5,254.5 Z"/></g>
<g><path style="opacity:0.694" fill="#6d6d6d" d="M 723.5,256.5 C 725.698,256.12 727.365,256.787 728.5,258.5C 726.597,258.204 724.93,257.537 723.5,256.5 Z"/></g>
<g><path style="opacity:0.576" fill="#4c4c4c" d="M 714.5,259.5 C 714.389,260.117 714.056,260.617 713.5,261C 714.793,261.49 716.127,261.657 717.5,261.5C 716.081,262.451 714.415,262.784 712.5,262.5C 712.285,260.821 712.952,259.821 714.5,259.5 Z"/></g>
<g><path style="opacity:0.02" fill="#111111" d="M 697.5,268.5 C 697.167,270.833 695.833,272.167 693.5,272.5C 694.5,270.833 695.833,269.5 697.5,268.5 Z"/></g>
<g><path style="opacity:0.01" fill="#0e0e0e" d="M 472.5,274.5 C 468.353,275.325 464.019,275.825 459.5,276C 445.171,276.5 430.837,276.667 416.5,276.5C 434.989,275.301 453.656,274.634 472.5,274.5 Z"/></g>
<g><path style="opacity:0.349" fill="#535353" d="M 11.5,266.5 C 11.5,273.5 11.5,280.5 11.5,287.5C 10.4684,285.566 9.8017,283.4 9.5,281C 10.0336,276.004 10.7003,271.17 11.5,266.5 Z"/></g>
<g><path style="opacity:0.016" fill="#1d1d1d" d="M 11.5,287.5 C 12.5,287.833 13.1667,288.5 13.5,289.5C 12.1667,289.5 11.5,288.833 11.5,287.5 Z"/></g>
<g><path style="opacity:0.063" fill="#292929" d="M 13.5,289.5 C 15.153,289.66 16.4863,290.326 17.5,291.5C 15.6203,291.771 14.287,291.104 13.5,289.5 Z"/></g>
<g><path style="opacity:0.945" fill="#626262" d="M 698.5,432.5 C 696.097,432.448 693.764,432.781 691.5,433.5C 693.635,430.32 695.968,429.986 698.5,432.5 Z"/></g>
<g><path style="opacity:0.999" fill="#fbfbfb" d="M 698.5,432.5 C 699.5,432.5 700.5,432.5 701.5,432.5C 704.625,433.479 707.958,433.813 711.5,433.5C 712.609,433.557 713.609,433.89 714.5,434.5C 716.26,436.559 718.594,437.892 721.5,438.5C 722.167,438.833 722.833,439.167 723.5,439.5C 723.427,441.027 724.094,442.027 725.5,442.5C 728.533,444.092 729.199,446.426 727.5,449.5C 726.094,449.973 725.427,450.973 725.5,452.5C 723.621,453.341 721.621,453.675 719.5,453.5C 718.508,453.328 717.842,453.662 717.5,454.5C 716.508,454.328 715.842,454.662 715.5,455.5C 714.5,455.833 713.833,456.5 713.5,457.5C 715.715,458.268 718.048,458.935 720.5,459.5C 721.404,460.209 721.737,461.209 721.5,462.5C 719.833,462.5 718.167,462.5 716.5,462.5C 716.565,462.062 716.399,461.728 716,461.5C 715.302,462.691 714.469,463.691 713.5,464.5C 711.62,464.229 710.287,464.896 709.5,466.5C 708.475,466.897 708.308,467.563 709,468.5C 710.356,467.62 711.856,467.286 713.5,467.5C 714.167,467.5 714.833,467.5 715.5,467.5C 715.443,468.609 715.11,469.609 714.5,470.5C 713.833,470.5 713.5,470.833 713.5,471.5C 713.167,471.5 712.833,471.5 712.5,471.5C 709.302,470.964 706.635,471.631 704.5,473.5C 704.263,474.791 704.596,475.791 705.5,476.5C 706.474,478.085 707.974,479.085 710,479.5C 711.82,482.767 711.986,486.1 710.5,489.5C 710.768,491.099 710.434,492.432 709.5,493.5C 707.833,494.5 706.5,495.833 705.5,497.5C 700.905,499.858 695.905,501.025 690.5,501C 663.501,501.971 636.501,502.805 609.5,503.5C 602.148,503.668 594.815,504.168 587.5,505C 586.944,505.383 586.611,505.883 586.5,506.5C 571.54,508.039 556.54,509.039 541.5,509.5C 494.998,509.77 448.664,510.436 402.5,511.5C 350.481,511.811 298.481,511.478 246.5,510.5C 242.958,510.187 239.625,510.521 236.5,511.5C 198.165,511.333 159.832,511.5 121.5,512C 106.998,512.643 92.6643,513.477 78.5,514.5C 55.5,514.5 32.5,514.5 9.5,514.5C 7.91294,510.349 8.57961,506.683 11.5,503.5C 12.1633,501.359 12.4966,499.025 12.5,496.5C 12.4714,493.731 11.8048,491.397 10.5,489.5C 10.448,487.097 10.7814,484.764 11.5,482.5C 12.8698,480.75 13.8698,478.75 14.5,476.5C 14.3184,474.409 14.6518,472.409 15.5,470.5C 15.0431,469.702 14.3764,469.369 13.5,469.5C 13.1788,467.952 12.1788,467.285 10.5,467.5C 10.5,465.5 10.5,463.5 10.5,461.5C 10.3284,460.508 10.6618,459.842 11.5,459.5C 13.1625,457.637 14.8291,455.637 16.5,453.5C 17.9187,452.549 19.5853,452.216 21.5,452.5C 22.7348,452.721 23.7348,453.388 24.5,454.5C 25.7387,454.058 26.7387,453.391 27.5,452.5C 28.7562,452.539 29.7562,452.039 30.5,451C 41.6869,450.604 52.6869,449.771 63.5,448.5C 72.1731,448.666 80.8397,448.5 89.5,448C 90.7375,447.768 91.7375,447.268 92.5,446.5C 93.5676,445.566 94.901,445.232 96.5,445.5C 98.7659,445.141 100.599,445.808 102,447.5C 102.717,446.956 103.217,446.289 103.5,445.5C 108.13,444.771 112.797,444.437 117.5,444.5C 123.834,445.76 130.168,445.593 136.5,444C 137.056,443.617 137.389,443.117 137.5,442.5C 140.918,442.296 144.584,442.296 148.5,442.5C 151.43,441.701 154.43,441.368 157.5,441.5C 161.167,440.833 164.833,440.167 168.5,439.5C 169.583,439.461 170.583,439.127 171.5,438.5C 172.474,440.743 172.808,443.076 172.5,445.5C 171.508,445.328 170.842,445.662 170.5,446.5C 169.391,446.557 168.391,446.89 167.5,447.5C 164.609,448.403 161.609,448.736 158.5,448.5C 154.5,448.833 154.5,449.167 158.5,449.5C 161.604,450.775 164.604,450.775 167.5,449.5C 168.71,449.068 169.71,448.401 170.5,447.5C 172.5,447.5 174.5,447.5 176.5,447.5C 178.142,449.081 180.142,449.747 182.5,449.5C 184.042,448.699 185.708,448.366 187.5,448.5C 188.509,451.166 190.176,451.833 192.5,450.5C 193.5,450.167 194.167,449.5 194.5,448.5C 196.167,448.5 197.833,448.5 199.5,448.5C 200.659,450.377 202.326,450.877 204.5,450C 203.944,449.617 203.611,449.117 203.5,448.5C 201.618,447.249 199.618,446.082 197.5,445C 199.207,444.805 200.874,444.805 202.5,445C 200.679,442.863 198.346,442.03 195.5,442.5C 193.833,442.5 192.167,442.5 190.5,442.5C 185.507,442.916 180.507,443.249 175.5,443.5C 174.167,442.833 174.167,442.167 175.5,441.5C 177.099,441.768 178.432,441.434 179.5,440.5C 179.833,440.5 180.167,440.5 180.5,440.5C 182.292,440.634 183.958,440.301 185.5,439.5C 187.099,439.768 188.432,439.434 189.5,438.5C 191.948,437.527 194.615,437.194 197.5,437.5C 198.222,438.551 199.222,439.218 200.5,439.5C 202.025,440.389 203.025,439.722 203.5,437.5C 204.5,437.5 205.5,437.5 206.5,437.5C 207.919,438.451 209.585,438.784 211.5,438.5C 212.5,439.833 213.5,439.833 214.5,438.5C 216.5,437.833 218.5,437.167 220.5,436.5C 225.355,435.309 230.355,435.309 235.5,436.5C 235.5,437.167 235.5,437.833 235.5,438.5C 235.167,438.5 234.833,438.5 234.5,438.5C 228.014,438.558 228.014,439.224 234.5,440.5C 237.518,440.665 240.518,440.498 243.5,440C 242.748,439.329 242.414,438.496 242.5,437.5C 243.778,437.782 244.778,438.449 245.5,439.5C 245.833,439.5 246.167,439.5 246.5,439.5C 251.534,439.4 256.534,439.4 261.5,439.5C 264.127,440.092 266.794,440.425 269.5,440.5C 270.551,441.222 271.218,442.222 271.5,443.5C 271.167,443.5 270.833,443.5 270.5,443.5C 268.452,443.16 267.452,443.493 267.5,444.5C 267.5,445.167 267.833,445.5 268.5,445.5C 269.167,445.5 269.833,445.5 270.5,445.5C 271.167,445.5 271.833,445.5 272.5,445.5C 272.5,446.167 272.833,446.5 273.5,446.5C 274.058,447.79 275.058,448.623 276.5,449C 280.486,449.499 284.486,449.666 288.5,449.5C 288.833,449.5 289.167,449.5 289.5,449.5C 289.56,450.043 289.893,450.376 290.5,450.5C 291.362,449.234 292.029,447.901 292.5,446.5C 293.568,445.566 294.901,445.232 296.5,445.5C 296.443,446.609 296.11,447.609 295.5,448.5C 296.167,449.833 296.833,449.833 297.5,448.5C 298.492,448.672 299.158,448.338 299.5,447.5C 299.842,446.662 300.508,446.328 301.5,446.5C 302.833,446.167 304.167,445.833 305.5,445.5C 306.391,444.89 307.391,444.557 308.5,444.5C 309.167,444.5 309.5,444.167 309.5,443.5C 311.5,442.167 313.5,442.167 315.5,443.5C 315.5,443.833 315.5,444.167 315.5,444.5C 315.5,445.167 315.833,445.5 316.5,445.5C 316.833,445.5 317.167,445.5 317.5,445.5C 318.222,445.082 318.722,444.416 319,443.5C 319.278,444.416 319.778,445.082 320.5,445.5C 321.234,444.122 321.901,442.622 322.5,441C 327.553,440.783 332.553,440.283 337.5,439.5C 338.417,440.127 339.417,440.461 340.5,440.5C 340.881,441.931 341.881,442.764 343.5,443C 341.744,443.202 340.078,443.702 338.5,444.5C 341.752,445.985 344.419,445.318 346.5,442.5C 348.735,442.795 350.735,442.461 352.5,441.5C 354.167,441.5 355.833,441.5 357.5,441.5C 365.42,441.815 373.253,441.482 381,440.5C 381.567,442.983 382.733,443.65 384.5,442.5C 384.5,442.167 384.5,441.833 384.5,441.5C 388.378,441.136 392.378,441.136 396.5,441.5C 401.364,439.33 406.364,438.997 411.5,440.5C 412.923,441.449 414.423,442.449 416,443.5C 416.765,443.43 417.265,443.097 417.5,442.5C 422.792,440.836 428.126,440.503 433.5,441.5C 434.234,442.708 434.567,444.041 434.5,445.5C 435.167,446.833 435.833,446.833 436.5,445.5C 437.82,444.058 439.486,443.392 441.5,443.5C 448.559,443.664 455.559,444.33 462.5,445.5C 463.978,445.762 465.311,445.429 466.5,444.5C 464.887,443.573 463.221,442.739 461.5,442C 465.255,441.245 468.922,441.411 472.5,442.5C 473.5,442.5 474.5,442.5 475.5,442.5C 477.981,443.758 480.481,445.092 483,446.5C 483.399,446.272 483.565,445.938 483.5,445.5C 484.167,445.5 484.5,445.167 484.5,444.5C 489.629,443.191 494.629,443.691 499.5,446C 498.5,447 497.5,448 496.5,449C 500.064,448.621 501.398,446.788 500.5,443.5C 501.167,443.5 501.833,443.5 502.5,443.5C 507.875,443.172 513.208,443.505 518.5,444.5C 518.137,445.183 517.804,445.85 517.5,446.5C 517.5,447.167 517.833,447.5 518.5,447.5C 519.708,446.766 521.041,446.433 522.5,446.5C 522.833,446.5 523.167,446.5 523.5,446.5C 524.833,445.833 525.833,444.833 526.5,443.5C 527.919,442.549 529.585,442.216 531.5,442.5C 536.619,441.897 541.285,442.564 545.5,444.5C 545.842,445.338 546.508,445.672 547.5,445.5C 548.833,445.5 550.167,445.5 551.5,445.5C 551.833,445.5 552.167,445.5 552.5,445.5C 552.833,446.833 553.167,446.833 553.5,445.5C 553.791,444.351 554.624,443.684 556,443.5C 560.172,444.793 564.339,444.793 568.5,443.5C 569.741,444.037 570.908,444.704 572,445.5C 574.434,444.678 576.934,444.344 579.5,444.5C 581.338,445.678 583.005,445.345 584.5,443.5C 597.388,441.238 610.388,440.238 623.5,440.5C 628.511,440.666 633.511,440.499 638.5,440C 639.737,439.768 640.737,439.268 641.5,438.5C 651.094,437.127 660.761,436.46 670.5,436.5C 676.43,436.872 682.097,436.205 687.5,434.5C 688.833,434.167 690.167,433.833 691.5,433.5C 693.764,432.781 696.097,432.448 698.5,432.5 Z M 251.5,441.5 C 251.833,442.167 252.167,442.833 252.5,443.5C 251.508,443.328 250.842,443.662 250.5,444.5C 249.596,445.209 249.263,446.209 249.5,447.5C 251.604,447.201 253.604,447.534 255.5,448.5C 254.528,448.593 253.528,448.926 252.5,449.5C 250.833,449.5 249.167,449.5 247.5,449.5C 247.762,448.022 247.429,446.689 246.5,445.5C 244.889,446.32 244.222,447.654 244.5,449.5C 243.833,449.5 243.167,449.5 242.5,449.5C 242.52,447.857 241.853,446.524 240.5,445.5C 242.969,444.832 245.302,444.165 247.5,443.5C 248.467,442.194 249.801,441.527 251.5,441.5 Z M 297.5,445.5 C 297.167,445.5 296.833,445.5 296.5,445.5C 294.901,445.232 293.568,445.566 292.5,446.5C 290.5,446.5 289.5,447.5 289.5,449.5C 289.167,449.5 288.833,449.5 288.5,449.5C 285.695,448.681 282.695,448.181 279.5,448C 280.416,447.722 281.082,447.222 281.5,446.5C 284.059,446.802 286.393,446.468 288.5,445.5C 289.29,444.391 289.79,443.058 290,441.5C 290.667,442.833 291.333,442.833 292,441.5C 292.483,442.448 292.649,443.448 292.5,444.5C 294.415,444.216 296.081,444.549 297.5,445.5 Z M 190.5,442.5 C 192.167,442.5 193.833,442.5 195.5,442.5C 195.657,445.318 196.991,447.318 199.5,448.5C 197.833,448.5 196.167,448.5 194.5,448.5C 193.167,448.5 192.5,449.167 192.5,450.5C 190.716,450.107 189.05,449.441 187.5,448.5C 187.5,448.167 187.5,447.833 187.5,447.5C 185.801,447.473 184.467,446.806 183.5,445.5C 185.588,443.98 187.922,442.98 190.5,442.5 Z M 462.5,444.5 C 460.265,444.795 458.265,444.461 456.5,443.5C 458.556,442.839 460.556,443.172 462.5,444.5 Z M 270.5,443.5 C 270.833,443.5 271.167,443.5 271.5,443.5C 272.338,443.842 272.672,444.508 272.5,445.5C 271.833,445.5 271.167,445.5 270.5,445.5C 270.5,444.833 270.5,444.167 270.5,443.5 Z M 175.5,444.5 C 176.5,444.5 177.5,444.5 178.5,444.5C 178.932,445.71 179.599,446.71 180.5,447.5C 181.167,448.167 181.833,448.833 182.5,449.5C 180.142,449.747 178.142,449.081 176.5,447.5C 175.167,446.833 173.833,446.167 172.5,445.5C 173.391,444.89 174.391,444.557 175.5,444.5 Z M 215.5,444.5 C 216.492,444.328 217.158,444.662 217.5,445.5C 215.507,446.472 215.174,447.805 216.5,449.5C 216.167,449.5 215.833,449.5 215.5,449.5C 214.26,448.341 212.926,447.341 211.5,446.5C 211.833,446.5 212.167,446.5 212.5,446.5C 214.027,446.573 215.027,445.906 215.5,444.5 Z M 297.5,445.5 C 298.833,445.5 300.167,445.5 301.5,445.5C 301.5,445.833 301.5,446.167 301.5,446.5C 300.508,446.328 299.842,446.662 299.5,447.5C 298.167,447.5 297.5,446.833 297.5,445.5 Z M 144.5,446.5 C 143.5,447.167 142.5,447.833 141.5,448.5C 141.189,449.478 140.522,450.145 139.5,450.5C 138.571,449.311 138.238,447.978 138.5,446.5C 140.5,446.5 142.5,446.5 144.5,446.5 Z M 170.5,446.5 C 170.5,446.833 170.5,447.167 170.5,447.5C 169.71,448.401 168.71,449.068 167.5,449.5C 167.5,448.833 167.5,448.167 167.5,447.5C 168.391,446.89 169.391,446.557 170.5,446.5 Z M 308.5,447.5 C 309.167,447.5 309.5,447.833 309.5,448.5C 309.833,449.167 310.167,449.833 310.5,450.5C 309.833,450.5 309.167,450.5 308.5,450.5C 308.082,449.778 307.416,449.278 306.5,449C 307.416,448.722 308.082,448.222 308.5,447.5 Z M 199.5,448.5 C 200.833,448.5 202.167,448.5 203.5,448.5C 203.611,449.117 203.944,449.617 204.5,450C 202.326,450.877 200.659,450.377 199.5,448.5 Z"/></g>
<g><path style="opacity:0.798" fill="#4e4e4e" d="M 711.5,433.5 C 707.958,433.813 704.625,433.479 701.5,432.5C 703.547,432.489 705.547,432.156 707.5,431.5C 709.171,431.668 710.504,432.335 711.5,433.5 Z"/></g>
<g><path style="opacity:0.647" fill="#646464" d="M 687.5,434.5 C 682.097,436.205 676.43,436.872 670.5,436.5C 675.984,435.482 681.651,434.816 687.5,434.5 Z"/></g>
<g><path style="opacity:0.957" fill="#666666" d="M 714.5,434.5 C 717.317,435.095 719.65,436.428 721.5,438.5C 718.594,437.892 716.26,436.559 714.5,434.5 Z"/></g>
<g><path style="opacity:0.267" fill="#535353" d="M 197.5,437.5 C 194.615,437.194 191.948,437.527 189.5,438.5C 188.624,438.631 187.957,438.298 187.5,437.5C 190.98,436.194 194.313,436.194 197.5,437.5 Z"/></g>
<g><path style="opacity:0.341" fill="#2c2c2c" d="M 220.5,436.5 C 218.5,437.167 216.5,437.833 214.5,438.5C 213.957,438.44 213.624,438.107 213.5,437.5C 215.743,436.526 218.076,436.192 220.5,436.5 Z"/></g>
<g><path style="opacity:0.042" fill="#141414" d="M 235.5,436.5 C 238.167,437.167 238.167,437.833 235.5,438.5C 235.5,437.833 235.5,437.167 235.5,436.5 Z"/></g>
<g><path style="opacity:0.114" fill="#191919" d="M 242.5,437.5 C 243.209,436.596 244.209,436.263 245.5,436.5C 245.5,437.5 245.5,438.5 245.5,439.5C 244.778,438.449 243.778,437.782 242.5,437.5 Z"/></g>
<g><path style="opacity:0.851" fill="#707070" d="M 629.5,434.5 C 632.022,434.128 634.022,434.961 635.5,437C 633.833,437.667 632.167,437.667 630.5,437C 629.748,436.329 629.414,435.496 629.5,434.5 Z"/></g>
<g><path style="opacity:0.867" fill="#505050" d="M 211.5,438.5 C 209.585,438.784 207.919,438.451 206.5,437.5C 208.455,436.07 210.121,436.403 211.5,438.5 Z"/></g>
<g><path style="opacity:0.827" fill="#5f5f5f" d="M 261.5,439.5 C 256.534,439.4 251.534,439.4 246.5,439.5C 247.312,438.007 248.645,437.34 250.5,437.5C 253.345,438.73 256.178,438.73 259,437.5C 260.376,437.684 261.209,438.351 261.5,439.5 Z"/></g>
<g><path style="opacity:0.11" fill="#000000" d="M 265.5,437.5 C 266.675,437.281 267.675,437.614 268.5,438.5C 266.948,439.798 265.948,439.465 265.5,437.5 Z"/></g>
<g><path style="opacity:0.792" fill="#565656" d="M 185.5,439.5 C 183.958,440.301 182.292,440.634 180.5,440.5C 180.5,439.5 180.5,438.5 180.5,437.5C 182.781,437.077 184.448,437.744 185.5,439.5 Z"/></g>
<g><path style="opacity:0.044" fill="#0e0e0e" d="M 234.5,438.5 C 234.5,439.167 234.5,439.833 234.5,440.5C 228.014,439.224 228.014,438.558 234.5,438.5 Z"/></g>
<g><path style="opacity:0.116" fill="#1d1d1d" d="M 313.5,441.5 C 307.435,440.954 301.435,440.954 295.5,441.5C 298.623,440.213 301.957,439.213 305.5,438.5C 308.211,439.732 310.877,440.732 313.5,441.5 Z"/></g>
<g><path style="opacity:0.119" fill="#282828" d="M 175.5,440.5 C 175.5,440.833 175.5,441.167 175.5,441.5C 174.167,442.167 174.167,442.833 175.5,443.5C 175.5,443.833 175.5,444.167 175.5,444.5C 174.391,444.557 173.391,444.89 172.5,445.5C 172.808,443.076 172.474,440.743 171.5,438.5C 170.583,439.127 169.583,439.461 168.5,439.5C 169.134,438.053 170.301,437.387 172,437.5C 173.598,438.408 174.764,439.408 175.5,440.5 Z"/></g>
<g><path style="opacity:0.459" fill="#606060" d="M 179.5,440.5 C 178.432,441.434 177.099,441.768 175.5,441.5C 175.5,441.167 175.5,440.833 175.5,440.5C 176.55,440.095 176.55,439.429 175.5,438.5C 176.689,437.571 178.022,437.238 179.5,437.5C 179.5,438.5 179.5,439.5 179.5,440.5 Z"/></g>
<g><path style="opacity:0.271" fill="#3b3b3b" d="M 203.5,437.5 C 203.025,439.722 202.025,440.389 200.5,439.5C 201.222,438.449 202.222,437.782 203.5,437.5 Z"/></g>
<g><path style="opacity:0.178" fill="#535353" d="M 396.5,441.5 C 392.378,441.136 388.378,441.136 384.5,441.5C 385.514,440.235 387.014,439.569 389,439.5C 391.821,439.408 394.321,440.074 396.5,441.5 Z"/></g>
<g><path style="opacity:0.749" fill="#515151" d="M 448.5,442.5 C 447.833,442.5 447.167,442.5 446.5,442.5C 444.922,440.682 445.422,439.682 448,439.5C 451.007,439.999 451.174,440.999 448.5,442.5 Z"/></g>
<g><path style="opacity:0.765" fill="#6a6a6a" d="M 641.5,438.5 C 640.737,439.268 639.737,439.768 638.5,440C 633.511,440.499 628.511,440.666 623.5,440.5C 629.34,439.649 635.34,438.982 641.5,438.5 Z"/></g>
<g><path style="opacity:0.044" fill="#303030" d="M 293.5,441.5 C 295.597,443.482 298.264,444.482 301.5,444.5C 301.5,444.833 301.5,445.167 301.5,445.5C 300.167,445.5 298.833,445.5 297.5,445.5C 296.081,444.549 294.415,444.216 292.5,444.5C 292.649,443.448 292.483,442.448 292,441.5C 291.333,442.833 290.667,442.833 290,441.5C 289.79,443.058 289.29,444.391 288.5,445.5C 288.567,444.041 288.234,442.708 287.5,441.5C 288.234,440.071 289.401,439.071 291,438.5C 292.749,438.748 293.582,439.748 293.5,441.5 Z"/></g>
<g><path style="opacity:0.922" fill="#787878" d="M 384.5,442.5 C 382.733,443.65 381.567,442.983 381,440.5C 373.253,441.482 365.42,441.815 357.5,441.5C 366.014,440.715 374.681,440.048 383.5,439.5C 383.263,440.791 383.596,441.791 384.5,442.5 Z"/></g>
<g><path style="opacity:0.922" fill="#6e6e6e" d="M 723.5,439.5 C 724.906,439.973 725.573,440.973 725.5,442.5C 724.094,442.027 723.427,441.027 723.5,439.5 Z"/></g>
<g><path style="opacity:0.643" fill="#666666" d="M 157.5,441.5 C 154.43,441.368 151.43,441.701 148.5,442.5C 150.375,440.761 152.708,439.761 155.5,439.5C 156.713,439.747 157.38,440.414 157.5,441.5 Z"/></g>
<g><path style="opacity:1" fill="#dfdfdf" d="M 287.5,441.5 C 288.234,442.708 288.567,444.041 288.5,445.5C 286.708,445.634 285.042,445.301 283.5,444.5C 283.44,443.957 283.107,443.624 282.5,443.5C 281.614,444.325 281.281,445.325 281.5,446.5C 278.763,446.599 276.096,446.265 273.5,445.5C 275.007,444.025 276.673,442.691 278.5,441.5C 281.604,440.225 284.604,440.225 287.5,441.5 Z"/></g>
<g><path style="opacity:0.976" fill="#cecece" d="M 313.5,441.5 C 317.763,439.465 320.096,440.798 320.5,445.5C 319.778,445.082 319.278,444.416 319,443.5C 318.722,444.416 318.222,445.082 317.5,445.5C 317.5,444.167 316.833,443.5 315.5,443.5C 313.5,442.167 311.5,442.167 309.5,443.5C 308.833,443.5 308.5,443.833 308.5,444.5C 307.391,444.557 306.391,444.89 305.5,445.5C 305.672,444.508 305.338,443.842 304.5,443.5C 304.167,443.5 303.833,443.5 303.5,443.5C 302.833,443.5 302.5,443.833 302.5,444.5C 302.167,444.5 301.833,444.5 301.5,444.5C 298.264,444.482 295.597,443.482 293.5,441.5C 294.167,441.5 294.833,441.5 295.5,441.5C 301.435,440.954 307.435,440.954 313.5,441.5 Z"/></g>
<g><path style="opacity:0.482" fill="#5a5a5a" d="M 346.5,442.5 C 344.419,445.318 341.752,445.985 338.5,444.5C 340.078,443.702 341.744,443.202 343.5,443C 341.881,442.764 340.881,441.931 340.5,440.5C 340.47,439.503 340.97,438.836 342,438.5C 343.715,439.604 345.215,440.938 346.5,442.5 Z"/></g>
<g><path style="opacity:0.486" fill="#565656" d="M 352.5,441.5 C 350.735,442.461 348.735,442.795 346.5,442.5C 347.69,439.923 349.69,439.09 352.5,440C 351.262,440.69 351.262,441.19 352.5,441.5 Z"/></g>
<g><path style="opacity:0.275" fill="#848484" d="M 411.5,440.5 C 413.718,440.614 415.718,441.28 417.5,442.5C 417.265,443.097 416.765,443.43 416,443.5C 414.423,442.449 412.923,441.449 411.5,440.5 Z"/></g>
<g><path style="opacity:0.02" fill="#202020" d="M 433.5,441.5 C 434.586,441.62 435.253,442.287 435.5,443.5C 435.457,444.416 435.124,445.083 434.5,445.5C 434.567,444.041 434.234,442.708 433.5,441.5 Z"/></g>
<g><path style="opacity:0.081" fill="#000000" d="M 489.5,442.5 C 491.693,441.203 494.027,441.203 496.5,442.5C 496.376,443.107 496.043,443.44 495.5,443.5C 493.735,442.539 491.735,442.205 489.5,442.5 Z"/></g>
<g><path style="opacity:0.39" fill="#3d3d3d" d="M 531.5,442.5 C 536.68,441.185 542.014,441.185 547.5,442.5C 547.145,443.522 546.478,444.189 545.5,444.5C 541.285,442.564 536.619,441.897 531.5,442.5 Z"/></g>
<g><path style="opacity:0.224" fill="#4c4c4c" d="M 251.5,441.5 C 252.675,441.281 253.675,441.614 254.5,442.5C 254.043,443.298 253.376,443.631 252.5,443.5C 252.167,442.833 251.833,442.167 251.5,441.5 Z"/></g>
<g><path style="opacity:0.035" fill="#2d2d2d" d="M 269.5,440.5 C 271.277,440.786 272.944,441.453 274.5,442.5C 275.849,442.154 277.183,441.821 278.5,441.5C 276.673,442.691 275.007,444.025 273.5,445.5C 273.167,445.5 272.833,445.5 272.5,445.5C 272.672,444.508 272.338,443.842 271.5,443.5C 271.218,442.222 270.551,441.222 269.5,440.5 Z"/></g>
<g><path style="opacity:0.12" fill="#0b0b0b" d="M 441.5,442.5 C 441.5,442.833 441.5,443.167 441.5,443.5C 439.486,443.392 437.82,444.058 436.5,445.5C 437.048,442.916 438.715,441.916 441.5,442.5 Z"/></g>
<g><path style="opacity:0.6" fill="#afafaf" d="M 441.5,443.5 C 441.5,443.167 441.5,442.833 441.5,442.5C 443.167,442.5 444.833,442.5 446.5,442.5C 447.167,442.5 447.833,442.5 448.5,442.5C 450.167,442.5 451.833,442.5 453.5,442.5C 454.791,442.263 455.791,442.596 456.5,443.5C 458.265,444.461 460.265,444.795 462.5,444.5C 462.5,444.833 462.5,445.167 462.5,445.5C 455.559,444.33 448.559,443.664 441.5,443.5 Z"/></g>
<g><path style="opacity:0.012" fill="#313131" d="M 522.5,446.5 C 521.041,446.433 519.708,446.766 518.5,447.5C 517.833,447.5 517.5,447.167 517.5,446.5C 517.804,445.85 518.137,445.183 518.5,444.5C 513.208,443.505 507.875,443.172 502.5,443.5C 506.7,442.78 511.033,442.114 515.5,441.5C 516.736,442.246 518.07,442.579 519.5,442.5C 519.5,443.5 519.5,444.5 519.5,445.5C 520.791,445.263 521.791,445.596 522.5,446.5 Z"/></g>
<g><path style="opacity:0.471" fill="#929292" d="M 190.5,442.5 C 187.922,442.98 185.588,443.98 183.5,445.5C 183.179,447.048 182.179,447.715 180.5,447.5C 180.715,445.821 180.048,444.821 178.5,444.5C 177.5,444.5 176.5,444.5 175.5,444.5C 175.5,444.167 175.5,443.833 175.5,443.5C 180.507,443.249 185.507,442.916 190.5,442.5 Z"/></g>
<g><path style="opacity:0.061" fill="#101010" d="M 270.5,443.5 C 270.5,444.167 270.5,444.833 270.5,445.5C 269.833,445.5 269.167,445.5 268.5,445.5C 267.833,445.5 267.5,445.167 267.5,444.5C 267.452,443.493 268.452,443.16 270.5,443.5 Z"/></g>
<g><path style="opacity:0.043" fill="#0b0b0b" d="M 315.5,444.5 C 315.5,444.167 315.5,443.833 315.5,443.5C 316.833,443.5 317.5,444.167 317.5,445.5C 317.167,445.5 316.833,445.5 316.5,445.5C 315.833,445.5 315.5,445.167 315.5,444.5 Z"/></g>
<g><path style="opacity:0.192" fill="#0c0c0c" d="M 326.5,444.5 C 328.628,443.371 330.961,443.204 333.5,444C 333,444.5 332.5,445 332,445.5C 330.301,444.594 328.467,444.261 326.5,444.5 Z"/></g>
<g><path style="opacity:0.012" fill="#000000" d="M 408.5,443.5 C 409.376,443.369 410.043,443.702 410.5,444.5C 409.277,445.614 407.944,445.781 406.5,445C 407.416,444.722 408.082,444.222 408.5,443.5 Z"/></g>
<g><path style="opacity:0.929" fill="#585858" d="M 475.5,442.5 C 478.831,442.018 481.497,443.018 483.5,445.5C 483.565,445.938 483.399,446.272 483,446.5C 480.481,445.092 477.981,443.758 475.5,442.5 Z"/></g>
<g><path style="opacity:0.549" fill="#727272" d="M 489.5,442.5 C 491.735,442.205 493.735,442.539 495.5,443.5C 496.999,444.494 498.666,444.494 500.5,443.5C 501.398,446.788 500.064,448.621 496.5,449C 497.5,448 498.5,447 499.5,446C 494.629,443.691 489.629,443.191 484.5,444.5C 485.635,442.787 487.302,442.12 489.5,442.5 Z"/></g>
<g><path style="opacity:0.4" fill="#636363" d="M 579.5,444.5 C 576.934,444.344 574.434,444.678 572,445.5C 570.908,444.704 569.741,444.037 568.5,443.5C 564.339,444.793 560.172,444.793 556,443.5C 554.624,443.684 553.791,444.351 553.5,445.5C 553.167,445.5 552.833,445.5 552.5,445.5C 552.5,444.5 552.5,443.5 552.5,442.5C 555.867,442.457 559.201,442.79 562.5,443.5C 565.437,442.53 568.437,441.863 571.5,441.5C 571.351,442.552 571.517,443.552 572,444.5C 573.707,443.541 575.541,442.875 577.5,442.5C 578.713,442.747 579.38,443.414 579.5,444.5 Z"/></g>
<g><path style="opacity:0.767" fill="#585858" d="M 584.5,443.5 C 583.005,445.345 581.338,445.678 579.5,444.5C 581.169,443.11 582.836,442.777 584.5,443.5 Z"/></g>
<g><path style="opacity:0.084" fill="#000000" d="M 96.5,445.5 C 98.7257,444.244 101.059,444.244 103.5,445.5C 103.217,446.289 102.717,446.956 102,447.5C 100.599,445.808 98.7659,445.141 96.5,445.5 Z"/></g>
<g><path style="opacity:0.525" fill="#999999" d="M 137.5,442.5 C 137.389,443.117 137.056,443.617 136.5,444C 130.168,445.593 123.834,445.76 117.5,444.5C 124.065,444.851 130.732,444.185 137.5,442.5 Z"/></g>
<g><path style="opacity:0.066" fill="#000000" d="M 178.5,444.5 C 180.048,444.821 180.715,445.821 180.5,447.5C 179.599,446.71 178.932,445.71 178.5,444.5 Z"/></g>
<g><path style="opacity:0.075" fill="#1a1a1a" d="M 190.5,447.5 C 189.833,444.833 189.167,444.833 188.5,447.5C 188.167,447.5 187.833,447.5 187.5,447.5C 187.5,446.5 187.5,445.5 187.5,444.5C 188.833,444.5 190.167,444.5 191.5,444.5C 191.737,445.791 191.404,446.791 190.5,447.5 Z"/></g>
<g><path style="opacity:0.996" fill="#7b7b7b" d="M 195.5,442.5 C 198.346,442.03 200.679,442.863 202.5,445C 200.874,444.805 199.207,444.805 197.5,445C 199.618,446.082 201.618,447.249 203.5,448.5C 202.167,448.5 200.833,448.5 199.5,448.5C 196.991,447.318 195.657,445.318 195.5,442.5 Z"/></g>
<g><path style="opacity:0.518" fill="#838383" d="M 223.5,443.5 C 224.043,443.56 224.376,443.893 224.5,444.5C 223.311,445.429 221.978,445.762 220.5,445.5C 220.5,444.5 220.5,443.5 220.5,442.5C 221.791,442.263 222.791,442.596 223.5,443.5 Z"/></g>
<g><path style="opacity:0.107" fill="#0f0f0f" d="M 247.5,443.5 C 245.302,444.165 242.969,444.832 240.5,445.5C 241.853,446.524 242.52,447.857 242.5,449.5C 240.661,447.924 238.661,447.091 236.5,447C 239.537,444.152 243.204,442.985 247.5,443.5 Z"/></g>
<g><path style="opacity:0.013" fill="#080808" d="M 360.5,443.5 C 363.079,444.228 365.746,444.728 368.5,445C 367.167,445.167 365.833,445.333 364.5,445.5C 362.667,445.415 361.334,444.748 360.5,443.5 Z"/></g>
<g><path style="opacity:0.647" fill="#616161" d="M 472.5,442.5 C 468.922,441.411 465.255,441.245 461.5,442C 463.221,442.739 464.887,443.573 466.5,444.5C 465.311,445.429 463.978,445.762 462.5,445.5C 462.5,445.167 462.5,444.833 462.5,444.5C 460.556,443.172 458.556,442.839 456.5,443.5C 455.791,442.596 454.791,442.263 453.5,442.5C 457.611,441.292 461.945,440.625 466.5,440.5C 468.952,440.539 470.952,441.206 472.5,442.5 Z"/></g>
<g><path style="opacity:0.761" fill="#434343" d="M 526.5,443.5 C 525.833,444.833 524.833,445.833 523.5,446.5C 523.5,444.5 524.5,443.5 526.5,443.5 Z"/></g>
<g><path style="opacity:0.776" fill="#484848" d="M 551.5,445.5 C 550.167,445.5 548.833,445.5 547.5,445.5C 549.002,442.978 550.335,442.978 551.5,445.5 Z"/></g>
<g><path style="opacity:0.048" fill="#111111" d="M 183.5,445.5 C 184.467,446.806 185.801,447.473 187.5,447.5C 187.5,447.833 187.5,448.167 187.5,448.5C 185.708,448.366 184.042,448.699 182.5,449.5C 181.833,448.833 181.167,448.167 180.5,447.5C 182.179,447.715 183.179,447.048 183.5,445.5 Z"/></g>
<g><path style="opacity:0.016" fill="#272727" d="M 215.5,444.5 C 215.027,445.906 214.027,446.573 212.5,446.5C 212.973,445.094 213.973,444.427 215.5,444.5 Z"/></g>
<g><path style="opacity:0.004" fill="#424242" d="M 283.5,444.5 C 285.042,445.301 286.708,445.634 288.5,445.5C 286.393,446.468 284.059,446.802 281.5,446.5C 281.281,445.325 281.614,444.325 282.5,443.5C 283.107,443.624 283.44,443.957 283.5,444.5 Z"/></g>
<g><path style="opacity:0.671" fill="#404040" d="M 303.5,443.5 C 303.833,444.833 304.167,444.833 304.5,443.5C 305.338,443.842 305.672,444.508 305.5,445.5C 304.167,445.833 302.833,446.167 301.5,446.5C 301.5,446.167 301.5,445.833 301.5,445.5C 302.167,445.5 302.5,445.167 302.5,444.5C 302.5,443.833 302.833,443.5 303.5,443.5 Z"/></g>
<g><path style="opacity:0.29" fill="#707070" d="M 134.5,448.5 C 133.833,447.167 133.167,447.167 132.5,448.5C 129.848,447.706 130.015,447.04 133,446.5C 133.833,446.833 134.667,447.167 135.5,447.5C 135.376,448.107 135.043,448.44 134.5,448.5 Z"/></g>
<g><path style="opacity:0.722" fill="#484848" d="M 172.5,445.5 C 173.833,446.167 175.167,446.833 176.5,447.5C 174.5,447.5 172.5,447.5 170.5,447.5C 170.5,447.167 170.5,446.833 170.5,446.5C 170.842,445.662 171.508,445.328 172.5,445.5 Z"/></g>
<g><path style="opacity:0.627" fill="#b2b2b2" d="M 190.5,447.5 C 189.833,447.5 189.167,447.5 188.5,447.5C 189.167,444.833 189.833,444.833 190.5,447.5 Z"/></g>
<g><path style="opacity:0.149" fill="#565656" d="M 273.5,445.5 C 276.096,446.265 278.763,446.599 281.5,446.5C 281.082,447.222 280.416,447.722 279.5,448C 282.695,448.181 285.695,448.681 288.5,449.5C 284.486,449.666 280.486,449.499 276.5,449C 275.058,448.623 274.058,447.79 273.5,446.5C 273.5,446.167 273.5,445.833 273.5,445.5 Z"/></g>
<g><path style="opacity:0.78" fill="#595959" d="M 92.5,446.5 C 91.7375,447.268 90.7375,447.768 89.5,448C 80.8397,448.5 72.1731,448.666 63.5,448.5C 60.5,448.5 57.5,448.5 54.5,448.5C 67.0178,447.756 79.6844,447.089 92.5,446.5 Z"/></g>
<g><path style="opacity:0.064" fill="#040404" d="M 144.5,446.5 C 145.338,446.842 145.672,447.508 145.5,448.5C 144.167,448.5 142.833,448.5 141.5,448.5C 142.5,447.833 143.5,447.167 144.5,446.5 Z"/></g>
<g><path style="opacity:0.553" fill="#7d7d7d" d="M 217.5,445.5 C 229.742,448.773 229.409,450.106 216.5,449.5C 215.174,447.805 215.507,446.472 217.5,445.5 Z"/></g>
<g><path style="opacity:0.553" fill="#424242" d="M 247.5,449.5 C 246.5,449.5 245.5,449.5 244.5,449.5C 244.222,447.654 244.889,446.32 246.5,445.5C 247.429,446.689 247.762,448.022 247.5,449.5 Z"/></g>
<g><path style="opacity:0.033" fill="#1e1e1e" d="M 296.5,445.5 C 296.833,445.5 297.167,445.5 297.5,445.5C 297.5,446.833 298.167,447.5 299.5,447.5C 299.158,448.338 298.492,448.672 297.5,448.5C 296.833,448.5 296.167,448.5 295.5,448.5C 296.11,447.609 296.443,446.609 296.5,445.5 Z"/></g>
<g><path style="opacity:0.046" fill="#1c1c1c" d="M 314.5,446.5 C 314.5,447.167 314.833,447.5 315.5,447.5C 315.737,448.791 315.404,449.791 314.5,450.5C 314.167,449.167 313.833,449.167 313.5,450.5C 312.5,450.5 311.5,450.5 310.5,450.5C 310.167,449.833 309.833,449.167 309.5,448.5C 311.554,448.635 313.221,447.968 314.5,446.5 Z"/></g>
<g><path style="opacity:0.07" fill="#1c1c1c" d="M 167.5,447.5 C 167.5,448.167 167.5,448.833 167.5,449.5C 164.604,450.775 161.604,450.775 158.5,449.5C 158.5,449.167 158.5,448.833 158.5,448.5C 161.609,448.736 164.609,448.403 167.5,447.5 Z"/></g>
<g><path style="opacity:0.945" fill="#767676" d="M 292.5,446.5 C 292.029,447.901 291.362,449.234 290.5,450.5C 289.893,450.376 289.56,450.043 289.5,449.5C 289.5,447.5 290.5,446.5 292.5,446.5 Z"/></g>
<g><path style="opacity:0.05" fill="#202020" d="M 308.5,447.5 C 308.082,448.222 307.416,448.722 306.5,449C 307.416,449.278 308.082,449.778 308.5,450.5C 307.022,450.762 305.689,450.429 304.5,449.5C 305.32,447.889 306.654,447.222 308.5,447.5 Z"/></g>
<g><path style="opacity:0.958" fill="#8e8e8e" d="M 54.5,448.5 C 57.5,448.5 60.5,448.5 63.5,448.5C 52.6869,449.771 41.6869,450.604 30.5,451C 29.7562,452.039 28.7562,452.539 27.5,452.5C 28.2899,451.206 29.2899,450.039 30.5,449C 38.5028,449.757 46.5028,449.591 54.5,448.5 Z"/></g>
<g><path style="opacity:0.008" fill="#202020" d="M 146.5,448.5 C 148.332,449.14 148.665,450.14 147.5,451.5C 146.478,451.145 145.811,450.478 145.5,449.5C 146.167,449.5 146.5,449.167 146.5,448.5 Z"/></g>
<g><path style="opacity:0.969" fill="#565656" d="M 187.5,448.5 C 189.05,449.441 190.716,450.107 192.5,450.5C 190.176,451.833 188.509,451.166 187.5,448.5 Z"/></g>
<g><path style="opacity:0.114" fill="#151515" d="M 194.5,448.5 C 194.167,449.5 193.5,450.167 192.5,450.5C 192.5,449.167 193.167,448.5 194.5,448.5 Z"/></g>
<g><path style="opacity:0.506" fill="#5b5b5b" d="M 211.5,446.5 C 212.926,447.341 214.26,448.341 215.5,449.5C 215.44,450.043 215.107,450.376 214.5,450.5C 212.689,449.173 210.689,448.173 208.5,447.5C 209.325,446.614 210.325,446.281 211.5,446.5 Z"/></g>
<g><path style="opacity:0.184" fill="#404040" d="M 250.5,444.5 C 251.572,446.84 253.239,447.173 255.5,445.5C 256.452,447.045 256.785,448.712 256.5,450.5C 254.901,450.768 253.568,450.434 252.5,449.5C 253.528,448.926 254.528,448.593 255.5,448.5C 253.604,447.534 251.604,447.201 249.5,447.5C 249.263,446.209 249.596,445.209 250.5,444.5 Z"/></g>
<g><path style="opacity:0.024" fill="#171717" d="M 727.5,449.5 C 727.573,451.027 726.906,452.027 725.5,452.5C 725.427,450.973 726.094,449.973 727.5,449.5 Z"/></g>
<g><path style="opacity:0.886" fill="#888888" d="M 21.5,452.5 C 23.3469,451.427 25.3469,451.427 27.5,452.5C 26.7387,453.391 25.7387,454.058 24.5,454.5C 23.7348,453.388 22.7348,452.721 21.5,452.5 Z"/></g>
<g><path style="opacity:0.996" fill="#a1a1a1" d="M 719.5,453.5 C 719.5,453.833 719.5,454.167 719.5,454.5C 718.833,458.5 718.167,458.5 717.5,454.5C 717.842,453.662 718.508,453.328 719.5,453.5 Z"/></g>
<g><path style="opacity:0.745" fill="#323232" d="M 715.5,455.5 C 715.842,454.662 716.508,454.328 717.5,454.5C 718.167,458.5 718.833,458.5 719.5,454.5C 721.373,455.896 721.706,457.563 720.5,459.5C 718.048,458.935 715.715,458.268 713.5,457.5C 714.675,457.719 715.675,457.386 716.5,456.5C 716.376,455.893 716.043,455.56 715.5,455.5 Z"/></g>
<g><path style="opacity:1" fill="#7a7a7a" d="M 16.5,453.5 C 14.8291,455.637 13.1625,457.637 11.5,459.5C 11.7717,456.268 13.4384,454.268 16.5,453.5 Z"/></g>
<g><path style="opacity:0.132" fill="#0c0c0c" d="M 716.5,462.5 C 716.179,464.048 715.179,464.715 713.5,464.5C 714.469,463.691 715.302,462.691 716,461.5C 716.399,461.728 716.565,462.062 716.5,462.5 Z"/></g>
<g><path style="opacity:0.996" fill="#6f6f6f" d="M 10.5,461.5 C 10.5,463.5 10.5,465.5 10.5,467.5C 12.1788,467.285 13.1788,467.952 13.5,469.5C 8.21973,468.365 7.21973,465.699 10.5,461.5 Z"/></g>
<g><path style="opacity:0.396" fill="#303030" d="M 709.5,466.5 C 711.099,466.232 712.432,466.566 713.5,467.5C 711.856,467.286 710.356,467.62 709,468.5C 708.308,467.563 708.475,466.897 709.5,466.5 Z"/></g>
<g><path style="opacity:0.302" fill="#5b5b5b" d="M 676.5,467.5 C 677.713,468.497 677.546,469.497 676,470.5C 675.53,469.423 675.697,468.423 676.5,467.5 Z"/></g>
<g><path style="opacity:0.125" fill="#333333" d="M 712.5,471.5 C 712.5,471.833 712.5,472.167 712.5,472.5C 709.721,472.279 707.054,472.612 704.5,473.5C 706.635,471.631 709.302,470.964 712.5,471.5 Z"/></g>
<g><path style="opacity:0.053" fill="#252525" d="M 23.5,472.5 C 27.7723,475.035 27.439,476.368 22.5,476.5C 22.4326,475.041 22.7659,473.708 23.5,472.5 Z"/></g>
<g><path style="opacity:0.082" fill="#3b3b3b" d="M 715.5,467.5 C 717.788,470.449 717.788,473.449 715.5,476.5C 714.833,477.833 714.167,477.833 713.5,476.5C 712.754,475.264 712.421,473.93 712.5,472.5C 712.833,472.5 713.167,472.5 713.5,472.5C 713.5,472.167 713.5,471.833 713.5,471.5C 714.167,471.5 714.5,471.167 714.5,470.5C 715.11,469.609 715.443,468.609 715.5,467.5 Z"/></g>
<g><path style="opacity:1" fill="#f0f0f0" d="M 713.5,472.5 C 715.337,472.639 715.67,473.306 714.5,474.5C 713.702,474.043 713.369,473.376 713.5,472.5 Z"/></g>
<g><path style="opacity:0.949" fill="#6b6b6b" d="M 14.5,476.5 C 13.8698,478.75 12.8698,480.75 11.5,482.5C 11.0311,479.607 12.0311,477.607 14.5,476.5 Z"/></g>
<g><path style="opacity:0.929" fill="#5e5e5e" d="M 705.5,476.5 C 710.574,476.649 712.907,479.316 712.5,484.5C 712.564,486.557 711.898,488.223 710.5,489.5C 711.986,486.1 711.82,482.767 710,479.5C 707.974,479.085 706.474,478.085 705.5,476.5 Z"/></g>
<g><path style="opacity:0.529" fill="#363636" d="M 11.5,482.5 C 10.7814,484.764 10.448,487.097 10.5,489.5C 9.85287,488.726 9.51954,487.726 9.5,486.5C 9.34024,484.645 10.0069,483.312 11.5,482.5 Z"/></g>
<g><path style="opacity:0.384" fill="#999999" d="M 10.5,489.5 C 11.8048,491.397 12.4714,493.731 12.5,496.5C 12.4966,499.025 12.1633,501.359 11.5,503.5C 11.7744,498.737 11.441,494.07 10.5,489.5 Z"/></g>
<g><path style="opacity:0.02" fill="#151515" d="M 709.5,493.5 C 709.167,495.833 707.833,497.167 705.5,497.5C 706.5,495.833 707.833,494.5 709.5,493.5 Z"/></g>
<g><path style="opacity:0.91" fill="#717171" d="M 609.5,503.5 C 602.01,504.799 594.343,505.799 586.5,506.5C 586.611,505.883 586.944,505.383 587.5,505C 594.815,504.168 602.148,503.668 609.5,503.5 Z"/></g>
<g><path style="opacity:0.424" fill="#282828" d="M 246.5,510.5 C 244.016,511.369 241.349,512.036 238.5,512.5C 237.584,512.457 236.917,512.124 236.5,511.5C 239.625,510.521 242.958,510.187 246.5,510.5 Z"/></g>
<g><path style="opacity:0.089" fill="#0e0e0e" d="M 541.5,509.5 C 495.345,511.2 449.011,511.867 402.5,511.5C 448.664,510.436 494.998,509.77 541.5,509.5 Z"/></g>
</svg>
