<?xml version="1.0" encoding="UTF-8"?>
<!DOCTYPE svg PUBLIC "-//W3C//DTD SVG 1.1//EN" "http://www.w3.org/Graphics/SVG/1.1/DTD/svg11.dtd">
<svg xmlns="http://www.w3.org/2000/svg" version="1.1" width="724px" height="788px" style="shape-rendering:geometricPrecision; text-rendering:geometricPrecision; image-rendering:optimizeQuality; fill-rule:evenodd; clip-rule:evenodd" xmlns:xlink="http://www.w3.org/1999/xlink">
<g><path style="opacity:0.955" fill="#fefffe" d="M 584.5,-0.5 C 586.167,-0.5 587.833,-0.5 589.5,-0.5C 591.132,0.83196 592.799,2.16529 594.5,3.5C 591.542,5.95568 588.709,8.62234 586,11.5C 585.333,12.8333 585.333,14.1667 586,15.5C 586.483,14.552 586.649,13.552 586.5,12.5C 587.5,12.5 588.5,12.5 589.5,12.5C 589.192,14.924 589.526,17.2573 590.5,19.5C 592.167,17.8333 593.167,18.1667 593.5,20.5C 592.612,22.155 592.112,23.8217 592,25.5C 595.006,23.9653 598.173,23.4653 601.5,24C 608.337,27.1695 614.337,31.5028 619.5,37C 619.167,37.3333 618.833,37.6667 618.5,38C 624.78,40.4477 628.78,44.9477 630.5,51.5C 630.237,54.0278 629.404,56.3611 628,58.5C 601.866,85.9623 577.2,114.629 554,144.5C 542.269,163.239 530.935,182.239 520,201.5C 515.217,208.617 510.051,215.45 504.5,222C 505.535,223.507 505.368,225.007 504,226.5C 497.483,234.029 492.15,242.362 488,251.5C 486.622,253.213 484.955,254.547 483,255.5C 474.816,269.688 465.816,283.354 456,296.5C 453.542,302.43 449.875,307.43 445,311.5C 443.071,316.412 440.738,321.078 438,325.5C 437,326.167 436,326.833 435,327.5C 431.54,335.295 426.874,342.295 421,348.5C 417.375,355.576 412.875,362.076 407.5,368C 406.167,368.333 404.833,368.667 403.5,369C 404.672,370.868 404.505,372.702 403,374.5C 399.036,380.264 395.203,386.098 391.5,392C 395.628,398.415 400.128,404.582 405,410.5C 417.065,421.896 428.398,433.896 439,446.5C 452.175,459.043 465.009,471.876 477.5,485C 481.667,488.5 485.833,492 490,495.5C 493.632,500.134 497.632,504.467 502,508.5C 503.438,509.9 504.271,511.567 504.5,513.5C 505.873,513.343 507.207,513.51 508.5,514C 515.185,522.347 522.185,530.347 529.5,538C 531.087,538.862 532.754,539.529 534.5,540C 550.734,553.911 566.567,568.077 582,582.5C 587.213,589.722 593.213,596.389 600,602.5C 603.118,607.286 606.618,611.786 610.5,616C 609.692,616.308 609.025,616.808 608.5,617.5C 609.391,618.59 610.391,618.59 611.5,617.5C 612.452,619.045 612.785,620.712 612.5,622.5C 613.833,622.5 615.167,622.5 616.5,622.5C 617.264,625.787 619.097,628.454 622,630.5C 622.233,632.78 623.066,634.78 624.5,636.5C 626.567,637.134 628.4,638.134 630,639.5C 633.934,644.11 637.934,648.777 642,653.5C 643.559,655.217 644.392,657.217 644.5,659.5C 645.822,659.33 646.989,659.663 648,660.5C 648.785,662.286 649.951,663.786 651.5,665C 650.697,669.377 652.697,671.543 657.5,671.5C 656.79,674.86 658.124,676.693 661.5,677C 661.167,677.333 660.833,677.667 660.5,678C 663.311,679.644 665.644,681.81 667.5,684.5C 667.291,685.086 666.957,685.586 666.5,686C 668.25,687.319 670.25,687.819 672.5,687.5C 672.579,688.93 672.246,690.264 671.5,691.5C 672.529,691.296 673.529,691.796 674.5,693C 674.167,693.333 673.833,693.667 673.5,694C 676.106,694.45 677.439,695.95 677.5,698.5C 681.658,698.475 683.324,700.308 682.5,704C 683.833,704.333 685.167,704.667 686.5,705C 688.289,707.279 690.289,709.279 692.5,711C 691.833,711.333 691.167,711.667 690.5,712C 695.707,713.041 698.707,716.208 699.5,721.5C 707.491,727.497 715.491,733.497 723.5,739.5C 723.5,741.5 723.5,743.5 723.5,745.5C 718.806,747.402 715.473,750.236 713.5,754C 710.377,754.206 707.377,754.873 704.5,756C 705,756.5 705.5,757 706,757.5C 707.011,756.663 708.178,756.33 709.5,756.5C 709.785,758.288 709.452,759.955 708.5,761.5C 705.942,759.869 703.275,758.535 700.5,757.5C 701.857,753.038 700.524,752.371 696.5,755.5C 695.614,754.675 695.281,753.675 695.5,752.5C 697.681,752.716 699.347,751.883 700.5,750C 698.5,749.167 696.5,748.333 694.5,747.5C 694.709,746.914 695.043,746.414 695.5,746C 689.895,744.393 685.395,741.226 682,736.5C 679.447,738.539 676.947,740.705 674.5,743C 675.308,743.308 675.975,743.808 676.5,744.5C 673.053,745.723 669.72,747.223 666.5,749C 667.357,749.689 668.023,750.522 668.5,751.5C 666.033,753.79 666.033,755.957 668.5,758C 666.385,758.424 665.552,759.591 666,761.5C 668.493,760.054 670.327,760.721 671.5,763.5C 673.516,762.294 675.516,762.294 677.5,763.5C 676.515,765.098 676.349,766.765 677,768.5C 679.065,770.695 681.565,772.195 684.5,773C 683.095,774.269 681.429,774.769 679.5,774.5C 679.561,776.592 680.561,778.092 682.5,779C 679.428,780.691 676.761,780.024 674.5,777C 675.833,776.333 675.833,775.667 674.5,775C 672.926,774.301 671.593,774.635 670.5,776C 670.797,779.498 672.13,782.498 674.5,785C 672.074,784.952 669.741,785.119 667.5,785.5C 666.522,785.023 665.689,784.357 665,783.5C 663.342,780.023 662.175,776.357 661.5,772.5C 658.313,773.04 655.813,772.04 654,769.5C 647.806,772.108 642.639,770.608 638.5,765C 637.207,764.51 635.873,764.343 634.5,764.5C 634.209,765.649 633.376,766.316 632,766.5C 631.167,766.333 630.333,766.167 629.5,766C 627.792,763.957 625.792,762.29 623.5,761C 621.265,758.415 620.931,755.582 622.5,752.5C 624.213,751.365 624.88,749.698 624.5,747.5C 625.552,747.649 626.552,747.483 627.5,747C 625.273,746.879 623.44,746.046 622,744.5C 618.256,745.626 614.423,745.793 610.5,745C 612.306,744.19 613.806,743.024 615,741.5C 616,742.167 617,742.833 618,743.5C 618.5,743.167 619,742.833 619.5,742.5C 618.167,741.5 616.833,740.5 615.5,739.5C 615.833,738.833 616.167,738.167 616.5,737.5C 618.5,736.833 620.5,736.167 622.5,735.5C 620.842,733.677 619.009,732.01 617,730.5C 615.117,731.653 614.284,733.319 614.5,735.5C 610.103,735.228 608.436,733.061 609.5,729C 605.204,727.487 601.204,725.487 597.5,723C 598.833,722.667 600.167,722.333 601.5,722C 599.744,721.798 598.078,721.298 596.5,720.5C 589.999,714.162 583.999,707.329 578.5,700C 576.754,699.529 575.087,698.862 573.5,698C 574.167,697.333 574.833,696.667 575.5,696C 571.902,693.326 568.402,690.493 565,687.5C 564.544,686.256 565.044,685.423 566.5,685C 563.033,682.56 560.2,683.06 558,686.5C 556.154,681.995 552.987,680.329 548.5,681.5C 548.026,678.783 547.026,676.45 545.5,674.5C 544.448,672.744 542.781,672.077 540.5,672.5C 540.5,671.167 540.5,669.833 540.5,668.5C 539.448,668.649 538.448,668.483 537.5,668C 537.493,666.417 537.826,664.751 538.5,663C 537.552,662.517 536.552,662.351 535.5,662.5C 535.5,663.5 535.5,664.5 535.5,665.5C 532.916,665.431 530.916,664.265 529.5,662C 530.167,661.667 530.833,661.333 531.5,661C 529.751,659.708 527.918,658.542 526,657.5C 525.506,655.866 525.34,654.199 525.5,652.5C 518.492,652.716 515.158,649.216 515.5,642C 515.833,641.167 516.167,640.333 516.5,639.5C 517.833,641.167 519.167,642.833 520.5,644.5C 519.001,645.904 519.334,646.57 521.5,646.5C 524.189,646.455 525.523,645.121 525.5,642.5C 524.448,642.649 523.448,642.483 522.5,642C 519.505,639.366 516.839,636.533 514.5,633.5C 513.675,632.614 512.675,632.281 511.5,632.5C 511.669,628.134 510.003,626.967 506.5,629C 509.134,631.695 509.134,633.529 506.5,634.5C 507.242,635.287 508.075,635.953 509,636.5C 510.183,635.269 511.349,635.269 512.5,636.5C 513.074,638.059 513.74,639.559 514.5,641C 514.167,641.333 513.833,641.667 513.5,642C 511.056,639.95 508.223,638.117 505,636.5C 503.706,633.219 501.706,630.552 499,628.5C 498.316,627.216 498.483,626.049 499.5,625C 497.5,624 495.5,623 493.5,622C 488.671,614.678 483.004,608.178 476.5,602.5C 478.765,601.353 481.098,601.186 483.5,602C 484.833,603 484.833,604 483.5,605C 486.033,605.852 488.033,605.186 489.5,603C 488.128,602.598 486.795,602.098 485.5,601.5C 481.843,596.345 477.677,591.679 473,587.5C 472.5,588.667 471.667,589.5 470.5,590C 472.966,592.479 475.299,594.979 477.5,597.5C 477.5,598.5 477.5,599.5 477.5,600.5C 475.801,600.66 474.134,600.494 472.5,600C 472.389,594.864 469.556,591.697 464,590.5C 463.493,589.004 463.993,587.837 465.5,587C 463.893,585.951 463.227,584.451 463.5,582.5C 461.801,582.66 460.134,582.494 458.5,582C 455.212,577.923 452.045,573.756 449,569.5C 447.921,567.606 446.587,567.273 445,568.5C 445,566.5 445,564.5 445,562.5C 442.222,561.388 440.055,559.555 438.5,557C 438.833,556.667 439.167,556.333 439.5,556C 433.953,552.949 429.953,548.449 427.5,542.5C 424.285,540.281 421.618,537.447 419.5,534C 420.451,533.282 420.617,532.449 420,531.5C 419.333,532.833 418.667,532.833 418,531.5C 417.506,529.866 417.34,528.199 417.5,526.5C 414.05,527.244 412.384,525.91 412.5,522.5C 409.3,523.885 407.633,522.719 407.5,519C 407.675,517.342 408.342,516.009 409.5,515C 407.396,514.209 406.063,512.709 405.5,510.5C 404.346,512.856 403.013,513.023 401.5,511C 401.957,510.586 402.291,510.086 402.5,509.5C 400.343,508.21 398.01,507.376 395.5,507C 394.785,501.285 391.618,497.785 386,496.5C 384.259,493.691 383.092,490.691 382.5,487.5C 377.52,485.9 373.354,482.9 370,478.5C 369.333,477.5 369.333,476.5 370,475.5C 372.863,473.58 373.696,471.08 372.5,468C 371.668,467.312 371.002,467.479 370.5,468.5C 372.036,472.461 370.702,474.294 366.5,474C 361.364,467.031 355.697,460.531 349.5,454.5C 347.363,453.92 345.53,452.92 344,451.5C 344.314,454.546 344.147,457.546 343.5,460.5C 340.888,461.779 338.555,463.445 336.5,465.5C 335.861,470.142 333.361,473.142 329,474.5C 326.888,479.746 324.055,484.413 320.5,488.5C 319.127,488.343 317.793,488.51 316.5,489C 317.517,490.049 317.684,491.216 317,492.5C 316,494.833 314.333,496.5 312,497.5C 311.689,499.556 311.189,501.556 310.5,503.5C 309.675,504.386 308.675,504.719 307.5,504.5C 307.509,506.308 307.009,507.975 306,509.5C 301.612,513.929 297.946,518.929 295,524.5C 293.363,526.81 291.196,528.31 288.5,529C 289.337,530.011 289.67,531.178 289.5,532.5C 286.724,532.089 286.057,532.922 287.5,535C 283.471,543.028 277.971,549.861 271,555.5C 269.333,559.5 267.666,563.5 266,567.5C 264.213,568.343 262.38,568.51 260.5,568C 260.957,568.414 261.291,568.914 261.5,569.5C 259.75,574.204 256.75,577.87 252.5,580.5C 250.48,587.336 246.48,592.503 240.5,596C 240.957,596.414 241.291,596.914 241.5,597.5C 239.391,602.261 236.058,605.761 231.5,608C 231.957,608.414 232.291,608.914 232.5,609.5C 213.558,632.65 195.391,656.65 178,681.5C 172.027,687.451 167.027,694.118 163,701.5C 161.805,704.225 161.472,706.891 162,709.5C 159.982,711.35 158.149,713.35 156.5,715.5C 154.314,716.221 152.147,716.887 150,717.5C 137.737,736.36 124.737,754.694 111,772.5C 108.609,775.597 105.776,777.763 102.5,779C 100.196,774.703 97.1961,771.036 93.5,768C 90.804,767.31 88.6374,765.81 87,763.5C 86.3109,764.357 85.4776,765.023 84.5,765.5C 83.7936,762.26 83.7936,759.26 84.5,756.5C 81.418,758.181 78.0847,758.848 74.5,758.5C 75.2096,755.14 73.8762,753.307 70.5,753C 68.7732,750.096 68.1065,746.93 68.5,743.5C 65.5812,744.293 62.9145,745.626 60.5,747.5C 57.4809,745.685 54.4809,744.019 51.5,742.5C 55.8241,739.196 58.6575,734.863 60,729.5C 60.9025,728.299 62.0692,727.465 63.5,727C 62.7734,725.601 62.2734,724.101 62,722.5C 60.1217,724.043 58.6217,725.876 57.5,728C 56.2559,728.456 55.4226,727.956 55,726.5C 56.2012,716.449 60.8679,708.116 69,701.5C 71.3643,697.813 73.6976,694.146 76,690.5C 77.8911,688.61 80.0578,687.11 82.5,686C 81.4238,684.274 81.2571,682.441 82,680.5C 86.2527,676.38 90.2527,672.046 94,667.5C 94.7126,663.071 96.7126,659.404 100,656.5C 100.333,657.167 100.667,657.833 101,658.5C 102.389,651.957 105.889,646.957 111.5,643.5C 114.383,636.616 119.049,631.283 125.5,627.5C 127.466,619.75 132.132,614.25 139.5,611C 138.376,610.751 137.376,610.251 136.5,609.5C 139.474,604.02 143.808,600.186 149.5,598C 148.328,597.581 147.328,596.915 146.5,596C 148.538,594.764 149.705,592.931 150,590.5C 151,591.5 152,592.5 153,593.5C 154.11,591.963 155.61,591.297 157.5,591.5C 157.978,588.722 156.978,586.722 154.5,585.5C 155.651,584.269 156.817,584.269 158,585.5C 159.045,584.627 159.878,583.627 160.5,582.5C 159.504,582.414 158.671,582.748 158,583.5C 158.553,580.507 159.553,577.507 161,574.5C 162.011,573.663 163.178,573.33 164.5,573.5C 164.5,572.167 164.5,570.833 164.5,569.5C 165.5,569.5 166.5,569.5 167.5,569.5C 167.34,567.801 167.506,566.134 168,564.5C 170.617,561.744 172.95,558.744 175,555.5C 175.483,554.552 175.649,553.552 175.5,552.5C 177.655,552.628 179.655,552.128 181.5,551C 179.993,550.163 179.493,548.996 180,547.5C 181.566,548.061 182.899,547.394 184,545.5C 185.52,542.618 186.853,539.618 188,536.5C 190.428,535.37 192.595,533.87 194.5,532C 193.692,531.692 193.025,531.192 192.5,530.5C 193.347,529.155 194.513,528.155 196,527.5C 196.492,526.451 196.326,525.451 195.5,524.5C 197.606,523.103 199.273,521.27 200.5,519C 200.043,518.586 199.709,518.086 199.5,517.5C 203.41,515.099 206.91,512.099 210,508.5C 214.153,497.916 220.653,489.916 229.5,484.5C 230.834,480.656 233.168,477.489 236.5,475C 234.839,471.85 235.839,470.35 239.5,470.5C 240.024,466.124 242.357,462.957 246.5,461C 245.978,460.439 245.645,459.772 245.5,459C 247.917,452.927 251.917,448.593 257.5,446C 256.692,445.692 256.025,445.192 255.5,444.5C 258.224,438.871 261.557,433.705 265.5,429C 266.833,428.667 268.167,428.333 269.5,428C 268.146,423.463 269.812,420.296 274.5,418.5C 275.386,417.675 275.719,416.675 275.5,415.5C 274.475,415.103 274.308,414.437 275,413.5C 276,412.833 277,412.167 278,411.5C 280.402,408.086 282.402,404.42 284,400.5C 284.903,399.299 286.069,398.465 287.5,398C 287.167,397.667 286.833,397.333 286.5,397C 287.563,395.812 288.897,395.312 290.5,395.5C 290.468,392.924 291.135,390.591 292.5,388.5C 291.391,388.443 290.391,388.11 289.5,387.5C 287.511,384.407 285.344,381.407 283,378.5C 281.667,379.833 280.333,379.833 279,378.5C 278.838,374.86 278.172,371.194 277,367.5C 276.506,369.134 276.34,370.801 276.5,372.5C 275.5,372.5 274.5,372.5 273.5,372.5C 273.108,369.854 273.108,367.354 273.5,365C 271.835,364.212 270.169,363.878 268.5,364C 270.01,365.351 271.01,367.018 271.5,369C 271.15,370.257 270.483,370.591 269.5,370C 266.171,364.265 262.671,358.765 259,353.5C 258.047,355.592 256.714,355.925 255,354.5C 253.839,351.733 252.673,349.067 251.5,346.5C 247.657,346.694 245.324,344.861 244.5,341C 244.905,340.055 245.572,339.388 246.5,339C 244.277,336.777 241.611,335.444 238.5,335C 238.324,333.308 237.824,331.808 237,330.5C 235.175,331.571 234.008,330.904 233.5,328.5C 234.025,327.808 234.692,327.308 235.5,327C 229.671,320.171 223.504,313.671 217,307.5C 214.363,303.928 212.697,299.928 212,295.5C 208.181,294.57 205.348,292.404 203.5,289C 204.5,288.667 205.5,288.333 206.5,288C 203.613,285.88 200.447,284.38 197,283.5C 196.231,280.901 196.398,278.401 197.5,276C 196.034,275.365 194.7,274.531 193.5,273.5C 192.833,274.5 192.167,275.5 191.5,276.5C 191.325,271.259 188.659,268.425 183.5,268C 181.773,266.611 180.439,264.944 179.5,263C 179.905,262.055 180.572,261.388 181.5,261C 174.894,259.301 171.061,255.134 170,248.5C 167,248.167 165.333,246.5 165,243.5C 161.681,241.229 158.514,238.729 155.5,236C 156.167,235.667 156.833,235.333 157.5,235C 155.359,231.68 152.359,229.846 148.5,229.5C 148.5,228.5 148.5,227.5 148.5,226.5C 144.612,227.011 142.279,225.345 141.5,221.5C 142.025,220.808 142.692,220.308 143.5,220C 141.624,219.082 140.624,217.582 140.5,215.5C 139.292,216.234 137.959,216.567 136.5,216.5C 136.5,215.5 136.5,214.5 136.5,213.5C 133.618,213.392 131.285,212.226 129.5,210C 127.963,208.89 127.297,207.39 127.5,205.5C 126.448,205.649 125.448,205.483 124.5,205C 123.167,203 121.833,201 120.5,199C 119.552,198.517 118.552,198.351 117.5,198.5C 118.008,194.075 116.008,191.742 111.5,191.5C 110.938,188.771 109.272,187.271 106.5,187C 105.91,185.491 105.244,183.991 104.5,182.5C 101.205,183.694 99.7051,182.361 100,178.5C 94.533,174.42 89.1997,170.086 84,165.5C 83.2571,163.559 83.4238,161.726 84.5,160C 79.4447,159.565 75.9447,157.065 74,152.5C 71.6294,149.794 68.9628,147.461 66,145.5C 63.8679,139.368 59.7012,135.201 53.5,133C 54.1667,132.667 54.8333,132.333 55.5,132C 50.3133,128.82 46.8133,124.32 45,118.5C 38.98,114.31 34.1467,108.977 30.5,102.5C 25.3038,100.134 22.1371,96.134 21,90.5C 18.5865,88.5906 16.7532,86.2573 15.5,83.5C 13.7419,82.8721 12.2419,81.8721 11,80.5C 10.7674,78.2199 9.93404,76.2199 8.5,74.5C 5.11846,71.7852 2.11846,68.7852 -0.5,65.5C -0.5,60.5 -0.5,55.5 -0.5,50.5C 1.15611,49.8535 2.82277,49.1869 4.5,48.5C 6.02935,48.5288 7.19601,49.1955 8,50.5C 9.38944,48.7727 11.0561,47.4394 13,46.5C 15.0237,49.2633 17.5237,51.5967 20.5,53.5C 22.6656,53.5704 22.9989,52.9038 21.5,51.5C 21.8333,50.5 22.5,49.8333 23.5,49.5C 26.5,51.5 29.5,53.5 32.5,55.5C 36.08,55.2605 39.7467,54.5938 43.5,53.5C 43.3398,51.8008 43.5065,50.1341 44,48.5C 46.9282,46.3028 50.0949,44.4695 53.5,43C 52.1837,41.0224 52.6837,39.5224 55,38.5C 56.2862,35.5945 57.2862,32.5945 58,29.5C 61.9302,25.7806 65.7635,21.9473 69.5,18C 71.8333,17.3333 74.1667,17.3333 76.5,18C 78.7879,20.7433 80.9545,23.5767 83,26.5C 93.8346,34.8259 102.835,44.8259 110,56.5C 132.75,78.9151 155.083,101.582 177,124.5C 181.078,128.984 184.411,133.984 187,139.5C 188.154,140.743 189.488,141.743 191,142.5C 195.667,149.833 200.333,157.167 205,164.5C 207.628,166.126 209.961,168.126 212,170.5C 222.296,183.398 233.296,195.731 245,207.5C 263.222,233.548 282.722,258.548 303.5,282.5C 313.994,299.15 326.16,314.484 340,328.5C 342.72,324.382 346.22,321.049 350.5,318.5C 349.5,317.167 348.5,315.833 347.5,314.5C 348.772,310.955 350.106,307.455 351.5,304C 353.936,303.07 356.269,301.903 358.5,300.5C 359.466,298.604 359.799,296.604 359.5,294.5C 361.484,294.383 363.15,295.05 364.5,296.5C 365.7,295.469 367.034,294.635 368.5,294C 367.874,293.25 367.374,292.416 367,291.5C 365.069,294.105 363.236,294.105 361.5,291.5C 363.38,288.909 365.38,286.409 367.5,284C 369.791,283.985 371.958,283.818 374,283.5C 374.688,282.668 374.521,282.002 373.5,281.5C 372.264,282.246 370.93,282.579 369.5,282.5C 369.498,278.313 371.498,275.813 375.5,275C 373.963,273.89 373.297,272.39 373.5,270.5C 374.675,270.719 375.675,270.386 376.5,269.5C 380.319,262.532 384.152,255.532 388,248.5C 389.11,246.963 390.61,246.297 392.5,246.5C 392.338,244.473 392.505,242.473 393,240.5C 394.011,239.663 395.178,239.33 396.5,239.5C 397.318,235.525 398.984,231.859 401.5,228.5C 402.251,229.376 402.751,230.376 403,231.5C 402.449,226.901 404.282,223.735 408.5,222C 407.044,221.577 406.544,220.744 407,219.5C 410.009,215.661 413.176,211.994 416.5,208.5C 423.916,193.925 433.083,180.592 444,168.5C 444.263,165.736 445.763,164.069 448.5,163.5C 449.723,160.053 451.223,156.72 453,153.5C 455.87,150.597 458.203,147.263 460,143.5C 465.272,136.609 470.772,129.943 476.5,123.5C 477.903,119.264 480.569,116.098 484.5,114C 483.465,112.493 483.632,110.993 485,109.5C 491.275,99.9571 498.275,90.9571 506,82.5C 521.001,54.6677 537.835,28.001 556.5,2.5C 559.758,1.58266 563.091,1.24933 566.5,1.5C 566.5,2.83333 566.5,4.16667 566.5,5.5C 569.249,5.72609 571.916,5.39276 574.5,4.5C 574.833,4.83333 575.167,5.16667 575.5,5.5C 573.876,6.86887 573.376,8.53554 574,10.5C 577.03,6.30533 580.53,2.63866 584.5,-0.5 Z M 576.5,28.5 C 577.957,26.3718 578.957,24.0384 579.5,21.5C 582.321,21.6841 583.988,20.3507 584.5,17.5C 585.002,16.479 585.668,16.3123 586.5,17C 584.947,19.6549 583.78,22.4883 583,25.5C 581.261,27.318 579.094,28.318 576.5,28.5 Z M 551.5,31.5 C 554.001,31.5109 554.168,32.1776 552,33.5C 551.536,32.9056 551.369,32.2389 551.5,31.5 Z M 119.5,191.5 C 120.289,191.783 120.956,192.283 121.5,193C 120.184,193.528 119.517,193.028 119.5,191.5 Z M 140.5,211.5 C 141.833,212.167 142.833,213.167 143.5,214.5C 142.391,214.557 141.391,214.89 140.5,215.5C 140.5,214.167 140.5,212.833 140.5,211.5 Z M 160.5,233.5 C 163.001,233.511 163.168,234.178 161,235.5C 160.536,234.906 160.369,234.239 160.5,233.5 Z M 167.5,237.5 C 168.797,238.849 168.63,240.182 167,241.5C 166.421,240.072 166.588,238.738 167.5,237.5 Z M 400.5,238.5 C 401.713,239.497 401.546,240.497 400,241.5C 399.53,240.423 399.697,239.423 400.5,238.5 Z M 395.5,243.5 C 397.973,243.947 398.14,244.947 396,246.5C 395.517,245.552 395.351,244.552 395.5,243.5 Z M 174.5,248.5 C 175.627,249.122 176.627,249.955 177.5,251C 175.511,251.519 174.511,250.686 174.5,248.5 Z M 385.5,294.5 C 386.708,293.218 388.042,293.218 389.5,294.5C 388.192,295.626 386.858,295.626 385.5,294.5 Z M 362.5,297.5 C 363.465,298.721 363.298,300.054 362,301.5C 361.421,300.072 361.588,298.738 362.5,297.5 Z M 383.5,307.5 C 386.797,307.329 387.131,307.995 384.5,309.5C 383.702,309.043 383.369,308.376 383.5,307.5 Z M 353.5,309.5 C 355.048,309.821 355.715,310.821 355.5,312.5C 352.752,312.598 352.086,311.598 353.5,309.5 Z M 364.5,320.5 C 365.452,319.548 366.452,318.548 367.5,317.5C 368.646,321.488 370.479,325.155 373,328.5C 373.749,329.635 373.583,330.635 372.5,331.5C 370.833,328.5 369.167,325.5 367.5,322.5C 366.643,321.575 365.643,320.908 364.5,320.5 Z M 381.5,326.5 C 382.766,327.09 384.099,327.59 385.5,328C 383.537,328.844 382.204,328.344 381.5,326.5 Z M 292.5,388.5 C 293.238,386.24 294.238,386.073 295.5,388C 294.552,388.483 293.552,388.649 292.5,388.5 Z M 390.5,386.5 C 391.773,387.077 391.773,387.743 390.5,388.5C 389.537,388.03 389.537,387.363 390.5,386.5 Z M 284.5,405.5 C 287.047,407.29 286.714,408.956 283.5,410.5C 282.707,409.645 283.04,408.811 284.5,408C 283.402,407.23 283.402,406.397 284.5,405.5 Z M 301.5,410.5 C 302.708,411.234 304.041,411.567 305.5,411.5C 305.649,412.552 305.483,413.552 305,414.5C 304.333,413.167 303.667,413.167 303,414.5C 301.812,413.437 301.312,412.103 301.5,410.5 Z M 275.5,415.5 C 277.364,414.207 279.364,414.207 281.5,415.5C 279.674,415.92 277.674,415.92 275.5,415.5 Z M 272.5,422.5 C 276.3,422.819 276.466,423.819 273,425.5C 272.517,424.552 272.351,423.552 272.5,422.5 Z M 291.5,425.5 C 293.379,425.393 293.712,425.893 292.5,427C 289.125,427.632 288.791,427.132 291.5,425.5 Z M 364.5,460.5 C 365.364,461.688 366.364,462.855 367.5,464C 365.066,464.333 364.066,463.166 364.5,460.5 Z M 401.5,481.5 C 402.077,480.227 402.743,480.227 403.5,481.5C 403.03,482.463 402.363,482.463 401.5,481.5 Z M 384.5,483.5 C 387.012,484.216 387.012,485.216 384.5,486.5C 383.913,485.767 383.913,484.767 384.5,483.5 Z M 429.5,488.5 C 432.001,488.511 432.168,489.178 430,490.5C 429.536,489.906 429.369,489.239 429.5,488.5 Z M 390.5,492.5 C 390.843,490.775 391.843,490.275 393.5,491C 392.756,492.039 391.756,492.539 390.5,492.5 Z M 417.5,494.5 C 418.534,495.687 419.867,496.52 421.5,497C 420.207,497.49 418.873,497.657 417.5,497.5C 417.5,496.5 417.5,495.5 417.5,494.5 Z M 395.5,501.5 C 395.56,500.957 395.893,500.624 396.5,500.5C 397.795,501.098 399.128,501.598 400.5,502C 398.727,503.802 397.06,503.635 395.5,501.5 Z M 418.5,511.5 C 421.137,513.154 420.803,513.654 417.5,513C 418.056,512.617 418.389,512.117 418.5,511.5 Z M 412.5,522.5 C 412.843,520.775 413.843,520.275 415.5,521C 414.473,521.513 413.473,522.013 412.5,522.5 Z M 423.5,530.5 C 422.5,530.5 421.5,530.5 420.5,530.5C 421.489,523.855 422.489,523.855 423.5,530.5 Z M 200.5,526.5 C 201.239,526.369 201.906,526.536 202.5,527C 202.085,531.895 200.752,532.395 198.5,528.5C 199.243,527.818 199.909,527.151 200.5,526.5 Z M 423.5,530.5 C 425.048,530.821 425.715,531.821 425.5,533.5C 423.952,533.179 423.285,532.179 423.5,530.5 Z M 425.5,533.5 C 428.588,533.197 430.254,534.53 430.5,537.5C 431.833,537.5 433.167,537.5 434.5,537.5C 434.196,538.15 433.863,538.817 433.5,539.5C 435.297,541.131 436.464,543.131 437,545.5C 438.356,546.38 439.856,546.714 441.5,546.5C 441.383,548.484 442.05,550.15 443.5,551.5C 440.732,554.417 439.232,553.75 439,549.5C 433.574,544.911 429.074,539.577 425.5,533.5 Z M 192.5,537.5 C 195.001,537.511 195.168,538.178 193,539.5C 192.536,538.906 192.369,538.239 192.5,537.5 Z M 190.5,541.5 C 191.773,542.077 191.773,542.743 190.5,543.5C 189.537,543.03 189.537,542.363 190.5,541.5 Z M 464.5,546.5 C 466.984,547.964 466.984,549.631 464.5,551.5C 464.193,550.113 464.193,548.446 464.5,546.5 Z M 203.5,547.5 C 206.001,547.511 206.168,548.178 204,549.5C 203.536,548.906 203.369,548.239 203.5,547.5 Z M 454.5,550.5 C 456.179,550.892 457.846,551.392 459.5,552C 458.667,552.167 457.833,552.333 457,552.5C 455.624,552.316 454.791,551.649 454.5,550.5 Z M 460.5,573.5 C 459.577,574.303 458.577,574.47 457.5,574C 455.317,571.65 452.984,569.483 450.5,567.5C 451.246,566.264 451.579,564.93 451.5,563.5C 448.5,563.833 447.167,562.5 447.5,559.5C 444.679,559.684 443.012,558.351 442.5,555.5C 444.045,554.548 445.712,554.215 447.5,554.5C 447.863,558.945 450.197,561.279 454.5,561.5C 454.5,563.167 454.5,564.833 454.5,566.5C 455.5,566.5 456.5,566.5 457.5,566.5C 458.011,569.022 459.011,571.355 460.5,573.5 Z M 463.5,558.5 C 465.912,558.694 466.912,560.027 466.5,562.5C 465.5,562.5 464.5,562.5 463.5,562.5C 463.5,561.167 463.5,559.833 463.5,558.5 Z M 171.5,563.5 C 172.598,564.601 172.765,565.934 172,567.5C 170.489,566.436 170.323,565.103 171.5,563.5 Z M 471.5,563.5 C 474.001,563.511 474.168,564.178 472,565.5C 471.536,564.906 471.369,564.239 471.5,563.5 Z M 470.5,568.5 C 472.199,568.34 473.866,568.506 475.5,569C 473.129,569.735 470.795,570.568 468.5,571.5C 468.167,571.167 467.833,570.833 467.5,570.5C 468.602,569.824 469.602,569.158 470.5,568.5 Z M 168.5,570.5 C 168.56,569.957 168.893,569.624 169.5,569.5C 170.583,570.365 170.749,571.365 170,572.5C 169.722,571.584 169.222,570.918 168.5,570.5 Z M 164.5,573.5 C 166.355,573.272 167.188,573.939 167,575.5C 166.005,574.934 165.172,574.267 164.5,573.5 Z M 486.5,581.5 C 485.265,581.279 484.265,580.612 483.5,579.5C 482.702,579.957 482.369,580.624 482.5,581.5C 480.645,579.967 478.812,578.3 477,576.5C 476.333,575.5 476.333,574.5 477,573.5C 479.434,577.392 482.767,578.726 487,577.5C 487.5,578 488,578.5 488.5,579C 487.244,579.417 486.577,580.25 486.5,581.5 Z M 461.5,574.5 C 462.391,575.11 463.391,575.443 464.5,575.5C 464.649,576.552 464.483,577.552 464,578.5C 462.391,577.853 460.891,577.02 459.5,576C 460.416,575.722 461.082,575.222 461.5,574.5 Z M 160.5,582.5 C 160.517,580.972 161.184,580.472 162.5,581C 161.956,581.717 161.289,582.217 160.5,582.5 Z M 463.5,582.5 C 463.917,581.876 464.584,581.543 465.5,581.5C 467.5,582 469.5,582.5 471.5,583C 470.299,583.903 469.465,585.069 469,586.5C 467.982,584.072 466.148,582.738 463.5,582.5 Z M 183.5,582.5 C 184.776,583.386 184.776,584.386 183.5,585.5C 182.913,584.767 182.913,583.767 183.5,582.5 Z M 494.5,587.5 C 496.028,587.517 496.528,588.184 496,589.5C 495.283,588.956 494.783,588.289 494.5,587.5 Z M 499.5,588.5 C 500.473,588.987 501.473,589.487 502.5,590C 500.843,590.725 499.843,590.225 499.5,588.5 Z M 496.5,591.5 C 497.239,591.369 497.906,591.536 498.5,592C 497.167,593.333 497.167,594.667 498.5,596C 497.5,596.667 496.5,596.667 495.5,596C 496.38,594.644 496.714,593.144 496.5,591.5 Z M 501.5,595.5 C 502.721,594.535 504.054,594.702 505.5,596C 504.072,596.579 502.738,596.412 501.5,595.5 Z M 498.5,601.5 C 498.217,602.289 497.717,602.956 497,603.5C 491.163,598.138 490.996,596.471 496.5,598.5C 496.285,600.179 496.952,601.179 498.5,601.5 Z M 498.5,601.5 C 498.948,599.535 499.948,599.202 501.5,600.5C 500.675,601.386 499.675,601.719 498.5,601.5 Z M 515.5,607.5 C 513.914,606.587 512.414,606.587 511,607.5C 510.682,605.939 509.849,604.772 508.5,604C 511.813,603.136 514.146,604.302 515.5,607.5 Z M 505.5,610.5 C 502.779,609.304 501.613,607.304 502,604.5C 503.421,606.405 504.588,608.405 505.5,610.5 Z M 488.5,608.5 C 493.462,609.898 496.795,613.064 498.5,618C 496.899,618.273 495.399,618.773 494,619.5C 493.667,617.953 494.167,616.62 495.5,615.5C 494.726,614.289 493.893,614.289 493,615.5C 490.89,613.557 489.39,611.224 488.5,608.5 Z M 506.5,611.5 C 508.17,611.751 509.67,612.418 511,613.5C 511.414,613.043 511.914,612.709 512.5,612.5C 513.763,614.029 514.763,615.695 515.5,617.5C 511.975,616.241 508.975,614.241 506.5,611.5 Z M 519.5,611.5 C 520.404,612.209 520.737,613.209 520.5,614.5C 519.127,614.657 517.793,614.49 516.5,614C 518.119,613.764 519.119,612.931 519.5,611.5 Z M 133.5,620.5 C 134.122,619.373 134.955,618.373 136,617.5C 136.519,619.489 135.686,620.489 133.5,620.5 Z M 516.5,618.5 C 519.596,619.76 521.929,621.926 523.5,625C 522.874,625.75 522.374,626.584 522,627.5C 520.601,626.773 519.101,626.273 517.5,626C 517.957,625.586 518.291,625.086 518.5,624.5C 516.726,623.813 515.059,622.98 513.5,622C 515.063,621.241 516.063,620.074 516.5,618.5 Z M 501.5,621.5 C 502.885,622.574 504.051,623.907 505,625.5C 505.688,626.332 505.521,626.998 504.5,627.5C 502.962,625.757 501.962,623.757 501.5,621.5 Z M 528.5,628.5 C 526.645,628.728 525.812,628.061 526,626.5C 526.995,627.066 527.828,627.733 528.5,628.5 Z M 532.5,627.5 C 535.684,627.332 536.184,628.666 534,631.5C 533.209,630.255 532.709,628.922 532.5,627.5 Z M 528.5,628.5 C 530.315,632.479 533.315,635.312 537.5,637C 538.607,640.608 540.94,643.108 544.5,644.5C 545.614,643.277 545.781,641.944 545,640.5C 541.963,638.973 539.463,636.807 537.5,634C 540.167,633 540.167,632 537.5,631C 538.5,630.5 539.5,630 540.5,629.5C 540.734,631.661 541.067,633.828 541.5,636C 543.112,636.72 544.612,636.554 546,635.5C 546.133,638.414 547.3,640.747 549.5,642.5C 550.113,641.02 550.446,639.687 550.5,638.5C 551.474,640.743 551.808,643.076 551.5,645.5C 544.357,645.179 543.69,647.346 549.5,652C 552.101,652.92 554.768,653.587 557.5,654C 556.552,654.483 555.552,654.649 554.5,654.5C 554.779,657.118 555.446,659.618 556.5,662C 555.975,662.692 555.308,663.192 554.5,663.5C 552.937,662.055 551.604,660.389 550.5,658.5C 552.04,657.468 552.54,656.135 552,654.5C 549.851,653.16 548.684,653.827 548.5,656.5C 543.613,654.617 539.946,651.284 537.5,646.5C 533.641,645.722 532.975,644.055 535.5,641.5C 533.996,638.91 531.996,638.244 529.5,639.5C 528.378,637.956 528.711,636.623 530.5,635.5C 528.096,634.65 525.763,633.65 523.5,632.5C 523.938,631.494 524.604,631.494 525.5,632.5C 526.934,631.412 527.934,630.078 528.5,628.5 Z M 564.5,642.5 C 566.983,642.73 567.483,643.397 566,644.5C 564.97,644.164 564.47,643.497 564.5,642.5 Z M 574.5,645.5 C 573.167,645.5 571.833,645.5 570.5,645.5C 570.281,644.325 570.614,643.325 571.5,642.5C 572.548,643.548 573.548,644.548 574.5,645.5 Z M 551.5,645.5 C 553.76,646.238 553.927,647.238 552,648.5C 551.517,647.552 551.351,646.552 551.5,645.5 Z M 572.5,649.5 C 574.564,649.687 576.564,650.187 578.5,651C 576.156,652.572 574.156,652.072 572.5,649.5 Z M 529.5,650.5 C 531.797,652.294 533.963,654.294 536,656.5C 536.688,657.332 536.521,657.998 535.5,658.5C 532.997,656.416 530.331,654.583 527.5,653C 528.381,652.292 529.047,651.458 529.5,650.5 Z M 602.5,678.5 C 602.833,679.167 603.167,679.833 603.5,680.5C 600.375,680.135 597.375,679.302 594.5,678C 593.257,673.655 590.924,670.155 587.5,667.5C 586.026,666.564 585.026,665.23 584.5,663.5C 585.5,663.5 586.5,663.5 587.5,663.5C 587.5,662.5 587.5,661.5 587.5,660.5C 586.448,660.649 585.448,660.483 584.5,660C 587.292,657.425 590.292,657.092 593.5,659C 590.916,661.134 591.25,662.968 594.5,664.5C 592.109,665.809 592.109,666.809 594.5,667.5C 596.274,667.113 597.941,666.447 599.5,665.5C 600.769,667.695 600.769,669.861 599.5,672C 598.365,672.749 597.365,672.583 596.5,671.5C 596.709,670.914 597.043,670.414 597.5,670C 596.167,669.333 594.833,669.333 593.5,670C 594.167,671.667 594.833,673.333 595.5,675C 597.591,676.726 599.924,677.893 602.5,678.5 Z M 542.5,658.5 C 546.243,658.459 546.41,659.126 543,660.5C 542.536,659.906 542.369,659.239 542.5,658.5 Z M 564.5,658.5 C 570.05,662.009 570.05,663.675 564.5,663.5C 564.5,661.833 564.5,660.167 564.5,658.5 Z M 584.5,663.5 C 582.314,663.489 581.481,662.489 582,660.5C 583.045,661.373 583.878,662.373 584.5,663.5 Z M 561.5,670.5 C 560.599,669.71 559.932,668.71 559.5,667.5C 560.161,666.282 560.828,664.949 561.5,663.5C 561.833,663.667 562.167,663.833 562.5,664C 562.742,666.072 562.409,668.239 561.5,670.5 Z M 541.5,664.5 C 545.339,665.05 545.339,666.05 541.5,667.5C 540.438,666.575 540.438,665.575 541.5,664.5 Z M 571.5,664.5 C 573.339,665.508 574.672,667.008 575.5,669C 576.793,669.49 578.127,669.657 579.5,669.5C 579.5,671.5 579.5,673.5 579.5,675.5C 580.675,675.281 581.675,675.614 582.5,676.5C 581.289,677.72 581.289,678.887 582.5,680C 584.207,680.195 585.874,680.195 587.5,680C 584.894,681.65 584.894,683.15 587.5,684.5C 586.5,684.5 585.5,684.5 584.5,684.5C 584.344,680.865 583.178,680.532 581,683.5C 579.91,680.061 578.744,676.727 577.5,673.5C 576.167,673.5 574.833,673.5 573.5,673.5C 573.649,672.448 573.483,671.448 573,670.5C 569.633,668.862 569.133,666.862 571.5,664.5 Z M 549.5,672.5 C 547.915,671.998 547.415,670.998 548,669.5C 549.039,670.244 549.539,671.244 549.5,672.5 Z M 561.5,670.5 C 562.401,671.29 563.068,672.29 563.5,673.5C 561.952,673.179 561.285,672.179 561.5,670.5 Z M 564.5,674.5 C 566.133,673.055 567.966,671.721 570,670.5C 570.849,673.255 571.516,675.921 572,678.5C 570.981,677.313 569.814,676.313 568.5,675.5C 566.97,677.762 565.637,677.428 564.5,674.5 Z M 549.5,672.5 C 553.399,675.007 557.066,677.84 560.5,681C 560,681.5 559.5,682 559,682.5C 556.92,680.877 554.754,679.377 552.5,678C 551.242,676.259 550.242,674.426 549.5,672.5 Z M 603.5,680.5 C 604.757,679.377 604.424,678.711 602.5,678.5C 602.5,676.5 602.5,674.5 602.5,672.5C 607.103,673.018 607.437,674.351 603.5,676.5C 609.295,677.422 609.795,679.422 605,682.5C 604.283,681.956 603.783,681.289 603.5,680.5 Z M 567.5,679.5 C 568.376,679.369 569.043,679.702 569.5,680.5C 567.192,681.873 566.525,681.54 567.5,679.5 Z M 583.5,685.5 C 582.77,687.045 581.437,687.878 579.5,688C 583.447,691.523 583.447,692.357 579.5,690.5C 576.149,687.424 575.149,683.758 576.5,679.5C 576.743,684.013 579.076,686.013 583.5,685.5 Z M 597.5,683.5 C 600.446,681.186 601.613,682.186 601,686.5C 600.395,684.519 599.395,684.185 598,685.5C 597.536,684.906 597.369,684.239 597.5,683.5 Z M 609.5,681.5 C 611.337,681.639 611.67,682.306 610.5,683.5C 609.702,683.043 609.369,682.376 609.5,681.5 Z M 605.5,684.5 C 606.386,683.224 607.386,683.224 608.5,684.5C 607.988,687.532 606.322,688.699 603.5,688C 604.5,687 605.5,686 606.5,685C 606.272,684.601 605.938,684.435 605.5,684.5 Z M 587.5,684.5 C 589.391,685.536 591.224,685.536 593,684.5C 594.559,686.217 595.392,688.217 595.5,690.5C 593.833,690.5 592.167,690.5 590.5,690.5C 590.5,691.833 590.5,693.167 590.5,694.5C 593.119,694.768 595.619,694.435 598,693.5C 599.198,696.726 601.031,699.559 603.5,702C 605.345,701.217 607.345,700.884 609.5,701C 610.167,702 610.833,703 611.5,704C 610.24,705.814 610.24,707.647 611.5,709.5C 612.192,708.975 612.692,708.308 613,707.5C 615.192,709.235 617.692,710.402 620.5,711C 619.151,711.772 618.318,712.939 618,714.5C 616.423,711.801 614.257,711.134 611.5,712.5C 614.177,714.264 613.844,715.43 610.5,716C 613.127,718.017 615.627,717.85 618,715.5C 623.406,716.717 623.573,717.884 618.5,719C 619.571,719.852 620.571,720.685 621.5,721.5C 624.273,721.812 626.607,722.978 628.5,725C 626.315,726.929 624.649,726.429 623.5,723.5C 623.167,723.833 622.833,724.167 622.5,724.5C 622.138,726.873 622.805,729.207 624.5,731.5C 623.5,732.833 622.5,732.833 621.5,731.5C 619.585,729.929 618.585,727.929 618.5,725.5C 615.966,725.741 614.3,724.741 613.5,722.5C 610.752,722.402 610.086,723.402 611.5,725.5C 610.167,725.5 608.833,725.5 607.5,725.5C 607.494,722.482 606.494,719.816 604.5,717.5C 602.668,716.943 601.335,715.943 600.5,714.5C 597.145,712.588 595.645,709.588 596,705.5C 595.329,704.748 594.496,704.414 593.5,704.5C 591.974,702.667 590.308,701 588.5,699.5C 590.912,699.306 591.912,697.973 591.5,695.5C 590.448,695.649 589.448,695.483 588.5,695C 588.591,692.697 587.257,691.03 584.5,690C 586.134,689.506 587.801,689.34 589.5,689.5C 589.608,687.486 588.942,685.82 587.5,684.5 Z M 619.5,707.5 C 616.17,706.849 615.837,705.516 618.5,703.5C 614.046,702.712 611.713,700.045 611.5,695.5C 609.474,694.63 608.141,693.13 607.5,691C 608.448,690.517 609.448,690.351 610.5,690.5C 610.281,691.675 610.614,692.675 611.5,693.5C 611.833,692.833 612.167,692.167 612.5,691.5C 610.303,689.185 610.136,686.852 612,684.5C 613.586,687.341 615.42,690.007 617.5,692.5C 621.186,693.387 624.519,694.887 627.5,697C 624.439,697.849 621.772,699.349 619.5,701.5C 620.325,702.386 621.325,702.719 622.5,702.5C 622.5,703.5 622.5,704.5 622.5,705.5C 620.821,705.285 619.821,705.952 619.5,707.5 Z M 588.5,699.5 C 585.933,698.327 583.267,697.161 580.5,696C 581.263,695.056 582.263,694.556 583.5,694.5C 585.494,695.827 587.161,697.494 588.5,699.5 Z M 626.5,702.5 C 633.951,703.284 637.951,707.284 638.5,714.5C 635.518,714.037 632.518,713.704 629.5,713.5C 629.795,710.266 629.129,707.266 627.5,704.5C 626.38,705.833 625.047,706.333 623.5,706C 624.71,704.961 625.71,703.794 626.5,702.5 Z M 642.5,719.5 C 641.244,719.096 640.077,718.429 639,717.5C 638.228,717.645 637.561,717.978 637,718.5C 638.292,720.177 638.792,722.177 638.5,724.5C 636.71,725.013 635.044,725.513 633.5,726C 633.507,724.417 633.174,722.751 632.5,721C 633.308,720.692 633.975,720.192 634.5,719.5C 633.609,718.41 632.609,718.41 631.5,719.5C 628.703,717.254 629.203,715.921 633,715.5C 636.475,717.048 639.475,716.382 642,713.5C 642.374,714.416 642.874,715.25 643.5,716C 641.273,716.704 640.94,717.871 642.5,719.5 Z M 642.5,719.5 C 644.854,719.838 647.187,720.338 649.5,721C 646.924,722.415 644.591,721.915 642.5,719.5 Z M 638.5,724.5 C 639.922,724.709 641.255,725.209 642.5,726C 640.697,726.637 639.364,727.803 638.5,729.5C 638.193,728.113 638.193,726.446 638.5,724.5 Z M 611.5,725.5 C 612.812,726.812 614.146,728.146 615.5,729.5C 614.672,730.415 613.672,731.081 612.5,731.5C 611.534,729.604 611.201,727.604 611.5,725.5 Z M 637.5,734.5 C 637.417,736.57 636.417,736.903 634.5,735.5C 633.263,735.556 632.263,736.056 631.5,737C 635.966,741.213 639.632,745.546 642.5,750C 641.095,751.269 639.429,751.769 637.5,751.5C 637.286,753.144 637.62,754.644 638.5,756C 637.833,756.667 637.167,756.667 636.5,756C 635.862,754.293 635.862,752.46 636.5,750.5C 641.591,749.817 641.424,748.817 636,747.5C 635.055,747.905 634.388,748.572 634,749.5C 630.67,746.365 631.17,745.031 635.5,745.5C 631.454,741.935 628.121,737.769 625.5,733C 626.308,732.692 626.975,732.192 627.5,731.5C 626.674,730.549 626.508,729.549 627,728.5C 629.046,728.451 631.213,728.785 633.5,729.5C 632.311,730.429 630.978,730.762 629.5,730.5C 629.5,731.5 629.5,732.5 629.5,733.5C 632.127,734.092 634.794,734.425 637.5,734.5 Z M 637.5,734.5 C 638.531,730.922 640.531,730.089 643.5,732C 642.022,734.039 640.022,734.872 637.5,734.5 Z M 649.5,739.5 C 649.843,737.775 650.843,737.275 652.5,738C 651.473,738.513 650.473,739.013 649.5,739.5 Z M 641.5,738.5 C 642.306,739.868 643.306,741.201 644.5,742.5C 642.124,743.817 640.457,743.15 639.5,740.5C 640.243,739.818 640.909,739.151 641.5,738.5 Z M 649.5,739.5 C 649.052,741.465 648.052,741.798 646.5,740.5C 647.325,739.614 648.325,739.281 649.5,739.5 Z M 68.5,743.5 C 68.7828,742.711 69.2828,742.044 70,741.5C 70.5281,742.816 70.0281,743.483 68.5,743.5 Z M 88.5,748.5 C 95.0739,748.968 95.9072,751.302 91,755.5C 91.0187,753.893 91.1854,752.226 91.5,750.5C 89.8212,750.715 88.8212,750.048 88.5,748.5 Z M 84.5,756.5 C 85.1642,754.513 86.3308,752.846 88,751.5C 88.8128,754.539 87.6461,756.206 84.5,756.5 Z M 96.5,751.5 C 98.0843,752.382 99.751,753.215 101.5,754C 98.7383,755.077 97.0717,754.244 96.5,751.5 Z M 656.5,758.5 C 655.633,756.098 654.3,753.932 652.5,752C 656.453,752.467 657.786,754.633 656.5,758.5 Z M 655.5,761.5 C 655.5,762.5 655.5,763.5 655.5,764.5C 654.312,763.316 653.145,763.316 652,764.5C 651.508,763.451 651.674,762.451 652.5,761.5C 651.995,760.081 650.995,759.415 649.5,759.5C 651.06,757.871 650.727,756.704 648.5,756C 649,755.5 649.5,755 650,754.5C 652.241,756.675 654.074,759.009 655.5,761.5 Z M 88.5,758.5 C 89.7434,757.263 90.7434,757.596 91.5,759.5C 91.1667,759.833 90.8333,760.167 90.5,760.5C 89.8182,759.757 89.1515,759.091 88.5,758.5 Z M 641.5,757.5 C 643.76,758.238 643.927,759.238 642,760.5C 641.517,759.552 641.351,758.552 641.5,757.5 Z M 649.5,759.5 C 647.824,760.71 646.49,760.21 645.5,758C 646.865,758.143 648.198,758.643 649.5,759.5 Z M 656.5,758.5 C 658.942,758.119 659.609,758.786 658.5,760.5C 659.328,761.415 660.328,762.081 661.5,762.5C 664.849,761.17 665.182,761.67 662.5,764C 663.113,766.147 663.779,768.314 664.5,770.5C 665.5,771 666.5,771.5 667.5,772C 665.527,772.495 663.527,772.662 661.5,772.5C 659.863,769.614 657.863,766.947 655.5,764.5C 659.31,763.754 659.31,762.754 655.5,761.5C 656.11,760.609 656.443,759.609 656.5,758.5 Z M 634.5,764.5 C 632.299,764.142 630.965,762.808 630.5,760.5C 631.689,759.571 633.022,759.238 634.5,759.5C 634.5,761.167 634.5,762.833 634.5,764.5 Z M 664.5,763.5 C 666.225,763.843 666.725,764.843 666,766.5C 664.961,765.756 664.461,764.756 664.5,763.5 Z"/></g>
<g><path style="opacity:0.551" fill="#fefffe" d="M 344.5,316.5 C 345.5,316.5 346.5,316.5 347.5,316.5C 347.105,320.359 345.105,321.692 341.5,320.5C 342.826,319.358 343.826,318.024 344.5,316.5 Z"/></g>
<g><path style="opacity:0.387" fill="#fefffe" d="M 282.5,383.5 C 283.675,383.281 284.675,383.614 285.5,384.5C 283.948,385.798 282.948,385.465 282.5,383.5 Z"/></g>
<g><path style="opacity:0.355" fill="#fefffe" d="M 289.5,387.5 C 289.181,391.3 288.181,391.466 286.5,388C 287.352,386.272 288.352,386.105 289.5,387.5 Z"/></g>
<g><path style="opacity:0.363" fill="#fefffe" d="M 403.5,513.5 C 405.476,514.427 405.809,515.76 404.5,517.5C 402.358,516.563 402.024,515.23 403.5,513.5 Z"/></g>
<g><path style="opacity:0.443" fill="#fefffe" d="M 187.5,523.5 C 192.276,523.671 192.609,524.671 188.5,526.5C 186.197,526.124 185.863,525.124 187.5,523.5 Z"/></g>
<g><path style="opacity:0.266" fill="#fefffe" d="M 477.5,597.5 C 477.639,595.663 478.306,595.33 479.5,596.5C 479.043,597.298 478.376,597.631 477.5,597.5 Z"/></g>
<g><path style="opacity:0.382" fill="#fefffe" d="M 537.5,646.5 C 537.5,645.5 537.5,644.5 537.5,643.5C 538.5,643.5 539.5,643.5 540.5,643.5C 540.5,644.5 540.5,645.5 540.5,646.5C 539.5,646.5 538.5,646.5 537.5,646.5 Z"/></g>
<g><path style="opacity:0.266" fill="#fefffe" d="M 543.5,650.5 C 545.337,650.639 545.67,651.306 544.5,652.5C 543.702,652.043 543.369,651.376 543.5,650.5 Z"/></g>
<g><path style="opacity:0.29" fill="#fefffe" d="M 587.5,667.5 C 587.948,665.535 588.948,665.202 590.5,666.5C 589.675,667.386 588.675,667.719 587.5,667.5 Z"/></g>
<g><path style="opacity:0.485" fill="#fefffe" d="M 80.5,673.5 C 82.3547,673.272 83.1881,673.939 83,675.5C 81.4941,677.174 79.6607,678.174 77.5,678.5C 77.31,676.041 78.31,674.374 80.5,673.5 Z"/></g>
<g><path style="opacity:0.159" fill="#fefffe" d="M 545.5,674.5 C 545.361,676.337 544.694,676.67 543.5,675.5C 543.957,674.702 544.624,674.369 545.5,674.5 Z"/></g>
<g><path style="opacity:0.21" fill="#fefffe" d="M 602.5,678.5 C 604.424,678.711 604.757,679.377 603.5,680.5C 603.167,679.833 602.833,679.167 602.5,678.5 Z"/></g>
<g><path style="opacity:0.48" fill="#fefffe" d="M 74.5,681.5 C 79.154,681.395 79.654,682.729 76,685.5C 74.8118,684.437 74.3118,683.103 74.5,681.5 Z"/></g>
<g><path style="opacity:0.317" fill="#fefffe" d="M 551.5,683.5 C 552.995,683.415 553.995,684.081 554.5,685.5C 552.604,686.639 551.604,685.973 551.5,683.5 Z"/></g>
<g><path style="opacity:0.55" fill="#fefffe" d="M 560.5,685.5 C 562.942,685.354 563.609,686.187 562.5,688C 565.274,689.605 565.94,691.772 564.5,694.5C 561.946,692.056 558.946,690.389 555.5,689.5C 557.419,688.388 559.086,687.054 560.5,685.5 Z"/></g>
<g><path style="opacity:0.444" fill="#fefffe" d="M 614.5,694.5 C 618.343,694.191 619.676,695.691 618.5,699C 617.552,699.483 616.552,699.649 615.5,699.5C 615.371,697.784 615.038,696.117 614.5,694.5 Z"/></g>
<g><path style="opacity:0.143" fill="#fefffe" d="M 565.5,695.5 C 566.675,695.281 567.675,695.614 568.5,696.5C 566.948,697.798 565.948,697.465 565.5,695.5 Z"/></g>
<g><path style="opacity:0.29" fill="#fefffe" d="M 595.5,699.5 C 595.5,698.833 595.167,698.5 594.5,698.5C 594.125,695.093 595.125,694.593 597.5,697C 601.746,701.712 601.079,702.545 595.5,699.5 Z"/></g>
<g><path style="opacity:0.399" fill="#fefffe" d="M 594.5,698.5 C 595.167,698.5 595.5,698.833 595.5,699.5C 595.483,701.028 594.816,701.528 593.5,701C 592.004,698.553 592.337,697.719 594.5,698.5 Z"/></g>
<g><path style="opacity:0.498" fill="#fefffe" d="M 569.5,699.5 C 570.873,699.343 572.207,699.51 573.5,700C 574.583,702.056 576.25,703.389 578.5,704C 577.646,705.022 576.646,705.855 575.5,706.5C 572.734,704.741 570.734,702.407 569.5,699.5 Z"/></g>
<g><path style="opacity:0.522" fill="#fefffe" d="M 607.5,710.5 C 609.465,710.948 609.798,711.948 608.5,713.5C 605.916,714.393 603.249,714.726 600.5,714.5C 601.038,712.883 601.371,711.216 601.5,709.5C 597.673,709.56 597.006,708.393 599.5,706C 597.74,705.035 597.406,703.868 598.5,702.5C 599.478,702.977 600.311,703.643 601,704.5C 602.299,707.147 603.632,709.814 605,712.5C 605.995,711.934 606.828,711.267 607.5,710.5 Z"/></g>
<g><path style="opacity:0.472" fill="#fefffe" d="M 607.5,710.5 C 606.761,710.631 606.094,710.464 605.5,710C 601.477,704.174 602.477,703.341 608.5,707.5C 607.873,708.417 607.539,709.417 607.5,710.5 Z"/></g>
<g><path style="opacity:0.282" fill="#fefffe" d="M 630.5,706.5 C 633.001,706.511 633.168,707.178 631,708.5C 630.536,707.906 630.369,707.239 630.5,706.5 Z"/></g>
<g><path style="opacity:0.477" fill="#fefffe" d="M 584.5,713.5 C 581.482,713.2 579.482,711.533 578.5,708.5C 579.689,707.571 581.022,707.238 582.5,707.5C 582.137,709.911 583.137,711.411 585.5,712C 584.944,712.383 584.611,712.883 584.5,713.5 Z"/></g>
<g><path style="opacity:0.384" fill="#fefffe" d="M 584.5,713.5 C 585.552,713.351 586.552,713.517 587.5,714C 586.542,715.147 586.875,716.147 588.5,717C 585.51,717.847 584.176,716.68 584.5,713.5 Z"/></g>
<g><path style="opacity:0.378" fill="#fefffe" d="M 607.5,717.5 C 608.5,717.5 609.5,717.5 610.5,717.5C 610.5,718.5 610.5,719.5 610.5,720.5C 607.506,720.854 606.506,719.854 607.5,717.5 Z"/></g>
<g><path style="opacity:0.292" fill="#fefffe" d="M 613.5,722.5 C 612.438,721.425 612.438,720.425 613.5,719.5C 614.776,720.614 614.776,721.614 613.5,722.5 Z"/></g>
<g><path style="opacity:0.341" fill="#fefffe" d="M 591.5,720.5 C 593.465,720.948 593.798,721.948 592.5,723.5C 590.481,722.867 590.147,721.867 591.5,720.5 Z"/></g>
<g><path style="opacity:0.284" fill="#fefffe" d="M 621.5,721.5 C 621.483,723.028 620.816,723.528 619.5,723C 620.044,722.283 620.711,721.783 621.5,721.5 Z"/></g>
<g><path style="opacity:0.3" fill="#fefffe" d="M 598.5,731.5 C 600.035,730.212 601.701,730.212 603.5,731.5C 601.905,732.434 600.239,732.434 598.5,731.5 Z"/></g>
<g><path style="opacity:0.338" fill="#fefffe" d="M 604.5,734.5 C 605.995,734.415 606.995,735.081 607.5,736.5C 605.604,737.639 604.604,736.973 604.5,734.5 Z"/></g>
<g><path style="opacity:0.21" fill="#fefffe" d="M 679.5,743.5 C 682.001,743.511 682.168,744.178 680,745.5C 679.536,744.906 679.369,744.239 679.5,743.5 Z"/></g>
<g><path style="opacity:0.55" fill="#fefffe" d="M 682.5,743.5 C 687.119,744.773 687.619,747.106 684,750.5C 682.648,748.406 682.148,746.073 682.5,743.5 Z"/></g>
<g><path style="opacity:0.367" fill="#fefffe" d="M 622.5,752.5 C 621.244,752.904 620.077,753.571 619,754.5C 618.5,754.167 618,753.833 617.5,753.5C 618.167,752.833 618.833,752.167 619.5,751.5C 617.599,750.455 615.933,749.122 614.5,747.5C 615.833,746.167 617.167,746.167 618.5,747.5C 620.611,748.605 621.945,750.271 622.5,752.5 Z"/></g>
<g><path style="opacity:0.489" fill="#fefffe" d="M 691.5,749.5 C 692.5,749.5 693.5,749.5 694.5,749.5C 694.27,752.465 692.603,753.798 689.5,753.5C 687.681,753.658 686.348,752.991 685.5,751.5C 687.631,750.831 689.631,750.165 691.5,749.5 Z"/></g>
<g><path style="opacity:0.465" fill="#fefffe" d="M 679.5,751.5 C 680.5,751.5 681.5,751.5 682.5,751.5C 682.328,753.492 682.995,755.158 684.5,756.5C 683.132,757.594 681.965,757.26 681,755.5C 678.708,756.908 676.541,756.741 674.5,755C 676.596,754.263 678.263,753.097 679.5,751.5 Z"/></g>
<g><path style="opacity:0.315" fill="#fefffe" d="M 696.5,759.5 C 694.535,759.052 694.202,758.052 695.5,756.5C 696.386,757.325 696.719,758.325 696.5,759.5 Z"/></g>
<g><path style="opacity:0.564" fill="#fefffe" d="M 674.5,757.5 C 679.913,758.973 679.746,760.307 674,761.5C 673.167,761.167 672.333,760.833 671.5,760.5C 672.34,759.265 673.34,758.265 674.5,757.5 Z"/></g>
<g><path style="opacity:0.472" fill="#fefffe" d="M 700.5,757.5 C 700.5,759.5 700.5,761.5 700.5,763.5C 697.474,764.577 694.474,764.577 691.5,763.5C 690.3,761.893 690.8,760.893 693,760.5C 696.179,763.398 697.345,763.065 696.5,759.5C 697.467,758.194 698.801,757.527 700.5,757.5 Z"/></g>
<g><path style="opacity:0.532" fill="#fefffe" d="M 700.5,763.5 C 701.67,761.721 703.336,760.721 705.5,760.5C 705.5,762.167 705.5,763.833 705.5,765.5C 704.448,765.351 703.448,765.517 702.5,766C 701.733,768.053 700.4,769.553 698.5,770.5C 697.833,770.167 697.167,769.833 696.5,769.5C 698.278,767.736 699.611,765.736 700.5,763.5 Z"/></g>
<g><path style="opacity:0.408" fill="#fefffe" d="M 655.5,761.5 C 659.31,762.754 659.31,763.754 655.5,764.5C 655.5,763.5 655.5,762.5 655.5,761.5 Z"/></g>
<g><path style="opacity:0.343" fill="#fefffe" d="M 680.5,761.5 C 684.223,762.524 684.057,763.857 680,765.5C 679.421,764.072 679.588,762.738 680.5,761.5 Z"/></g>
<g><path style="opacity:0.477" fill="#fefffe" d="M 691.5,765.5 C 693.745,765.541 694.412,766.375 693.5,768C 690.909,769.718 688.242,770.218 685.5,769.5C 687.01,767.311 689.01,765.977 691.5,765.5 Z"/></g>
<g><path style="opacity:0.212" fill="#fefffe" d="M 685.5,771.5 C 687.337,771.639 687.67,772.306 686.5,773.5C 685.702,773.043 685.369,772.376 685.5,771.5 Z"/></g>
<g><path style="opacity:0.715" fill="#fefffe" d="M 691.5,787.5 C 689.5,787.5 687.5,787.5 685.5,787.5C 683.882,786.549 682.549,785.216 681.5,783.5C 679.929,784.309 678.262,784.643 676.5,784.5C 676.5,783.5 676.5,782.5 676.5,781.5C 680.253,782.227 682.919,780.893 684.5,777.5C 686.43,779.455 688.597,781.121 691,782.5C 691.494,784.134 691.66,785.801 691.5,787.5 Z"/></g>
</svg>
