<?xml version="1.0" standalone="no"?>
<!DOCTYPE svg PUBLIC "-//W3C//DTD SVG 20010904//EN"
 "http://www.w3.org/TR/2001/REC-SVG-20010904/DTD/svg10.dtd">
<svg version="1.0" xmlns="http://www.w3.org/2000/svg"
 width="1320.000000pt" height="1448.000000pt" viewBox="0 0 1320.000000 1448.000000"
 preserveAspectRatio="xMidYMid meet">

<g transform="translate(0.000000,1448.000000) scale(0.100000,-0.100000)"
fill="#000000" stroke="none">
<path d="M10644 14333 c-28 -26 -67 -61 -86 -78 -19 -16 -41 -42 -50 -56 -9
-15 -26 -29 -37 -32 -18 -4 -21 -1 -21 26 0 18 9 41 23 55 l22 25 -25 -8 c-14
-4 -51 -8 -82 -9 l-58 -1 0 37 c0 45 -17 52 -98 43 -58 -7 -92 -27 -92 -52 0
-14 -38 -66 -97 -136 -18 -20 -33 -43 -33 -50 0 -12 -55 -90 -110 -157 -16
-19 -30 -43 -30 -52 0 -10 -13 -32 -30 -51 -37 -43 -55 -86 -40 -101 13 -13
13 -26 0 -26 -5 0 -10 8 -10 18 -1 15 -3 14 -18 -4 -9 -12 -24 -32 -32 -45 -8
-12 -35 -45 -59 -71 -24 -26 -55 -69 -68 -96 -23 -46 -46 -84 -90 -153 -13
-19 -23 -37 -23 -41 0 -4 -16 -28 -35 -53 -19 -25 -40 -65 -47 -88 -6 -23 -21
-55 -32 -72 -11 -16 -27 -41 -36 -55 -9 -14 -25 -40 -35 -59 -9 -19 -26 -43
-36 -54 -10 -12 -19 -31 -19 -44 0 -13 -12 -33 -26 -46 -46 -39 -84 -81 -90
-102 -6 -19 -43 -68 -82 -110 -11 -11 -31 -39 -45 -62 -14 -23 -31 -44 -37
-48 -5 -3 -10 -20 -10 -36 0 -19 -4 -28 -11 -24 -12 8 -49 -23 -49 -42 0 -7
-4 -13 -8 -13 -5 0 -24 -23 -42 -51 -29 -46 -31 -53 -17 -61 23 -12 21 -27 -1
-21 -26 6 -105 -85 -112 -129 -4 -23 -13 -37 -32 -46 -15 -7 -37 -26 -50 -42
-13 -17 -38 -49 -56 -72 -18 -22 -39 -55 -46 -72 -8 -17 -31 -49 -52 -71 -21
-22 -53 -62 -73 -90 -19 -27 -38 -52 -43 -53 -20 -8 -41 -79 -39 -130 1 -32
-2 -52 -7 -48 -5 3 -9 17 -9 31 0 38 -12 43 -34 15 -42 -54 -72 -116 -70 -146
1 -23 -5 -36 -23 -48 -14 -9 -32 -16 -41 -16 -16 0 -39 -46 -30 -60 3 -5 -4
-11 -15 -15 -11 -4 -28 -18 -38 -33 -9 -14 -27 -36 -39 -49 -25 -24 -29 -38
-13 -48 15 -9 12 -35 -5 -35 -7 0 -18 7 -23 16 -7 13 -14 7 -33 -32 -27 -58
-32 -64 -84 -118 -42 -44 -56 -67 -112 -180 -19 -38 -53 -88 -77 -112 -30 -30
-46 -55 -50 -81 -12 -67 -16 -74 -37 -68 -16 5 -23 0 -32 -24 -6 -17 -14 -31
-18 -31 -10 0 -119 -137 -119 -150 0 -6 4 -9 8 -6 4 2 14 1 22 -4 21 -13 0
-45 -30 -45 -27 -1 -68 -51 -52 -67 6 -6 8 -26 5 -44 -4 -22 -2 -34 6 -34 6 0
11 5 11 10 0 6 5 10 10 10 6 0 10 -9 10 -19 0 -21 -26 -36 -36 -20 -3 6 -17
14 -30 19 -20 8 -22 13 -14 35 5 14 6 25 2 25 -12 -1 -38 -43 -46 -73 -4 -16
-18 -39 -32 -52 -18 -16 -24 -32 -22 -52 3 -24 0 -28 -19 -26 -28 3 -55 -35
-52 -74 4 -56 1 -63 -31 -63 -24 0 -33 -6 -41 -27 -6 -16 -22 -43 -35 -60 -14
-18 -32 -48 -40 -66 -28 -58 -52 -99 -72 -121 -36 -38 -62 -96 -62 -136 0 -22
-4 -40 -10 -40 -5 0 -10 5 -10 10 0 14 -23 13 -38 -2 -14 -14 2 -48 22 -48 23
0 25 -26 5 -38 -13 -9 -25 -9 -38 -3 -20 11 -31 5 -31 -17 0 -8 -11 -28 -25
-44 -33 -39 -24 -50 30 -34 38 12 45 12 49 -1 12 -29 5 -41 -30 -63 -40 -23
-75 -21 -55 4 7 9 8 17 3 20 -17 10 -63 -21 -84 -56 -11 -18 -31 -45 -44 -59
-16 -16 -22 -32 -18 -42 13 -34 65 -13 79 32 7 23 32 35 41 20 3 -6 -2 -16
-12 -23 -17 -13 -17 -15 -1 -39 21 -32 22 -48 3 -41 -8 3 -23 -4 -33 -15 -9
-12 -25 -21 -35 -21 -14 0 -18 -8 -18 -35 0 -24 -6 -39 -20 -47 -11 -7 -20
-19 -20 -26 0 -24 -20 -51 -34 -46 -12 5 -11 12 6 40 11 19 19 36 17 38 -12
10 -81 -9 -87 -23 -8 -23 -24 -31 -47 -25 -26 6 -70 -66 -61 -101 4 -14 -1
-32 -14 -48 -26 -33 -26 -67 0 -74 37 -10 37 -66 -1 -78 -10 -3 -27 -16 -36
-29 -10 -13 -32 -27 -48 -33 -26 -9 -30 -15 -27 -42 2 -28 0 -32 -18 -26 -24
8 -24 7 -5 -39 12 -28 12 -36 3 -36 -18 1 -48 25 -48 38 0 16 -51 66 -84 82
-16 8 -42 38 -58 67 -17 29 -43 62 -58 73 -15 11 -45 46 -66 77 -21 32 -58 79
-83 104 -47 47 -90 104 -127 168 -12 20 -40 55 -62 79 -23 23 -42 46 -42 51 0
5 -16 26 -35 47 -19 21 -35 46 -35 56 0 27 -29 67 -61 83 -15 8 -36 28 -46 45
-9 16 -25 33 -35 36 -11 3 -18 15 -18 30 0 18 -18 44 -60 85 -33 33 -67 76
-76 96 -10 19 -23 37 -31 40 -7 3 -36 34 -64 69 -28 35 -57 64 -65 64 -8 0
-17 13 -20 30 -4 16 -13 35 -20 41 -8 6 -14 16 -14 22 0 5 -15 27 -32 48 -18
21 -57 69 -86 106 -29 37 -80 102 -113 143 -33 41 -69 92 -80 113 -11 21 -31
48 -45 60 -14 12 -35 39 -45 59 -11 21 -30 44 -42 53 -13 8 -29 30 -36 50 -7
19 -16 35 -22 35 -5 0 -22 24 -39 53 -16 28 -79 103 -140 165 -60 62 -110 117
-110 121 0 4 -21 29 -48 54 -26 25 -65 68 -87 96 -22 28 -45 51 -51 51 -6 0
-24 19 -39 41 -15 23 -54 72 -86 108 -32 36 -78 87 -101 114 -23 26 -47 47
-53 47 -15 0 -74 75 -78 98 -1 10 -23 42 -48 71 -26 29 -57 73 -69 99 -13 26
-38 65 -57 86 -18 22 -33 47 -33 56 0 16 -29 50 -44 50 -15 0 -76 70 -76 88 0
21 -36 79 -84 132 -17 20 -51 60 -76 90 -76 92 -280 304 -306 318 -13 7 -24
21 -24 32 0 11 -3 20 -8 20 -17 0 -123 103 -674 661 -194 196 -271 288 -318
378 -7 14 -32 45 -55 70 -23 25 -49 58 -56 72 -16 30 -173 179 -189 179 -18 0
-88 70 -124 123 -58 87 -71 97 -126 97 -47 0 -52 -2 -80 -42 -17 -23 -46 -52
-64 -65 -19 -12 -38 -32 -41 -43 -4 -12 -25 -33 -47 -47 -33 -22 -39 -31 -35
-52 4 -17 -3 -35 -19 -54 -16 -19 -22 -36 -18 -51 6 -24 -9 -41 -41 -48 -21
-4 -22 -8 -10 -45 4 -16 2 -23 -7 -23 -7 0 -19 -9 -26 -21 -11 -17 -20 -20
-43 -15 -24 5 -36 0 -65 -27 -22 -20 -36 -42 -36 -57 -1 -59 27 -125 58 -137
18 -7 19 -23 1 -23 -16 0 -67 52 -67 68 0 16 -38 35 -57 28 -14 -6 -14 -9 2
-26 24 -26 11 -39 -15 -15 -16 14 -22 15 -35 5 -12 -10 -20 -9 -40 4 -30 20
-35 20 -35 2 0 -34 -32 -22 -91 35 -46 43 -70 59 -91 59 -29 0 -35 -13 -19
-40 7 -10 4 -18 -9 -27 -25 -17 -61 -3 -85 33 -16 25 -19 26 -30 10 -15 -19
-28 -6 -19 18 9 23 -3 63 -21 70 -11 4 -29 -8 -54 -34 -40 -43 -56 -49 -64
-26 -3 8 -20 17 -37 21 -26 6 -35 3 -46 -14 -9 -12 -24 -21 -35 -21 -18 0 -19
-8 -19 -117 0 -102 3 -121 20 -143 11 -14 20 -30 20 -37 0 -7 9 -17 19 -23 11
-5 28 -24 38 -40 10 -17 28 -33 40 -36 30 -8 73 -66 73 -99 0 -36 17 -65 39
-65 22 0 73 -38 66 -50 -6 -9 52 -84 83 -106 15 -10 22 -25 22 -49 0 -27 10
-44 51 -87 27 -29 67 -60 87 -70 20 -9 34 -17 30 -18 -13 0 34 -83 62 -110 14
-14 37 -42 50 -63 16 -25 41 -45 72 -59 38 -16 52 -29 70 -67 13 -25 23 -54
24 -63 2 -29 32 -66 56 -70 18 -2 24 -10 26 -34 2 -22 11 -35 30 -44 52 -24
56 -26 60 -38 2 -7 -6 -10 -20 -7 -22 4 -22 4 -4 -10 10 -8 23 -12 28 -9 4 3
16 -2 25 -11 9 -9 33 -28 55 -41 21 -13 38 -28 38 -33 0 -6 8 -12 18 -15 17
-6 42 -68 42 -106 0 -13 9 -22 27 -26 16 -3 39 -17 53 -30 14 -13 44 -41 68
-62 43 -41 53 -58 27 -48 -33 12 -13 -25 24 -43 21 -11 41 -27 44 -36 4 -10
20 -15 48 -15 l42 0 -7 -50 c-7 -49 -6 -50 42 -98 27 -26 53 -47 59 -45 6 2
21 -6 32 -18 12 -13 28 -24 36 -25 22 -3 43 -29 42 -50 -2 -15 4 -18 23 -16
32 3 102 -64 76 -74 -19 -7 -10 -31 16 -45 15 -8 19 -8 14 0 -5 7 3 11 22 11
33 0 45 -18 36 -54 -7 -31 19 -50 67 -49 40 1 55 -19 23 -31 -8 -3 -12 -10 -9
-16 11 -18 69 -43 97 -42 18 0 25 -4 22 -12 -3 -7 2 -19 11 -26 18 -15 20 -40
3 -40 -6 0 -3 -8 8 -19 10 -10 24 -16 31 -14 22 8 50 -16 51 -42 0 -30 40 -78
59 -71 7 3 15 0 19 -5 3 -6 22 -17 40 -25 19 -8 34 -19 34 -24 0 -7 -6 -7 -19
0 -26 13 -31 13 -31 -5 0 -8 21 -23 47 -35 25 -11 43 -23 40 -26 -4 -4 -2 -15
4 -25 7 -14 16 -17 41 -12 29 6 31 5 26 -24 -3 -22 0 -29 12 -28 28 2 40 16
40 49 0 36 -15 56 -42 56 -10 0 -18 7 -18 15 0 26 55 18 81 -12 13 -14 39 -40
56 -58 39 -38 45 -70 11 -60 -13 4 -28 13 -34 21 -16 20 -21 18 -27 -12 -5
-27 14 -54 39 -54 22 0 17 -31 -6 -37 -24 -6 -24 -4 1 -52 22 -43 38 -54 60
-40 11 7 10 13 -10 28 -16 12 -20 20 -12 25 12 8 50 -1 52 -12 5 -39 7 -50 13
-69 5 -15 18 -24 41 -29 22 -4 47 -20 70 -45 19 -21 40 -39 46 -39 8 0 8 5 -1
15 -14 16 -10 18 35 15 67 -3 87 -30 44 -60 -11 -8 -28 -20 -36 -26 -22 -15 2
-51 40 -60 15 -3 33 -14 40 -25 6 -10 17 -19 24 -19 7 0 13 -11 13 -24 0 -37
10 -55 27 -49 8 3 18 2 22 -3 3 -5 15 -14 26 -20 15 -8 22 -27 29 -77 6 -48
13 -67 24 -67 7 0 27 -12 42 -27 58 -56 66 -61 85 -51 20 12 30 3 39 -34 7
-32 0 -35 -25 -12 -10 9 -19 11 -23 5 -8 -12 51 -81 67 -78 7 1 11 -4 9 -12
-2 -10 7 -12 37 -9 22 2 37 0 35 -4 -5 -8 20 -39 31 -38 20 1 25 -2 25 -16 0
-8 19 -24 45 -35 25 -11 45 -24 45 -29 0 -5 10 -10 22 -12 28 -4 36 -28 10
-28 -17 0 -20 -6 -17 -50 3 -67 18 -83 72 -78 38 3 43 1 43 -18 0 -15 10 -24
40 -34 32 -10 40 -18 40 -37 0 -26 -3 -28 -30 -11 -31 20 -34 2 -5 -36 20 -27
35 -36 56 -36 16 0 38 -9 49 -20 11 -11 24 -20 29 -20 6 0 10 -17 10 -37 0
-21 2 -45 4 -53 4 -19 41 -80 60 -100 8 -8 22 -27 31 -41 9 -15 29 -29 44 -32
21 -4 31 -17 46 -52 10 -25 28 -50 40 -56 28 -15 56 -50 56 -71 0 -10 6 -18
13 -18 8 0 19 -11 25 -25 6 -14 16 -25 22 -25 14 0 80 -71 80 -87 0 -6 -9 -9
-20 -6 -13 3 -20 0 -20 -9 0 -7 9 -21 20 -31 17 -14 20 -14 20 -2 0 22 28 18
40 -6 8 -14 8 -24 1 -32 -17 -22 5 -41 44 -39 30 2 38 -2 53 -28 9 -16 24 -30
33 -30 10 0 19 -11 21 -25 6 -29 -4 -32 -26 -9 -15 14 -16 13 -16 -8 0 -13 8
-31 18 -40 9 -9 26 -28 37 -42 23 -29 45 -34 45 -10 0 30 24 8 35 -32 14 -54
25 -70 36 -53 7 11 11 10 21 -4 11 -15 19 -16 39 -8 15 5 31 6 40 0 11 -7 11
-9 -3 -9 -10 0 -18 -5 -18 -11 0 -8 -12 -10 -35 -6 -41 7 -44 -2 -12 -39 23
-26 51 -27 41 0 -3 7 2 19 11 26 12 10 15 10 15 -4 0 -26 29 -76 44 -76 24 0
58 -48 63 -91 3 -23 12 -49 20 -58 8 -9 25 -31 39 -48 30 -39 66 -48 40 -11
-9 12 -16 30 -16 40 0 10 -7 18 -15 18 -15 0 -21 35 -7 43 4 3 28 -2 54 -10
44 -12 47 -15 36 -33 -9 -15 -10 -22 -1 -31 16 -16 35 -1 28 22 -10 31 12 22
41 -16 24 -32 25 -39 14 -59 -16 -31 -6 -46 31 -46 17 0 29 -5 29 -13 0 -22
-11 -26 -36 -15 -27 13 -40 6 -28 -14 5 -7 10 -22 12 -33 3 -25 21 -42 47 -47
14 -2 19 2 18 12 -4 24 60 45 86 28 12 -7 21 -20 21 -29 0 -10 16 -23 40 -33
22 -9 40 -20 40 -24 0 -5 10 -14 23 -20 18 -9 13 -10 -28 -5 -42 4 -56 12 -87
45 -21 21 -38 43 -38 48 0 11 -13 13 -22 4 -3 -3 -1 -21 5 -40 7 -22 17 -34
28 -34 24 0 79 -54 79 -78 0 -11 7 -25 16 -32 13 -11 16 -10 21 9 4 18 12 21
37 19 24 -2 32 -8 34 -27 3 -22 1 -23 -28 -18 -28 6 -31 5 -25 -13 5 -17 2
-20 -20 -20 -25 0 -26 -2 -21 -37 6 -34 2 -43 -33 -82 -21 -24 -43 -41 -48
-38 -15 10 -39 -23 -54 -71 -15 -53 -7 -62 31 -33 17 12 30 18 31 14 7 -53 3
-93 -8 -93 -7 0 -13 -4 -13 -9 0 -17 -57 -40 -69 -28 -17 17 -13 35 10 42 14
5 19 14 17 28 -4 31 -36 34 -47 5 -5 -13 -16 -30 -25 -37 -11 -9 -13 -18 -6
-31 10 -18 2 -23 -63 -44 -9 -3 -17 -11 -17 -18 0 -9 3 -10 8 -2 4 6 21 9 37
7 41 -6 57 -7 75 -2 10 3 16 -5 18 -25 3 -25 1 -28 -20 -23 -13 3 -40 9 -61
13 -35 6 -39 4 -35 -12 2 -13 12 -19 31 -19 17 1 26 -4 23 -11 -2 -6 1 -17 7
-23 21 -21 -3 -24 -26 -3 -23 22 -48 22 -94 -1 -35 -16 -30 -40 7 -32 19 4 30
3 30 -4 0 -6 8 -11 18 -11 9 -1 28 -7 42 -15 25 -14 25 -14 -13 -15 -25 0 -50
-9 -71 -25 l-33 -25 1 42 c1 32 -3 43 -16 46 -12 2 -20 -8 -29 -39 -12 -39
-12 -43 11 -61 22 -18 22 -19 5 -32 -16 -11 -21 -11 -33 0 -20 21 -51 0 -70
-47 -9 -24 -22 -39 -32 -39 -10 0 -24 -16 -35 -42 -10 -24 -25 -50 -33 -60 -7
-9 -12 -22 -11 -30 3 -26 -1 -36 -21 -41 -18 -5 -30 -29 -12 -26 48 8 56 -21
10 -39 -24 -9 -34 -9 -39 0 -12 18 -41 -11 -34 -33 8 -24 -9 -57 -20 -39 -10
16 -65 -47 -65 -76 0 -11 -14 -31 -31 -43 -27 -20 -29 -25 -15 -33 27 -15 20
-46 -14 -53 -17 -4 -30 -13 -30 -20 0 -8 -16 -26 -35 -41 -40 -31 -44 -49 -12
-58 22 -6 22 -7 3 -21 -11 -8 -33 -15 -48 -15 -21 0 -31 -6 -37 -22 -9 -26 6
-68 24 -68 19 0 45 -34 45 -58 0 -29 -18 -28 -30 2 -13 34 -60 60 -60 33 0 -7
-18 -26 -40 -43 -34 -25 -40 -35 -40 -66 0 -27 -4 -38 -15 -38 -9 0 -18 -6
-21 -14 -3 -8 -12 -12 -20 -9 -8 3 -11 9 -8 14 3 5 -2 9 -10 9 -9 0 -17 -6
-17 -12 -1 -7 -3 -20 -4 -28 -1 -8 -3 -21 -4 -27 0 -7 -10 -13 -21 -13 -11 0
-20 -4 -20 -9 0 -6 -31 -41 -70 -80 -78 -79 -106 -131 -89 -163 10 -18 9 -20
-9 -16 -28 8 -54 -22 -61 -69 -5 -28 -14 -41 -36 -53 -36 -18 -64 -50 -65 -71
0 -17 -32 -37 -69 -41 -27 -3 -42 -28 -17 -28 20 0 20 -2 -5 -44 -14 -25 -28
-36 -44 -36 -30 0 -43 -40 -14 -47 10 -3 19 -7 19 -10 0 -11 -48 -53 -72 -62
-32 -12 -38 -36 -8 -28 11 3 20 1 20 -4 0 -5 6 -9 14 -9 20 0 31 -19 18 -32
-8 -8 -16 -8 -26 1 -13 11 -17 9 -27 -13 -9 -19 -20 -26 -39 -26 -33 0 -68
-35 -76 -78 -4 -18 -18 -41 -31 -52 -29 -23 -24 -51 8 -47 37 4 46 -26 18 -61
-13 -17 -29 -31 -36 -31 -25 -2 -62 23 -65 42 -3 18 -4 19 -16 4 -12 -14 -10
-20 12 -40 32 -30 33 -37 2 -37 -16 0 -27 -7 -31 -21 -6 -19 -8 -19 -25 -4
-24 22 -43 10 -36 -21 5 -19 0 -26 -23 -38 -24 -13 -40 -40 -41 -68 0 -5 9 -8
20 -8 11 0 20 -4 20 -10 0 -5 7 -10 15 -10 18 0 18 5 4 32 -17 31 5 45 25 17
23 -33 19 -61 -9 -82 -23 -16 -27 -17 -41 -3 -8 9 -19 16 -24 16 -14 0 -20
-31 -9 -52 6 -11 8 -26 5 -35 -6 -13 -9 -13 -31 1 -37 24 -67 21 -63 -6 2 -17
10 -23 27 -23 19 0 27 -8 33 -30 4 -16 4 -33 -1 -38 -13 -13 -40 3 -43 25 -4
28 -41 41 -65 23 -23 -17 -8 -47 28 -55 19 -5 23 -12 21 -31 -6 -37 -19 -47
-74 -54 -38 -5 -53 -4 -59 6 -6 10 -9 8 -9 -8 0 -12 -12 -35 -26 -52 -17 -21
-21 -31 -12 -31 19 0 38 21 38 42 0 22 23 24 40 3 11 -13 9 -19 -7 -38 -11
-12 -25 -32 -32 -44 -9 -18 -17 -20 -53 -16 l-43 6 24 -21 c13 -12 33 -24 44
-28 20 -6 20 -7 -3 -24 -26 -19 -22 -54 5 -44 10 4 15 0 15 -10 0 -10 -9 -16
-25 -16 -14 0 -25 5 -25 10 0 22 -40 9 -54 -17 -8 -16 -15 -22 -16 -14 0 8 -6
11 -16 7 -11 -4 -15 -2 -11 8 6 14 -10 36 -26 36 -5 0 -7 -9 -4 -19 3 -12 -1
-22 -9 -25 -8 -3 -14 -13 -14 -21 0 -9 -4 -14 -9 -11 -5 3 -11 0 -14 -8 -7
-17 27 -28 42 -13 16 16 27 -1 14 -21 -7 -11 -22 -16 -46 -15 -31 2 -35 -1
-40 -26 -5 -22 -13 -30 -37 -34 -21 -5 -33 -15 -41 -34 -5 -16 -29 -47 -52
-70 -22 -24 -37 -43 -32 -44 29 -3 61 5 68 17 11 18 27 18 27 -1 0 -8 -12 -22
-27 -32 -16 -10 -34 -23 -41 -30 -7 -7 -17 -13 -22 -13 -34 0 -170 -129 -170
-160 0 -10 -5 -20 -10 -22 -6 -2 -12 -25 -14 -50 -3 -56 -4 -57 -41 -60 -20
-2 -42 -17 -70 -47 -22 -24 -51 -55 -64 -69 -21 -23 -71 -104 -71 -116 0 -3 8
-6 18 -6 28 -1 -16 -29 -65 -41 -31 -8 -43 -17 -47 -35 -4 -14 -24 -42 -46
-64 -26 -26 -40 -49 -40 -65 0 -14 -6 -28 -13 -31 -13 -5 -17 -18 -17 -60 0
-13 -8 -24 -20 -27 -23 -6 -28 21 -7 42 10 11 8 12 -9 3 -12 -6 -23 -9 -26 -7
-2 2 -4 -5 -5 -16 -1 -10 -11 -32 -23 -48 -11 -16 -24 -51 -29 -77 -9 -47 -31
-74 -59 -74 -10 0 -12 -7 -8 -25 5 -18 2 -25 -8 -25 -7 0 -16 -8 -19 -18 -2
-11 -17 -22 -36 -25 -17 -4 -34 -15 -37 -24 -14 -43 -39 -82 -56 -86 -26 -7
-24 -63 2 -79 26 -16 26 -28 0 -28 -27 0 -70 -28 -70 -46 0 -7 -12 -17 -26
-20 -21 -5 -24 -11 -20 -30 5 -20 1 -26 -19 -34 -14 -5 -34 -24 -43 -42 -9
-17 -27 -42 -39 -55 -13 -13 -23 -28 -23 -33 0 -9 -23 -36 -97 -115 -21 -22
-45 -52 -53 -66 -8 -14 -30 -46 -48 -70 -26 -34 -32 -50 -28 -73 5 -22 1 -32
-19 -48 -26 -20 -35 -71 -15 -83 5 -3 10 -15 10 -26 0 -31 20 -22 36 17 9 21
21 42 27 48 16 15 65 46 73 46 6 0 1 -28 -12 -72 -4 -12 0 -18 10 -18 29 0 17
-26 -16 -35 -25 -8 -35 -18 -42 -42 -5 -18 -15 -33 -22 -33 -7 0 -11 -6 -8
-14 7 -18 -42 -126 -64 -143 -9 -7 -25 -13 -34 -13 -10 0 -18 -4 -18 -9 0 -18
30 -39 49 -34 10 3 22 0 25 -6 4 -6 16 -11 27 -11 10 0 19 -4 19 -8 0 -5 11
-14 24 -20 22 -10 25 -8 28 11 3 19 10 22 48 24 38 2 50 8 75 38 37 43 45 44
45 5 0 -26 5 -31 30 -37 17 -3 30 -10 30 -15 0 -5 -5 -6 -11 -3 -6 4 -17 -2
-25 -14 -22 -30 -34 -26 -28 9 5 23 3 30 -9 30 -12 0 -15 -13 -14 -66 2 -60 5
-68 32 -90 17 -13 42 -24 58 -24 17 0 27 -5 27 -15 0 -8 -4 -15 -10 -15 -16 0
-12 -36 5 -50 13 -11 27 -11 72 0 60 13 103 46 103 79 0 11 14 29 30 41 17 12
30 30 30 39 0 31 21 41 58 26 18 -8 35 -21 38 -29 7 -18 59 -40 73 -31 6 3 11
13 11 21 0 8 5 12 10 9 6 -4 10 -14 9 -23 -3 -34 2 -42 26 -42 30 0 32 -11 7
-33 -11 -10 -22 -13 -28 -8 -5 5 -20 11 -34 13 -15 2 -25 9 -25 20 0 32 -15
30 -48 -7 -27 -31 -39 -37 -61 -33 -14 3 -29 1 -32 -4 -3 -4 -10 -6 -15 -3 -5
4 -9 1 -9 -4 0 -6 -9 -11 -20 -11 -26 0 -26 -20 0 -27 27 -7 25 -23 -3 -23
-13 0 -24 -6 -25 -12 -1 -7 -5 -30 -8 -50 -7 -42 8 -52 26 -18 17 32 47 24 76
-20 23 -35 32 -40 57 -38 26 3 31 -1 38 -26 8 -28 49 -76 49 -57 0 6 -8 15
-17 20 -10 6 -14 11 -10 11 22 0 67 -43 67 -64 0 -29 40 -90 62 -94 9 -2 25
11 38 33 12 19 33 38 46 41 16 4 32 23 49 57 14 27 53 80 85 117 33 37 60 72
60 77 0 5 13 24 30 43 16 19 29 41 30 47 0 7 18 32 41 55 23 24 56 66 74 93
18 28 40 57 48 64 9 7 19 26 22 42 4 16 19 41 34 57 30 31 121 165 121 179 0
5 14 22 30 38 17 16 30 35 30 42 0 7 5 13 10 13 6 0 10 6 10 13 0 7 18 30 40
52 21 22 39 45 40 51 0 19 46 36 79 29 28 -6 33 -3 51 28 11 18 38 48 60 66
41 33 56 81 25 81 -8 0 -15 7 -15 15 0 9 6 12 16 8 14 -5 16 -1 10 30 -5 29
-4 37 8 37 8 0 24 21 37 48 12 26 32 61 45 79 13 17 43 60 67 95 24 34 69 90
100 122 31 33 54 62 52 66 -3 4 4 15 15 25 11 10 20 24 20 31 0 8 16 28 36 46
20 18 46 50 58 72 40 72 45 80 78 112 41 41 78 89 78 103 0 6 20 31 45 57 26
26 45 55 45 67 0 14 19 41 48 69 27 26 59 67 72 92 12 25 31 48 41 51 11 4 19
12 19 20 0 7 6 20 13 27 8 7 17 25 20 39 4 14 19 32 33 40 15 8 49 36 76 62
40 39 47 51 37 63 -9 11 -8 14 4 14 23 0 48 29 43 49 -8 23 5 38 34 42 23 4
25 8 23 49 -3 40 -1 43 11 28 7 -10 18 -18 23 -18 13 0 63 64 63 81 0 7 10 23
22 36 24 26 19 43 -5 18 -17 -16 -30 -6 -22 17 3 8 21 14 42 15 28 1 42 9 69
40 19 21 34 44 34 51 0 7 6 15 14 18 7 3 22 21 32 40 18 33 18 36 2 45 -10 6
-18 19 -18 30 0 26 29 69 46 69 24 0 27 -21 5 -37 -17 -12 -19 -18 -10 -29 17
-20 47 0 57 39 4 18 18 36 30 42 27 12 38 41 22 60 -8 9 -8 15 -2 15 6 0 12
-6 14 -12 4 -10 9 -8 21 3 21 22 12 29 -29 22 -28 -5 -33 -3 -29 10 4 8 16 18
28 21 33 9 37 7 37 -9 0 -8 5 -15 10 -15 6 0 10 11 10 25 0 32 -3 41 -12 37
-5 -1 -8 2 -8 8 0 5 6 10 14 10 7 0 19 7 26 15 7 8 21 15 31 15 10 0 20 9 24
19 3 11 12 22 20 25 8 3 15 12 15 20 0 8 10 16 23 18 16 2 23 11 25 33 2 17 8
34 13 39 14 16 11 46 -6 46 -8 0 -15 7 -15 16 0 12 6 15 23 10 65 -19 85 -19
97 3 6 13 8 35 5 52 -6 26 -4 29 19 29 26 0 35 13 16 25 -18 11 -10 25 13 22
19 -2 22 3 23 36 1 31 8 44 44 74 39 34 41 38 24 50 -17 12 -17 13 4 13 12 0
22 -4 22 -10 0 -5 7 -10 15 -10 8 0 15 6 15 14 0 7 6 19 14 26 8 6 12 18 10
25 -4 8 7 20 25 30 35 18 41 45 11 45 -11 0 -20 5 -20 11 0 7 11 9 29 6 25 -5
33 -1 55 28 14 18 26 40 26 48 0 7 11 24 25 37 28 27 32 45 10 54 -24 9 -17
26 9 26 29 0 43 17 27 33 -19 19 -12 36 17 43 46 11 63 33 56 71 -5 27 -3 33
11 33 14 0 16 -6 12 -32 -5 -28 -2 -26 18 17 13 27 32 56 43 65 10 8 23 27 30
43 6 15 23 32 37 37 14 5 25 16 25 24 0 7 18 36 40 62 41 50 51 84 25 84 -8 0
-15 7 -15 16 0 12 7 14 28 9 38 -8 84 30 76 62 -10 36 14 90 42 97 16 4 29 18
36 36 5 17 16 30 23 30 19 0 24 23 8 35 -8 6 -11 18 -8 27 5 13 14 16 36 11
26 -5 29 -3 29 21 0 15 7 29 15 32 56 22 166 193 142 222 -13 16 -1 28 15 15
14 -10 64 -16 55 -6 -6 5 7 24 36 51 9 9 17 31 17 48 0 24 8 38 34 58 19 14
41 33 50 41 8 9 29 20 45 26 45 16 48 47 9 101 -9 13 -9 22 0 42 14 31 32 34
39 7 3 -11 11 -22 18 -25 10 -3 12 0 8 12 -6 15 -4 15 10 4 9 -8 20 -11 25 -9
11 8 30 -5 34 -23 2 -8 22 -34 46 -57 23 -23 42 -50 42 -59 0 -11 6 -15 19
-11 22 5 74 -43 90 -84 5 -15 23 -33 40 -40 32 -14 41 -29 19 -29 -10 0 -10
-2 0 -9 8 -4 14 -12 15 -17 1 -5 14 -20 30 -33 25 -21 31 -22 53 -11 30 16 32
55 4 72 -30 19 -24 35 17 41 44 8 53 3 53 -29 0 -13 6 -24 13 -24 8 -1 7 -5
-4 -13 -8 -7 -15 -25 -15 -41 1 -23 -4 -30 -24 -33 -56 -9 -51 -42 14 -93 25
-19 47 -44 51 -55 4 -11 8 -15 11 -8 3 7 13 4 28 -10 12 -12 21 -25 19 -28 -4
-9 39 -35 57 -34 8 0 16 9 19 20 2 11 8 23 13 26 15 10 0 29 -23 29 -21 0 -55
62 -44 80 11 18 26 10 37 -20 10 -30 52 -60 83 -60 12 0 15 -8 13 -27 -2 -21
-9 -29 -27 -31 -36 -5 -53 -27 -45 -57 3 -14 10 -25 15 -25 5 0 9 -9 9 -20 0
-10 8 -23 18 -29 10 -6 17 -21 17 -38 0 -21 5 -28 20 -28 12 0 19 6 17 15 -1
9 6 5 19 -10 11 -13 28 -25 37 -27 22 -3 52 -40 52 -64 0 -11 7 -35 15 -55 12
-29 19 -34 44 -32 16 1 36 -4 45 -12 13 -10 20 -10 28 -2 17 17 38 15 45 -4 4
-11 -2 -23 -17 -34 -13 -10 -20 -22 -16 -29 11 -18 26 -13 26 9 0 12 7 20 16
20 14 0 15 7 10 43 -5 39 -5 40 9 23 8 -11 15 -40 15 -66 0 -37 5 -52 25 -70
14 -13 28 -21 31 -17 9 8 54 -48 54 -67 0 -29 -41 -19 -53 14 -17 44 -31 37
-23 -12 4 -27 3 -44 -5 -48 -7 -5 1 -16 21 -30 35 -25 41 -23 44 14 0 13 3 24
6 24 3 -1 13 2 22 6 23 10 57 -10 64 -38 4 -17 17 -27 47 -36 57 -16 77 -36
77 -76 0 -29 4 -35 28 -40 45 -10 52 -13 52 -24 0 -5 -7 -10 -15 -10 -8 0 -15
-4 -15 -10 0 -5 10 -10 23 -10 39 0 72 -24 69 -48 -3 -18 2 -22 23 -22 14 0
28 7 32 15 5 14 8 14 22 2 9 -8 29 -17 44 -21 37 -9 24 -30 -14 -22 -16 3 -36
3 -44 0 -21 -9 -19 -34 3 -34 20 0 40 -31 44 -70 3 -22 8 -25 38 -24 37 1 50
-9 50 -39 0 -10 14 -33 32 -50 l31 -32 -29 -6 c-16 -3 -39 -12 -51 -20 -20
-12 -25 -11 -40 5 -13 13 -15 20 -5 23 29 11 11 42 -40 70 -36 19 -55 37 -62
58 -6 17 -40 59 -76 95 -35 36 -65 72 -67 80 -3 21 -33 40 -65 40 -35 0 -35
-9 0 -47 15 -16 35 -44 45 -62 14 -27 20 -31 32 -21 12 10 18 6 35 -22 11 -18
20 -38 20 -44 0 -6 12 -16 26 -23 21 -9 24 -14 14 -26 -7 -8 -9 -22 -6 -31 5
-13 15 -15 51 -11 34 5 45 3 45 -7 0 -20 -12 -27 -26 -15 -28 23 -34 3 -9 -31
23 -31 25 -32 25 -11 0 14 5 21 13 18 6 -2 11 -16 10 -30 -1 -19 4 -28 20 -33
36 -12 66 -10 71 3 4 8 25 13 59 13 29 0 58 5 65 12 6 6 15 9 18 5 4 -3 -1
-13 -10 -22 -9 -9 -16 -23 -16 -31 0 -17 35 -54 53 -54 8 0 7 -4 -3 -10 -13
-9 -13 -11 0 -20 8 -5 29 -10 46 -10 34 0 46 -20 34 -55 -9 -25 -4 -35 21 -35
12 0 19 7 19 20 0 11 5 20 11 20 7 0 9 -10 5 -28 -11 -42 -8 -66 9 -78 8 -6
15 -15 15 -20 0 -5 16 -25 36 -44 29 -28 37 -31 44 -20 8 13 12 12 27 -2 16
-17 16 -18 0 -18 -9 0 -17 -6 -17 -13 0 -20 21 -37 46 -37 13 0 26 -4 29 -10
4 -6 -11 -10 -38 -10 -61 0 -155 42 -167 75 -5 14 -14 25 -19 25 -5 0 -22 18
-38 40 -15 22 -33 40 -39 40 -17 0 -42 24 -49 48 -5 18 -2 22 14 22 12 0 21 7
21 15 0 8 -6 12 -15 9 -8 -3 -24 1 -35 9 -12 8 -30 13 -40 10 -18 -5 -18 -6 2
-45 12 -22 27 -42 34 -45 6 -2 18 -17 24 -33 7 -18 17 -27 26 -23 8 3 16 -5
20 -21 3 -15 15 -33 26 -40 11 -8 17 -19 13 -25 -3 -6 12 -28 34 -48 23 -20
41 -42 41 -48 0 -17 71 -17 84 0 10 12 21 12 81 -5 39 -11 74 -20 79 -20 5 0
0 -10 -12 -23 -17 -18 -20 -30 -15 -60 3 -22 11 -37 20 -37 11 0 12 8 7 35 -8
45 6 45 30 0 14 -26 24 -34 37 -30 14 5 18 -1 21 -22 2 -20 9 -29 26 -31 12
-2 22 -8 22 -14 0 -6 21 -36 48 -67 26 -31 52 -65 58 -76 7 -12 23 -20 40 -21
58 -2 64 -4 64 -18 0 -7 -9 -16 -21 -19 -15 -4 -20 -12 -17 -29 3 -22 0 -23
-46 -20 -46 2 -48 1 -42 -20 3 -13 6 -31 6 -40 0 -10 9 -18 22 -20 16 -2 25
-12 28 -30 5 -27 65 -82 102 -94 23 -7 38 10 37 41 0 18 -1 18 -9 -2 -10 -24
-40 -22 -40 3 0 7 -11 21 -25 30 -14 9 -25 20 -25 26 0 5 -10 22 -22 39 -19
25 -20 31 -8 39 8 5 19 6 25 2 16 -10 48 -2 62 16 7 10 12 12 13 5 0 -6 -4
-15 -10 -18 -5 -3 -10 -15 -10 -27 0 -17 5 -20 30 -16 26 4 30 1 30 -19 0 -13
4 -23 10 -23 18 0 69 -122 67 -163 0 -14 -6 -17 -24 -12 -18 4 -23 1 -23 -15
0 -12 6 -20 13 -19 34 4 38 -1 32 -44 -6 -41 -5 -43 27 -57 25 -12 32 -20 30
-38 -2 -23 18 -52 36 -52 5 0 13 -11 16 -25 5 -19 12 -25 34 -24 l27 1 -27 11
c-16 6 -28 16 -28 23 0 7 -7 20 -16 29 -23 23 -9 31 20 11 14 -9 30 -16 36
-16 17 0 11 36 -10 55 -35 32 -26 52 30 64 64 14 103 14 95 1 -3 -5 -18 -10
-32 -10 -23 0 -25 -3 -19 -31 3 -17 6 -35 6 -40 0 -5 10 -9 23 -9 31 0 51 -15
44 -33 -7 -17 39 -63 68 -69 11 -2 21 -12 23 -22 6 -27 42 -55 72 -56 23 0 25
-4 26 -39 1 -37 0 -39 -35 -45 -53 -9 -91 -7 -91 3 0 6 5 13 10 16 18 11 10
35 -15 47 -14 6 -28 22 -31 35 -4 12 -10 20 -15 17 -15 -9 -10 -53 9 -71 10
-11 16 -29 14 -47 -5 -40 16 -86 39 -86 21 0 24 11 8 27 -14 14 2 24 29 16 28
-7 29 -29 2 -36 -11 -3 -20 -10 -20 -15 0 -7 27 -9 73 -6 53 3 75 8 84 21 11
14 16 15 37 3 14 -7 30 -26 35 -41 5 -16 16 -29 23 -29 22 -1 46 -25 54 -54 6
-25 4 -27 -17 -24 -20 2 -24 -1 -21 -21 1 -14 -6 -32 -17 -43 -24 -22 -35 -23
-51 -3 -14 17 -30 20 -30 4 0 -5 4 -8 9 -4 6 3 13 -1 18 -8 9 -15 54 -47 66
-47 4 0 3 8 -2 18 -11 21 -5 32 28 50 20 12 26 11 39 -2 13 -13 14 -19 3 -39
-10 -18 -10 -30 -2 -45 15 -28 14 -30 -11 -35 -16 -4 -13 -5 7 -4 27 2 30 6
35 42 5 39 6 40 46 43 36 3 42 0 47 -19 6 -23 -19 -53 -35 -43 -5 3 -8 0 -8
-7 0 -7 10 -9 30 -6 16 4 32 2 35 -3 3 -6 15 -10 26 -10 12 0 23 -10 30 -27 6
-16 18 -36 26 -46 19 -20 70 -47 91 -47 12 0 12 -3 2 -15 -14 -17 -8 -28 16
-31 9 -1 23 -12 31 -23 10 -16 21 -19 39 -15 29 8 32 -11 4 -26 -42 -23 -9
-44 67 -42 49 0 67 -23 28 -38 -30 -11 -32 -26 -6 -35 12 -4 18 -12 14 -21 -4
-10 2 -14 19 -14 25 0 58 -27 58 -48 0 -7 7 -12 15 -12 28 0 65 -23 63 -39 -4
-23 64 -28 85 -7 9 9 24 16 34 16 10 0 24 4 31 9 10 6 6 10 -14 15 -36 9 -56
25 -47 39 4 6 -2 8 -15 5 -15 -4 -22 -2 -22 8 0 7 -9 18 -21 24 -15 9 -19 18
-15 35 7 27 -12 45 -25 24 -7 -12 -11 -11 -26 4 -15 15 -16 19 -4 26 8 5 20 7
28 4 16 -6 17 17 1 52 -16 35 3 56 33 37 11 -7 24 -10 29 -7 15 9 12 32 -4 38
-9 3 -12 15 -9 31 6 27 -4 31 -64 27 -18 -2 -21 3 -20 31 2 39 -27 52 -38 17
-6 -17 -2 -27 14 -40 14 -12 21 -29 21 -53 0 -19 4 -37 9 -40 11 -7 20 -76 9
-76 -11 0 -29 36 -21 43 7 7 -68 94 -77 89 -9 -6 1 -36 22 -66 17 -23 18 -30
7 -37 -17 -10 -61 -12 -84 -3 -14 6 -11 10 14 20 30 13 43 44 19 44 -20 1 -59
37 -56 51 2 7 -10 15 -27 18 -27 5 -30 10 -33 46 -3 41 -8 45 -111 105 -7 4
-14 17 -15 27 0 11 -16 32 -33 47 -18 15 -33 36 -33 46 0 18 -35 37 -80 42
-15 2 -26 11 -30 25 -3 12 -21 34 -40 48 -19 14 -33 29 -30 33 3 4 -5 12 -18
17 -13 6 -26 21 -28 35 -4 17 -19 31 -47 45 -41 20 -42 21 -42 70 l0 50 -47
-3 c-38 -2 -48 0 -48 12 0 9 -4 16 -10 16 -5 0 -10 -4 -10 -10 0 -12 -37 -13
-44 -1 -9 14 17 30 62 37 46 7 53 31 8 26 -14 -1 -26 2 -26 8 0 5 -11 10 -24
10 -30 0 -50 23 -41 49 4 14 0 21 -14 26 -13 4 -17 12 -14 25 4 14 -1 21 -19
25 -13 4 -28 5 -34 4 -34 -6 -50 26 -19 37 29 11 -3 33 -39 27 -22 -3 -36 0
-45 11 -18 22 -7 46 22 46 13 0 26 3 30 6 9 9 -4 34 -18 34 -6 0 -20 9 -30 20
-10 11 -26 20 -35 20 -10 0 -23 6 -29 14 -7 8 -23 17 -36 20 -15 4 -25 14 -25
24 0 10 -17 29 -39 42 -28 18 -45 38 -56 68 -10 24 -14 46 -10 50 7 8 52 11
138 11 43 0 57 4 57 15 0 10 -13 16 -42 18 -35 2 -42 7 -43 25 -3 38 12 50 26
20 9 -20 19 -27 41 -27 19 0 28 -5 28 -17 0 -19 86 -103 106 -103 8 0 14 -10
14 -25 0 -18 5 -25 20 -25 11 0 20 -7 20 -15 0 -8 6 -24 12 -35 15 -24 4 -37
-37 -45 -34 -7 -72 15 -61 33 4 7 18 12 31 12 13 0 26 4 29 8 6 11 -37 51 -81
75 -39 22 -47 21 -38 0 4 -10 9 -32 11 -49 3 -35 61 -124 79 -124 6 0 21 -11
33 -25 12 -14 26 -25 32 -25 5 0 10 -11 10 -25 0 -14 6 -25 13 -25 7 0 17 -10
22 -22 7 -15 20 -23 38 -25 33 -2 82 -52 119 -121 15 -27 33 -46 53 -52 43
-15 78 -47 71 -65 -3 -9 8 -24 32 -42 20 -15 43 -34 50 -42 11 -13 14 -13 28
1 14 14 12 19 -22 52 -20 20 -45 36 -56 36 -11 0 -18 7 -18 19 0 10 -11 26
-25 35 -30 20 -32 36 -5 43 27 7 25 21 -2 25 -30 4 -27 20 6 36 14 7 26 20 26
28 0 25 17 15 31 -17 9 -24 10 -38 1 -62 -21 -56 13 -83 68 -52 35 19 55 2 34
-30 -13 -20 -13 -24 1 -35 8 -7 15 -18 15 -26 0 -7 9 -18 20 -24 16 -8 20 -8
20 4 0 8 -4 18 -10 21 -13 8 -13 55 1 55 6 0 19 -5 30 -11 17 -9 19 -17 14
-50 -6 -33 -4 -39 12 -40 10 0 13 -3 6 -6 -20 -7 -15 -41 7 -55 27 -17 25 -36
-2 -40 -13 -2 -22 -9 -20 -17 3 -12 0 -12 -13 -1 -9 8 -13 20 -9 33 8 24 -10
37 -53 37 -26 0 -33 -4 -33 -20 0 -10 6 -23 13 -27 7 -4 18 -20 24 -35 13 -29
64 -50 71 -30 2 7 8 12 13 12 4 0 6 -6 3 -14 -4 -11 7 -16 43 -21 68 -9 83
-15 83 -29 0 -7 11 -18 24 -24 18 -8 23 -16 19 -31 -3 -12 -10 -21 -15 -21
-20 0 -53 35 -50 52 4 19 -38 35 -57 23 -14 -8 -14 -42 0 -50 5 -4 9 -21 7
-38 -4 -42 27 -51 42 -12 9 22 13 25 25 15 13 -10 12 -15 -3 -36 -10 -13 -24
-21 -33 -18 -9 2 -24 -4 -33 -15 -17 -19 -17 -20 3 -30 11 -6 27 -11 35 -11 8
0 20 -8 25 -17 11 -19 13 -15 15 32 1 27 4 30 39 33 37 3 47 18 26 39 -8 8 -8
17 1 33 9 16 9 25 1 33 -6 6 -11 20 -11 31 1 20 1 21 15 2 8 -10 12 -22 10
-27 -3 -4 8 -17 25 -29 19 -13 29 -29 27 -42 -2 -16 7 -23 42 -34 43 -12 90
-55 91 -81 0 -15 40 -57 40 -43 0 13 34 8 53 -9 14 -11 14 -16 2 -45 -16 -38
-12 -46 21 -46 17 0 25 -7 30 -27 5 -17 3 -28 -4 -31 -7 -2 -12 -10 -12 -18 0
-20 69 -18 92 2 16 16 18 15 24 -1 5 -13 -1 -25 -19 -41 -15 -13 -27 -25 -27
-28 0 -2 14 -7 30 -11 17 -4 30 -10 30 -15 0 -5 9 -11 19 -15 20 -6 83 31 107
63 12 16 13 16 21 -5 l8 -22 22 25 c25 28 20 32 -42 36 -26 2 -39 8 -37 15 1
7 -5 13 -13 13 -9 0 -17 14 -20 38 -4 20 -15 49 -26 64 -10 15 -19 32 -19 38
0 5 -6 10 -13 10 -8 0 -22 9 -32 20 -10 11 -24 20 -32 20 -7 0 -13 9 -13 20 0
13 -13 28 -35 41 -19 12 -35 27 -35 35 0 8 -7 17 -15 20 -8 4 -15 17 -15 29 0
13 -4 27 -10 30 -18 11 -11 27 10 22 15 -4 20 0 20 14 0 14 -7 19 -25 19 -28
0 -29 3 -14 31 13 24 20 20 58 -35 32 -49 31 -59 -7 -49 -21 5 -24 3 -19 -11
4 -10 7 -20 7 -22 0 -14 62 -1 78 16 13 14 25 18 38 13 16 -6 17 -5 6 9 -18
23 -1 30 31 13 15 -8 47 -15 72 -17 51 -3 59 -19 18 -31 -16 -5 -34 -10 -41
-13 -20 -6 4 -44 28 -44 21 0 40 -27 33 -47 -3 -7 -13 -13 -24 -13 -10 0 -19
-7 -19 -15 0 -22 29 -18 64 8 17 13 48 27 69 30 33 5 37 3 37 -15 0 -17 -2
-18 -15 -8 -14 12 -20 7 -15 -15 1 -5 3 -32 5 -58 2 -37 -1 -47 -11 -43 -7 3
-18 -3 -23 -12 -9 -16 -12 -16 -40 0 -24 13 -31 14 -35 3 -6 -17 11 -31 47
-40 17 -5 27 -14 27 -25 0 -14 25 -29 50 -30 5 0 8 22 10 83 1 15 7 28 13 28
42 4 80 -30 72 -64 -5 -18 0 -26 19 -37 34 -18 33 -46 -1 -62 -31 -15 -37 -41
-11 -46 11 -2 22 6 30 23 17 37 53 31 54 -9 1 -19 9 -35 23 -44 11 -8 21 -18
21 -23 0 -16 35 -89 42 -89 11 0 10 14 -2 26 -8 8 -6 15 5 24 13 11 19 9 40
-10 14 -13 25 -34 25 -47 0 -13 6 -23 14 -23 15 0 37 -18 60 -51 11 -17 20
-19 50 -14 26 5 36 12 34 24 -2 11 3 15 17 13 27 -5 44 -22 22 -22 -9 0 -17
-4 -17 -10 0 -12 -86 -50 -115 -50 -14 0 -25 -7 -28 -20 -3 -12 -14 -20 -25
-20 -12 0 -24 -4 -27 -10 -4 -6 10 -10 34 -10 39 0 53 -11 31 -25 -13 -8 -3
-25 15 -25 8 0 17 11 21 25 5 22 10 24 57 22 39 -2 61 -9 88 -30 20 -15 44
-27 54 -27 15 0 16 -3 7 -12 -20 -20 -14 -28 23 -28 33 0 34 -1 25 -25 -7 -18
-6 -26 5 -32 13 -7 13 -12 0 -37 -20 -37 -19 -38 13 -34 20 2 26 8 24 22 -2
11 1 17 10 14 7 -3 14 -14 16 -26 2 -12 8 -22 13 -22 5 0 9 -7 9 -15 0 -8 -7
-15 -15 -15 -8 0 -15 -7 -15 -15 0 -9 9 -15 23 -15 12 0 31 -7 41 -15 10 -8
23 -12 28 -9 12 7 68 -6 68 -16 0 -4 -16 -15 -36 -25 -34 -16 -36 -16 -98 13
-60 28 -63 29 -84 11 -27 -21 -29 -49 -3 -49 11 0 26 -7 35 -15 8 -8 18 -15
23 -15 5 0 9 -9 10 -20 1 -15 -4 -20 -22 -20 -35 0 -40 -18 -12 -45 27 -28 81
-43 91 -26 10 16 76 14 76 -2 0 -16 -74 -39 -105 -31 -20 5 -27 1 -35 -21 -9
-23 -15 -26 -48 -23 -30 2 -37 0 -36 -15 2 -21 4 -20 -33 -2 -30 15 -63 12
-63 -6 0 -5 9 -9 21 -9 17 0 20 -4 14 -28 -6 -31 4 -43 62 -75 39 -22 42 -21
36 3 -3 11 -9 17 -14 14 -18 -11 -8 27 11 46 38 38 136 58 124 25 -4 -8 1 -17
10 -21 17 -6 38 10 49 40 5 13 12 16 25 10 9 -4 27 -7 40 -7 18 1 20 -2 12
-13 -7 -7 -9 -18 -5 -24 4 -6 -9 -10 -34 -10 -42 0 -50 -7 -30 -27 8 -8 2 -13
-20 -18 -36 -8 -61 7 -61 36 0 13 -7 19 -23 19 -13 0 -26 -3 -30 -6 -11 -11 5
-34 25 -34 15 0 19 -6 16 -27 -3 -26 -7 -28 -51 -31 -30 -2 -57 -10 -68 -21
-19 -18 -19 -18 11 -19 36 -1 60 -17 60 -41 1 -11 7 -8 21 12 11 15 29 27 40
27 10 0 19 4 19 9 0 6 12 6 30 0 48 -17 38 -43 -11 -29 -17 5 -29 5 -29 -1 0
-5 9 -9 20 -9 11 0 20 -7 20 -15 0 -17 -35 -21 -45 -5 -12 19 -44 11 -47 -12
-2 -15 -11 -24 -25 -26 -13 -2 -23 -8 -23 -13 0 -5 -11 -7 -24 -3 -19 4 -26 1
-31 -16 -7 -21 2 -33 29 -43 5 -2 6 -9 2 -15 -13 -22 -156 -8 -164 16 -5 15
44 17 53 2 3 -5 16 -10 28 -10 20 0 20 1 2 13 -19 15 -13 37 11 37 8 0 14 7
14 15 0 8 -4 15 -10 15 -18 0 -101 92 -98 108 5 26 45 27 58 3 13 -24 30 -28
30 -6 0 8 -6 15 -14 15 -9 0 -12 7 -9 19 4 14 -3 24 -26 35 -36 19 -64 21 -59
4 5 -13 -55 -48 -82 -48 -8 0 -22 -5 -30 -10 -13 -9 -13 -11 0 -20 8 -6 25 -8
38 -5 27 7 62 -10 62 -30 0 -10 -9 -12 -34 -8 -32 5 -33 4 -29 -20 4 -19 -2
-32 -21 -50 -60 -55 -52 -139 15 -162 19 -6 33 -16 32 -23 -2 -6 8 -14 21 -18
13 -3 28 -16 35 -30 8 -19 18 -24 45 -24 27 0 34 3 30 15 -4 8 -14 15 -23 15
-23 0 -41 19 -34 36 3 8 0 20 -6 28 -16 19 -3 46 23 47 27 2 60 -2 65 -7 9 -9
10 -73 1 -79 -22 -14 -8 -21 35 -19 40 3 46 0 57 -24 21 -43 102 -92 153 -92
25 0 50 6 59 15 8 8 27 15 41 15 l27 0 -23 20 -24 20 28 -10 c36 -13 37 -13
37 3 0 20 -57 71 -64 58 -4 -6 -4 -15 -1 -21 3 -5 -1 -10 -10 -10 -22 0 -30
28 -18 61 13 33 -3 44 -43 29 -34 -13 -70 -13 -94 2 -15 10 -22 9 -38 -6 -14
-12 -22 -14 -27 -6 -4 7 -3 16 3 22 7 7 7 18 0 34 -14 30 -8 37 26 28 16 -4
28 -15 32 -30 4 -15 13 -24 25 -24 16 0 18 3 9 19 -15 28 -13 31 17 31 14 0
23 -3 20 -7 -4 -3 -2 -12 4 -20 9 -10 15 -10 25 -2 18 15 18 29 -1 29 -22 0
-18 41 8 71 23 26 102 58 114 45 4 -4 7 -19 8 -33 0 -18 7 -29 20 -33 29 -7
31 -38 3 -49 -22 -8 -22 -9 12 -23 23 -10 41 -12 52 -6 17 8 17 10 2 33 -15
22 -15 25 -1 25 9 0 25 -13 37 -30 17 -24 28 -30 58 -29 34 0 35 1 14 11 -15
7 -22 19 -21 32 1 12 -4 33 -11 48 -16 33 -5 102 15 95 7 -3 37 10 66 29 43
28 60 33 86 28 36 -7 47 10 13 21 -28 9 -25 40 5 53 14 6 25 15 25 20 0 5 18
17 40 28 22 10 40 25 40 32 0 20 31 14 55 -12 13 -14 20 -27 17 -30 -9 -10 30
-46 50 -46 10 0 18 -6 18 -14 0 -7 6 -19 14 -25 18 -15 86 -23 86 -10 0 5 -8
9 -17 9 -12 0 -14 3 -7 10 8 8 19 8 38 0 15 -5 32 -8 37 -4 5 3 14 2 19 -1 11
-7 -33 -55 -51 -55 -5 0 -9 -7 -9 -16 0 -10 8 -15 23 -13 12 1 29 -1 37 -4 8
-3 23 -7 32 -10 22 -7 12 -48 -13 -54 -11 -3 -16 -9 -13 -14 9 -15 42 -10 76
11 18 11 41 20 51 20 27 0 20 -29 -10 -40 -53 -20 -73 -34 -73 -52 0 -11 7
-18 20 -18 11 0 20 -6 20 -14 0 -21 18 -29 57 -28 30 1 33 -1 28 -19 -6 -17
-3 -20 12 -17 10 2 18 9 17 16 -1 6 -2 23 -2 37 -2 26 -18 28 -64 10 -11 -4
-18 -3 -18 5 0 6 -10 20 -22 31 l-23 18 30 2 c17 2 48 4 70 5 63 4 81 9 106
27 16 12 20 20 12 23 -20 9 -15 18 15 31 15 7 47 31 72 53 25 22 53 42 63 45
25 9 22 62 -5 86 -13 11 -48 37 -79 58 -31 20 -71 54 -89 74 -18 21 -43 40
-56 43 -13 3 -24 11 -24 16 0 14 -40 47 -72 59 -20 8 -27 17 -25 32 1 17 -4
22 -23 24 -14 0 -30 1 -36 2 -12 1 -37 53 -39 82 -1 10 -23 38 -50 63 -36 34
-54 45 -68 40 -12 -4 -23 -1 -28 7 -6 10 -2 16 14 21 l22 6 -22 7 c-13 4 -23
14 -23 22 0 9 -16 30 -36 48 -30 28 -42 33 -70 28 -26 -4 -34 -2 -34 10 0 9 7
22 15 31 19 19 19 26 -2 26 -9 0 -13 3 -10 7 14 14 -17 33 -54 33 -38 0 -38 0
-32 35 4 28 2 35 -11 35 -9 0 -16 -4 -16 -9 0 -5 -17 6 -37 25 -20 19 -44 36
-54 39 -28 9 -32 35 -5 35 20 0 36 16 36 36 0 2 -13 4 -30 4 -38 0 -100 30
-100 48 0 8 6 12 15 9 8 -4 17 -2 20 2 7 12 -22 34 -34 27 -5 -3 -7 2 -4 13 5
20 -32 52 -81 71 -28 10 -35 30 -10 30 8 0 12 5 9 11 -4 6 -14 8 -22 5 -24
-10 -63 35 -56 63 6 22 4 24 -26 18 -24 -5 -31 -3 -31 8 0 9 -11 20 -25 25
-20 8 -25 16 -23 37 2 22 -1 27 -14 25 -10 -2 -18 2 -18 8 0 5 7 10 15 10 8 0
15 5 15 10 0 6 -7 13 -15 16 -8 4 -15 11 -15 18 0 6 -14 27 -30 46 -23 27 -32
32 -39 21 -14 -21 -31 -3 -25 27 5 24 -5 38 -70 104 -42 42 -76 83 -76 91 0 7
-11 20 -24 27 -14 7 -26 22 -28 34 -2 15 -9 20 -26 19 -17 -2 -22 2 -20 14 2
12 -6 19 -26 23 -16 3 -31 11 -34 18 -3 9 2 10 22 2 19 -7 26 -6 26 3 -1 15
-50 52 -50 37 0 -15 -36 -12 -50 5 -7 8 -9 15 -5 15 4 0 -4 12 -19 26 -27 28
-34 60 -14 66 11 4 -98 118 -114 118 -5 0 -4 9 2 19 16 31 13 34 -40 27 -53
-7 -58 -3 -35 27 10 14 11 26 3 48 -11 32 -28 30 -28 -4 0 -13 -3 -17 -8 -11
-4 6 -15 13 -24 17 -10 3 -18 15 -18 26 0 11 -4 23 -10 26 -5 3 -10 12 -10 18
1 7 6 6 13 -4 7 -9 23 -19 37 -22 14 -4 19 -4 13 -1 -7 3 -13 12 -13 20 0 8
-11 19 -25 24 -14 5 -25 17 -25 25 0 9 -18 33 -40 52 -22 20 -40 41 -40 47 0
6 -20 33 -45 60 -25 26 -45 51 -45 55 0 10 -83 94 -124 125 -21 16 -47 44 -58
62 -16 27 -25 33 -42 28 -18 -4 -22 0 -24 22 -3 43 -53 114 -85 121 -29 6
-100 80 -91 94 3 5 1 9 -5 9 -5 0 -28 18 -51 40 -23 23 -57 47 -75 55 -34 13
-57 44 -53 66 2 7 -19 25 -46 40 -27 15 -56 39 -63 53 -8 14 -18 26 -23 26 -5
0 -31 19 -58 42 -28 24 -78 66 -112 93 -34 28 -72 61 -84 75 -11 14 -47 45
-79 69 -32 23 -61 49 -64 57 -7 19 -61 47 -78 40 -16 -6 -76 67 -90 109 -6 18
-22 35 -40 44 -46 21 -119 92 -130 126 -6 17 -22 36 -38 43 -15 8 -32 25 -38
39 -5 14 -30 45 -55 70 -35 33 -52 43 -72 41 -23 -3 -27 0 -24 20 3 17 -2 25
-17 29 -12 3 -21 13 -21 23 0 9 -11 22 -25 28 -14 7 -30 23 -35 36 -5 14 -23
32 -40 41 -16 8 -30 20 -30 25 0 5 -21 31 -47 58 -27 27 -56 61 -66 75 -10 15
-35 36 -57 47 -21 11 -47 34 -58 52 -11 18 -41 46 -66 62 -25 15 -46 34 -48
40 -2 6 -32 38 -68 71 -36 33 -72 73 -80 89 -8 16 -28 37 -45 46 -32 17 -91
75 -165 161 -60 70 -81 89 -97 89 -7 0 -13 6 -13 13 0 6 -19 25 -41 41 -22 16
-54 46 -69 68 -16 21 -45 52 -65 68 -20 16 -55 54 -78 86 -50 67 -108 129
-131 137 -9 4 -16 13 -16 22 0 8 -5 15 -10 15 -6 0 -20 16 -31 35 -12 19 -27
35 -34 35 -7 0 -29 20 -49 44 -54 66 -113 126 -125 126 -5 0 -13 10 -16 21 -7
20 -53 69 -159 167 -25 24 -46 49 -46 55 0 13 -143 184 -170 204 -9 7 -25 33
-35 58 -17 46 -17 47 4 69 12 12 21 26 21 32 0 5 18 33 40 62 22 29 40 55 40
58 0 3 10 20 23 37 12 18 27 42 34 54 10 20 9 23 -8 23 -11 0 -17 5 -14 10 4
7 12 7 25 0 26 -14 26 -14 49 30 23 45 18 72 -12 68 -11 -2 -22 3 -24 10 -3 8
10 12 46 12 28 0 55 6 61 13 5 6 26 32 45 57 19 25 46 56 60 70 14 14 25 29
25 34 0 8 76 114 90 126 3 3 12 23 19 45 8 26 28 52 57 75 28 22 44 43 44 57
0 12 19 39 46 65 33 32 44 49 41 65 -3 16 3 27 20 38 25 17 45 55 47 89 1 12
17 28 41 40 36 19 40 25 40 60 0 33 5 42 28 55 28 15 76 104 77 142 0 9 11 21
25 27 14 6 25 18 25 26 0 8 9 17 20 21 24 8 60 57 60 82 0 11 14 32 30 46 18
16 30 37 30 52 0 15 10 31 25 41 14 9 25 21 25 27 0 5 20 32 45 58 25 26 45
54 45 62 0 18 29 77 39 77 9 0 91 116 91 128 0 6 11 20 25 33 13 13 25 34 25
47 0 26 24 63 92 141 25 29 56 79 68 111 17 45 28 60 55 73 34 16 75 70 90
117 4 14 18 37 32 51 13 15 26 39 28 55 1 15 9 32 17 38 19 15 58 80 58 98 0
8 18 32 40 53 22 21 40 44 40 50 0 6 16 26 36 43 32 28 36 37 31 66 -4 27 0
38 26 64 59 58 75 77 82 99 3 13 33 55 66 94 32 39 59 75 59 80 0 4 14 24 30
43 17 19 33 45 35 57 2 12 12 30 21 40 20 22 41 56 50 82 3 9 9 17 13 17 4 0
7 10 8 23 1 12 11 30 23 39 11 9 27 32 34 50 8 18 24 42 35 52 12 11 21 25 21
31 0 7 7 18 15 25 8 7 15 20 15 30 0 26 29 77 56 99 13 10 24 29 24 41 0 12
14 38 30 57 17 18 30 41 30 49 0 9 11 25 25 36 14 11 25 25 25 31 0 7 14 30
30 51 17 22 30 46 30 54 0 15 38 70 72 104 9 9 22 34 27 55 6 22 25 52 42 68
17 17 38 44 46 60 9 17 32 50 53 75 20 25 48 63 62 85 14 22 77 94 140 160 63
66 123 136 133 155 21 43 74 100 92 100 7 0 13 4 13 9 0 5 18 31 40 57 22 27
40 53 40 59 0 6 21 31 48 56 26 25 63 67 82 93 19 26 89 104 155 172 66 69
128 141 139 160 10 19 40 53 68 77 138 118 156 138 236 265 33 54 26 109 -22
162 -20 22 -36 44 -36 49 0 5 -16 19 -35 31 -19 12 -35 28 -35 36 0 21 -25 28
-50 14 -28 -15 -36 -6 -21 24 11 20 10 28 -4 50 -10 14 -23 26 -30 26 -7 0
-31 15 -54 33 -96 77 -114 87 -153 87 -31 0 -41 5 -50 25 -14 31 -39 39 -86
29 -21 -4 -44 -9 -52 -9 -8 -1 -20 -3 -26 -4 -6 0 -19 -18 -29 -38 -14 -28
-20 -33 -23 -20 -4 17 24 104 40 121 4 6 8 19 8 29 0 14 -4 17 -17 12 -41 -17
-49 -16 -59 7 -8 16 -7 30 2 47 9 17 10 30 3 43 -13 25 -27 23 -41 -8 -9 -20
-9 -27 1 -34 11 -6 9 -14 -9 -37 -12 -16 -25 -45 -30 -64 -19 -72 -35 -109
-50 -111 -8 -1 -22 -2 -31 -3 -9 0 -28 -8 -42 -18 -15 -9 -31 -17 -37 -17 -15
0 -12 60 3 66 25 9 59 65 61 99 4 41 38 100 44 73 2 -9 -4 -28 -12 -41 -15
-21 -13 -37 4 -37 18 0 59 85 63 130 4 46 9 56 62 110 33 32 69 61 82 65 43
10 22 45 -27 45 -9 0 -24 9 -31 20 -28 40 -60 35 -115 -17z m-328 -105 c-9 -5
-21 -6 -28 -2 -8 5 -5 10 8 14 25 10 41 0 20 -12z m69 -138 c7 -11 -12 -50
-24 -50 -15 0 -22 32 -10 46 13 16 25 18 34 4z m-412 -162 c-5 -27 -33 -40
-33 -16 0 11 31 51 36 46 1 -2 0 -15 -3 -30z m267 -17 c0 -12 -23 -31 -37 -31
-17 0 -17 37 0 43 14 5 37 -2 37 -12z m630 -20 c0 -12 -20 -25 -27 -18 -7 7 6
27 18 27 5 0 9 -4 9 -9z m-260 -55 c0 -3 -4 -8 -10 -11 -5 -3 -10 -1 -10 4 0
6 5 11 10 11 6 0 10 -2 10 -4z m-500 -66 c-24 -31 -35 -38 -45 -30 -7 6 -11
20 -8 30 3 13 0 20 -8 21 -8 1 9 7 36 14 28 6 52 11 54 9 2 -2 -11 -21 -29
-44z m-90 -19 c0 -6 -4 -13 -10 -16 -5 -3 -10 1 -10 9 0 9 5 16 10 16 6 0 10
-4 10 -9z m-10 -116 c-7 -9 -15 -13 -17 -11 -7 7 7 26 19 26 6 0 6 -6 -2 -15z
m280 -116 c0 -6 -9 -13 -19 -16 -12 -3 -23 -17 -27 -37 -7 -31 -7 -31 -18 -7
-9 20 -6 27 19 47 33 26 45 30 45 13z m-90 -99 c0 -5 -2 -10 -4 -10 -3 0 -8 5
-11 10 -3 6 -1 10 4 10 6 0 11 -4 11 -10z m-9476 -126 c6 -15 4 -15 -11 -3
-10 7 -20 15 -22 16 -2 2 3 3 11 3 9 0 19 -7 22 -16z m56 -24 c0 -5 -6 -10
-14 -10 -8 0 -18 5 -21 10 -3 6 3 10 14 10 12 0 21 -4 21 -10z m8821 -573
c-10 -9 -11 -8 -5 6 3 10 9 15 12 12 3 -3 0 -11 -7 -18z m-161 -217 c0 -5 -2
-10 -4 -10 -3 0 -8 5 -11 10 -3 6 -1 10 4 10 6 0 11 -4 11 -10z m-8340 -341
c0 -5 -7 -9 -15 -9 -15 0 -20 12 -9 23 8 8 24 -1 24 -14z m8034 -68 c6 -8 -26
-51 -38 -51 -15 0 -5 49 12 53 9 3 18 5 19 6 1 0 4 -3 7 -8z m-8077 -77 c-3
-3 -12 -4 -19 -1 -8 3 -5 6 6 6 11 1 17 -2 13 -5z m223 -200 c0 -8 -4 -12 -10
-9 -5 3 -10 10 -10 16 0 5 5 9 10 9 6 0 10 -7 10 -16z m120 -14 c7 -13 7 -20
1 -20 -6 0 -15 9 -21 20 -7 13 -7 20 -1 20 6 0 15 -9 21 -20z m27 -52 c-3 -7
-5 -2 -5 12 0 14 2 19 5 13 2 -7 2 -19 0 -25z m-92 2 c3 -5 1 -10 -4 -10 -6 0
-11 5 -11 10 0 6 2 10 4 10 3 0 8 -4 11 -10z m225 -121 c0 -5 -4 -9 -10 -9 -5
0 -10 7 -10 16 0 8 5 12 10 9 6 -3 10 -10 10 -16z m6850 -48 c0 -12 -20 -25
-27 -18 -7 7 6 27 18 27 5 0 9 -4 9 -9z m-6790 -16 c0 -9 -6 -12 -15 -9 -8 4
-15 10 -15 15 0 5 7 9 15 9 8 0 15 -7 15 -15z m6947 -139 c-15 -31 -22 -25
-13 9 4 14 11 23 15 20 5 -3 4 -16 -2 -29z m-6987 -22 c0 -8 -4 -12 -10 -9 -5
3 -10 10 -10 16 0 5 5 9 10 9 6 0 10 -7 10 -16z m73 -49 c19 -27 13 -35 -23
-28 -18 3 -26 12 -28 29 -2 32 27 32 51 -1z m187 -11 c0 -14 -3 -14 -15 -4 -8
7 -15 14 -15 16 0 2 7 4 15 4 8 0 15 -7 15 -16z m-72 -6 c-5 -16 -48 -24 -48
-10 0 11 17 20 38 21 8 1 12 -5 10 -11z m152 -58 c0 -5 -4 -10 -10 -10 -5 0
-10 5 -10 10 0 6 5 10 10 10 6 0 10 -4 10 -10z m6236 -86 c-14 -21 -46 -34
-46 -18 0 11 23 49 39 65 15 15 16 14 19 -3 2 -11 -4 -30 -12 -44z m-6296 36
c0 -5 -2 -10 -4 -10 -3 0 -8 5 -11 10 -3 6 -1 10 4 10 6 0 11 -4 11 -10z
m6212 -43 c-20 -13 -24 -3 -10 28 l13 28 6 -24 c3 -15 0 -27 -9 -32z m-6049
-16 c2 -10 23 -27 46 -37 22 -10 43 -26 46 -36 3 -9 19 -33 35 -53 16 -21 27
-42 24 -47 -8 -12 -17 -3 -41 42 -11 19 -33 42 -49 50 -16 8 -30 18 -32 22 -2
4 -16 22 -32 40 -32 36 -38 50 -16 42 8 -3 16 -13 19 -23z m-40 -26 c36 -36
37 -45 5 -45 -21 0 -88 60 -88 80 0 21 45 3 83 -35z m1292 -13 c3 -8 0 -20 -6
-26 -8 -8 -13 -7 -16 2 -3 7 -11 18 -18 26 -8 7 -12 16 -9 19 9 9 43 -5 49
-21z m4735 -38 c0 -8 -7 -14 -15 -14 -15 0 -21 21 -9 33 10 9 24 -2 24 -19z
m29 -81 l-13 -38 -8 39 c-6 29 -5 42 4 47 23 14 31 -8 17 -48z m-5926 4 c9 -4
18 -16 19 -27 0 -11 1 -25 2 -32 2 -28 -25 -17 -39 15 -8 20 -24 38 -35 42
-11 3 -20 12 -20 19 0 23 13 26 34 8 12 -11 29 -22 39 -25z m196 -124 c2 -2
-5 -3 -17 -3 -14 0 -22 6 -22 16 0 14 3 15 18 3 9 -7 19 -15 21 -16z m-69 -36
c0 -13 -5 -17 -16 -13 -9 3 -27 9 -40 12 -28 7 -28 8 -12 34 11 18 14 18 40 2
15 -9 28 -25 28 -35z m106 -44 c-11 -11 -19 6 -11 24 8 17 8 17 12 0 3 -10 2
-21 -1 -24z m-4 -46 c21 -4 20 -4 -4 -6 -33 -1 -78 18 -78 34 0 6 5 16 12 23
9 9 16 5 29 -17 10 -16 28 -31 41 -34z m5783 24 c3 -5 -3 -17 -12 -27 -11 -11
-18 -13 -21 -5 -9 28 18 55 33 32z m-5665 -51 c0 -5 -4 -10 -9 -10 -6 0 -13 5
-16 10 -3 6 1 10 9 10 9 0 16 -4 16 -10z m93 -85 c26 -24 47 -49 47 -55 0 -21
-28 -9 -66 30 -21 22 -47 40 -57 40 -15 0 -16 2 -5 15 20 22 31 18 81 -30z
m-108 25 c4 -6 -5 -10 -19 -10 -14 0 -26 5 -26 10 0 6 9 10 19 10 11 0 23 -4
26 -10z m29 -35 c3 -8 2 -15 -3 -15 -5 0 -14 7 -21 15 -10 12 -10 15 3 15 8 0
17 -7 21 -15z m5111 -155 c-5 -8 -11 -8 -17 -2 -6 6 -7 16 -3 22 5 8 11 8 17
2 6 -6 7 -16 3 -22z m-10 -126 c0 -10 -8 -20 -17 -22 -18 -3 -26 27 -11 42 12
11 28 0 28 -20z m-3665 -8 c0 -8 -7 -17 -16 -20 -23 -9 -24 -8 -24 14 0 13 7
20 20 20 11 0 20 -6 20 -14z m3618 -54 c2 -15 -2 -22 -12 -22 -11 0 -16 9 -16
26 0 31 23 28 28 -4z m-4692 -16 c7 -28 -2 -49 -17 -41 -12 8 -12 65 1 65 5 0
12 -11 16 -24z m4649 -15 c-3 -5 -1 -12 5 -16 5 -3 10 -15 10 -26 0 -15 -6
-20 -22 -17 -18 2 -24 11 -26 36 -3 27 0 32 18 32 12 0 19 -4 15 -9z m7 -103
c-6 -6 -16 -7 -22 -3 -9 6 -9 9 1 16 17 10 34 0 21 -13z m158 -22 c0 -3 -4 -8
-10 -11 -5 -3 -10 -1 -10 4 0 6 5 11 10 11 6 0 10 -2 10 -4z m-4599 -16 c21
-12 26 -40 7 -40 -18 0 -33 12 -41 33 -7 19 5 22 34 7z m4303 -15 c3 -8 -2
-38 -10 -67 -9 -29 -18 -58 -20 -65 -3 -13 -43 -6 -45 8 -1 5 -2 15 -3 22 -1
6 8 14 19 17 11 4 20 15 21 27 3 59 24 92 38 58z m-4255 -93 c-11 -2 -17 -7
-14 -11 2 -5 -5 -17 -16 -27 -16 -14 -22 -15 -28 -5 -11 17 -2 62 17 84 15 17
17 16 38 -10 22 -27 22 -28 3 -31z m4502 5 c-13 -13 -15 11 -4 40 7 16 8 15
11 -6 2 -13 -1 -28 -7 -34z m-4576 33 c3 -5 -1 -10 -9 -10 -9 0 -16 5 -16 10
0 6 4 10 9 10 6 0 13 -4 16 -10z m4223 -106 c18 -8 32 -18 32 -20 0 -3 -10
-15 -21 -27 -12 -12 -30 -41 -40 -63 -18 -40 -35 -54 -65 -54 -25 0 -15 20 20
41 27 16 36 29 41 59 4 22 2 47 -5 59 -13 25 -4 26 38 5z m-4027 -108 c15 -12
33 -36 40 -52 8 -17 24 -30 37 -32 14 -2 22 -10 22 -22 0 -11 9 -24 21 -30 31
-17 17 -22 -18 -8 -43 18 -93 58 -93 74 0 8 -9 14 -19 14 -20 0 -46 54 -35 71
8 13 16 11 45 -15z m3909 -84 c-1 -23 -35 -62 -54 -62 -23 0 -20 31 3 37 11 3
22 16 25 29 7 27 26 23 26 -4z m-55 -132 c3 -5 1 -10 -4 -10 -6 0 -11 5 -11
10 0 6 2 10 4 10 3 0 8 -4 11 -10z m-15 -61 c0 -11 -10 -29 -22 -38 -20 -17
-22 -17 -41 2 -12 12 -16 22 -10 24 5 2 19 10 29 18 27 21 44 18 44 -6z m420
1 c0 -5 -4 -10 -10 -10 -5 0 -10 5 -10 10 0 6 5 10 10 10 6 0 10 -4 10 -10z
m-4072 -38 c3 -9 -2 -13 -14 -10 -9 1 -19 9 -22 16 -3 9 2 13 14 10 9 -1 19
-9 22 -16z m3560 -34 c16 -14 15 -38 -2 -38 -7 0 -19 7 -26 15 -7 8 -19 15
-26 15 -8 0 -11 6 -8 15 7 16 37 12 62 -7z m652 -8 c0 -5 -4 -10 -10 -10 -5 0
-10 5 -10 10 0 6 5 10 10 10 6 0 10 -4 10 -10z m-580 -20 c0 -5 -7 -10 -16
-10 -8 0 -12 5 -9 10 3 6 10 10 16 10 5 0 9 -4 9 -10z m-3450 -24 c0 -8 -4
-17 -9 -21 -12 -7 -24 12 -16 25 9 15 25 12 25 -4z m3540 -71 c7 -9 10 -18 7
-21 -10 -11 -37 5 -37 21 0 19 14 19 30 0z m450 -115 c0 -5 -4 -10 -10 -10 -5
0 -10 5 -10 10 0 6 5 10 10 10 6 0 10 -4 10 -10z m-3890 -21 c0 -6 -4 -7 -10
-4 -5 3 -10 11 -10 16 0 6 5 7 10 4 6 -3 10 -11 10 -16z m3310 1 c0 -5 -2 -10
-4 -10 -3 0 -8 5 -11 10 -3 6 -1 10 4 10 6 0 11 -4 11 -10z m120 -100 c0 -5
-2 -10 -4 -10 -3 0 -8 5 -11 10 -3 6 -1 10 4 10 6 0 11 -4 11 -10z m-82 -89
c29 -11 65 -19 80 -19 31 1 72 -18 72 -32 0 -6 -10 -6 -26 0 -21 8 -33 6 -59
-9 -34 -20 -50 -17 -50 9 0 9 -10 15 -25 15 -42 1 -70 15 -70 36 0 24 12 24
78 0z m372 -16 c0 -8 -4 -17 -10 -20 -6 -4 -10 5 -10 20 0 15 4 24 10 20 6 -3
10 -12 10 -20z m-130 -30 c0 -3 -5 -11 -10 -18 -6 -7 -19 -23 -30 -37 l-19
-25 -1 25 c0 14 4 30 8 36 10 16 52 31 52 19z m-414 -72 c-10 -10 -19 5 -10
18 6 11 8 11 12 0 2 -7 1 -15 -2 -18z m484 15 c0 -20 -24 -78 -32 -78 -12 0
-10 35 4 65 12 26 28 34 28 13z m-364 -18 c18 -7 24 -14 17 -21 -11 -11 -63 8
-63 23 0 11 13 10 46 -2z m-294 -22 c-7 -7 -12 -8 -12 -2 0 14 12 26 19 19 2
-3 -1 -11 -7 -17z m398 -110 c0 -18 -44 -68 -60 -68 -24 0 -40 15 -40 37 0 22
3 23 36 17 31 -6 35 -4 33 12 -2 11 0 25 5 33 7 11 10 11 17 0 5 -8 9 -22 9
-31z m-583 -60 l-11 -57 -36 2 c-35 2 -42 10 -32 37 7 19 34 40 44 34 4 -3 5
1 2 9 -3 8 5 18 18 24 13 6 24 10 24 9 1 0 -4 -27 -9 -58z m278 2 c3 -5 -1
-10 -9 -10 -9 0 -16 5 -16 10 0 6 4 10 9 10 6 0 13 -4 16 -10z m115 -51 c0
-10 -7 -19 -15 -19 -16 0 -19 9 -9 34 8 20 24 11 24 -15z m258 10 c3 -17 -23
-29 -45 -22 -7 3 -13 14 -13 24 0 16 6 20 27 17 16 -2 29 -10 31 -19z m-2970
-7 c2 -7 -3 -12 -12 -12 -9 0 -16 7 -16 16 0 17 22 14 28 -4z m2888 -16 c17
-18 19 -66 2 -66 -9 0 -9 -3 1 -9 9 -6 11 -16 7 -27 -7 -18 -8 -18 -18 -1 -5
11 -8 32 -6 48 3 17 1 32 -4 35 -9 6 -11 34 -2 34 3 0 12 -6 20 -14z m-216
-37 c0 -5 -4 -9 -10 -9 -5 0 -10 7 -10 16 0 8 5 12 10 9 6 -3 10 -10 10 -16z
m136 -6 c-7 -7 -26 7 -26 19 0 6 6 6 15 -2 9 -7 13 -15 11 -17z m206 -8 c-40
-34 -66 -33 -44 1 6 10 21 15 65 23 5 0 -5 -10 -21 -24z m-262 -17 c11 -12 20
-29 20 -38 0 -8 9 -32 20 -53 15 -28 17 -37 7 -37 -29 0 -57 37 -57 73 0 27
-6 39 -21 48 -17 9 -19 13 -8 20 18 11 15 12 39 -13z m-2360 -8 c0 -5 -4 -10
-10 -10 -5 0 -10 5 -10 10 0 6 5 10 10 10 6 0 10 -4 10 -10z m2148 4 c25 -7
28 -25 10 -54 -12 -18 -9 -24 24 -53 22 -19 39 -45 43 -64 4 -18 14 -37 23
-42 12 -7 13 -12 5 -23 -6 -7 -14 -28 -18 -47 l-7 -33 -21 43 c-11 24 -22 49
-22 54 -4 24 -18 45 -31 45 -8 0 -14 10 -14 25 0 35 -41 75 -69 68 -16 -4 -21
-1 -21 16 0 12 6 21 16 21 18 0 44 23 44 39 0 12 6 13 38 5z m112 -34 c0 -22
-8 -25 -30 -10 -13 9 -13 11 0 20 22 15 30 12 30 -10z m224 -19 c9 -14 -5 -41
-20 -41 -20 0 -30 30 -13 41 18 11 26 11 33 0z m-2710 -52 c-3 -5 -10 -7 -15
-3 -5 3 -7 10 -3 15 3 5 10 7 15 3 5 -3 7 -10 3 -15z m2260 -69 c-17 -34 -30
-44 -44 -35 -12 7 29 65 46 65 9 0 9 -8 -2 -30z m-206 -13 c2 -12 -1 -15 -12
-11 -19 7 -22 38 -3 32 6 -3 13 -12 15 -21z m628 -1 l59 -25 -50 3 c-40 2 -53
-1 -64 -16 -8 -12 -17 -16 -22 -11 -10 10 -1 73 11 73 3 0 33 -11 66 -24z
m-727 -35 c-3 -6 -10 -7 -18 -2 -7 5 -10 14 -6 21 9 14 29 -2 24 -19z m388 2
c-9 -9 -19 -14 -23 -11 -10 10 6 28 24 28 15 0 15 -1 -1 -17z m-30 -28 c7 -21
2 -25 -41 -32 -28 -4 -36 -2 -36 9 0 15 33 36 58 37 7 1 15 -6 19 -14z m93
-24 c0 -5 -7 -22 -15 -37 -8 -16 -15 -23 -15 -16 0 6 -6 12 -14 12 -24 0 -30
22 -11 37 21 15 55 18 55 4z m-162 -47 c18 -5 20 -9 11 -20 -20 -25 -91 -11
-75 15 8 12 29 14 64 5z m90 -65 c-17 -10 -17 -9 -11 25 6 30 6 30 15 6 6 -16
5 -26 -4 -31z m-48 -29 c-11 -21 -40 -17 -40 6 0 8 10 14 25 14 22 0 24 -3 15
-20z m40 -20 c0 -5 -7 -10 -16 -10 -8 0 -12 5 -9 10 3 6 10 10 16 10 5 0 9 -4
9 -10z m-2022 -31 c2 -11 -6 -18 -23 -21 -19 -4 -25 -1 -25 12 0 9 3 20 7 24
12 11 38 2 41 -15z m112 -29 c0 -5 -4 -10 -10 -10 -5 0 -10 5 -10 10 0 6 5 10
10 10 6 0 10 -4 10 -10z m-112 -72 c-3 -7 -11 -13 -18 -13 -7 0 -15 6 -17 13
-3 7 4 12 17 12 13 0 20 -5 18 -12z m162 -43 c0 -18 -5 -25 -20 -25 -22 0 -26
20 -8 38 19 19 28 14 28 -13z m2755 -5 c-3 -5 -13 -10 -21 -10 -8 0 -12 5 -9
10 3 6 13 10 21 10 8 0 12 -4 9 -10z m-1038 -36 c-7 -7 -37 7 -37 17 0 6 9 5
21 -1 11 -7 19 -14 16 -16z m-1641 -30 c-5 -13 -10 -14 -18 -6 -6 6 -8 18 -4
28 5 13 10 14 18 6 6 -6 8 -18 4 -28z m-56 -19 c10 -12 9 -16 -4 -21 -16 -6
-46 11 -46 27 0 15 37 10 50 -6z m583 -5 c16 -19 16 -20 -11 -20 -34 0 -43 7
-35 26 7 20 26 17 46 -6z m-480 -70 c7 0 4 -5 -6 -11 -18 -11 -37 -5 -37 13 0
5 7 7 16 4 9 -3 21 -6 27 -6z m297 -24 c0 -11 -19 -15 -25 -6 -3 5 1 10 9 10
9 0 16 -2 16 -4z m396 -67 l19 -22 -35 18 c-45 23 -47 25 -23 25 11 0 28 -10
39 -21z m1744 -25 c0 -8 -4 -12 -10 -9 -5 3 -10 10 -10 16 0 5 5 9 10 9 6 0
10 -7 10 -16z m-263 -80 c-3 -3 -12 -4 -19 -1 -8 3 -5 6 6 6 11 1 17 -2 13 -5z
m-1087 -154 c0 -5 -7 -7 -15 -4 -8 4 -15 8 -15 10 0 2 7 4 15 4 8 0 15 -4 15
-10z m1120 -74 c0 -11 -19 -15 -25 -6 -3 5 1 10 9 10 9 0 16 -2 16 -4z m-1000
-50 c0 -3 -4 -8 -10 -11 -5 -3 -10 -1 -10 4 0 6 5 11 10 11 6 0 10 -2 10 -4z
m1010 -36 c0 -11 -3 -20 -7 -21 -5 0 -18 -2 -30 -5 -27 -5 -39 12 -23 31 19
23 60 19 60 -5z m-836 1 c3 -5 -1 -11 -9 -15 -8 -3 -15 -1 -15 5 0 7 -12 8
-30 4 -19 -4 -30 -3 -30 4 0 13 76 15 84 2z m-716 -149 c2 -7 -2 -10 -12 -6
-9 3 -16 11 -16 16 0 13 23 5 28 -10z m-228 -66 c0 -19 -4 -38 -10 -41 -6 -4
-10 10 -10 34 0 23 5 41 10 41 6 0 10 -15 10 -34z m-143 -38 c-3 -8 -6 -5 -6
6 -1 11 2 17 5 13 3 -3 4 -12 1 -19z m323 -88 c0 -5 -14 -10 -31 -10 -17 0
-28 4 -24 10 3 6 17 10 31 10 13 0 24 -4 24 -10z m305 -60 c8 -13 -25 -13 -45
0 -12 8 -9 10 12 10 15 0 30 -4 33 -10z m-308 -23 c16 1 23 -7 28 -33 3 -19 3
-39 0 -44 -9 -14 -35 -12 -31 3 1 6 1 9 -1 5 -7 -13 -40 -9 -52 5 -7 9 -7 17
0 24 7 7 5 14 -6 23 -24 20 -18 33 13 24 15 -4 37 -7 49 -7z m-117 -122 c0
-14 -6 -25 -13 -25 -21 0 -27 11 -16 31 14 27 29 23 29 -6z m-78 -37 c-6 -6
-16 -7 -22 -3 -9 6 -9 9 1 16 17 10 34 0 21 -13z m73 -28 c3 -5 1 -10 -4 -10
-22 0 -10 -30 14 -36 14 -3 25 -10 25 -14 0 -7 -24 -20 -38 -20 -12 0 -34 60
-28 75 6 17 22 20 31 5z m126 -21 c6 -12 9 -23 6 -25 -6 -6 -67 17 -67 25 0
25 48 24 61 0z m-192 -15 l22 -25 -28 3 c-20 2 -29 9 -31 26 -4 29 9 28 37 -4z
m269 -21 c-3 -5 -10 -23 -17 -40 -16 -41 -45 -46 -35 -6 4 15 12 33 18 40 12
13 40 18 34 6z m-260 -34 c-7 -11 -27 -27 -45 -35 -28 -14 -34 -14 -57 1 -35
23 -34 46 2 39 21 -4 82 4 110 15 1 1 -3 -8 -10 -20z m156 -29 c8 0 18 -5 22
-12 5 -8 -3 -9 -31 -5 -51 8 -66 24 -40 43 17 13 20 12 27 -6 4 -11 14 -20 22
-20z m1181 -51 c-8 -12 -35 -12 -35 0 0 11 22 20 33 14 4 -2 5 -9 2 -14z
m-1449 -4 c10 -8 14 -15 8 -15 -5 0 -19 7 -30 15 -10 8 -14 15 -8 15 5 0 19
-7 30 -15z m1545 2 c-1 -12 -15 -9 -19 4 -3 6 1 10 8 8 6 -3 11 -8 11 -12z
m-1785 -46 c-4 -6 -14 -11 -22 -11 -12 0 -13 4 -3 21 7 14 14 18 21 11 6 -6 7
-15 4 -21z m424 -11 c0 -25 -13 -32 -46 -24 l-26 7 29 22 c31 25 43 24 43 -5z
m-239 -3 c-1 -12 -15 -9 -19 4 -3 6 1 10 8 8 6 -3 11 -8 11 -12z m1403 4 c3
-5 -1 -11 -9 -15 -9 -3 -15 0 -15 9 0 16 16 20 24 6z m-1714 -31 c12 -8 11
-10 -7 -10 -13 0 -23 5 -23 10 0 13 11 13 30 0z m1610 -10 c0 -5 -7 -10 -16
-10 -8 0 -12 5 -9 10 3 6 10 10 16 10 5 0 9 -4 9 -10z m-1170 -50 c0 -28 -13
-40 -24 -22 -7 12 5 52 15 52 5 0 9 -13 9 -30z m-500 -35 c16 -19 0 -19 -26 0
-16 12 -16 14 -3 15 9 0 22 -7 29 -15z m260 -5 c0 -5 -4 -10 -10 -10 -5 0 -10
5 -10 10 0 6 5 10 10 10 6 0 10 -4 10 -10z m160 6 c0 -3 -4 -8 -10 -11 -5 -3
-10 -1 -10 4 0 6 5 11 10 11 6 0 10 -2 10 -4z m386 -103 c-10 -10 -19 5 -10
18 6 11 8 11 12 0 2 -7 1 -15 -2 -18z m-396 -70 c0 -19 -3 -24 -10 -17 -6 6
-8 18 -4 27 9 24 14 21 14 -10z m-87 -8 c8 -19 -4 -25 -31 -18 -24 6 -29 19
-9 26 22 10 35 7 40 -8z m-443 -5 c0 -5 -4 -10 -9 -10 -6 0 -13 5 -16 10 -3 6
1 10 9 10 9 0 16 -4 16 -10z m2240 0 c0 -5 -4 -10 -9 -10 -6 0 -13 5 -16 10
-3 6 1 10 9 10 9 0 16 -4 16 -10z m-1916 -49 c7 -11 -20 -48 -29 -39 -9 8 4
48 15 48 5 0 11 -4 14 -9z m1174 -34 c-1 -12 1 -28 5 -34 9 -14 -2 -17 -18 -5
-8 6 -11 34 -6 65 3 19 22 -7 19 -26z m1166 17 c29 -11 5 -24 -44 -24 -54 0
-77 16 -33 23 48 7 61 7 77 1z m-358 -13 c5 -1 19 -7 29 -15 18 -13 13 -14
-43 -13 -34 1 -62 3 -62 4 0 17 16 28 38 27 15 -1 32 -3 38 -3z m659 -2 c11
-17 0 -20 -21 -4 -17 13 -17 14 -2 15 9 0 20 -5 23 -11z m-1070 -29 c10 -11
15 -20 11 -20 -4 0 -19 9 -33 20 -17 13 -20 20 -11 20 8 0 23 -9 33 -20z
m-112 -1 c23 -6 37 -16 37 -26 0 -11 -4 -13 -12 -6 -7 6 -30 13 -50 17 -21 4
-38 11 -38 16 0 13 16 12 63 -1z m-1879 -5 c22 -8 20 -34 -1 -34 -10 0 -29 9
-43 20 l-25 20 27 0 c14 0 33 -3 42 -6z m462 -41 c19 -26 17 -35 -6 -28 -14 5
-20 2 -20 -10 0 -10 -7 -15 -17 -13 -26 5 -27 26 -1 30 15 2 23 9 22 21 -2 22
5 22 22 0z m1592 -31 c2 -12 13 -28 24 -36 29 -21 17 -48 -19 -44 -26 3 -28 6
-31 57 -2 40 0 52 10 49 7 -3 14 -14 16 -26z m-518 -8 c0 -8 -4 -14 -9 -14
-11 0 -22 26 -14 34 9 9 23 -3 23 -20z m447 0 c-3 -3 -12 -4 -19 -1 -8 3 -5 6
6 6 11 1 17 -2 13 -5z m503 -14 c0 -5 -2 -10 -4 -10 -3 0 -8 5 -11 10 -3 6 -1
10 4 10 6 0 11 -4 11 -10z m-2203 -45 c3 -9 3 -18 0 -21 -6 -7 -47 18 -47 28
0 15 41 8 47 -7z m1968 5 c3 -5 -3 -10 -15 -10 -12 0 -18 5 -15 10 3 6 10 10
15 10 5 0 12 -4 15 -10z m180 -11 c-3 -4 -12 -6 -20 -3 -8 4 -13 10 -10 15 3
4 12 6 20 3 8 -4 13 -10 10 -15z m290 1 c11 -5 16 -9 10 -9 -5 -1 -20 -4 -32
-7 -17 -5 -23 -2 -23 10 0 17 14 19 45 6z m-1265 -52 c0 -4 -7 -8 -15 -8 -10
0 -15 10 -15 28 1 26 1 26 15 8 8 -11 15 -23 15 -28z m640 2 c0 -5 -7 -7 -15
-4 -8 4 -15 8 -15 10 0 2 7 4 15 4 8 0 15 -4 15 -10z m-680 -30 c0 -5 -7 -10
-16 -10 -8 0 -12 5 -9 10 3 6 10 10 16 10 5 0 9 -4 9 -10z m-1205 -40 c3 -5 1
-10 -4 -10 -6 0 -11 5 -11 10 0 6 2 10 4 10 3 0 8 -4 11 -10z m135 1 c0 -11
-26 -21 -53 -20 -19 1 -18 3 8 14 36 17 45 18 45 6z m2350 -12 c0 -5 -4 -9
-10 -9 -5 0 -10 7 -10 16 0 8 5 12 10 9 6 -3 10 -10 10 -16z m-185 -12 c7 -7
4 -8 -8 -3 -10 3 -27 6 -38 6 -10 0 -19 5 -19 10 0 12 50 2 65 -13z m-2295 -7
c0 -5 -2 -10 -4 -10 -3 0 -8 5 -11 10 -3 6 -1 10 4 10 6 0 11 -4 11 -10z
m-413 -6 c-3 -3 -12 -4 -19 -1 -8 3 -5 6 6 6 11 1 17 -2 13 -5z m2513 -30 c0
-13 -4 -24 -9 -24 -10 0 -21 47 -13 54 10 11 22 -6 22 -30z m899 1 c2 -3 -21
-5 -52 -5 -31 0 -57 4 -57 10 0 9 99 4 109 -5z m-962 -19 c0 -8 -6 -12 -14 -9
-7 3 -13 9 -13 14 0 5 6 9 13 9 8 0 14 -6 14 -14z m456 -18 c15 -7 27 -15 27
-18 0 -3 -31 -7 -70 -8 -65 -3 -70 -2 -70 17 0 18 6 21 43 21 24 0 55 -6 70
-12z m-512 -20 c11 -21 11 -22 -4 -9 -10 7 -17 17 -17 22 0 15 9 10 21 -13z
m-2061 -7 c0 -23 -16 -36 -25 -21 -9 14 1 40 15 40 5 0 10 -9 10 -19z m63 -3
c6 -23 1 -38 -13 -38 -12 0 -20 28 -14 45 9 22 21 18 27 -7z m2772 -18 c3 -5
-3 -10 -14 -10 -12 0 -21 5 -21 10 0 6 6 10 14 10 8 0 18 -4 21 -10z m153 -16
c-2 -11 -15 -18 -36 -19 -35 -3 -35 1 0 21 32 17 40 17 36 -2z m-368 -18 c0
-46 -41 -42 -53 4 -4 17 0 20 24 20 24 0 29 -4 29 -24z m-2626 -1 c3 -8 1 -15
-4 -15 -6 0 -10 7 -10 15 0 8 2 15 4 15 2 0 6 -7 10 -15z m3076 -1 c0 -17 -22
-14 -28 4 -2 7 3 12 12 12 9 0 16 -7 16 -16z m-3111 -31 l34 -8 -26 -12 c-19
-9 -33 -9 -56 0 -36 13 -44 42 -8 34 12 -3 37 -10 56 -14z m2841 2 c0 -12 -8
-14 -42 -9 -64 10 -70 24 -10 24 40 0 52 -4 52 -15z m-120 -5 c0 -5 -5 -10
-11 -10 -5 0 -7 5 -4 10 3 6 8 10 11 10 2 0 4 -4 4 -10z m318 -48 c2 -7 -6
-12 -17 -12 -21 0 -27 11 -14 24 9 9 26 2 31 -12z m-74 2 c13 -5 14 -9 5 -20
-16 -20 -29 -17 -29 6 0 22 1 23 24 14z m-2996 -26 c-6 -18 -28 -21 -28 -4 0
9 7 16 16 16 9 0 14 -5 12 -12z m3184 -15 c26 -24 22 -40 -12 -45 -24 -4 -30
-1 -25 9 3 8 5 23 5 34 0 23 8 24 32 2z m-452 -13 c0 -5 -5 -10 -11 -10 -5 0
-7 5 -4 10 3 6 8 10 11 10 2 0 4 -4 4 -10z m-211 -24 c27 6 31 4 31 -15 0 -22
-24 -29 -36 -10 -4 7 -16 2 -33 -14 -34 -31 -56 -38 -73 -24 -7 7 -11 11 -9
10 9 -6 31 21 31 37 0 22 19 30 42 19 9 -5 30 -6 47 -3z m371 -7 c0 -5 -7 -9
-15 -9 -15 0 -20 12 -9 23 8 8 24 -1 24 -14z m-2945 1 c3 -5 2 -10 -4 -10 -5
0 -13 5 -16 10 -3 6 -2 10 4 10 5 0 13 -4 16 -10z m-538 -22 c-3 -8 -6 -5 -6
6 -1 11 2 17 5 13 3 -3 4 -12 1 -19z m2968 12 c3 -5 2 -10 -4 -10 -5 0 -13 5
-16 10 -3 6 -2 10 4 10 5 0 13 -4 16 -10z m560 -10 c3 -5 -1 -10 -9 -10 -9 0
-16 5 -16 10 0 6 4 10 9 10 6 0 13 -4 16 -10z m-139 -17 c21 -28 16 -32 -21
-15 -23 11 -31 19 -22 24 18 12 29 10 43 -9z m302 -10 c2 -9 -7 -13 -27 -13
-21 0 -31 5 -31 16 0 19 51 16 58 -3z m-3704 -19 c24 -9 9 -24 -25 -24 -19 0
-29 5 -29 15 0 15 26 20 54 9z m3766 -4 c0 -5 -2 -10 -4 -10 -3 0 -8 5 -11 10
-3 6 -1 10 4 10 6 0 11 -4 11 -10z m-200 -15 c0 -9 9 -15 23 -15 29 0 37 -7
30 -26 -6 -16 -65 -18 -98 -4 -19 8 -19 9 -1 9 14 1 17 7 14 26 -4 19 -1 25
13 25 11 0 19 -7 19 -15z m-402 -7 c20 -20 14 -28 -18 -22 -17 4 -36 1 -44 -6
-11 -8 -20 -9 -33 -1 -17 9 -17 10 2 16 11 4 27 10 35 15 22 13 44 12 58 -2z
m-3210 -15 c14 -27 4 -41 -23 -35 -27 5 -32 21 -13 40 16 16 26 15 36 -5z
m422 1 c0 -8 -4 -12 -10 -9 -5 3 -10 10 -10 16 0 5 5 9 10 9 6 0 10 -7 10 -16z
m3577 -1 c6 -17 -31 -43 -47 -32 -13 7 -13 10 -1 18 7 5 11 13 8 18 -3 5 4 9
15 8 12 -1 23 -6 25 -12z m-684 -20 c8 -7 -11 -33 -24 -33 -5 0 -9 9 -9 20 0
19 20 27 33 13z m-64 -63 c11 0 34 -8 51 -18 27 -17 28 -20 15 -38 -14 -18
-16 -18 -26 -1 -12 21 -39 23 -39 2 0 -22 -11 -19 -49 13 -27 22 -32 32 -26
51 6 21 8 21 31 7 13 -9 32 -16 43 -16z m475 -12 c43 -42 68 -88 47 -88 -15 0
-44 47 -36 60 6 10 -7 14 -32 11 -11 -2 -43 36 -43 51 0 18 22 6 64 -34z
m-3346 -64 c7 4 12 1 12 -8 0 -9 8 -16 17 -16 12 0 14 -3 7 -10 -12 -12 -44
-3 -44 11 0 5 -6 9 -14 9 -18 0 -29 17 -21 31 5 6 11 4 19 -7 7 -9 18 -14 24
-10z m3492 -103 c0 -5 -6 -14 -14 -20 -18 -15 -31 2 -40 54 l-7 40 30 -33 c17
-18 31 -37 31 -41z m226 40 c-8 -12 -55 -20 -61 -10 -3 4 5 10 17 12 40 8 49
7 44 -2z m-518 -18 c6 -19 -43 -16 -59 3 -11 14 -9 15 21 12 18 -2 35 -9 38
-15z m-3698 -8 c0 -8 -4 -15 -10 -15 -5 0 -10 7 -10 15 0 8 5 15 10 15 6 0 10
-7 10 -15z m3563 -19 c4 -10 1 -13 -9 -9 -15 6 -19 23 -5 23 5 0 11 -7 14 -14z
m209 -31 c15 -33 4 -42 -28 -25 -22 12 -27 12 -34 0 -13 -21 -19 -9 -13 23 7
38 58 39 75 2z m323 -51 c14 -15 22 -31 19 -36 -3 -5 -15 0 -25 11 -11 12 -24
21 -28 21 -5 0 -11 7 -15 15 -9 25 23 17 49 -11z m-408 -39 c9 -24 0 -25 -27
-5 l-25 20 23 0 c12 0 25 -7 29 -15z m-3810 -11 c-3 -3 -12 -4 -19 -1 -8 3 -5
6 6 6 11 1 17 -2 13 -5z m1613 -10 c0 -8 -5 -12 -10 -9 -6 4 -8 11 -5 16 9 14
15 11 15 -7z m2670 -7 c0 -28 -40 -53 -67 -42 -16 6 -15 8 7 18 14 7 31 20 38
29 17 24 22 23 22 -5z m-414 -53 c-5 -13 -10 -14 -18 -6 -6 6 -8 18 -4 28 5
13 10 14 18 6 6 -6 8 -18 4 -28z m1067 -9 c1 -5 -6 -11 -15 -13 -11 -2 -18 3
-18 13 0 17 30 18 33 0z m-5023 -15 c0 -5 -5 -10 -11 -10 -5 0 -7 5 -4 10 3 6
8 10 11 10 2 0 4 -4 4 -10z m5170 -10 c0 -23 -17 -25 -43 -6 -14 11 -15 15 -5
19 29 12 48 7 48 -13z m-1020 0 c0 -5 -4 -10 -10 -10 -5 0 -10 5 -10 10 0 6 5
10 10 10 6 0 10 -4 10 -10z m310 -6 c0 -8 -5 -12 -10 -9 -6 4 -8 11 -5 16 9
14 15 11 15 -7z m-174 -29 c-3 -8 3 -36 14 -61 22 -51 14 -84 -20 -84 -24 0
-26 25 -5 46 17 17 9 49 -9 36 -13 -11 -86 -25 -86 -17 0 14 33 54 41 49 19
-11 51 7 46 27 -3 12 0 19 10 19 9 0 13 -6 9 -15z m-4291 -14 c3 -5 1 -12 -5
-16 -5 -3 -10 -24 -10 -46 0 -35 -3 -39 -25 -39 -18 0 -23 4 -18 16 4 10 -1
17 -16 21 -26 7 -27 23 -1 51 21 22 64 30 75 13z m4435 -16 c-6 -12 -41 -8
-55 6 -7 7 1 9 25 7 19 -2 33 -7 30 -13z m-40 -157 c0 -13 -23 -5 -28 10 -2 7
2 10 12 6 9 -3 16 -11 16 -16z m-4533 -16 c-1 -10 -12 -30 -23 -44 l-20 -26
-13 30 c-7 16 -12 30 -10 31 2 2 18 8 34 14 17 6 31 11 32 12 2 1 2 -7 0 -17z
m410 -4 c-3 -8 -6 -5 -6 6 -1 11 2 17 5 13 3 -3 4 -12 1 -19z m4502 -27 c34
-35 71 -121 52 -121 -6 0 -40 52 -53 83 -4 10 -21 23 -37 28 -16 6 -31 19 -34
30 -9 33 31 22 72 -20z m-314 -23 c1 -20 8 -45 16 -54 12 -15 12 -17 0 -12 -8
2 -18 17 -23 33 -4 16 -14 33 -23 37 -24 14 -19 40 7 36 18 -2 22 -10 23 -40z
m-4660 -57 c-4 -14 -15 -21 -31 -21 -22 0 -24 3 -18 23 3 12 11 28 17 35 16
20 41 -9 32 -37z m4743 17 c19 -19 14 -28 -12 -28 -27 0 -41 14 -31 30 8 14
28 13 43 -2z m206 -16 c8 -25 56 -77 79 -85 24 -9 21 -25 -5 -29 -16 -2 -24
-12 -28 -32 -7 -38 -23 -43 -51 -15 -18 18 -19 24 -8 27 39 10 39 10 27 44 -6
18 -19 44 -28 58 -17 24 -17 50 0 50 5 0 11 -8 14 -18z m873 12 c-3 -3 -12 -4
-19 -1 -8 3 -5 6 6 6 11 1 17 -2 13 -5z m-297 -14 c0 -5 -9 -10 -20 -10 -11 0
-20 5 -20 10 0 6 9 10 20 10 11 0 20 -4 20 -10z m-5230 -19 c0 -5 -7 -12 -16
-15 -22 -9 -24 -8 -24 9 0 8 9 15 20 15 11 0 20 -4 20 -9z m4980 -10 c0 -11
-29 -35 -35 -29 -10 9 7 38 21 38 8 0 14 -4 14 -9z m281 -42 c-26 -21 -37 -19
-28 6 4 8 17 15 29 15 l23 -1 -24 -20z m-5304 -6 c4 -10 14 -24 22 -31 14 -11
13 -12 -6 -7 -28 8 -63 -10 -64 -33 0 -12 -3 -9 -10 8 -8 19 -6 27 5 36 9 6
16 19 16 28 0 21 29 21 37 -1z m713 -33 c0 -14 -24 -17 -52 -7 -41 13 -34 23
12 19 22 -2 40 -8 40 -12z m3695 10 c3 -5 1 -10 -4 -10 -6 0 -11 5 -11 10 0 6
2 10 4 10 3 0 8 -4 11 -10z m480 -10 c4 -6 4 -18 1 -26 -5 -12 -9 -11 -26 6
-11 11 -20 22 -20 25 0 10 39 5 45 -5z m609 1 c3 -5 -1 -12 -10 -15 -20 -8
-29 -1 -19 13 8 13 22 14 29 2z m-914 -20 c0 -17 42 -24 51 -10 6 10 9 8 9 -9
0 -24 -9 -30 -50 -34 -14 -2 -28 -7 -32 -13 -4 -5 -14 6 -22 25 -14 33 -13 35
7 42 32 9 37 9 37 -1z m-4680 -41 c0 -5 -4 -10 -10 -10 -5 0 -10 5 -10 10 0 6
5 10 10 10 6 0 10 -4 10 -10z m5440 -16 c0 -8 -4 -14 -10 -14 -5 0 -10 9 -10
21 0 11 5 17 10 14 6 -3 10 -13 10 -21z m-5353 10 c-3 -3 -12 -4 -19 -1 -8 3
-5 6 6 6 11 1 17 -2 13 -5z m4685 -81 c12 -12 25 -20 30 -17 5 3 22 0 38 -8
23 -10 28 -17 24 -34 -7 -26 8 -37 55 -40 76 -6 88 -17 59 -51 -16 -19 -27
-16 -39 11 -13 27 -34 25 -42 -5 -7 -27 -27 -24 -27 5 0 17 -7 26 -25 30 -14
4 -30 4 -35 1 -18 -11 -31 5 -20 25 15 27 2 48 -42 71 -37 19 -39 22 -24 38 9
10 17 26 17 37 1 10 4 6 6 -11 3 -16 14 -40 25 -52z m-5122 3 c0 -7 -6 -21
-14 -32 -14 -18 -15 -18 -24 6 -13 34 3 67 24 49 8 -6 14 -17 14 -23z m1600 0
c0 -8 -4 -18 -10 -21 -5 -3 -10 3 -10 14 0 12 5 21 10 21 6 0 10 -6 10 -14z
m3796 -48 c-3 -15 -1 -30 4 -33 16 -10 12 -35 -5 -35 -11 0 -15 11 -15 38 0
20 -3 48 -7 62 -6 23 -5 24 11 11 12 -10 16 -23 12 -43z m-5189 -95 c-3 -3
-10 -2 -16 2 -7 4 -7 10 2 20 10 11 13 11 15 -2 2 -8 1 -17 -1 -20z m1306 20
c9 -9 -13 -34 -24 -27 -14 8 -11 34 4 34 8 0 17 -3 20 -7z m3642 -33 c3 -5 -1
-10 -9 -10 -8 0 -18 5 -21 10 -3 6 1 10 9 10 8 0 18 -4 21 -10z m-4937 -36 c7
-19 -26 -28 -51 -15 -27 15 -47 8 -47 -15 0 -8 13 -17 30 -20 17 -4 30 -13 30
-20 0 -19 -13 -18 -54 7 -32 19 -34 22 -24 50 10 28 12 29 62 26 28 -2 52 -8
54 -13z m5182 -29 c23 -12 24 -14 6 -21 -10 -4 -27 -2 -37 4 -25 16 -39 15
-39 -3 0 -11 -7 -14 -26 -9 -18 5 -31 1 -47 -14 -21 -20 -23 -20 -44 -4 -28
21 -20 33 37 54 49 17 108 15 150 -7z m-5516 -30 c3 -9 0 -15 -9 -15 -8 0 -15
7 -15 15 0 8 4 15 9 15 5 0 11 -7 15 -15z m5517 -38 c9 -7 14 -18 12 -24 -3
-8 4 -13 17 -13 17 0 20 -4 15 -21 -6 -18 -4 -20 14 -14 12 3 36 -1 57 -11 30
-14 37 -15 44 -4 5 8 6 18 4 22 -14 22 17 4 40 -23 27 -31 27 -60 0 -38 -11 9
-15 7 -21 -6 -4 -11 0 -22 10 -30 18 -13 23 -35 8 -35 -5 0 -14 7 -21 15 -14
17 -50 20 -50 5 0 -5 9 -15 20 -22 11 -7 20 -21 20 -30 0 -10 5 -18 11 -18 5
0 7 -5 4 -10 -4 -6 -11 -5 -20 3 -7 7 -26 24 -41 38 -16 13 -35 37 -42 52 -7
16 -21 31 -32 34 -11 3 -20 10 -20 17 0 6 -10 16 -22 21 -15 7 -26 25 -34 58
-13 50 -6 59 27 34z m650 -20 c-13 -13 -26 -3 -16 12 3 6 11 8 17 5 6 -4 6
-10 -1 -17z m-701 -4 c8 -8 -34 -34 -49 -31 -7 2 -17 13 -22 25 -7 20 -6 21
29 16 20 -3 39 -8 42 -10z m180 4 c0 -21 -12 -28 -27 -16 -19 16 -16 29 7 29
11 0 20 -6 20 -13z m-5438 -25 c-24 -4 -46 -34 -34 -47 4 -4 0 -6 -8 -3 -24 7
-24 44 1 62 18 12 26 13 43 3 l21 -12 -23 -3z m5758 9 c0 -30 -17 -34 -22 -6
-4 17 -1 25 8 25 8 0 14 -9 14 -19z m-4490 2 c-1 -18 -18 -35 -24 -24 -4 6 -4
16 -1 21 7 12 25 13 25 3z m4125 -4 c11 -17 -1 -21 -15 -4 -8 9 -8 15 -2 15 6
0 14 -5 17 -11z m-5675 -64 c0 -17 -2 -17 -14 5 -7 14 -11 29 -8 34 6 12 22
-15 22 -39z m5960 21 c0 -11 -19 -15 -25 -6 -3 5 1 10 9 10 9 0 16 -2 16 -4z
m-5655 -27 c11 -17 -1 -21 -15 -4 -8 9 -8 15 -2 15 6 0 14 -5 17 -11z m5711
-26 c-4 -4 -11 -1 -16 7 -16 25 -11 35 7 17 9 -9 13 -20 9 -24z m-5816 7 c0
-5 -4 -10 -10 -10 -5 0 -10 5 -10 10 0 6 5 10 10 10 6 0 10 -4 10 -10z m61
-41 c-10 -37 -5 -54 17 -57 12 -2 22 -8 22 -13 0 -11 -21 -11 -39 0 -9 6 -19
4 -28 -5 -17 -16 -33 -18 -33 -4 0 23 43 101 54 97 6 -3 9 -11 7 -18z m5656 6
c8 -22 -6 -33 -17 -15 -13 20 -12 30 0 30 6 0 13 -7 17 -15z m-6031 -42 c-10
-10 -19 5 -10 18 6 11 8 11 12 0 2 -7 1 -15 -2 -18z m6299 7 c3 -5 -1 -10 -10
-10 -9 0 -13 5 -10 10 3 6 8 10 10 10 2 0 7 -4 10 -10z m-335 -34 c0 -7 7 -19
15 -26 13 -10 15 -9 15 8 0 26 16 37 24 17 3 -8 16 -20 29 -26 19 -8 22 -16
19 -45 -3 -25 0 -34 11 -34 21 0 38 25 31 44 -7 19 5 20 41 4 25 -11 35 -40
13 -37 -30 4 -48 -2 -48 -15 0 -7 -10 -21 -22 -30 -16 -12 -19 -18 -10 -22 6
-3 12 -15 12 -26 0 -16 -5 -19 -28 -13 -20 4 -33 1 -42 -10 -7 -8 -10 -16 -6
-16 3 -1 11 -3 16 -4 6 -1 15 -3 20 -4 6 0 10 -12 10 -26 0 -16 6 -25 16 -25
12 0 15 6 10 25 -6 22 -3 25 21 25 40 0 56 -14 48 -39 -4 -14 -15 -21 -30 -21
-14 0 -29 -8 -35 -19 -13 -25 -61 -14 -75 16 -5 12 -20 27 -33 32 -17 8 -22
16 -17 31 4 14 2 20 -9 20 -8 0 -18 5 -22 11 -4 7 3 10 17 9 56 -5 74 0 86 26
16 34 7 60 -14 39 -18 -19 -49 -19 -56 -1 -8 20 2 26 40 26 38 0 40 6 14 39
-12 15 -21 20 -25 13 -5 -8 -18 -5 -41 11 -39 24 -47 57 -15 57 11 0 20 -6 20
-14z m-83 -55 c17 -9 17 -10 0 -17 -21 -8 -93 11 -102 26 -8 13 77 5 102 -9z
m-117 -22 c0 -11 -27 -12 -34 0 -3 4 -3 11 0 14 8 8 34 -3 34 -14z m642 -11
c-6 -6 -22 -7 -39 -3 l-28 8 30 7 c35 8 51 2 37 -12z m-6532 -74 c0 -8 -5 -12
-10 -9 -6 4 -8 11 -5 16 9 14 15 11 15 -7z m265 6 c4 -6 4 -18 1 -27 -5 -12
-9 -13 -21 -3 -8 7 -15 19 -15 26 0 16 26 19 35 4z m6056 -11 c79 -34 55 -67
-27 -37 -33 12 -49 32 -38 49 7 12 8 12 65 -12z m-6115 -21 c-3 -13 -6 -26 -6
-30 0 -5 -4 -8 -10 -8 -5 0 -10 14 -10 30 0 21 5 30 16 30 12 0 15 -6 10 -22z
m6244 -59 c0 -5 -4 -9 -10 -9 -5 0 -10 7 -10 16 0 8 5 12 10 9 6 -3 10 -10 10
-16z m150 -25 c0 -9 -7 -14 -17 -12 -25 5 -28 28 -4 28 12 0 21 -6 21 -16z
m-5142 -16 c-7 -19 -38 -22 -38 -4 0 10 9 16 21 16 12 0 19 -5 17 -12z m-118
-52 c0 -9 -30 -14 -35 -6 -4 6 3 10 14 10 12 0 21 -2 21 -4z m43 -12 c-4 -13
-26 -11 -30 3 -2 6 4 10 14 9 10 -2 17 -7 16 -12z m-528 -52 c-9 -10 -44 20
-39 33 5 12 10 10 24 -8 10 -12 17 -23 15 -25z m5309 19 c3 -4 3 -11 0 -14 -8
-8 -34 3 -34 14 0 11 27 12 34 0z m-6044 -36 c-26 -27 -46 -24 -30 6 6 10 20
19 32 19 21 0 21 0 -2 -25z m620 17 c0 -15 -11 -21 -27 -15 -12 5 -12 7 -1 14
17 11 28 11 28 1z m5524 -26 c7 -29 1 -31 -39 -12 -44 21 -45 36 -1 34 26 -1
36 -6 40 -22z m-5412 -41 c0 -5 -5 -11 -11 -13 -6 -2 -11 4 -11 13 0 9 5 15
11 13 6 -2 11 -8 11 -13z m-832 -45 c0 -5 -2 -10 -4 -10 -3 0 -8 5 -11 10 -3
6 -1 10 4 10 6 0 11 -4 11 -10z m6308 -43 c-4 -32 -41 -29 -43 3 -3 35 3 42
26 29 13 -6 19 -18 17 -32z m-6658 3 c0 -5 -9 -10 -20 -10 -16 0 -20 -7 -20
-35 0 -31 -3 -35 -25 -35 -16 0 -25 -6 -25 -15 0 -10 -10 -15 -30 -15 -40 0
-44 37 -5 42 14 2 26 8 26 13 2 24 22 45 52 54 43 12 47 13 47 1z m7090 -10
c0 -5 -4 -10 -10 -10 -5 0 -10 5 -10 10 0 6 5 10 10 10 6 0 10 -4 10 -10z
m-6730 -20 c0 -5 -2 -10 -4 -10 -3 0 -8 5 -11 10 -3 6 -1 10 4 10 6 0 11 -4
11 -10z m6710 -56 c0 -9 -7 -14 -17 -12 -25 5 -28 28 -4 28 12 0 21 -6 21 -16z
m-432 -16 c7 -7 12 -20 12 -30 0 -10 6 -18 14 -18 20 0 30 -50 13 -67 -22 -23
-44 -5 -66 56 -12 32 -21 61 -21 65 0 11 35 7 48 -6z m486 -34 c10 -26 -5 -39
-21 -19 -7 11 -13 22 -13 27 0 15 28 8 34 -8z m111 -4 c3 -5 2 -10 -4 -10 -5
0 -13 5 -16 10 -3 6 -2 10 4 10 5 0 13 -4 16 -10z m-7405 -20 c0 -5 -4 -10
-10 -10 -5 0 -10 5 -10 10 0 6 5 10 10 10 6 0 10 -4 10 -10z m7342 -30 c10 0
18 -5 18 -11 0 -6 7 -9 15 -6 7 3 24 -3 37 -14 13 -11 18 -18 11 -15 -20 11
-43 -6 -43 -31 0 -30 -33 -29 -39 2 -2 11 -14 33 -27 51 -22 29 -22 56 0 34 5
-5 18 -10 28 -10z m335 -25 c17 -19 28 -36 26 -39 -12 -11 -65 19 -79 45 -13
27 -13 29 4 29 10 0 32 -16 49 -35z m-6119 -22 c-4 -22 -38 -30 -38 -10 0 14
13 24 33 26 5 1 7 -7 5 -16z m6254 -95 c-10 -22 -11 -21 -11 12 -1 26 2 31 11
22 8 -8 8 -17 0 -34z m-7902 -2 c0 -19 -25 -27 -39 -13 -8 8 -11 3 -11 -18 0
-17 -4 -25 -8 -19 -4 6 -18 15 -30 19 l-24 7 26 13 c49 26 86 30 86 11z m7880
-66 c0 -5 -5 -10 -11 -10 -5 0 -7 5 -4 10 3 6 8 10 11 10 2 0 4 -4 4 -10z
m174 -87 c21 -23 23 -30 13 -40 -21 -21 -73 -6 -72 20 0 25 12 47 25 47 5 0
21 -12 34 -27z m91 15 c14 -6 24 -16 22 -22 -2 -6 17 -18 42 -26 48 -17 64
-43 35 -54 -10 -4 -25 1 -36 10 -11 11 -35 17 -61 17 l-44 0 0 44 c0 47 3 49
42 31z m-793 -23 c0 -5 -5 -11 -11 -13 -6 -2 -11 4 -11 13 0 9 5 15 11 13 6
-2 11 -8 11 -13z m538 -35 c0 -5 -9 -10 -20 -10 -11 0 -20 5 -20 10 0 6 9 10
20 10 11 0 20 -4 20 -10z m-6983 -54 c-8 -19 -37 -21 -37 -3 0 7 5 18 12 25
15 15 33 -1 25 -22z m6981 3 c12 -18 11 -20 -5 -17 -10 2 -19 11 -21 21 -5 23
10 21 26 -4z m270 -4 c17 -14 43 -25 58 -25 16 0 37 -6 46 -14 16 -12 16 -14
-3 -29 -20 -18 -59 -23 -59 -8 0 5 -15 14 -32 21 -18 7 -41 23 -50 34 -14 17
-19 19 -29 9 -15 -15 -59 -18 -59 -4 0 17 26 30 48 24 13 -3 22 -1 22 6 0 19
27 12 58 -14z m-818 -21 c0 -22 -22 -28 -36 -9 -18 24 1 52 22 34 8 -6 14 -17
14 -25z m975 26 c4 -6 -6 -10 -22 -10 -22 0 -25 2 -13 10 19 12 27 12 35 0z
m-845 -14 c0 -9 -30 -14 -35 -6 -4 6 3 10 14 10 12 0 21 -2 21 -4z m425 -58
c-20 -12 -55 -1 -55 17 0 10 7 11 35 2 28 -8 33 -13 20 -19z m131 11 c9 -16
-18 -30 -33 -17 -7 6 -10 14 -7 19 7 13 31 11 40 -2z m379 -9 c3 -5 -1 -10 -9
-10 -9 0 -16 5 -16 10 0 6 4 10 9 10 6 0 13 -4 16 -10z m-8740 -10 c3 -5 1
-10 -4 -10 -6 0 -11 5 -11 10 0 6 2 10 4 10 3 0 8 -4 11 -10z m1115 -20 c0 -5
-4 -10 -10 -10 -5 0 -10 5 -10 10 0 6 5 10 10 10 6 0 10 -4 10 -10z m7333 -30
c-3 -12 -8 -19 -11 -16 -5 6 5 36 12 36 2 0 2 -9 -1 -20z m-7993 -16 c0 -8 -5
-12 -10 -9 -6 4 -8 11 -5 16 9 14 15 11 15 -7z m8095 -4 c-3 -5 -11 -10 -16
-10 -6 0 -7 5 -4 10 3 6 11 10 16 10 6 0 7 -4 4 -10z m-567 -36 c31 -9 27 -30
-8 -42 -33 -12 -45 -3 -35 28 7 22 9 23 43 14z m552 -33 c0 -15 -28 -33 -40
-26 -8 5 -8 11 1 21 13 15 39 19 39 5z m478 -19 c6 -18 -15 -14 -22 4 -4 10
-1 14 6 12 6 -2 14 -10 16 -16z m-128 -12 c12 -8 11 -10 -7 -10 -13 0 -23 5
-23 10 0 13 11 13 30 0z m70 -45 c0 -8 -4 -15 -10 -15 -5 0 -10 7 -10 15 0 8
5 15 10 15 6 0 10 -7 10 -15z m590 -45 c0 -5 -7 -10 -15 -10 -8 0 -15 5 -15
10 0 6 7 10 15 10 8 0 15 -4 15 -10z m18 -32 c-6 -18 -28 -21 -28 -4 0 9 7 16
16 16 9 0 14 -5 12 -12z m22 -16 c0 -13 -12 -22 -22 -16 -10 6 -1 24 13 24 5
0 9 -4 9 -8z m-1450 -6 c0 -11 -19 -15 -25 -6 -3 5 1 10 9 10 9 0 16 -2 16 -4z
m650 -47 c0 -5 -7 -9 -15 -9 -15 0 -20 12 -9 23 8 8 24 -1 24 -14z m417 -35
c6 -17 -34 -24 -47 -9 -8 10 -7 14 2 18 19 8 41 4 45 -9z m483 -26 c0 -5 -6
-8 -14 -8 -16 0 -38 24 -30 33 7 7 44 -14 44 -25z m-956 6 c7 -19 -2 -37 -15
-29 -12 8 -12 45 0 45 5 0 12 -7 15 -16z m-9028 -71 c-10 -10 -19 5 -10 18 6
11 8 11 12 0 2 -7 1 -15 -2 -18z m10029 -13 c3 -5 1 -10 -4 -10 -6 0 -11 5
-11 10 0 6 2 10 4 10 3 0 8 -4 11 -10z m-9915 -9 c0 -6 -4 -13 -10 -16 -5 -3
-10 1 -10 9 0 9 5 16 10 16 6 0 10 -4 10 -9z m9020 -42 c0 -18 -2 -19 -15 -9
-15 12 -12 30 6 30 5 0 9 -10 9 -21z m470 -4 c0 -29 -29 -35 -50 -10 -16 19
-4 35 26 35 19 0 24 -5 24 -25z m526 -12 c-10 -10 -19 5 -10 18 6 11 8 11 12
0 2 -7 1 -15 -2 -18z m-1381 -43 c3 -6 -1 -7 -9 -4 -18 7 -21 14 -7 14 6 0 13
-4 16 -10z m1415 -10 c0 -5 -4 -10 -10 -10 -5 0 -10 5 -10 10 0 6 5 10 10 10
6 0 10 -4 10 -10z m-10080 -26 c0 -9 -7 -14 -17 -12 -25 5 -28 28 -4 28 12 0
21 -6 21 -16z m-249 -98 c-13 -15 -5 -26 19 -26 10 0 23 13 30 30 7 17 17 30
22 30 5 0 8 -3 6 -7 -3 -5 -11 -23 -19 -41 -12 -28 -18 -33 -43 -30 -25 3 -31
-1 -38 -27 -4 -17 -3 -34 2 -39 15 -15 12 -23 -11 -29 -18 -5 -20 -2 -15 18 5
19 2 24 -16 27 -28 4 -39 41 -11 38 36 -4 44 0 38 19 -3 11 1 25 10 34 8 9 15
22 15 30 0 7 3 17 8 21 11 12 15 -34 3 -48z m-121 -99 c0 -29 -34 -64 -45 -47
-4 6 0 19 9 29 9 10 16 23 16 29 0 7 5 12 10 12 6 0 10 -11 10 -23z m10147 1
c-3 -8 -6 -5 -6 6 -1 11 2 17 5 13 3 -3 4 -12 1 -19z m110 -23 c23 -24 11 -26
-17 -5 -14 11 -19 20 -12 20 7 0 20 -7 29 -15z m-56 -8 c-1 -12 -15 -9 -19 4
-3 6 1 10 8 8 6 -3 11 -8 11 -12z m859 -26 c0 -6 -4 -13 -10 -16 -5 -3 -10 1
-10 9 0 9 5 16 10 16 6 0 10 -4 10 -9z m-11030 -17 c0 -10 -6 -14 -14 -11 -9
4 -16 -3 -20 -18 -6 -24 -34 -41 -47 -28 -15 15 16 58 46 64 17 4 31 7 33 8 1
0 2 -6 2 -15z m420 -64 c0 -4 -11 -5 -25 -2 -14 2 -25 10 -25 18 0 11 5 11 25
2 14 -6 25 -14 25 -18z m-425 -40 c3 -5 -1 -10 -10 -10 -9 0 -13 5 -10 10 3 6
8 10 10 10 2 0 7 -4 10 -10z m1322 -12 c-3 -8 -6 -5 -6 6 -1 11 2 17 5 13 3
-3 4 -12 1 -19z m-1430 -24 c14 -13 14 -17 2 -25 -25 -15 -39 -10 -39 16 0 29
14 32 37 9z m1541 0 c29 -8 29 -34 -1 -34 -23 0 -47 17 -47 32 0 9 16 10 48 2z
m-1248 -33 c0 -5 -6 -14 -14 -20 -12 -10 -13 -8 -9 8 5 21 23 30 23 12z m-50
-61 c-6 -11 -13 -20 -15 -20 -3 0 -5 9 -5 20 0 11 7 20 15 20 13 0 14 -4 5
-20z m10315 -10 c-3 -5 -10 -10 -16 -10 -5 0 -9 5 -9 10 0 6 7 10 16 10 8 0
12 -4 9 -10z m821 -15 c9 -8 11 -15 6 -15 -5 0 -15 7 -22 15 -7 8 -9 15 -6 15
4 0 14 -7 22 -15z m-246 -45 c0 -13 -20 -13 -40 0 -12 8 -9 10 13 10 15 0 27
-4 27 -10z m100 6 c0 -8 -48 -12 -66 -5 -13 5 -7 8 24 8 23 1 42 -1 42 -3z
m-10296 -21 c-4 -8 -8 -15 -10 -15 -2 0 -4 7 -4 15 0 8 4 15 10 15 5 0 7 -7 4
-15z m9536 -49 c0 -2 3 -11 6 -20 4 -11 1 -16 -11 -16 -24 0 -56 20 -50 31 6
9 55 13 55 5z m-10550 -20 c0 -3 -4 -8 -10 -11 -5 -3 -10 -1 -10 4 0 6 5 11
10 11 6 0 10 -2 10 -4z m11205 -6 c3 -5 2 -10 -4 -10 -5 0 -13 5 -16 10 -3 6
-2 10 4 10 5 0 13 -4 16 -10z m-533 -12 c8 -23 -24 -47 -54 -41 -22 4 -34 0
-52 -20 -13 -14 -27 -23 -30 -20 -11 12 -6 22 14 28 16 5 18 10 11 23 -8 15
-2 19 42 28 29 7 55 12 59 13 3 0 8 -4 10 -11z m98 -58 c0 -19 -114 -37 -125
-21 -3 7 2 11 14 11 11 0 22 4 25 9 7 10 86 11 86 1z m-10480 -71 c0 -6 -4 -7
-10 -4 -5 3 -10 11 -10 16 0 6 5 7 10 4 6 -3 10 -11 10 -16z m-84 -35 c-3 -9
-6 -18 -6 -20 0 -2 -4 -4 -9 -4 -5 0 -7 9 -4 20 3 11 10 20 15 20 6 0 7 -7 4
-16z m-106 -11 c0 -2 -12 -15 -26 -28 -45 -41 -60 -29 -23 17 12 15 28 24 35
21 8 -3 14 -7 14 -10z m10500 -28 c0 -8 -4 -15 -9 -15 -13 0 -22 16 -14 24 11
11 23 6 23 -9z m808 -2 c-2 -11 -14 -19 -31 -21 -33 -4 -36 15 -4 28 33 13 39
12 35 -7z m-11218 -23 c0 -5 -4 -10 -10 -10 -5 0 -10 5 -10 10 0 6 5 10 10 10
6 0 10 -4 10 -10z m-160 -34 c0 -7 -11 -21 -25 -30 -29 -19 -35 -20 -35 -5 0
5 5 7 10 4 6 -3 10 2 10 13 0 10 3 22 7 25 11 12 33 7 33 -7z m10839 -13 c0
-11 -3 -13 -6 -6 -3 10 -8 9 -20 -2 -16 -17 -63 -20 -63 -5 0 13 37 28 68 29
15 1 22 -5 21 -16z m-109 -33 c0 -5 -4 -10 -10 -10 -5 0 -10 5 -10 10 0 6 5
10 10 10 6 0 10 -4 10 -10z m-10800 -14 c0 -11 -19 -15 -25 -6 -3 5 1 10 9 10
9 0 16 -2 16 -4z m11006 -17 c3 -6 1 -15 -7 -19 -16 -10 -52 7 -44 21 8 13 42
11 51 -2z m-10598 -46 c2 -8 -6 -13 -22 -13 -25 0 -33 10 -19 24 10 10 36 3
41 -11z m57 -3 c3 -5 1 -10 -4 -10 -6 0 -11 5 -11 10 0 6 2 10 4 10 3 0 8 -4
11 -10z m139 -26 c4 -10 1 -14 -6 -12 -15 5 -23 28 -10 28 5 0 13 -7 16 -16z
m9780 -79 c-4 -8 -10 -15 -15 -15 -5 0 -9 7 -9 15 0 8 7 15 15 15 9 0 12 -6 9
-15z m266 -65 c0 -13 -11 -13 -30 0 -12 8 -11 10 8 10 12 0 22 -4 22 -10z
m-10162 -37 c20 -5 23 -11 20 -34 -3 -16 0 -29 5 -29 6 0 8 -2 6 -5 -3 -2 -18
-1 -34 3 -22 6 -31 16 -36 40 -7 34 -2 37 39 25z m138 -39 c8 -33 -2 -70 -22
-78 -15 -6 -16 -1 -11 38 4 26 2 48 -3 51 -15 9 -2 25 15 18 9 -3 18 -16 21
-29z"/>
<path d="M8820 3770 c0 -5 5 -10 11 -10 5 0 7 5 4 10 -3 6 -8 10 -11 10 -2 0
-4 -4 -4 -10z"/>
<path d="M2895 10091 c-8 -15 3 -31 21 -31 9 0 14 7 12 17 -4 20 -24 28 -33
14z"/>
<path d="M2860 10056 c0 -3 9 -10 20 -16 11 -6 20 -8 20 -6 0 3 -9 10 -20 16
-11 6 -20 8 -20 6z"/>
<path d="M3497 9384 c-10 -10 -9 -42 2 -48 5 -3 11 0 14 7 6 16 -7 50 -16 41z"/>
<path d="M6576 8982 c-2 -4 -7 -23 -11 -43 -7 -39 10 -65 22 -32 3 10 15 25
26 35 18 14 19 19 8 32 -14 17 -37 21 -45 8z"/>
<path d="M6298 8583 c0 -5 -1 -15 -2 -23 -1 -8 -14 -17 -31 -20 -17 -3 -30
-11 -30 -19 0 -22 22 -24 43 -3 10 10 23 17 29 15 14 -5 36 34 28 47 -7 12
-34 13 -37 3z"/>
<path d="M5030 7651 c0 -6 4 -13 10 -16 6 -3 7 1 4 9 -7 18 -14 21 -14 7z"/>
<path d="M5000 7610 c0 -26 43 -45 49 -22 3 15 -23 42 -41 42 -4 0 -8 -9 -8
-20z"/>
<path d="M5172 7358 c7 -19 38 -22 38 -4 0 10 -9 16 -21 16 -12 0 -19 -5 -17
-12z"/>
<path d="M5250 7286 c0 -7 7 -19 15 -26 13 -11 15 -8 15 14 0 16 -5 26 -15 26
-8 0 -15 -6 -15 -14z"/>
<path d="M5250 7134 c0 -9 5 -14 12 -12 18 6 21 28 4 28 -9 0 -16 -7 -16 -16z"/>
<path d="M7362 4978 c-8 -8 -9 -15 -1 -25 16 -19 29 -16 29 6 0 25 -13 34 -28
19z"/>
<path d="M7550 4837 c0 -9 -3 -22 -6 -31 -7 -19 45 -47 74 -39 29 7 28 21 -2
29 -15 3 -26 14 -28 27 -3 25 -38 37 -38 14z"/>
<path d="M3468 4812 c-24 -3 -56 -28 -47 -36 10 -9 68 8 74 21 7 19 7 19 -27
15z"/>
<path d="M7650 4760 c0 -5 -7 -10 -16 -10 -12 0 -14 -7 -9 -32 4 -18 11 -37
15 -42 13 -13 30 3 28 27 -1 12 2 32 6 45 6 16 3 22 -8 22 -9 0 -16 -4 -16
-10z"/>
<path d="M7680 4676 c0 -9 30 -14 35 -6 4 6 -3 10 -14 10 -12 0 -21 -2 -21 -4z"/>
<path d="M3354 4399 c-9 -15 10 -32 32 -27 29 5 29 33 0 36 -14 1 -28 -3 -32
-9z"/>
<path d="M8020 4210 c0 -10 8 -24 18 -29 9 -6 13 -11 7 -11 -10 0 -1 -6 65
-43 27 -16 34 -16 41 -5 14 21 11 26 -21 33 -16 4 -30 11 -30 16 0 16 -48 59
-65 59 -8 0 -15 -9 -15 -20z"/>
<path d="M3100 4096 c-16 -25 -30 -47 -30 -49 0 -2 10 -2 23 0 14 3 27 16 34
34 6 16 18 29 27 29 10 0 13 6 10 15 -10 26 -32 16 -64 -29z"/>
<path d="M8117 4034 c-11 -11 3 -24 18 -18 8 4 12 10 9 15 -6 11 -18 12 -27 3z"/>
<path d="M2947 3883 c-4 -3 -7 -13 -7 -20 0 -10 5 -11 17 -4 13 7 23 5 36 -7
16 -14 19 -14 27 -2 19 29 11 40 -28 40 -21 0 -42 -3 -45 -7z"/>
<path d="M8380 3880 c0 -5 7 -10 15 -10 8 0 15 5 15 10 0 6 -7 10 -15 10 -8 0
-15 -4 -15 -10z"/>
<path d="M8463 3698 c3 -22 9 -32 18 -29 8 2 22 6 32 8 11 4 17 0 17 -12 0
-11 -5 -15 -14 -12 -19 7 -50 -28 -43 -48 4 -8 15 -15 25 -15 36 0 99 -39 106
-65 4 -14 15 -34 26 -45 20 -20 20 -20 -2 -20 l-22 0 20 -21 c12 -12 36 -21
55 -22 30 -2 34 1 34 23 0 18 -6 26 -22 28 -14 2 -25 12 -29 27 -3 12 -17 32
-30 44 -29 25 -94 124 -94 143 0 14 -49 48 -70 48 -7 0 -10 -12 -7 -32z"/>
<path d="M8725 3480 c-3 -5 1 -10 9 -10 9 0 16 5 16 10 0 6 -4 10 -9 10 -6 0
-13 -4 -16 -10z"/>
<path d="M8716 3391 c-17 -6 -16 -9 10 -25 16 -10 41 -32 55 -49 l27 -31 13
42 c7 26 9 46 3 51 -13 13 -86 21 -108 12z"/>
<path d="M9250 3333 c0 -11 5 -24 12 -31 10 -10 7 -15 -9 -27 -22 -16 -22 -45
1 -45 6 0 22 -9 36 -20 45 -35 66 -17 38 33 -7 12 -13 29 -14 37 -1 8 -2 22
-3 31 0 9 -9 19 -18 23 -10 3 -24 9 -30 12 -8 3 -13 -2 -13 -13z"/>
<path d="M9184 3329 c-8 -14 31 -53 45 -45 7 5 7 13 -1 26 -15 24 -35 33 -44
19z"/>
<path d="M8980 3080 c0 -5 5 -10 11 -10 5 0 7 5 4 10 -3 6 -8 10 -11 10 -2 0
-4 -4 -4 -10z"/>
<path d="M9028 3074 c19 -9 14 -23 -7 -19 -14 3 -18 -1 -14 -15 8 -31 30 -31
65 0 28 25 30 30 13 30 -11 0 -31 3 -45 5 -14 3 -19 3 -12 -1z"/>
<path d="M9545 2948 c-7 -17 32 -108 45 -108 6 0 10 7 10 15 0 8 7 15 15 15 8
0 15 5 15 11 0 6 -7 8 -15 5 -11 -4 -20 3 -28 22 -18 40 -36 57 -42 40z"/>
<path d="M9307 2759 c-26 -15 -21 -37 13 -54 17 -9 28 -20 25 -25 -7 -11 12
-23 24 -15 6 3 4 17 -5 33 -7 15 -14 32 -14 38 0 21 -24 33 -43 23z"/>
<path d="M9742 2671 c4 -13 18 -16 19 -4 0 4 -5 9 -11 12 -7 2 -11 -2 -8 -8z"/>
<path d="M9820 2601 c0 -15 6 -21 21 -21 14 0 19 5 17 17 -5 26 -38 29 -38 4z"/>
<path d="M9920 2490 c0 -5 7 -10 16 -10 8 0 12 5 9 10 -3 6 -10 10 -16 10 -5
0 -9 -4 -9 -10z"/>
<path d="M9608 2443 c7 -3 16 -2 19 1 4 3 -2 6 -13 5 -11 0 -14 -3 -6 -6z"/>
<path d="M9633 2432 c-61 -6 -44 -59 25 -80 22 -7 43 -19 46 -27 8 -22 26 -18
26 5 0 11 6 20 13 20 7 1 5 6 -5 14 -10 7 -18 18 -18 24 0 5 -7 13 -16 16 -22
9 -31 7 -16 -3 11 -7 11 -9 -1 -14 -12 -4 -14 0 -11 18 5 28 -1 32 -43 27z"/>
<path d="M10030 2424 c-10 -11 -10 -17 0 -29 19 -23 40 -18 40 9 0 29 -24 41
-40 20z"/>
<path d="M10647 2304 c3 -8 12 -14 19 -14 8 0 17 -7 20 -15 5 -13 8 -13 21 1
19 18 14 24 -30 34 -28 6 -34 5 -30 -6z"/>
<path d="M10267 2249 c-24 -14 -8 -39 34 -53 32 -10 34 -14 31 -48 -4 -43 8
-48 38 -18 12 12 25 18 30 15 6 -4 10 1 10 9 0 8 -4 18 -10 21 -15 9 -12 45 5
51 32 13 12 24 -37 22 -29 -1 -60 1 -68 5 -8 3 -23 2 -33 -4z m96 -24 c-3 -9
-8 -14 -10 -11 -3 3 -2 9 2 15 9 16 15 13 8 -4z"/>
<path d="M10736 2211 c-3 -5 1 -11 9 -15 15 -6 29 7 18 18 -9 9 -21 8 -27 -3z"/>
<path d="M10259 2161 c12 -16 19 -35 16 -43 -5 -16 41 -52 55 -43 6 4 2 18
-10 36 -12 16 -19 33 -15 38 6 11 -33 41 -53 41 -10 0 -7 -8 7 -29z"/>
<path d="M9873 2140 c0 -38 9 -51 22 -30 13 22 54 10 70 -19 8 -16 20 -31 27
-33 9 -3 13 -24 12 -63 -2 -50 0 -56 11 -42 14 20 70 23 82 4 4 -7 22 -23 40
-35 17 -12 33 -32 35 -45 4 -31 22 -27 26 6 4 35 -11 54 -48 62 -17 4 -30 14
-33 27 -4 15 -11 19 -26 15 -16 -4 -22 2 -32 30 -6 19 -16 36 -23 39 -6 2 -23
25 -36 49 -21 39 -29 45 -56 45 -17 0 -37 7 -44 15 -20 24 -27 18 -27 -25z"/>
<path d="M10840 2149 c0 -15 18 -19 41 -10 22 8 22 8 -9 13 -18 2 -32 1 -32
-3z"/>
<path d="M1455 2045 c-33 -29 -37 -35 -22 -41 19 -7 47 11 47 31 0 6 10 11 22
11 14 -1 24 6 26 17 6 28 -29 20 -73 -18z"/>
<path d="M9930 2050 c0 -5 5 -10 11 -10 5 0 7 5 4 10 -3 6 -8 10 -11 10 -2 0
-4 -4 -4 -10z"/>
<path d="M11031 2041 c-10 -7 -10 -10 -1 -16 6 -4 16 -3 22 3 13 13 -4 23 -21
13z"/>
<path d="M11005 1980 c3 -5 8 -10 11 -10 2 0 4 5 4 10 0 6 -5 10 -11 10 -5 0
-7 -4 -4 -10z"/>
<path d="M10545 1950 c-4 -6 1 -27 10 -46 13 -28 21 -34 48 -34 18 0 37 4 43
8 13 8 12 58 -2 54 -5 -2 -8 -9 -6 -17 3 -16 -36 -31 -48 -18 -5 4 -10 19 -12
32 -3 27 -22 38 -33 21z"/>
<path d="M10975 1918 c11 -35 8 -89 -7 -103 -9 -9 -21 33 -13 45 3 5 0 10 -9
10 -8 0 -31 -19 -51 -42 -32 -38 -34 -43 -18 -50 27 -10 71 -9 78 2 4 7 13 7
26 0 25 -14 25 -40 0 -33 -19 5 -51 -29 -51 -55 0 -16 49 -82 61 -82 5 0 9 9
9 20 0 30 27 24 60 -11 15 -17 33 -28 39 -25 13 8 51 -15 51 -30 0 -6 7 -17
15 -24 12 -10 18 -10 31 1 15 12 14 15 -7 32 -18 15 -24 29 -24 60 0 37 -3 41
-32 49 -25 7 -34 16 -46 53 l-16 45 35 0 c34 0 35 1 29 28 -3 16 -1 41 4 55 8
22 8 27 -4 27 -18 0 -38 -37 -32 -60 4 -14 -4 -19 -40 -24 -25 -3 -49 -4 -54
-1 -12 8 12 55 28 55 17 0 17 27 0 37 -8 4 -16 16 -20 26 -3 9 -16 17 -28 17
-18 0 -20 -4 -14 -22z m93 -236 c2 -12 0 -22 -5 -22 -17 1 -40 25 -35 38 7 21
37 9 40 -16z m-81 2 c-3 -3 -12 -4 -19 -1 -8 3 -5 6 6 6 11 1 17 -2 13 -5z
m173 -29 c0 -19 -36 -39 -45 -25 -11 18 3 40 25 40 11 0 20 -7 20 -15z"/>
<path d="M1375 1919 c-8 -12 6 -39 20 -39 7 0 20 11 28 23 15 23 14 24 -14 24
-17 0 -32 -4 -34 -8z"/>
<path d="M10070 1892 c0 -10 21 -32 32 -32 16 0 8 19 -12 30 -11 6 -20 7 -20
2z"/>
<path d="M10863 1884 c-39 -20 -42 -31 -9 -40 32 -8 44 0 44 31 0 14 -1 25 -2
25 0 0 -16 -8 -33 -16z"/>
<path d="M10665 1860 c-3 -5 -1 -10 6 -10 9 0 9 -3 0 -14 -8 -9 -26 -13 -54
-10 -23 2 -36 1 -29 -2 6 -3 12 -12 12 -19 0 -19 38 -29 56 -15 9 8 29 10 54
6 47 -7 52 6 19 48 -21 26 -53 34 -64 16z"/>
<path d="M10234 1835 c-12 -16 -30 -26 -51 -27 -56 -4 -37 -28 26 -35 24 -3
44 -13 61 -33 31 -36 52 -39 47 -6 -4 31 -25 56 -47 56 -10 0 -20 9 -23 20 -3
13 0 20 9 20 8 0 14 7 14 15 0 22 -14 18 -36 -10z"/>
<path d="M11147 1783 c-11 -10 -8 -51 3 -58 12 -7 33 42 24 56 -6 11 -18 12
-27 2z"/>
<path d="M10640 1755 c0 -9 9 -19 19 -22 12 -3 23 -17 26 -34 7 -31 51 -79 72
-79 15 0 32 31 26 48 -3 6 -20 12 -39 12 -27 0 -34 4 -34 20 0 11 5 20 12 20
19 0 -28 39 -56 46 -20 5 -26 2 -26 -11z"/>
<path d="M10780 1742 c0 -12 4 -23 8 -26 23 -14 142 -2 142 15 0 14 -16 19
-84 25 -62 6 -66 5 -66 -14z"/>
<path d="M11276 1752 c-8 -13 11 -35 23 -28 6 4 11 11 11 16 0 11 -28 21 -34
12z"/>
<path d="M12270 1736 c0 -2 7 -7 16 -10 8 -3 12 -2 9 4 -6 10 -25 14 -25 6z"/>
<path d="M11226 1676 c3 -9 12 -16 20 -16 17 0 18 -17 2 -23 -9 -3 -10 -8 -3
-16 8 -8 17 -7 33 5 28 20 28 41 0 49 -58 17 -58 17 -52 1z"/>
<path d="M10330 1666 c0 -2 7 -6 15 -10 8 -3 15 -1 15 4 0 6 -7 10 -15 10 -8
0 -15 -2 -15 -4z"/>
<path d="M10850 1655 c0 -8 7 -15 15 -15 8 0 15 4 15 9 0 5 -7 11 -15 15 -9 3
-15 0 -15 -9z"/>
<path d="M10587 1654 c-4 -4 -30 -7 -57 -5 -54 3 -70 -14 -22 -25 50 -10 71
-23 77 -46 3 -13 19 -32 35 -43 16 -11 26 -23 23 -28 -6 -10 26 -47 41 -47 6
0 16 -10 21 -22 6 -13 24 -32 42 -43 18 -11 32 -25 33 -31 0 -11 58 -64 71
-64 3 0 12 -14 19 -31 21 -49 48 -69 77 -58 13 5 34 9 45 9 21 0 21 0 2 -21
-13 -15 -26 -19 -46 -15 -15 3 -30 1 -33 -4 -3 -6 5 -10 18 -10 15 0 31 -10
41 -25 12 -19 25 -25 51 -25 24 0 35 5 35 15 0 8 4 15 9 15 18 0 4 53 -18 69
-12 9 -25 30 -30 46 -6 26 -12 30 -42 30 -27 0 -33 4 -31 18 2 9 -2 17 -8 17
-5 0 -10 6 -10 13 0 8 -11 20 -25 27 -28 15 -45 63 -38 104 4 21 2 26 -16 26
-12 0 -21 -6 -21 -15 0 -21 -17 -19 -30 4 -14 28 -13 41 6 41 9 0 14 6 12 13
-3 7 -31 14 -71 18 -37 3 -70 8 -73 12 -3 3 -7 23 -8 44 -3 36 -5 38 -37 41
-19 2 -38 0 -42 -4z m128 -135 c9 -13 7 -15 -27 -23 -22 -5 -28 -3 -28 10 0
10 5 14 15 10 8 -3 15 -1 15 4 0 13 17 13 25 -1z m115 -139 c0 -5 -2 -10 -4
-10 -3 0 -8 5 -11 10 -3 6 -1 10 4 10 6 0 11 -4 11 -10z m191 -215 c-1 -15
-24 -12 -29 3 -3 9 2 13 12 10 10 -1 17 -7 17 -13z"/>
<path d="M10885 1640 c-9 -15 -1 -23 21 -18 15 3 16 4 1 16 -11 9 -17 10 -22
2z"/>
<path d="M10820 1612 c0 -12 7 -25 15 -29 27 -10 30 6 7 30 l-22 21 0 -22z"/>
<path d="M10420 1566 c19 -27 39 -46 50 -46 11 0 20 -8 22 -19 3 -19 3 -19 27
0 l23 19 -26 0 c-20 0 -26 5 -26 21 0 11 -4 17 -10 14 -5 -3 -10 3 -10 13 0
13 -9 22 -24 26 -13 3 -32 9 -41 12 -11 5 -6 -8 15 -40z"/>
<path d="M10920 1596 c0 -9 5 -16 10 -16 6 0 10 4 10 9 0 6 -4 13 -10 16 -5 3
-10 -1 -10 -9z"/>
<path d="M10695 1590 c3 -5 13 -10 21 -10 8 0 14 5 14 10 0 6 -9 10 -21 10
-11 0 -17 -4 -14 -10z"/>
<path d="M11007 1594 c-11 -12 3 -24 29 -24 16 0 24 5 22 13 -5 13 -40 22 -51
11z"/>
<path d="M10912 1530 c7 -11 18 -20 25 -20 18 0 16 -27 -2 -34 -20 -7 -19 -36
0 -36 8 0 24 -5 35 -12 19 -12 43 -3 25 10 -14 10 -35 49 -35 66 0 14 -36 46
-52 46 -5 0 -3 -9 4 -20z"/>
<path d="M11229 1537 c-8 -7 -25 -17 -39 -20 -36 -10 -54 -23 -46 -36 4 -6 16
-11 27 -11 11 0 27 -7 35 -15 9 -8 24 -15 33 -15 10 0 24 -7 31 -15 7 -8 24
-15 39 -15 14 0 35 -7 45 -15 17 -13 22 -13 42 0 31 20 51 19 63 -2 18 -33 22
-5 10 58 -12 60 -13 62 -27 41 -8 -12 -24 -22 -36 -23 -19 -1 -19 -2 3 -8 14
-4 26 -12 29 -19 3 -10 -15 -12 -76 -8 -67 4 -84 8 -106 29 -34 32 -34 57 0
57 16 0 24 5 22 13 -7 18 -33 20 -49 4z"/>
<path d="M11000 1495 c0 -8 9 -15 20 -15 11 0 20 7 20 15 0 8 -9 15 -20 15
-11 0 -20 -7 -20 -15z"/>
<path d="M11312 1482 c-8 -6 3 -9 30 -10 31 -1 39 1 28 8 -18 12 -41 12 -58 2z"/>
<path d="M11046 1465 c-6 -16 2 -45 13 -45 13 0 42 41 36 50 -9 15 -42 12 -49
-5z"/>
<path d="M11510 1470 c0 -5 5 -10 10 -10 6 0 10 5 10 10 0 6 -4 10 -10 10 -5
0 -10 -4 -10 -10z"/>
<path d="M10565 1449 c-4 -6 2 -13 13 -16 12 -3 22 -16 26 -33 6 -31 41 -49
59 -31 9 9 6 13 -11 17 -12 4 -23 10 -23 15 -2 13 -5 22 -13 42 -9 19 -41 23
-51 6z"/>
<path d="M11150 1440 c0 -5 5 -10 10 -10 6 0 10 5 10 10 0 6 -4 10 -10 10 -5
0 -10 -4 -10 -10z"/>
<path d="M11621 1404 c0 -11 3 -14 6 -6 3 7 2 16 -1 19 -3 4 -6 -2 -5 -13z"/>
<path d="M10982 1380 c-27 -34 -21 -39 44 -39 56 1 106 31 86 51 -9 9 -15 8
-24 -4 -7 -8 -23 -18 -36 -21 -18 -4 -25 0 -32 19 -5 13 -11 24 -12 23 -2 0
-13 -13 -26 -29z"/>
<path d="M11170 1373 c0 -7 7 -13 15 -13 9 0 15 -9 15 -25 0 -20 -5 -25 -27
-26 -24 -2 -25 -2 -5 -6 12 -2 22 -9 22 -15 0 -6 8 -4 18 5 10 10 28 17 40 17
27 0 28 11 2 28 -11 6 -17 18 -14 26 4 10 -5 15 -30 18 -25 3 -36 0 -36 -9z"/>
<path d="M11299 1365 c-4 -58 -4 -60 24 -63 22 -3 30 1 34 17 9 33 20 16 16
-26 -2 -37 -1 -38 30 -39 17 -1 44 -5 60 -9 24 -7 27 -5 27 18 0 14 -7 27 -15
31 -8 3 -15 10 -15 16 0 7 6 8 19 0 11 -6 22 -6 25 -1 8 12 66 20 72 9 3 -4
22 -8 42 -7 l37 1 -39 9 c-22 5 -44 13 -50 18 -6 4 -28 8 -49 8 -21 1 -52 7
-68 13 -18 8 -47 10 -74 7 -25 -4 -47 -2 -50 3 -9 15 -25 12 -26 -5z"/>
<path d="M10670 1328 c0 -20 1 -21 20 -3 11 10 20 20 20 22 0 1 -9 3 -20 3
-14 0 -20 -7 -20 -22z"/>
<path d="M10690 1290 c0 -5 9 -10 20 -10 11 0 20 5 20 10 0 6 -9 10 -20 10
-11 0 -20 -4 -20 -10z"/>
<path d="M11636 1259 c-19 -28 -15 -33 19 -25 17 4 25 12 23 23 -5 25 -25 26
-42 2z"/>
<path d="M11087 1264 c-15 -15 -6 -24 24 -24 20 0 29 4 27 13 -5 14 -40 21
-51 11z"/>
<path d="M11300 1254 c1 -12 85 -54 107 -54 20 0 73 -48 73 -66 0 -6 -6 -14
-14 -17 -7 -3 -16 -14 -18 -25 -5 -18 -2 -18 40 -9 30 6 52 6 68 -2 23 -10 84
-5 84 8 0 3 3 16 6 29 5 19 2 22 -21 22 -21 0 -25 -4 -20 -19 10 -32 -13 -34
-50 -4 -40 32 -43 41 -15 51 13 5 17 11 10 21 -7 13 -11 13 -27 1 -15 -12 -16
-12 -5 0 18 21 15 40 -8 40 -11 0 -20 -7 -20 -15 0 -16 -25 -21 -34 -6 -4 5
-25 12 -49 16 -23 4 -44 11 -47 15 -8 12 -60 24 -60 14z"/>
<path d="M11550 1234 c0 -8 5 -12 10 -9 6 3 10 10 10 16 0 5 -4 9 -10 9 -5 0
-10 -7 -10 -16z"/>
<path d="M11182 1218 c5 -15 28 -18 29 -3 0 6 -7 12 -17 13 -10 3 -15 -1 -12
-10z"/>
<path d="M10795 1210 c-7 -12 2 -30 16 -30 5 0 9 9 9 20 0 21 -15 27 -25 10z"/>
<path d="M11155 1181 c-8 -15 3 -31 21 -31 9 0 14 7 12 17 -4 20 -24 28 -33
14z"/>
<path d="M11320 1180 c0 -5 5 -10 10 -10 6 0 10 5 10 10 0 6 -4 10 -10 10 -5
0 -10 -4 -10 -10z"/>
<path d="M11360 1156 c0 -8 7 -16 15 -20 10 -4 15 1 15 14 0 11 -7 20 -15 20
-8 0 -15 -6 -15 -14z"/>
<path d="M11187 1133 c-10 -10 13 -33 33 -33 12 0 21 -10 25 -30 5 -22 12 -29
28 -29 12 0 33 -2 47 -5 14 -4 18 -3 10 0 -28 13 -53 44 -55 66 -1 16 -8 23
-22 23 -12 0 -25 3 -29 8 -9 9 -28 9 -37 0z"/>
<path d="M11083 1113 c-24 -9 -13 -23 18 -23 26 0 30 -3 24 -17 -7 -18 -8 -22
-2 -58 5 -33 15 -43 50 -47 27 -3 33 0 30 12 -2 8 6 26 18 38 l21 24 -23 -4
c-16 -2 -24 -9 -23 -21 2 -21 -29 -23 -45 -3 -8 10 -10 30 -6 60 7 46 7 46
-21 45 -16 0 -35 -3 -41 -6z"/>
<path d="M11374 1109 c-3 -6 0 -15 7 -20 8 -5 14 -20 14 -35 0 -18 7 -29 22
-35 23 -8 23 -8 8 27 -13 31 -13 36 2 41 14 6 14 8 -3 20 -22 16 -40 17 -50 2z"/>
<path d="M11574 1043 c-3 -10 -10 -26 -15 -35 -14 -26 -12 -28 26 -28 28 0 35
4 35 20 0 13 7 20 19 20 16 0 31 18 31 36 0 2 -20 4 -45 4 -35 0 -47 -4 -51
-17z"/>
<path d="M10960 1026 c25 -15 45 -12 35 5 -4 5 -18 9 -33 9 l-27 -1 25 -13z"/>
<path d="M11508 1029 c-25 -14 -22 -29 5 -29 29 0 37 7 30 26 -6 16 -12 17
-35 3z"/>
<path d="M11315 1000 c3 -5 8 -10 11 -10 2 0 4 5 4 10 0 6 -5 10 -11 10 -5 0
-7 -4 -4 -10z"/>
<path d="M11361 978 c6 -11 8 -31 5 -44 -5 -20 -11 -23 -31 -19 -14 3 -36 7
-50 10 -21 5 -25 2 -25 -20 0 -14 -4 -25 -10 -25 -5 0 -10 -4 -10 -10 0 -5 13
-10 29 -10 32 0 56 -22 47 -45 -8 -22 -88 -21 -84 1 5 29 -16 25 -34 -7 -14
-23 -23 -29 -38 -24 -12 4 -20 2 -20 -4 0 -8 30 -10 90 -8 82 3 92 6 114 30
19 21 34 27 66 27 30 0 42 5 47 18 4 9 13 22 22 28 12 10 10 14 -13 29 -22 15
-26 23 -21 45 5 24 2 29 -22 35 -15 4 -38 9 -50 10 -20 3 -21 1 -12 -17z m47
-95 c-2 -13 -15 -19 -43 -21 -39 -3 -39 -3 -21 17 24 26 69 29 64 4z"/>
<path d="M11040 957 c0 -8 7 -21 16 -28 14 -11 15 -10 12 11 -3 26 -28 41 -28
17z"/>
<path d="M12400 789 c0 -5 5 -7 10 -4 6 3 10 8 10 11 0 2 -4 4 -10 4 -5 0 -10
-5 -10 -11z"/>
<path d="M12460 779 c-9 -16 -8 -24 5 -39 12 -13 13 -20 5 -25 -8 -5 -9 -10
-1 -18 16 -16 37 7 39 47 2 26 -2 38 -17 46 -17 8 -22 6 -31 -11z"/>
<path d="M12680 790 c0 -5 5 -10 11 -10 5 0 7 5 4 10 -3 6 -8 10 -11 10 -2 0
-4 -4 -4 -10z"/>
<path d="M11231 741 c-9 -6 -10 -11 -2 -15 15 -10 53 3 46 15 -8 11 -26 11
-44 0z"/>
<path d="M11598 723 c-28 -7 -22 -40 8 -46 27 -5 98 23 76 31 -7 2 -24 -4 -39
-13 -26 -17 -26 -17 -21 9 3 14 2 25 -1 25 -3 -1 -14 -3 -23 -6z"/>
<path d="M11260 702 c0 -6 12 -12 28 -14 19 -2 27 -9 27 -23 0 -11 6 -20 14
-20 20 0 24 18 9 38 -15 20 -78 35 -78 19z"/>
<path d="M12150 675 c-10 -12 -10 -18 0 -30 15 -18 30 -11 30 15 0 26 -15 33
-30 15z"/>
<path d="M12618 674 c-4 -3 -27 -6 -53 -6 -37 0 -46 -3 -43 -16 6 -32 135 -18
146 16 4 12 -39 18 -50 6z"/>
<path d="M1637 663 c-11 -10 -8 -63 3 -63 10 0 30 41 30 61 0 10 -23 12 -33 2z"/>
<path d="M12412 633 c2 -15 -6 -19 -45 -21 -39 -3 -48 -6 -45 -20 4 -21 56
-19 105 4 29 13 31 17 20 34 -15 25 -39 26 -35 3z"/>
<path d="M11275 620 c-3 -5 1 -10 9 -10 8 0 18 5 21 10 3 6 -1 10 -9 10 -8 0
-18 -4 -21 -10z"/>
<path d="M11885 620 l-30 -7 26 -10 c34 -15 60 -57 57 -91 -2 -19 2 -27 12
-27 22 0 14 64 -11 91 -12 12 -17 28 -13 37 7 18 5 18 -41 7z"/>
<path d="M12697 623 c-14 -13 -6 -24 15 -21 27 4 36 28 11 28 -11 0 -23 -3
-26 -7z"/>
<path d="M12450 570 c0 -5 10 -10 23 -10 18 0 19 2 7 10 -19 13 -30 13 -30 0z"/>
<path d="M12672 544 c4 -21 22 -23 26 -1 2 10 -3 17 -13 17 -10 0 -15 -6 -13
-16z"/>
<path d="M12289 525 c-15 -8 -29 -21 -32 -29 -5 -12 2 -14 31 -10 73 10 83 14
80 32 -4 22 -45 26 -79 7z"/>
<path d="M12740 525 c0 -8 -7 -15 -15 -15 -8 0 -15 -4 -15 -10 0 -5 7 -10 15
-10 8 0 15 -6 15 -14 0 -7 10 -16 21 -19 19 -5 21 -3 15 25 -3 17 -6 37 -6 44
0 8 -7 14 -15 14 -8 0 -15 -7 -15 -15z"/>
<path d="M12095 510 c-4 -7 -19 -9 -36 -5 -35 8 -40 -11 -6 -26 27 -12 81 4
75 23 -6 17 -25 21 -33 8z"/>
<path d="M12625 470 c-17 -19 -17 -20 0 -27 29 -11 98 -9 102 3 2 7 -7 9 -25
6 -23 -3 -30 1 -35 17 -7 26 -19 27 -42 1z"/>
<path d="M12130 464 c0 -7 10 -14 23 -16 24 -3 26 -29 6 -80 -15 -38 -30 -35
-22 3 5 25 3 31 -8 27 -8 -2 -15 -21 -17 -41 -3 -36 -2 -37 37 -43 31 -5 41
-11 41 -26 0 -26 -26 -33 -72 -21 -43 12 -44 10 -26 -51 13 -48 27 -68 39 -60
13 7 11 -10 -2 -23 -14 -14 16 -63 38 -63 8 0 11 -5 8 -10 -3 -6 -2 -10 3 -10
16 0 22 13 11 27 -9 10 -8 13 5 13 9 0 16 -7 16 -15 0 -8 9 -15 19 -15 11 0
23 -5 26 -10 8 -13 35 -13 35 0 0 6 -11 15 -24 20 -25 9 -39 49 -25 72 12 18
11 58 -1 58 -18 0 -11 39 9 50 28 15 98 -15 81 -35 -13 -16 -5 -35 14 -35 7 0
24 9 37 20 20 18 22 24 10 42 -12 20 -11 20 22 14 36 -7 67 0 67 15 0 5 -25 9
-55 9 -48 0 -55 2 -55 20 0 11 -6 20 -13 20 -7 0 -17 20 -23 45 -11 48 -4 68
26 77 8 3 -20 3 -62 0 -74 -4 -78 -4 -78 16 0 19 -6 21 -45 20 -30 0 -45 -5
-45 -14z m160 -109 c0 -5 -11 -15 -24 -21 -19 -9 -25 -8 -34 7 -12 19 -6 24
33 24 14 0 25 -4 25 -10z m47 -52 c-4 -3 1 -12 10 -19 15 -11 14 -11 -10 -7
-29 6 -38 33 -10 33 9 0 13 -3 10 -7z"/>
<path d="M12820 466 c0 -14 -44 -77 -81 -114 -26 -26 -20 -37 16 -28 18 5 25
13 25 31 0 26 33 55 62 55 11 0 18 7 18 19 0 11 3 26 6 35 5 12 0 16 -20 16
-15 0 -26 -6 -26 -14z"/>
<path d="M11965 459 c-8 -13 -6 -15 23 -23 24 -8 29 3 10 22 -15 15 -25 15
-33 1z"/>
<path d="M12423 456 c-25 -12 -31 -36 -10 -36 15 0 49 38 39 43 -4 2 -17 -1
-29 -7z"/>
<path d="M12106 441 c-4 -7 -5 -15 -2 -18 9 -9 19 4 14 18 -4 11 -6 11 -12 0z"/>
<path d="M12568 371 c-44 -15 -60 -33 -40 -45 4 -2 23 3 42 11 19 9 41 17 48
19 30 6 43 14 37 24 -8 13 -31 11 -87 -9z"/>
<path d="M12010 342 c-35 -5 -44 -17 -31 -41 16 -28 87 -32 76 -3 -4 9 -8 22
-9 29 -3 17 -8 19 -36 15z"/>
<path d="M12510 280 c0 -5 5 -10 10 -10 6 0 10 5 10 10 0 6 -4 10 -10 10 -5 0
-10 -4 -10 -10z"/>
<path d="M12376 161 c-3 -5 1 -11 9 -15 8 -3 17 -1 21 5 3 5 14 7 25 4 11 -4
19 -2 19 4 0 13 -67 15 -74 2z"/>
<path d="M12475 161 c-3 -6 -1 -11 4 -11 6 0 11 -4 11 -10 0 -5 -8 -10 -19
-10 -10 0 -24 -7 -31 -16 -9 -10 -26 -14 -49 -12 -30 3 -36 0 -36 -17 0 -16 6
-19 30 -17 17 2 35 8 41 13 12 10 54 1 54 -12 0 -5 -4 -9 -10 -9 -5 0 -10 -4
-10 -10 0 -5 5 -10 10 -10 6 0 30 -9 55 -21 54 -25 77 -22 89 14 13 37 -18 81
-62 85 -23 2 -32 9 -34 25 -3 23 -32 35 -43 18z"/>
</g>
</svg>
