<?xml version="1.0" encoding="UTF-8"?>
<!DOCTYPE svg PUBLIC "-//W3C//DTD SVG 1.1//EN" "http://www.w3.org/Graphics/SVG/1.1/DTD/svg11.dtd">
<svg xmlns="http://www.w3.org/2000/svg" version="1.1" width="533px" height="248px" style="shape-rendering:geometricPrecision; text-rendering:geometricPrecision; image-rendering:optimizeQuality; fill-rule:evenodd; clip-rule:evenodd" xmlns:xlink="http://www.w3.org/1999/xlink">
<g><path style="opacity:1" fill="#f5f5f5" d="M 524.5,-0.5 C 526.167,-0.5 527.833,-0.5 529.5,-0.5C 530.323,1.98722 531.323,4.32055 532.5,6.5C 532.5,9.5 532.5,12.5 532.5,15.5C 531.883,15.6107 531.383,15.944 531,16.5C 530.5,25.8274 530.334,35.1607 530.5,44.5C 530.677,48.2343 530.344,51.9009 529.5,55.5C 528.883,55.6107 528.383,55.944 528,56.5C 527.501,61.1548 527.334,65.8215 527.5,70.5C 527.756,74.2693 527.423,77.9359 526.5,81.5C 524.087,89.8596 523.087,98.5263 523.5,107.5C 523.351,116.591 522.684,125.591 521.5,134.5C 520.71,135.609 520.21,136.942 520,138.5C 519.501,143.155 519.334,147.821 519.5,152.5C 519.5,168.167 519.5,183.833 519.5,199.5C 520.021,207.218 520.021,214.885 519.5,222.5C 519.5,223.167 519.167,223.5 518.5,223.5C 516.279,224.638 514.279,225.972 512.5,227.5C 511.167,228.833 509.833,228.833 508.5,227.5C 508.167,226.5 507.5,225.833 506.5,225.5C 505.596,224.791 505.263,223.791 505.5,222.5C 505.946,219.99 505.28,217.99 503.5,216.5C 503.5,216.167 503.5,215.833 503.5,215.5C 502.978,208.174 502.478,200.841 502,193.5C 501.023,192.226 500.189,192.226 499.5,193.5C 497.151,195.341 494.485,196.674 491.5,197.5C 483.08,197.637 474.747,196.97 466.5,195.5C 465.662,195.158 465.328,194.492 465.5,193.5C 464.415,191.413 462.749,190.08 460.5,189.5C 460.573,187.973 459.906,186.973 458.5,186.5C 458.027,185.094 457.027,184.427 455.5,184.5C 454.738,182.738 453.404,181.738 451.5,181.5C 450.167,179.833 448.833,178.167 447.5,176.5C 447.573,174.973 446.906,173.973 445.5,173.5C 445.573,171.973 444.906,170.973 443.5,170.5C 442.463,169.07 441.796,167.403 441.5,165.5C 439.414,157.646 438.414,149.646 438.5,141.5C 438.5,140.833 438.5,140.167 438.5,139.5C 440.04,137.162 440.706,134.495 440.5,131.5C 440.5,131.167 440.5,130.833 440.5,130.5C 442.074,128.898 442.741,126.898 442.5,124.5C 442.5,124.167 442.5,123.833 442.5,123.5C 444.213,122.365 444.88,120.698 444.5,118.5C 444.992,116.181 445.992,114.181 447.5,112.5C 449.914,111.089 451.581,109.089 452.5,106.5C 455.5,104.167 458.167,101.5 460.5,98.5C 462.404,98.2624 463.738,97.2624 464.5,95.5C 466.027,95.573 467.027,94.9063 467.5,93.5C 469.849,91.659 472.515,90.3257 475.5,89.5C 479.162,89.2766 482.495,88.2766 485.5,86.5C 491.5,86.5 497.5,86.5 503.5,86.5C 503.5,85.5 503.5,84.5 503.5,83.5C 503.314,77.6898 503.98,72.0231 505.5,66.5C 507.163,64.5615 507.829,62.2282 507.5,59.5C 507.5,58.8333 507.5,58.1667 507.5,57.5C 509.217,54.1552 509.884,50.4885 509.5,46.5C 509.5,46.1667 509.5,45.8333 509.5,45.5C 512.593,37.472 514.926,29.1387 516.5,20.5C 516.833,17.8333 517.167,15.1667 517.5,12.5C 517.249,9.09101 517.583,5.75768 518.5,2.5C 520.444,1.19927 522.444,0.199272 524.5,-0.5 Z M 498.5,105.5 C 498.833,105.5 499.167,105.5 499.5,105.5C 499.78,112.397 499.78,119.397 499.5,126.5C 499.5,127.167 499.5,127.833 499.5,128.5C 498.02,134.769 497.353,141.269 497.5,148C 498.01,157.829 498.343,167.663 498.5,177.5C 496.596,177.738 495.262,178.738 494.5,180.5C 490.443,180.152 486.443,179.486 482.5,178.5C 482.167,178.5 481.833,178.5 481.5,178.5C 477.569,178.069 473.903,176.736 470.5,174.5C 470.027,173.094 469.027,172.427 467.5,172.5C 467.167,171.5 466.5,170.833 465.5,170.5C 465.262,168.596 464.262,167.262 462.5,166.5C 462.5,166.167 462.5,165.833 462.5,165.5C 462.204,163.597 461.537,161.93 460.5,160.5C 459.68,154.203 459.347,147.869 459.5,141.5C 459.5,141.167 459.5,140.833 459.5,140.5C 461.009,137.322 462.342,133.989 463.5,130.5C 463.833,129.833 464.167,129.167 464.5,128.5C 465.537,127.07 466.204,125.403 466.5,123.5C 467.909,121.028 469.576,118.695 471.5,116.5C 472.906,116.027 473.573,115.027 473.5,113.5C 475.575,110.421 478.242,108.088 481.5,106.5C 487.121,105.646 492.788,105.313 498.5,105.5 Z"/></g>
<g><path style="opacity:0.929" fill="#5a5a5a" d="M 529.5,-0.5 C 530.167,-0.5 530.833,-0.5 531.5,-0.5C 531.328,0.491622 531.662,1.15829 532.5,1.5C 532.5,3.16667 532.5,4.83333 532.5,6.5C 531.323,4.32055 530.323,1.98722 529.5,-0.5 Z"/></g>
<g><path style="opacity:0.085" fill="#232222" d="M 517.5,12.5 C 517.167,15.1667 516.833,17.8333 516.5,20.5C 516.167,20.5 515.833,20.5 515.5,20.5C 515.294,17.5049 515.96,14.8383 517.5,12.5 Z"/></g>
<g><path style="opacity:0.58" fill="#70706f" d="M 532.5,15.5 C 532.5,16.1667 532.5,16.8333 532.5,17.5C 531.833,26.5 531.167,35.5 530.5,44.5C 530.334,35.1607 530.5,25.8274 531,16.5C 531.383,15.944 531.883,15.6107 532.5,15.5 Z"/></g>
<g><path style="opacity:0.69" fill="#515151" d="M 515.5,20.5 C 515.833,20.5 516.167,20.5 516.5,20.5C 514.926,29.1387 512.593,37.472 509.5,45.5C 511.342,37.1315 513.342,28.7982 515.5,20.5 Z"/></g>
<g><path style="opacity:0.627" fill="#5b5b5c" d="M 509.5,46.5 C 509.884,50.4885 509.217,54.1552 507.5,57.5C 507.646,53.6125 508.313,49.9458 509.5,46.5 Z"/></g>
<g><path style="opacity:0.749" fill="#414142" d="M 507.5,59.5 C 507.829,62.2282 507.163,64.5615 505.5,66.5C 505.41,63.8478 506.076,61.5145 507.5,59.5 Z"/></g>
<g><path style="opacity:0.365" fill="#4b4c4b" d="M 529.5,55.5 C 529.066,60.6678 528.4,65.6678 527.5,70.5C 527.334,65.8215 527.501,61.1548 528,56.5C 528.383,55.944 528.883,55.6107 529.5,55.5 Z"/></g>
<g><path style="opacity:0.737" fill="#3d3d3d" d="M 134.5,84.5 C 129.203,83.7255 123.87,83.3921 118.5,83.5C 124.081,80.8628 129.414,81.1962 134.5,84.5 Z"/></g>
<g><path style="opacity:1" fill="#f4f4f4" d="M 118.5,83.5 C 123.87,83.3921 129.203,83.7255 134.5,84.5C 134.611,85.1174 134.944,85.6174 135.5,86C 137.473,86.4955 139.473,86.6621 141.5,86.5C 142.492,86.3284 143.158,86.6618 143.5,87.5C 143.427,89.0269 144.094,90.0269 145.5,90.5C 145.935,93.8375 145.268,96.8375 143.5,99.5C 143.158,100.338 142.492,100.672 141.5,100.5C 138.477,101.678 135.477,101.678 132.5,100.5C 126.491,100.334 120.491,100.501 114.5,101C 108.712,102.541 103.045,104.374 97.5,106.5C 95.6203,106.229 94.287,106.896 93.5,108.5C 91.5739,109.486 89.5739,110.486 87.5,111.5C 85.2071,112.301 85.5404,112.968 88.5,113.5C 89.9899,115.28 91.9899,115.946 94.5,115.5C 97.0177,116.264 99.351,117.264 101.5,118.5C 105.307,121.207 109.64,122.54 114.5,122.5C 114.833,122.5 115.167,122.5 115.5,122.5C 117.617,124.655 120.284,125.655 123.5,125.5C 123.833,125.5 124.167,125.5 124.5,125.5C 125.635,127.213 127.302,127.88 129.5,127.5C 131.153,127.66 132.486,128.326 133.5,129.5C 134.514,130.674 135.847,131.34 137.5,131.5C 139.284,131.893 140.95,132.559 142.5,133.5C 143.287,135.104 144.62,135.771 146.5,135.5C 148.784,135.975 150.784,136.975 152.5,138.5C 153.635,140.213 155.302,140.88 157.5,140.5C 158.492,140.328 159.158,140.662 159.5,141.5C 162.008,143.554 165.008,144.554 168.5,144.5C 168.973,145.906 169.973,146.573 171.5,146.5C 172.492,146.328 173.158,146.662 173.5,147.5C 173.611,148.117 173.944,148.617 174.5,149C 176.473,149.495 178.473,149.662 180.5,149.5C 180.5,151.5 181.5,152.5 183.5,152.5C 183.973,153.906 184.973,154.573 186.5,154.5C 187.785,156.452 189.451,158.118 191.5,159.5C 191.427,161.027 192.094,162.027 193.5,162.5C 193.738,164.404 194.738,165.738 196.5,166.5C 197.338,166.842 197.672,167.508 197.5,168.5C 199.252,173.685 199.752,179.019 199,184.5C 197.656,190.033 195.823,195.366 193.5,200.5C 193.573,202.027 192.906,203.027 191.5,203.5C 190.094,203.973 189.427,204.973 189.5,206.5C 188.5,206.833 187.833,207.5 187.5,208.5C 187.5,209.167 187.167,209.5 186.5,209.5C 184.973,209.427 183.973,210.094 183.5,211.5C 181.973,211.427 180.973,212.094 180.5,213.5C 176.361,216.072 172.027,218.405 167.5,220.5C 165.453,220.489 163.453,220.156 161.5,219.5C 159.962,219.453 158.962,220.12 158.5,221.5C 157.292,222.234 155.959,222.567 154.5,222.5C 150.542,222.251 146.876,222.918 143.5,224.5C 141.883,225.038 140.216,225.371 138.5,225.5C 135.482,225.335 132.482,225.502 129.5,226C 128.944,226.383 128.611,226.883 128.5,227.5C 128.167,227.5 127.833,227.5 127.5,227.5C 120.928,227.239 114.594,227.906 108.5,229.5C 108.167,229.5 107.833,229.5 107.5,229.5C 98.5652,229.368 89.8985,230.368 81.5,232.5C 59.6958,234.101 38.0292,236.767 16.5,240.5C 14.302,240.12 12.6354,240.787 11.5,242.5C 8.99058,243.921 6.65725,245.588 4.5,247.5C 2.83333,247.5 1.16667,247.5 -0.5,247.5C -0.5,244.5 -0.5,241.5 -0.5,238.5C -0.166667,238.5 0.166667,238.5 0.5,238.5C 2.58689,237.415 3.92022,235.749 4.5,233.5C 6.40435,233.262 7.73769,232.262 8.5,230.5C 10.0269,230.573 11.0269,229.906 11.5,228.5C 11.8417,227.662 12.5084,227.328 13.5,227.5C 16.0101,227.946 18.0101,227.28 19.5,225.5C 32.93,221.98 46.5967,219.147 60.5,217C 64.1091,216.299 67.4425,215.132 70.5,213.5C 72.717,212.631 75.0504,212.298 77.5,212.5C 83.7386,212.724 89.7386,212.057 95.5,210.5C 99.8171,210.917 103.817,210.25 107.5,208.5C 114.818,208.713 121.818,207.713 128.5,205.5C 132.067,204.911 135.733,204.911 139.5,205.5C 144.625,205.469 149.625,204.636 154.5,203C 155.056,202.617 155.389,202.117 155.5,201.5C 157.801,200.94 160.134,200.44 162.5,200C 163.056,199.617 163.389,199.117 163.5,198.5C 164.514,197.326 165.847,196.66 167.5,196.5C 170.802,196.088 173.469,194.755 175.5,192.5C 177.475,190.863 179.475,189.196 181.5,187.5C 182.993,186.688 183.66,185.355 183.5,183.5C 183.48,182.274 183.147,181.274 182.5,180.5C 182.715,178.821 182.048,177.821 180.5,177.5C 180.573,175.973 179.906,174.973 178.5,174.5C 177.5,171.5 175.5,169.5 172.5,168.5C 172.027,167.094 171.027,166.427 169.5,166.5C 168.508,166.672 167.842,166.338 167.5,165.5C 166.817,163.824 165.483,163.157 163.5,163.5C 163.027,162.094 162.027,161.427 160.5,161.5C 159.738,159.738 158.404,158.738 156.5,158.5C 155.508,158.672 154.842,158.338 154.5,157.5C 153.365,155.787 151.698,155.12 149.5,155.5C 149.027,154.094 148.027,153.427 146.5,153.5C 145.508,153.672 144.842,153.338 144.5,152.5C 143.365,150.787 141.698,150.12 139.5,150.5C 138.738,148.738 137.404,147.738 135.5,147.5C 133.847,147.34 132.514,146.674 131.5,145.5C 130.01,143.72 128.01,143.054 125.5,143.5C 125.167,143.5 124.833,143.5 124.5,143.5C 124.027,142.094 123.027,141.427 121.5,141.5C 121.167,141.5 120.833,141.5 120.5,141.5C 118.081,139.138 115.081,138.138 111.5,138.5C 111.389,137.883 111.056,137.383 110.5,137C 106.888,135.85 103.222,135.017 99.5,134.5C 97.0504,134.702 94.717,134.369 92.5,133.5C 90.5615,131.837 88.2282,131.171 85.5,131.5C 81.767,129.589 77.767,128.256 73.5,127.5C 71.5853,127.784 69.9187,127.451 68.5,126.5C 68.573,124.973 67.9063,123.973 66.5,123.5C 66.1703,120.843 65.837,118.176 65.5,115.5C 66.1738,112.158 66.8405,108.825 67.5,105.5C 68.9063,105.027 69.573,104.027 69.5,102.5C 71.5652,102.047 73.2318,101.047 74.5,99.5C 74.8417,98.6618 75.5084,98.3284 76.5,98.5C 79.7,97.4119 82.7,96.0785 85.5,94.5C 87.4044,94.2624 88.7377,93.2624 89.5,91.5C 91.698,91.8799 93.3646,91.2132 94.5,89.5C 99.5395,89.1496 104.206,87.8163 108.5,85.5C 111.589,84.2154 114.922,83.5488 118.5,83.5 Z"/></g>
<g><path style="opacity:0.659" fill="#525252" d="M 134.5,84.5 C 137.01,84.9267 139.343,85.5933 141.5,86.5C 139.473,86.6621 137.473,86.4955 135.5,86C 134.944,85.6174 134.611,85.1174 134.5,84.5 Z"/></g>
<g><path style="opacity:0.076" fill="#141414" d="M 503.5,83.5 C 503.5,84.5 503.5,85.5 503.5,86.5C 497.5,86.5 491.5,86.5 485.5,86.5C 491.599,86.0767 497.599,85.0767 503.5,83.5 Z"/></g>
<g><path style="opacity:0.816" fill="#646464" d="M 108.5,85.5 C 104.206,87.8163 99.5395,89.1496 94.5,89.5C 98.9029,87.5922 103.57,86.2589 108.5,85.5 Z"/></g>
<g><path style="opacity:0.859" fill="#666666" d="M 485.5,86.5 C 482.495,88.2766 479.162,89.2766 475.5,89.5C 478.408,87.3952 481.742,86.3952 485.5,86.5 Z"/></g>
<g><path style="opacity:0.667" fill="#4f4f4e" d="M 526.5,81.5 C 525.494,90.3089 524.494,98.9755 523.5,107.5C 523.087,98.5263 524.087,89.8596 526.5,81.5 Z"/></g>
<g><path style="opacity:0.384" fill="#464647" d="M 143.5,87.5 C 144.906,87.9731 145.573,88.9731 145.5,90.5C 144.094,90.0269 143.427,89.0269 143.5,87.5 Z"/></g>
<g><path style="opacity:0.863" fill="#515151" d="M 94.5,89.5 C 93.3646,91.2132 91.698,91.8799 89.5,91.5C 90.9303,90.4625 92.597,89.7959 94.5,89.5 Z"/></g>
<g><path style="opacity:0.702" fill="#505050" d="M 389.5,93.5 C 383.399,92.1103 377.399,92.4436 371.5,94.5C 377.469,90.1116 383.469,89.7783 389.5,93.5 Z"/></g>
<g><path style="opacity:0.525" fill="#424342" d="M 89.5,91.5 C 88.7377,93.2624 87.4044,94.2624 85.5,94.5C 86.2623,92.7376 87.5956,91.7376 89.5,91.5 Z"/></g>
<g><path style="opacity:1" fill="#f1f1f0" d="M 389.5,93.5 C 390.5,95.1667 391.833,96.5 393.5,97.5C 393.66,99.153 394.326,100.486 395.5,101.5C 397,105.326 397.666,109.326 397.5,113.5C 397.674,115.861 398.007,118.194 398.5,120.5C 398.5,129.5 398.5,138.5 398.5,147.5C 398.779,158.695 398.445,169.861 397.5,181C 398.63,191.208 399.963,201.375 401.5,211.5C 401.5,213.167 401.5,214.833 401.5,216.5C 398.833,216.5 396.167,216.5 393.5,216.5C 390.567,213.67 388.567,210.337 387.5,206.5C 387.5,205.833 387.5,205.167 387.5,204.5C 387.68,200.714 386.68,197.381 384.5,194.5C 383.9,178.473 383.233,162.473 382.5,146.5C 382.664,143.813 382.497,141.146 382,138.5C 381.617,137.944 381.117,137.611 380.5,137.5C 379.724,128.88 379.224,120.213 379,111.5C 377.855,110.316 376.688,110.316 375.5,111.5C 374.167,111.5 373.5,112.167 373.5,113.5C 373.068,114.71 372.401,115.71 371.5,116.5C 370.094,116.973 369.427,117.973 369.5,119.5C 366.157,121.497 364.49,124.497 364.5,128.5C 364.5,129.167 364.167,129.5 363.5,129.5C 362.326,130.514 361.66,131.847 361.5,133.5C 361.107,135.284 360.441,136.95 359.5,138.5C 357.461,139.911 356.461,141.911 356.5,144.5C 355.018,149.456 353.018,154.123 350.5,158.5C 348.26,162.098 346.926,166.098 346.5,170.5C 346.672,171.492 346.338,172.158 345.5,172.5C 344.069,173.78 343.402,175.447 343.5,177.5C 343.675,179.621 343.341,181.621 342.5,183.5C 340.469,186.422 339.302,189.755 339,193.5C 338.501,198.155 338.334,202.821 338.5,207.5C 336.484,209.348 334.317,211.015 332,212.5C 330.121,210.987 327.954,210.321 325.5,210.5C 325.813,206.958 325.479,203.625 324.5,200.5C 323.256,188.874 322.256,177.208 321.5,165.5C 321.666,158.159 321.5,150.826 321,143.5C 320.814,140.964 320.314,138.631 319.5,136.5C 318.775,126.804 317.775,117.137 316.5,107.5C 316.4,104.892 317.067,102.558 318.5,100.5C 319.5,100.167 320.167,99.5 320.5,98.5C 322.628,97.3709 324.961,97.2042 327.5,98C 329.155,99.4443 329.822,101.278 329.5,103.5C 329.517,107.534 330.517,111.201 332.5,114.5C 332.5,115.167 332.5,115.833 332.5,116.5C 333.087,123.765 334.421,130.765 336.5,137.5C 336.31,143.272 336.977,148.939 338.5,154.5C 340.217,153.332 340.884,151.665 340.5,149.5C 340.5,149.167 340.5,148.833 340.5,148.5C 342.213,147.365 342.88,145.698 342.5,143.5C 344.655,141.383 345.655,138.716 345.5,135.5C 347.213,134.365 347.88,132.698 347.5,130.5C 347.5,130.167 347.5,129.833 347.5,129.5C 349.213,128.365 349.88,126.698 349.5,124.5C 349.992,122.181 350.992,120.181 352.5,118.5C 354.969,117.393 355.969,115.393 355.5,112.5C 356.906,112.027 357.573,111.027 357.5,109.5C 358.906,109.027 359.573,108.027 359.5,106.5C 362.243,104.761 364.243,102.427 365.5,99.5C 366.5,99.1667 367.167,98.5 367.5,97.5C 369.404,97.2624 370.738,96.2624 371.5,94.5C 377.399,92.4436 383.399,92.1103 389.5,93.5 Z"/></g>
<g><path style="opacity:0.804" fill="#454546" d="M 145.5,90.5 C 147.856,92.9373 148.022,95.604 146,98.5C 145.329,99.2524 144.496,99.5858 143.5,99.5C 145.268,96.8375 145.935,93.8375 145.5,90.5 Z"/></g>
<g><path style="opacity:0.02" fill="#353434" d="M 389.5,93.5 C 391.833,93.8333 393.167,95.1667 393.5,97.5C 391.833,96.5 390.5,95.1667 389.5,93.5 Z"/></g>
<g><path style="opacity:0.561" fill="#4a4a4a" d="M 467.5,93.5 C 467.027,94.9063 466.027,95.573 464.5,95.5C 464.973,94.0937 465.973,93.427 467.5,93.5 Z"/></g>
<g><path style="opacity:0.482" fill="#3e3b3b" d="M 371.5,94.5 C 370.738,96.2624 369.404,97.2624 367.5,97.5C 368.262,95.7376 369.596,94.7376 371.5,94.5 Z"/></g>
<g><path style="opacity:0.635" fill="#5e5e5e" d="M 85.5,94.5 C 82.7,96.0785 79.7,97.4119 76.5,98.5C 76.9528,97.5416 77.6195,96.7083 78.5,96C 80.8659,95.5604 83.1992,95.0604 85.5,94.5 Z"/></g>
<g><path style="opacity:0.816" fill="#727273" d="M 464.5,95.5 C 463.738,97.2624 462.404,98.2624 460.5,98.5C 461.262,96.7376 462.596,95.7376 464.5,95.5 Z"/></g>
<g><path style="opacity:0.165" fill="#1e1e1e" d="M 367.5,97.5 C 367.167,98.5 366.5,99.1667 365.5,99.5C 365.5,98.1667 366.167,97.5 367.5,97.5 Z"/></g>
<g><path style="opacity:0.031" fill="#1f1e1e" d="M 393.5,97.5 C 395.104,98.287 395.771,99.6203 395.5,101.5C 394.326,100.486 393.66,99.153 393.5,97.5 Z"/></g>
<g><path style="opacity:0.2" fill="#262222" d="M 320.5,98.5 C 320.167,99.5 319.5,100.167 318.5,100.5C 318.5,99.1667 319.167,98.5 320.5,98.5 Z"/></g>
<g><path style="opacity:0.51" fill="#484848" d="M 460.5,98.5 C 458.167,101.5 455.5,104.167 452.5,106.5C 454.167,102.833 456.833,100.167 460.5,98.5 Z"/></g>
<g><path style="opacity:0.749" fill="#515151" d="M 74.5,99.5 C 73.2318,101.047 71.5652,102.047 69.5,102.5C 70.4856,100.592 72.1523,99.5923 74.5,99.5 Z"/></g>
<g><path style="opacity:0.055" fill="#242424" d="M 132.5,100.5 C 135.477,101.678 138.477,101.678 141.5,100.5C 140.223,101.898 138.557,102.564 136.5,102.5C 134.645,102.66 133.312,101.993 132.5,100.5 Z"/></g>
<g><path style="opacity:0.651" fill="#565655" d="M 365.5,99.5 C 364.243,102.427 362.243,104.761 359.5,106.5C 360.757,103.573 362.757,101.239 365.5,99.5 Z"/></g>
<g><path style="opacity:0.267" fill="#3f3f3f" d="M 69.5,102.5 C 69.573,104.027 68.9063,105.027 67.5,105.5C 67.427,103.973 68.0937,102.973 69.5,102.5 Z"/></g>
<g><path style="opacity:0.098" fill="#232323" d="M 318.5,100.5 C 317.067,102.558 316.4,104.892 316.5,107.5C 314.885,104.598 315.551,102.265 318.5,100.5 Z"/></g>
<g><path style="opacity:0.025" fill="#0a0909" d="M 498.5,105.5 C 492.788,105.313 487.121,105.646 481.5,106.5C 481.918,105.778 482.584,105.278 483.5,105C 488.684,104.184 493.684,104.35 498.5,105.5 Z"/></g>
<g><path style="opacity:0.016" fill="#252525" d="M 97.5,106.5 C 96.4863,107.674 95.153,108.34 93.5,108.5C 94.287,106.896 95.6203,106.229 97.5,106.5 Z"/></g>
<g><path style="opacity:0.808" fill="#444242" d="M 329.5,103.5 C 331.074,106.907 332.074,110.573 332.5,114.5C 330.517,111.201 329.517,107.534 329.5,103.5 Z"/></g>
<g><path style="opacity:0.396" fill="#504d4d" d="M 359.5,106.5 C 359.573,108.027 358.906,109.027 357.5,109.5C 357.427,107.973 358.094,106.973 359.5,106.5 Z"/></g>
<g><path style="opacity:0.027" fill="#1b1b1a" d="M 87.5,111.5 C 87.8333,112.167 88.1667,112.833 88.5,113.5C 85.5404,112.968 85.2071,112.301 87.5,111.5 Z"/></g>
<g><path style="opacity:0.329" fill="#423f3d" d="M 357.5,109.5 C 357.573,111.027 356.906,112.027 355.5,112.5C 355.427,110.973 356.094,109.973 357.5,109.5 Z"/></g>
<g><path style="opacity:0.004" fill="#1e1e1e" d="M 375.5,111.5 C 375.167,112.5 374.5,113.167 373.5,113.5C 373.5,112.167 374.167,111.5 375.5,111.5 Z"/></g>
<g><path style="opacity:0.129" fill="#3d3a39" d="M 452.5,106.5 C 451.581,109.089 449.914,111.089 447.5,112.5C 448.419,109.911 450.086,107.911 452.5,106.5 Z"/></g>
<g><path style="opacity:0.692" fill="#444445" d="M 499.5,105.5 C 500.777,106.694 501.444,108.36 501.5,110.5C 501.125,116.017 500.458,121.351 499.5,126.5C 499.78,119.397 499.78,112.397 499.5,105.5 Z"/></g>
<g><path style="opacity:0.824" fill="#595959" d="M 88.5,113.5 C 90.7857,113.595 92.7857,114.262 94.5,115.5C 91.9899,115.946 89.9899,115.28 88.5,113.5 Z"/></g>
<g><path style="opacity:0.776" fill="#525251" d="M 257.5,114.5 C 252.346,114.294 247.346,114.961 242.5,116.5C 243.842,115.207 245.509,114.374 247.5,114C 251.027,113.192 254.36,113.359 257.5,114.5 Z"/></g>
<g><path style="opacity:1" fill="#f6f6f6" d="M 257.5,114.5 C 259.415,114.216 261.081,114.549 262.5,115.5C 264.395,117.241 266.728,118.241 269.5,118.5C 270.492,118.328 271.158,118.662 271.5,119.5C 272.99,121.28 274.99,121.946 277.5,121.5C 277.427,123.027 278.094,124.027 279.5,124.5C 279.12,126.698 279.787,128.365 281.5,129.5C 281.5,132.833 281.5,136.167 281.5,139.5C 281.5,140.167 281.167,140.5 280.5,140.5C 279.167,141.167 278.167,142.167 277.5,143.5C 276.5,143.833 275.833,144.5 275.5,145.5C 275.158,146.338 274.492,146.672 273.5,146.5C 271.326,146.75 269.659,147.75 268.5,149.5C 263.964,152.604 258.964,154.27 253.5,154.5C 251.62,154.229 250.287,154.896 249.5,156.5C 248.609,157.11 247.609,157.443 246.5,157.5C 240.301,157.652 234.301,158.318 228.5,159.5C 227.685,164.668 227.019,170.001 226.5,175.5C 226.34,177.355 227.007,178.688 228.5,179.5C 228.792,183.066 230.126,186.066 232.5,188.5C 233.338,188.842 233.672,189.508 233.5,190.5C 234.167,193.167 235.833,194.833 238.5,195.5C 239.492,195.328 240.158,195.662 240.5,196.5C 240.611,197.117 240.944,197.617 241.5,198C 243,198.167 244.5,198.333 246,198.5C 248.544,198.664 250.71,197.997 252.5,196.5C 254.404,196.262 255.738,195.262 256.5,193.5C 259.141,191.196 261.808,188.862 264.5,186.5C 266.262,185.738 267.262,184.404 267.5,182.5C 270.5,180.167 273.167,177.5 275.5,174.5C 277.738,173.463 280.071,173.297 282.5,174C 283.252,174.671 283.586,175.504 283.5,176.5C 285.123,179.215 285.79,182.215 285.5,185.5C 284.094,185.973 283.427,186.973 283.5,188.5C 282.094,188.973 281.427,189.973 281.5,191.5C 281.068,192.71 280.401,193.71 279.5,194.5C 277.75,195.659 276.75,197.326 276.5,199.5C 275.094,199.973 274.427,200.973 274.5,202.5C 274.5,203.167 274.167,203.5 273.5,203.5C 272.094,203.973 271.427,204.973 271.5,206.5C 271.5,207.167 271.167,207.5 270.5,207.5C 269.5,207.833 268.833,208.5 268.5,209.5C 268.167,210.5 267.5,211.167 266.5,211.5C 264.973,211.427 263.973,212.094 263.5,213.5C 261.281,215.606 258.615,216.606 255.5,216.5C 249.804,216.553 244.138,216.22 238.5,215.5C 238.167,215.5 237.833,215.5 237.5,215.5C 237.027,214.094 236.027,213.427 234.5,213.5C 233.508,213.672 232.842,213.338 232.5,212.5C 229.24,211.211 225.906,209.878 222.5,208.5C 221.5,208.167 220.833,207.5 220.5,206.5C 220.446,204.368 219.446,203.035 217.5,202.5C 216.566,201.432 216.232,200.099 216.5,198.5C 216.88,196.302 216.213,194.635 214.5,193.5C 214.5,193.167 214.5,192.833 214.5,192.5C 213.46,188.958 212.126,185.625 210.5,182.5C 210.5,182.167 210.5,181.833 210.5,181.5C 210.5,174.5 210.5,167.5 210.5,160.5C 210.5,160.167 210.5,159.833 210.5,159.5C 212.277,156.495 213.277,153.162 213.5,149.5C 214.264,146.982 215.264,144.649 216.5,142.5C 217.906,142.027 218.573,141.027 218.5,139.5C 218.328,138.508 218.662,137.842 219.5,137.5C 221.587,136.415 222.92,134.749 223.5,132.5C 227.5,129.167 231.167,125.5 234.5,121.5C 236.404,121.262 237.738,120.262 238.5,118.5C 239.514,117.326 240.847,116.66 242.5,116.5C 247.346,114.961 252.346,114.294 257.5,114.5 Z M 264.5,128.5 C 264.833,128.5 265.167,128.5 265.5,128.5C 261.738,130.772 257.738,132.439 253.5,133.5C 250.933,133.721 248.599,134.388 246.5,135.5C 243.959,136.103 241.626,136.103 239.5,135.5C 240.833,134.833 241.833,133.833 242.5,132.5C 244.027,132.573 245.027,131.906 245.5,130.5C 247.027,130.573 248.027,129.906 248.5,128.5C 253.833,127.167 259.167,127.167 264.5,128.5 Z"/></g>
<g><path style="opacity:0.008" fill="#1c1b1b" d="M 473.5,113.5 C 473.573,115.027 472.906,116.027 471.5,116.5C 471.427,114.973 472.094,113.973 473.5,113.5 Z"/></g>
<g><path style="opacity:0.694" fill="#606060" d="M 67.5,105.5 C 66.8405,108.825 66.1738,112.158 65.5,115.5C 65.837,118.176 66.1703,120.843 66.5,123.5C 65.0483,121.152 64.3817,118.486 64.5,115.5C 64.3229,111.706 65.3229,108.373 67.5,105.5 Z"/></g>
<g><path style="opacity:0.043" fill="#232222" d="M 397.5,113.5 C 398.924,115.515 399.59,117.848 399.5,120.5C 399.167,120.5 398.833,120.5 398.5,120.5C 398.007,118.194 397.674,115.861 397.5,113.5 Z"/></g>
<g><path style="opacity:0.075" fill="#3b3a3a" d="M 262.5,115.5 C 265.346,115.552 267.68,116.552 269.5,118.5C 266.728,118.241 264.395,117.241 262.5,115.5 Z"/></g>
<g><path style="opacity:0.984" fill="#8f8e8c" d="M 355.5,112.5 C 355.969,115.393 354.969,117.393 352.5,118.5C 352.992,116.181 353.992,114.181 355.5,112.5 Z"/></g>
<g><path style="opacity:0.012" fill="#212121" d="M 371.5,116.5 C 371.573,118.027 370.906,119.027 369.5,119.5C 369.427,117.973 370.094,116.973 371.5,116.5 Z"/></g>
<g><path style="opacity:0.041" fill="#313131" d="M 101.5,118.5 C 105.967,119.695 110.301,121.029 114.5,122.5C 109.64,122.54 105.307,121.207 101.5,118.5 Z"/></g>
<g><path style="opacity:0.471" fill="#3f3e3e" d="M 238.5,118.5 C 237.738,120.262 236.404,121.262 234.5,121.5C 235.262,119.738 236.596,118.738 238.5,118.5 Z"/></g>
<g><path style="opacity:0.561" fill="#6b5e5c" d="M 271.5,119.5 C 273.698,119.875 275.698,120.542 277.5,121.5C 274.99,121.946 272.99,121.28 271.5,119.5 Z"/></g>
<g><path style="opacity:0.02" fill="#292929" d="M 369.5,119.5 C 367.643,122.417 365.976,125.417 364.5,128.5C 364.49,124.497 366.157,121.497 369.5,119.5 Z"/></g>
<g><path style="opacity:0.91" fill="#545454" d="M 444.5,118.5 C 444.88,120.698 444.213,122.365 442.5,123.5C 442.402,121.447 443.069,119.78 444.5,118.5 Z"/></g>
<g><path style="opacity:0.314" fill="#3b3b3b" d="M 115.5,122.5 C 118.397,123.129 121.064,124.129 123.5,125.5C 120.284,125.655 117.617,124.655 115.5,122.5 Z"/></g>
<g><path style="opacity:0.435" fill="#575454" d="M 277.5,121.5 C 278.906,121.973 279.573,122.973 279.5,124.5C 278.094,124.027 277.427,123.027 277.5,121.5 Z"/></g>
<g><path style="opacity:0.012" fill="#1f1f1f" d="M 66.5,123.5 C 67.9063,123.973 68.573,124.973 68.5,126.5C 67.0937,126.027 66.427,125.027 66.5,123.5 Z"/></g>
<g><path style="opacity:0.639" fill="#535352" d="M 234.5,121.5 C 231.167,125.5 227.5,129.167 223.5,132.5C 226.167,127.833 229.833,124.167 234.5,121.5 Z"/></g>
<g><path style="opacity:0.322" fill="#3f3e3d" d="M 466.5,123.5 C 466.204,125.403 465.537,127.07 464.5,128.5C 464.12,126.302 464.787,124.635 466.5,123.5 Z"/></g>
<g><path style="opacity:0.525" fill="#504e4e" d="M 124.5,125.5 C 126.403,125.796 128.07,126.463 129.5,127.5C 127.302,127.88 125.635,127.213 124.5,125.5 Z"/></g>
<g><path style="opacity:0.949" fill="#5e5c5c" d="M 73.5,127.5 C 77.767,128.256 81.767,129.589 85.5,131.5C 81.0845,131.139 77.0845,129.806 73.5,127.5 Z"/></g>
<g><path style="opacity:0.106" fill="#3c3a3a" d="M 264.5,128.5 C 259.167,127.167 253.833,127.167 248.5,128.5C 250.807,126.953 253.473,126.287 256.5,126.5C 259.527,126.287 262.193,126.953 264.5,128.5 Z"/></g>
<g><path style="opacity:0.824" fill="#615f56" d="M 279.5,124.5 C 280.931,125.78 281.598,127.447 281.5,129.5C 279.787,128.365 279.12,126.698 279.5,124.5 Z"/></g>
<g><path style="opacity:0.788" fill="#434040" d="M 349.5,124.5 C 349.88,126.698 349.213,128.365 347.5,129.5C 347.796,127.597 348.463,125.93 349.5,124.5 Z"/></g>
<g><path style="opacity:0.675" fill="#424240" d="M 442.5,124.5 C 442.741,126.898 442.074,128.898 440.5,130.5C 440.595,128.214 441.262,126.214 442.5,124.5 Z"/></g>
<g><path style="opacity:0.025" fill="#252525" d="M 133.5,129.5 C 135.38,129.229 136.713,129.896 137.5,131.5C 135.847,131.34 134.514,130.674 133.5,129.5 Z"/></g>
<g><path style="opacity:0.769" fill="#636262" d="M 398.5,120.5 C 398.833,120.5 399.167,120.5 399.5,120.5C 400.816,129.682 400.483,138.682 398.5,147.5C 398.5,138.5 398.5,129.5 398.5,120.5 Z"/></g>
<g><path style="opacity:0.753" fill="#444343" d="M 85.5,131.5 C 88.2282,131.171 90.5615,131.837 92.5,133.5C 89.9327,133.279 87.5994,132.612 85.5,131.5 Z"/></g>
<g><path style="opacity:0.004" fill="#21211f" d="M 245.5,130.5 C 245.027,131.906 244.027,132.573 242.5,132.5C 242.973,131.094 243.973,130.427 245.5,130.5 Z"/></g>
<g><path style="opacity:0.835" fill="#5c5b5a" d="M 265.5,128.5 C 266.774,129.189 266.774,130.023 265.5,131C 261.622,132.47 257.622,133.303 253.5,133.5C 257.738,132.439 261.738,130.772 265.5,128.5 Z"/></g>
<g><path style="opacity:0.012" fill="#504f4a" d="M 363.5,129.5 C 363.771,131.38 363.104,132.713 361.5,133.5C 361.66,131.847 362.326,130.514 363.5,129.5 Z"/></g>
<g><path style="opacity:0.027" fill="#282727" d="M 463.5,130.5 C 462.342,133.989 461.009,137.322 459.5,140.5C 459.486,136.525 460.819,133.192 463.5,130.5 Z"/></g>
<g><path style="opacity:0.914" fill="#5c5958" d="M 347.5,130.5 C 347.88,132.698 347.213,134.365 345.5,135.5C 345.402,133.447 346.069,131.78 347.5,130.5 Z"/></g>
<g><path style="opacity:0.686" fill="#404040" d="M 99.5,134.5 C 103.222,135.017 106.888,135.85 110.5,137C 111.056,137.383 111.389,137.883 111.5,138.5C 107.215,137.738 103.215,136.405 99.5,134.5 Z"/></g>
<g><path style="opacity:0.184" fill="#2d2d2d" d="M 142.5,133.5 C 144.153,133.66 145.486,134.326 146.5,135.5C 144.62,135.771 143.287,135.104 142.5,133.5 Z"/></g>
<g><path style="opacity:0.765" fill="#464545" d="M 253.5,133.5 C 251.562,135.163 249.228,135.829 246.5,135.5C 248.599,134.388 250.933,133.721 253.5,133.5 Z"/></g>
<g><path style="opacity:0.875" fill="#615f5f" d="M 281.5,129.5 C 284.167,132.833 284.167,136.167 281.5,139.5C 281.5,136.167 281.5,132.833 281.5,129.5 Z"/></g>
<g><path style="opacity:0.749" fill="#484646" d="M 440.5,131.5 C 440.706,134.495 440.04,137.162 438.5,139.5C 438.565,136.572 439.232,133.905 440.5,131.5 Z"/></g>
<g><path style="opacity:0.18" fill="#464443" d="M 223.5,132.5 C 222.92,134.749 221.587,136.415 219.5,137.5C 220.08,135.251 221.413,133.585 223.5,132.5 Z"/></g>
<g><path style="opacity:0.608" fill="#5a5958" d="M 332.5,116.5 C 334.57,123.237 335.903,130.237 336.5,137.5C 334.421,130.765 333.087,123.765 332.5,116.5 Z"/></g>
<g><path style="opacity:0.804" fill="#686765" d="M 239.5,135.5 C 241.626,136.103 243.959,136.103 246.5,135.5C 243.858,136.806 241.025,137.806 238,138.5C 237.415,137.002 237.915,136.002 239.5,135.5 Z"/></g>
<g><path style="opacity:0.851" fill="#4b4b4b" d="M 111.5,138.5 C 115.081,138.138 118.081,139.138 120.5,141.5C 117.341,140.669 114.341,139.669 111.5,138.5 Z"/></g>
<g><path style="opacity:0.427" fill="#3c3c3c" d="M 152.5,138.5 C 154.403,138.796 156.07,139.463 157.5,140.5C 155.302,140.88 153.635,140.213 152.5,138.5 Z"/></g>
<g><path style="opacity:0.075" fill="#272524" d="M 359.5,138.5 C 359.008,140.819 358.008,142.819 356.5,144.5C 356.461,141.911 357.461,139.911 359.5,138.5 Z"/></g>
<g><path style="opacity:0.18" fill="#272323" d="M 218.5,139.5 C 218.573,141.027 217.906,142.027 216.5,142.5C 216.427,140.973 217.094,139.973 218.5,139.5 Z"/></g>
<g><path style="opacity:0.918" fill="#666262" d="M 345.5,135.5 C 345.655,138.716 344.655,141.383 342.5,143.5C 342.98,140.557 343.98,137.89 345.5,135.5 Z"/></g>
<g><path style="opacity:0.71" fill="#6d6c6c" d="M 380.5,137.5 C 381.117,137.611 381.617,137.944 382,138.5C 382.497,141.146 382.664,143.813 382.5,146.5C 382.167,146.5 381.833,146.5 381.5,146.5C 381.037,143.518 380.704,140.518 380.5,137.5 Z"/></g>
<g><path style="opacity:0.069" fill="#202020" d="M 121.5,141.5 C 123.027,141.427 124.027,142.094 124.5,143.5C 122.973,143.573 121.973,142.906 121.5,141.5 Z"/></g>
<g><path style="opacity:0.663" fill="#545353" d="M 159.5,141.5 C 162.811,141.883 165.811,142.883 168.5,144.5C 165.008,144.554 162.008,143.554 159.5,141.5 Z"/></g>
<g><path style="opacity:0.004" fill="#1a1919" d="M 280.5,140.5 C 280.5,142.5 279.5,143.5 277.5,143.5C 278.167,142.167 279.167,141.167 280.5,140.5 Z"/></g>
<g><path style="opacity:0.678" fill="#454545" d="M 125.5,143.5 C 128.01,143.054 130.01,143.72 131.5,145.5C 129.302,145.125 127.302,144.458 125.5,143.5 Z"/></g>
<g><path style="opacity:0.033" fill="#141414" d="M 168.5,144.5 C 170.027,144.427 171.027,145.094 171.5,146.5C 169.973,146.573 168.973,145.906 168.5,144.5 Z"/></g>
<g><path style="opacity:0.004" fill="#131010" d="M 277.5,143.5 C 277.5,144.833 276.833,145.5 275.5,145.5C 275.833,144.5 276.5,143.833 277.5,143.5 Z"/></g>
<g><path style="opacity:0.044" fill="#1a1a1a" d="M 521.5,134.5 C 521.082,140.669 520.415,146.669 519.5,152.5C 519.334,147.821 519.501,143.155 520,138.5C 520.21,136.942 520.71,135.609 521.5,134.5 Z"/></g>
<g><path style="opacity:0.835" fill="#464444" d="M 342.5,143.5 C 342.88,145.698 342.213,147.365 340.5,148.5C 340.402,146.447 341.069,144.78 342.5,143.5 Z"/></g>
<g><path style="opacity:0.69" fill="#444343" d="M 135.5,147.5 C 137.404,147.738 138.738,148.738 139.5,150.5C 137.596,150.262 136.262,149.262 135.5,147.5 Z"/></g>
<g><path style="opacity:0.016" fill="#3a3634" d="M 273.5,146.5 C 272.341,148.25 270.674,149.25 268.5,149.5C 269.659,147.75 271.326,146.75 273.5,146.5 Z"/></g>
<g><path style="opacity:0.074" fill="#0b0b0b" d="M 173.5,147.5 C 176.01,147.927 178.343,148.593 180.5,149.5C 178.473,149.662 176.473,149.495 174.5,149C 173.944,148.617 173.611,148.117 173.5,147.5 Z"/></g>
<g><path style="opacity:0.718" fill="#535354" d="M 499.5,128.5 C 499.83,145.009 499.496,161.342 498.5,177.5C 498.343,167.663 498.01,157.829 497.5,148C 497.353,141.269 498.02,134.769 499.5,128.5 Z"/></g>
<g><path style="opacity:0.78" fill="#4a4949" d="M 139.5,150.5 C 141.698,150.12 143.365,150.787 144.5,152.5C 142.597,152.204 140.93,151.537 139.5,150.5 Z"/></g>
<g><path style="opacity:0.553" fill="#4a4a4a" d="M 180.5,149.5 C 181.833,150.167 182.833,151.167 183.5,152.5C 181.5,152.5 180.5,151.5 180.5,149.5 Z"/></g>
<g><path style="opacity:0.447" fill="#464645" d="M 319.5,136.5 C 320.314,138.631 320.814,140.964 321,143.5C 321.5,150.826 321.666,158.159 321.5,165.5C 320.584,156.001 319.917,146.335 319.5,136.5 Z"/></g>
<g><path style="opacity:0.016" fill="#2b2a2a" d="M 183.5,152.5 C 185.027,152.427 186.027,153.094 186.5,154.5C 184.973,154.573 183.973,153.906 183.5,152.5 Z"/></g>
<g><path style="opacity:0.788" fill="#413f3f" d="M 213.5,149.5 C 213.277,153.162 212.277,156.495 210.5,159.5C 210.723,155.838 211.723,152.505 213.5,149.5 Z"/></g>
<g><path style="opacity:0.588" fill="#615f5f" d="M 336.5,137.5 C 337.984,142.253 338.818,147.253 339,152.5C 339.232,151.263 339.732,150.263 340.5,149.5C 340.884,151.665 340.217,153.332 338.5,154.5C 336.977,148.939 336.31,143.272 336.5,137.5 Z"/></g>
<g><path style="opacity:0.196" fill="#221f1f" d="M 146.5,153.5 C 148.027,153.427 149.027,154.094 149.5,155.5C 147.973,155.573 146.973,154.906 146.5,153.5 Z"/></g>
<g><path style="opacity:0.682" fill="#444444" d="M 149.5,155.5 C 151.698,155.12 153.365,155.787 154.5,157.5C 152.597,157.204 150.93,156.537 149.5,155.5 Z"/></g>
<g><path style="opacity:0.004" fill="#282625" d="M 253.5,154.5 C 252.486,155.674 251.153,156.34 249.5,156.5C 250.287,154.896 251.62,154.229 253.5,154.5 Z"/></g>
<g><path style="opacity:0.459" fill="#4c4b4c" d="M 438.5,141.5 C 438.414,149.646 439.414,157.646 441.5,165.5C 439.469,162.578 438.302,159.245 438,155.5C 437.185,150.648 437.352,145.981 438.5,141.5 Z"/></g>
<g><path style="opacity:0.478" fill="#474646" d="M 186.5,154.5 C 189.189,155.189 190.856,156.856 191.5,159.5C 189.451,158.118 187.785,156.452 186.5,154.5 Z"/></g>
<g><path style="opacity:0.804" fill="#626161" d="M 459.5,141.5 C 459.347,147.869 459.68,154.203 460.5,160.5C 458.961,157.135 458.294,153.469 458.5,149.5C 458.503,146.645 458.836,143.978 459.5,141.5 Z"/></g>
<g><path style="opacity:0.034" fill="#262525" d="M 246.5,157.5 C 240.426,158.536 234.426,159.869 228.5,161.5C 228.5,160.833 228.5,160.167 228.5,159.5C 234.301,158.318 240.301,157.652 246.5,157.5 Z"/></g>
<g><path style="opacity:0.353" fill="#2d2c2c" d="M 156.5,158.5 C 158.404,158.738 159.738,159.738 160.5,161.5C 158.596,161.262 157.262,160.262 156.5,158.5 Z"/></g>
<g><path style="opacity:0.122" fill="#222122" d="M 191.5,159.5 C 192.906,159.973 193.573,160.973 193.5,162.5C 192.094,162.027 191.427,161.027 191.5,159.5 Z"/></g>
<g><path style="opacity:0.275" fill="#4a4847" d="M 350.5,158.5 C 350.074,162.902 348.74,166.902 346.5,170.5C 346.926,166.098 348.26,162.098 350.5,158.5 Z"/></g>
<g><path style="opacity:0.263" fill="#373535" d="M 160.5,161.5 C 162.027,161.427 163.027,162.094 163.5,163.5C 161.973,163.573 160.973,162.906 160.5,161.5 Z"/></g>
<g><path style="opacity:0.929" fill="#646363" d="M 163.5,163.5 C 165.483,163.157 166.817,163.824 167.5,165.5C 165.847,165.34 164.514,164.674 163.5,163.5 Z"/></g>
<g><path style="opacity:0.671" fill="#42403f" d="M 193.5,162.5 C 195.262,163.262 196.262,164.596 196.5,166.5C 194.738,165.738 193.738,164.404 193.5,162.5 Z"/></g>
<g><path style="opacity:0.71" fill="#414140" d="M 460.5,160.5 C 461.537,161.93 462.204,163.597 462.5,165.5C 460.787,164.365 460.12,162.698 460.5,160.5 Z"/></g>
<g><path style="opacity:0.576" fill="#484747" d="M 169.5,166.5 C 171.027,166.427 172.027,167.094 172.5,168.5C 170.973,168.573 169.973,167.906 169.5,166.5 Z"/></g>
<g><path style="opacity:0.925" fill="#656464" d="M 172.5,168.5 C 175.5,169.5 177.5,171.5 178.5,174.5C 176.167,172.833 174.167,170.833 172.5,168.5 Z"/></g>
<g><path style="opacity:0.4" fill="#494843" d="M 462.5,166.5 C 464.262,167.262 465.262,168.596 465.5,170.5C 463.738,169.738 462.738,168.404 462.5,166.5 Z"/></g>
<g><path style="opacity:0.965" fill="#717070" d="M 210.5,160.5 C 210.5,167.5 210.5,174.5 210.5,181.5C 207.833,174.5 207.833,167.5 210.5,160.5 Z"/></g>
<g><path style="opacity:0.004" fill="#191719" d="M 443.5,170.5 C 444.906,170.973 445.573,171.973 445.5,173.5C 444.094,173.027 443.427,172.027 443.5,170.5 Z"/></g>
<g><path style="opacity:0.004" fill="#232121" d="M 467.5,172.5 C 469.027,172.427 470.027,173.094 470.5,174.5C 468.973,174.573 467.973,173.906 467.5,172.5 Z"/></g>
<g><path style="opacity:0.02" fill="#282627" d="M 445.5,173.5 C 446.906,173.973 447.573,174.973 447.5,176.5C 446.094,176.027 445.427,175.027 445.5,173.5 Z"/></g>
<g><path style="opacity:0.004" fill="#292727" d="M 178.5,174.5 C 179.906,174.973 180.573,175.973 180.5,177.5C 179.094,177.027 178.427,176.027 178.5,174.5 Z"/></g>
<g><path style="opacity:0.278" fill="#5b5a59" d="M 228.5,159.5 C 228.5,160.167 228.5,160.833 228.5,161.5C 228.153,167.581 228.153,173.581 228.5,179.5C 227.007,178.688 226.34,177.355 226.5,175.5C 227.019,170.001 227.685,164.668 228.5,159.5 Z"/></g>
<g><path style="opacity:0.208" fill="#383332" d="M 345.5,172.5 C 345.598,174.553 344.931,176.22 343.5,177.5C 343.402,175.447 344.069,173.78 345.5,172.5 Z"/></g>
<g><path style="opacity:0.878" fill="#4c4b4b" d="M 470.5,174.5 C 473.903,176.736 477.569,178.069 481.5,178.5C 478.813,178.664 476.146,178.497 473.5,178C 471.937,177.241 470.937,176.074 470.5,174.5 Z"/></g>
<g><path style="opacity:0.929" fill="#646464" d="M 180.5,177.5 C 182.048,177.821 182.715,178.821 182.5,180.5C 181.599,179.71 180.932,178.71 180.5,177.5 Z"/></g>
<g><path style="opacity:0.796" fill="#595959" d="M 275.5,174.5 C 273.167,177.5 270.5,180.167 267.5,182.5C 269.167,178.833 271.833,176.167 275.5,174.5 Z"/></g>
<g><path style="opacity:0.408" fill="#404040" d="M 498.5,177.5 C 497.738,179.262 496.404,180.262 494.5,180.5C 495.262,178.738 496.596,177.738 498.5,177.5 Z"/></g>
<g><path style="opacity:0.62" fill="#595858" d="M 482.5,178.5 C 486.443,179.486 490.443,180.152 494.5,180.5C 493.726,181.147 492.726,181.48 491.5,181.5C 488.821,181.064 486.155,180.564 483.5,180C 482.944,179.617 482.611,179.117 482.5,178.5 Z"/></g>
<g><path style="opacity:0.788" fill="#4b4a4a" d="M 283.5,176.5 C 287.547,178.935 288.214,181.935 285.5,185.5C 285.79,182.215 285.123,179.215 283.5,176.5 Z"/></g>
<g><path style="opacity:0.471" fill="#343435" d="M 451.5,181.5 C 453.404,181.738 454.738,182.738 455.5,184.5C 453.596,184.262 452.262,183.262 451.5,181.5 Z"/></g>
<g><path style="opacity:0.498" fill="#424240" d="M 197.5,168.5 C 199.699,172.094 201.033,176.094 201.5,180.5C 200.303,185.59 198.803,190.59 197,195.5C 196.303,197.584 195.136,199.251 193.5,200.5C 195.823,195.366 197.656,190.033 199,184.5C 199.752,179.019 199.252,173.685 197.5,168.5 Z"/></g>
<g><path style="opacity:0.498" fill="#454444" d="M 267.5,182.5 C 267.262,184.404 266.262,185.738 264.5,186.5C 264.738,184.596 265.738,183.262 267.5,182.5 Z"/></g>
<g><path style="opacity:0.412" fill="#3a3838" d="M 455.5,184.5 C 457.027,184.427 458.027,185.094 458.5,186.5C 456.973,186.573 455.973,185.906 455.5,184.5 Z"/></g>
<g><path style="opacity:0.157" fill="#1c1919" d="M 381.5,146.5 C 381.833,146.5 382.167,146.5 382.5,146.5C 383.233,162.473 383.9,178.473 384.5,194.5C 383.698,193.048 383.198,191.382 383,189.5C 382.783,175.135 382.283,160.802 381.5,146.5 Z"/></g>
<g><path style="opacity:0.306" fill="#4b4a49" d="M 182.5,180.5 C 183.147,181.274 183.48,182.274 183.5,183.5C 183.66,185.355 182.993,186.688 181.5,187.5C 182.219,185.236 182.552,182.903 182.5,180.5 Z"/></g>
<g><path style="opacity:0.753" fill="#504e4e" d="M 228.5,179.5 C 230.584,182.053 231.917,185.053 232.5,188.5C 230.126,186.066 228.792,183.066 228.5,179.5 Z"/></g>
<g><path style="opacity:0.004" fill="#1c1b1b" d="M 285.5,185.5 C 285.573,187.027 284.906,188.027 283.5,188.5C 283.427,186.973 284.094,185.973 285.5,185.5 Z"/></g>
<g><path style="opacity:0.012" fill="#342929" d="M 458.5,186.5 C 459.906,186.973 460.573,187.973 460.5,189.5C 459.094,189.027 458.427,188.027 458.5,186.5 Z"/></g>
<g><path style="opacity:0.22" fill="#3b3a39" d="M 210.5,182.5 C 212.126,185.625 213.46,188.958 214.5,192.5C 211.968,189.764 210.635,186.43 210.5,182.5 Z"/></g>
<g><path style="opacity:0.004" fill="#222121" d="M 283.5,188.5 C 283.573,190.027 282.906,191.027 281.5,191.5C 281.427,189.973 282.094,188.973 283.5,188.5 Z"/></g>
<g><path style="opacity:0.871" fill="#4d4c4e" d="M 460.5,189.5 C 462.749,190.08 464.415,191.413 465.5,193.5C 463.251,192.92 461.585,191.587 460.5,189.5 Z"/></g>
<g><path style="opacity:0.529" fill="#464544" d="M 233.5,190.5 C 235.5,191.833 237.167,193.5 238.5,195.5C 235.833,194.833 234.167,193.167 233.5,190.5 Z"/></g>
<g><path style="opacity:0.769" fill="#6b6b6b" d="M 175.5,192.5 C 173.469,194.755 170.802,196.088 167.5,196.5C 169.789,194.613 172.455,193.279 175.5,192.5 Z"/></g>
<g><path style="opacity:0.635" fill="#515050" d="M 256.5,193.5 C 255.738,195.262 254.404,196.262 252.5,196.5C 253.262,194.738 254.596,193.738 256.5,193.5 Z"/></g>
<g><path style="opacity:0.416" fill="#363435" d="M 214.5,193.5 C 216.213,194.635 216.88,196.302 216.5,198.5C 215.463,197.07 214.796,195.403 214.5,193.5 Z"/></g>
<g><path style="opacity:0.078" fill="#201f1c" d="M 279.5,194.5 C 279.25,196.674 278.25,198.341 276.5,199.5C 276.75,197.326 277.75,195.659 279.5,194.5 Z"/></g>
<g><path style="opacity:0.631" fill="#7d7b7a" d="M 342.5,183.5 C 340.417,190.066 339.751,196.732 340.5,203.5C 340.332,205.171 339.665,206.504 338.5,207.5C 338.334,202.821 338.501,198.155 339,193.5C 339.302,189.755 340.469,186.422 342.5,183.5 Z"/></g>
<g><path style="opacity:0.631" fill="#8c8b8a" d="M 240.5,196.5 C 244.484,197.743 248.484,197.743 252.5,196.5C 250.71,197.997 248.544,198.664 246,198.5C 244.5,198.333 243,198.167 241.5,198C 240.944,197.617 240.611,197.117 240.5,196.5 Z"/></g>
<g><path style="opacity:0.392" fill="#3e3c3c" d="M 384.5,194.5 C 386.68,197.381 387.68,200.714 387.5,204.5C 386.13,201.381 385.13,198.048 384.5,194.5 Z"/></g>
<g><path style="opacity:0.239" fill="#3b3939" d="M 466.5,195.5 C 474.747,196.97 483.08,197.637 491.5,197.5C 484.601,198.307 477.601,198.64 470.5,198.5C 468.739,197.965 467.406,196.965 466.5,195.5 Z"/></g>
<g><path style="opacity:0.518" fill="#4e4d4d" d="M 163.5,198.5 C 163.389,199.117 163.056,199.617 162.5,200C 160.134,200.44 157.801,200.94 155.5,201.5C 155.611,200.883 155.944,200.383 156.5,200C 158.866,199.56 161.199,199.06 163.5,198.5 Z"/></g>
<g><path style="opacity:0.004" fill="#1e1d1c" d="M 276.5,199.5 C 276.573,201.027 275.906,202.027 274.5,202.5C 274.427,200.973 275.094,199.973 276.5,199.5 Z"/></g>
<g><path style="opacity:0.593" fill="#69686a" d="M 499.5,193.5 C 500.189,192.226 501.023,192.226 502,193.5C 502.478,200.841 502.978,208.174 503.5,215.5C 502.261,208.135 500.928,200.802 499.5,193.5 Z"/></g>
<g><path style="opacity:0.651" fill="#403f3f" d="M 155.5,201.5 C 155.389,202.117 155.056,202.617 154.5,203C 149.625,204.636 144.625,205.469 139.5,205.5C 144.723,204.194 150.056,202.861 155.5,201.5 Z"/></g>
<g><path style="opacity:0.004" fill="#211f1f" d="M 191.5,203.5 C 191.573,205.027 190.906,206.027 189.5,206.5C 189.427,204.973 190.094,203.973 191.5,203.5 Z"/></g>
<g><path style="opacity:0.004" fill="#373737" d="M 217.5,202.5 C 219.446,203.035 220.446,204.368 220.5,206.5C 219.026,205.564 218.026,204.23 217.5,202.5 Z"/></g>
<g><path style="opacity:0.004" fill="#2f2e28" d="M 273.5,203.5 C 273.573,205.027 272.906,206.027 271.5,206.5C 271.427,204.973 272.094,203.973 273.5,203.5 Z"/></g>
<g><path style="opacity:0.706" fill="#464341" d="M 324.5,200.5 C 325.479,203.625 325.813,206.958 325.5,210.5C 324.751,209.469 324.085,208.302 323.5,207C 324.423,204.959 324.756,202.792 324.5,200.5 Z"/></g>
<g><path style="opacity:0.878" fill="#545454" d="M 128.5,205.5 C 121.818,207.713 114.818,208.713 107.5,208.5C 114.293,206.982 121.293,205.982 128.5,205.5 Z"/></g>
<g><path style="opacity:0.008" fill="#151211" d="M 189.5,206.5 C 189.5,207.833 188.833,208.5 187.5,208.5C 187.833,207.5 188.5,206.833 189.5,206.5 Z"/></g>
<g><path style="opacity:0.012" fill="#1f1f1f" d="M 270.5,207.5 C 270.5,208.833 269.833,209.5 268.5,209.5C 268.833,208.5 269.5,207.833 270.5,207.5 Z"/></g>
<g><path style="opacity:0.922" fill="#585858" d="M 107.5,208.5 C 103.817,210.25 99.8171,210.917 95.5,210.5C 95.1667,210.5 94.8333,210.5 94.5,210.5C 98.6391,209.437 102.972,208.77 107.5,208.5 Z"/></g>
<g><path style="opacity:0.941" fill="#464544" d="M 222.5,208.5 C 225.906,209.878 229.24,211.211 232.5,212.5C 229.729,212.579 227.063,212.079 224.5,211C 223.244,210.583 222.577,209.75 222.5,208.5 Z"/></g>
<g><path style="opacity:0.004" fill="#1c1b1b" d="M 186.5,209.5 C 186.027,210.906 185.027,211.573 183.5,211.5C 183.973,210.094 184.973,209.427 186.5,209.5 Z"/></g>
<g><path style="opacity:0.71" fill="#656565" d="M 94.5,210.5 C 94.8333,210.5 95.1667,210.5 95.5,210.5C 89.7386,212.057 83.7386,212.724 77.5,212.5C 82.9601,211.263 88.6268,210.596 94.5,210.5 Z"/></g>
<g><path style="opacity:0.016" fill="#141213" d="M 183.5,211.5 C 183.027,212.906 182.027,213.573 180.5,213.5C 180.973,212.094 181.973,211.427 183.5,211.5 Z"/></g>
<g><path style="opacity:0.012" fill="#111111" d="M 266.5,211.5 C 266.027,212.906 265.027,213.573 263.5,213.5C 263.973,212.094 264.973,211.427 266.5,211.5 Z"/></g>
<g><path style="opacity:0.019" fill="#2f2d28" d="M 338.5,207.5 C 335.476,214.238 331.143,215.238 325.5,210.5C 327.954,210.321 330.121,210.987 332,212.5C 334.317,211.015 336.484,209.348 338.5,207.5 Z"/></g>
<g><path style="opacity:0.016" fill="#272626" d="M 387.5,206.5 C 388.567,210.337 390.567,213.67 393.5,216.5C 389.115,214.751 387.115,211.418 387.5,206.5 Z"/></g>
<g><path style="opacity:0.529" fill="#393939" d="M 519.5,199.5 C 519.983,204.381 520.983,209.214 522.5,214C 521.866,217.078 520.866,219.911 519.5,222.5C 520.021,214.885 520.021,207.218 519.5,199.5 Z"/></g>
<g><path style="opacity:0.122" fill="#222222" d="M 234.5,213.5 C 236.027,213.427 237.027,214.094 237.5,215.5C 235.973,215.573 234.973,214.906 234.5,213.5 Z"/></g>
<g><path style="opacity:0.616" fill="#656565" d="M 70.5,213.5 C 67.4425,215.132 64.1091,216.299 60.5,217C 46.5967,219.147 32.93,221.98 19.5,225.5C 23.4335,223.325 27.7668,221.825 32.5,221C 45.1027,218.028 57.7693,215.528 70.5,213.5 Z"/></g>
<g><path style="opacity:0.902" fill="#626161" d="M 238.5,215.5 C 244.138,216.22 249.804,216.553 255.5,216.5C 253.71,217.997 251.544,218.664 249,218.5C 245.205,218.166 241.705,217.166 238.5,215.5 Z"/></g>
<g><path style="opacity:0.812" fill="#363535" d="M 401.5,211.5 C 402.793,213.364 402.793,215.364 401.5,217.5C 400.833,217.833 400.167,218.167 399.5,218.5C 397.343,217.95 395.343,217.283 393.5,216.5C 396.167,216.5 398.833,216.5 401.5,216.5C 401.5,214.833 401.5,213.167 401.5,211.5 Z"/></g>
<g><path style="opacity:0.8" fill="#5e5e61" d="M 503.5,216.5 C 505.28,217.99 505.946,219.99 505.5,222.5C 504.262,220.786 503.595,218.786 503.5,216.5 Z"/></g>
<g><path style="opacity:0.345" fill="#454444" d="M 167.5,220.5 C 164.583,221.003 161.583,221.337 158.5,221.5C 158.962,220.12 159.962,219.453 161.5,219.5C 163.453,220.156 165.453,220.489 167.5,220.5 Z"/></g>
<g><path style="opacity:0.102" fill="#2d2c2c" d="M 154.5,222.5 C 151.091,223.903 147.425,224.57 143.5,224.5C 146.876,222.918 150.542,222.251 154.5,222.5 Z"/></g>
<g><path style="opacity:0.038" fill="#343434" d="M 138.5,225.5 C 135.316,226.323 131.983,226.99 128.5,227.5C 128.611,226.883 128.944,226.383 129.5,226C 132.482,225.502 135.482,225.335 138.5,225.5 Z"/></g>
<g><path style="opacity:0.02" fill="#414040" d="M 518.5,223.5 C 518.5,224.5 518.5,225.5 518.5,226.5C 516.5,226.833 514.5,227.167 512.5,227.5C 514.279,225.972 516.279,224.638 518.5,223.5 Z"/></g>
<g><path style="opacity:0.816" fill="#4e4e4e" d="M 19.5,225.5 C 18.0101,227.28 16.0101,227.946 13.5,227.5C 15.2143,226.262 17.2143,225.595 19.5,225.5 Z"/></g>
<g><path style="opacity:0.004" fill="#1a191b" d="M 506.5,225.5 C 507.5,225.833 508.167,226.5 508.5,227.5C 507.167,227.5 506.5,226.833 506.5,225.5 Z"/></g>
<g><path style="opacity:0.101" fill="#2f2e2e" d="M 127.5,227.5 C 121.359,228.636 115.026,229.303 108.5,229.5C 114.594,227.906 120.928,227.239 127.5,227.5 Z"/></g>
<g><path style="opacity:0.627" fill="#4c4c4c" d="M 11.5,228.5 C 11.0269,229.906 10.0269,230.573 8.5,230.5C 8.97306,229.094 9.97306,228.427 11.5,228.5 Z"/></g>
<g><path style="opacity:0.648" fill="#4a4949" d="M 107.5,229.5 C 98.8278,231.179 90.1612,232.179 81.5,232.5C 89.8985,230.368 98.5652,229.368 107.5,229.5 Z"/></g>
<g><path style="opacity:0.604" fill="#5d5d5c" d="M 8.5,230.5 C 7.73769,232.262 6.40435,233.262 4.5,233.5C 5.26231,231.738 6.59565,230.738 8.5,230.5 Z"/></g>
<g><path style="opacity:0.6" fill="#595959" d="M 4.5,233.5 C 3.92022,235.749 2.58689,237.415 0.5,238.5C 1.07978,236.251 2.41311,234.585 4.5,233.5 Z"/></g>
<g><path style="opacity:0.061" fill="#1e1e1e" d="M 16.5,240.5 C 15.0697,241.537 13.403,242.204 11.5,242.5C 12.6354,240.787 14.302,240.12 16.5,240.5 Z"/></g>
</svg>
