<?xml version="1.0" encoding="UTF-8"?>
<!DOCTYPE svg PUBLIC "-//W3C//DTD SVG 1.1//EN" "http://www.w3.org/Graphics/SVG/1.1/DTD/svg11.dtd">
<svg xmlns="http://www.w3.org/2000/svg" version="1.1" width="533px" height="248px" style="shape-rendering:geometricPrecision; text-rendering:geometricPrecision; image-rendering:optimizeQuality; fill-rule:evenodd; clip-rule:evenodd" xmlns:xlink="http://www.w3.org/1999/xlink">
<g><path style="opacity:0.924" fill="#000000" d="M 524.5,-0.5 C 526.833,-0.5 529.167,-0.5 531.5,-0.5C 531.328,0.491622 531.662,1.15829 532.5,1.5C 532.5,6.83333 532.5,12.1667 532.5,17.5C 528.505,62.3541 524.338,107.354 520,152.5C 519.171,172.189 519.504,191.856 521,211.5C 521.87,212.108 522.37,212.941 522.5,214C 521.444,218.332 520.111,222.499 518.5,226.5C 515.797,226.955 513.13,227.622 510.5,228.5C 508.893,228.363 507.559,227.696 506.5,226.5C 502.512,216.892 500.845,206.892 501.5,196.5C 501.762,195.022 501.429,193.689 500.5,192.5C 499.893,192.624 499.56,192.957 499.5,193.5C 497.058,195.226 494.391,196.726 491.5,198C 484.424,198.28 477.424,198.447 470.5,198.5C 464.186,193.353 458.019,188.02 452,182.5C 440.811,171.11 436.145,157.443 438,141.5C 443.376,104.292 464.876,85.2924 502.5,84.5C 506.705,57.3072 511.872,30.3072 518,3.5C 519.748,1.3721 521.915,0.038767 524.5,-0.5 Z M 484.5,105.5 C 489.511,105.334 494.511,105.501 499.5,106C 500.081,106.893 500.415,107.893 500.5,109C 499.823,117.845 498.989,126.679 498,135.5C 497.955,149.521 497.788,163.521 497.5,177.5C 496.008,179.166 494.175,180.166 492,180.5C 467.097,178.736 456.43,165.403 460,140.5C 463.151,130.36 467.818,121.027 474,112.5C 476.998,109.262 480.498,106.929 484.5,105.5 Z"/></g>
<g><path style="opacity:0.907" fill="#000000" d="M 4.5,247.5 C 2.83333,247.5 1.16667,247.5 -0.5,247.5C -0.5,244.5 -0.5,241.5 -0.5,238.5C 5.86068,230.312 14.194,225.145 24.5,223C 64.413,213.605 104.746,207.272 145.5,204C 158.537,201.065 170.37,195.565 181,187.5C 182.373,185.305 182.706,182.971 182,180.5C 179.588,176.084 176.422,172.251 172.5,169C 155.935,159.082 138.935,150.082 121.5,142C 108.453,137.318 95.1196,133.651 81.5,131C 76.5426,129.262 71.7093,127.429 67,125.5C 63.1492,117.007 63.9826,109.007 69.5,101.5C 87.0627,90.6386 106.229,83.9719 127,81.5C 132.447,83.4726 137.947,85.3059 143.5,87C 149.322,93.8705 147.989,98.8705 139.5,102C 126.653,99.2348 113.986,100.235 101.5,105C 96.8022,107.349 92.1356,109.682 87.5,112C 101.009,118.216 115.009,123.216 129.5,127C 145.945,135.701 162.945,143.034 180.5,149C 206.176,167.711 207.842,188.377 185.5,211C 179.5,214.333 173.5,217.667 167.5,221C 165.432,221.687 163.432,221.52 161.5,220.5C 150.277,223.486 138.943,225.986 127.5,228C 93.3472,231.169 59.0139,234.836 24.5,239C 16.9425,240.01 10.2758,242.844 4.5,247.5 Z"/></g>
<g><path style="opacity:0.905" fill="#000000" d="M 380.5,90.5 C 386.89,90.3984 391.723,93.065 395,98.5C 397.573,109.048 399.406,119.715 400.5,130.5C 399.146,147.319 398.146,164.153 397.5,181C 398.553,192.26 400.22,203.427 402.5,214.5C 402.384,216.552 401.384,217.885 399.5,218.5C 395.309,218.234 391.809,216.567 389,213.5C 387.804,207.049 386.137,200.716 384,194.5C 382.751,179.545 382.084,164.545 382,149.5C 380.059,136.914 379.059,124.247 379,111.5C 378.586,111.043 378.086,110.709 377.5,110.5C 373.531,114.428 370.031,118.761 367,123.5C 355.987,144.532 347.32,166.532 341,189.5C 339.723,194.841 339.389,200.174 340,205.5C 335.112,215.623 329.612,216.123 323.5,207C 324.116,205.6 324.449,204.1 324.5,202.5C 321.84,169.103 319.007,135.77 316,102.5C 319.417,97.2535 323.75,96.2535 329,99.5C 333.489,116.947 336.823,134.614 339,152.5C 343.875,135.532 350.875,119.532 360,104.5C 365.141,97.1655 371.975,92.4989 380.5,90.5 Z"/></g>
<g><path style="opacity:0.915" fill="#000000" d="M 247.5,113.5 C 252.566,113.34 257.566,113.84 262.5,115C 267.367,117.265 272.367,119.265 277.5,121C 285.681,129.736 285.347,137.902 276.5,145.5C 267.062,151.053 257.062,155.22 246.5,158C 240.828,158.803 235.161,159.637 229.5,160.5C 228.806,165.319 228.14,170.152 227.5,175C 229.658,180.133 231.825,185.299 234,190.5C 241.615,199.3 249.782,199.8 258.5,192C 263.5,186.333 268.5,180.667 273.5,175C 276.659,173.439 279.826,173.272 283,174.5C 284.914,176.748 286.414,179.248 287.5,182C 282.377,191.748 276.377,200.915 269.5,209.5C 263.727,214.801 256.894,217.801 249,218.5C 240.553,216.794 232.386,214.294 224.5,211C 222.694,209.194 220.86,207.36 219,205.5C 202.362,174.302 206.862,146.468 232.5,122C 237.27,118.619 242.27,115.786 247.5,113.5 Z M 251.5,127.5 C 256.248,127.275 260.915,127.775 265.5,129C 257.052,132.375 248.386,134.709 239.5,136C 243.147,132.497 247.147,129.663 251.5,127.5 Z"/></g>
<g><path style="opacity:0.075" fill="#515155" d="M 499.5,193.5 C 499.56,192.957 499.893,192.624 500.5,192.5C 501.429,193.689 501.762,195.022 501.5,196.5C 500.833,195.5 500.167,194.5 499.5,193.5 Z"/></g>
</svg>
